<?xml version="1.0" encoding="utf-8"?>
<!-- Generator: Adobe Illustrator 20.1.0, SVG Export Plug-In . SVG Version: 6.00 Build 0)  -->
<svg version="1.1" id="Calque_1" xmlns="http://www.w3.org/2000/svg" xmlns:xlink="http://www.w3.org/1999/xlink" x="0px" y="0px"
	 viewBox="0 0 1190.6 841.9" style="enable-background:new 0 0 1190.6 841.9;" xml:space="preserve">
<style type="text/css">
	.st0{fill:none;stroke:#FF0000;stroke-width:1.000000e-02;stroke-miterlimit:10;}
	.st1{fill:none;stroke:#FF0000;stroke-width:0.1;stroke-miterlimit:10;}
	.st2{fill:none;stroke:#000000;stroke-miterlimit:10;}
	.st3{font-family:'MyriadPro-Regular';}
	.st4{font-size:26.1532px;}
</style>
<title>Afficheur-Led</title>
<path class="st0" d="M924.6,529.4c0,2.3-1.9,4.3-4.3,4.3s-4.3-1.9-4.3-4.3s1.9-4.3,4.3-4.3S924.6,527.1,924.6,529.4z M924.3,500.8
	c0,2.3-1.9,4.3-4.3,4.3c-2.3,0-4.3-1.9-4.3-4.3s1.9-4.3,4.3-4.3C922.4,496.5,924.3,498.4,924.3,500.8z M947.9,589.9h-62.4v-18.1
	c0.2,0,0.3,0,0.5,0h2.8c10,0.2,16.6-5.1,16.6-21.8v-75.8c0,0,28.3,0,28.3,0v-34.8V299.2v-27.9h-5V287c0,0,1.1,3.2,1.1,6.5
	s-1.1,5.7-1.1,5.7h-1.4h-22V199.1c0-17.7-8.2-21.8-16.6-21.8h-2.8c-0.2,0-0.3,0-0.5,0v-18.1h19.8v0h105.2v18.1c-0.3,0-0.6,0-0.8,0
	h-4.7c-17.7,0-32.2,14.5-32.2,32.2v330.2c0,17.7,14.5,32.2,32.2,32.2h4.7c0.3,0,0.6,0,0.8,0v18.1H905.4"/>
<path class="st1" d="M929.6,311.1c-25,0.2-33.6,8.3-33.6,34.4c0,26.3,5.3,32.7,5.3,64.7h5V426c0,0-1.4,2.7-1.4,6.2s1.4,5.8,1.4,5.8
	h23.4V311.1z M910.4,335.1c0-2.3,1.9-4.3,4.3-4.3c2.3,0,4.3,1.9,4.3,4.3s-1.9,4.3-4.3,4.3C912.3,339.3,910.4,337.4,910.4,335.1z
	 M910.7,363.7c0-2.3,1.9-4.3,4.3-4.3c2.3,0,4.3,1.9,4.3,4.3s-1.9,4.3-4.3,4.3C912.6,368,910.7,366.1,910.7,363.7z"/>
<g>
	<path class="st2" d="M90.1,292.5H55.5c-6.6,0-12-5.4-12-12v-73.6c0-6.6,5.4-12,12-12h34.6c6.6,0,12,5.4,12,12v73.6
		C102.1,287.1,96.7,292.5,90.1,292.5z"/>
	<path d="M43.5,243.7v36.6c0,6.7,5.5,12.2,12.2,12.2h34.2c6.7,0,12.2-5.5,12.2-12.2v-36.6H43.5z"/>
	<text transform="matrix(1 0 0 1 57.9062 224.2112)" class="st3 st4">6A</text>
	<circle class="st1" cx="72.8" cy="243.7" r="8.5"/>
	<circle class="st1" cx="72.8" cy="292.5" r="6.8"/>
	<path class="st2" d="M168.1,292.5h-34.6c-6.6,0-12-5.4-12-12v-73.6c0-6.6,5.4-12,12-12h34.6c6.6,0,12,5.4,12,12v73.6
		C180.1,287.1,174.7,292.5,168.1,292.5z"/>
	<path d="M121.5,243.7v36.6c0,6.7,5.5,12.2,12.2,12.2h34.2c6.7,0,12.2-5.5,12.2-12.2v-36.6H121.5z"/>
	<text transform="matrix(1 0 0 1 135.9062 224.2112)" class="st3 st4">6B</text>
	<circle class="st1" cx="150.8" cy="243.7" r="8.5"/>
	<circle class="st1" cx="150.8" cy="292.5" r="6.8"/>
	<path class="st2" d="M246.1,292.5h-34.6c-6.6,0-12-5.4-12-12v-73.6c0-6.6,5.4-12,12-12h34.6c6.6,0,12,5.4,12,12v73.6
		C258.1,287.1,252.7,292.5,246.1,292.5z"/>
	<path d="M199.5,243.7v36.6c0,6.7,5.5,12.2,12.2,12.2h34.2c6.7,0,12.2-5.5,12.2-12.2v-36.6H199.5z"/>
	<text transform="matrix(1 0 0 1 213.9062 224.2112)" class="st3 st4">6C</text>
	<circle class="st1" cx="228.8" cy="243.7" r="8.5"/>
	<circle class="st1" cx="228.8" cy="292.5" r="6.8"/>
	<path class="st2" d="M324.1,292.5h-34.6c-6.6,0-12-5.4-12-12v-73.6c0-6.6,5.4-12,12-12h34.6c6.6,0,12,5.4,12,12v73.6
		C336.1,287.1,330.7,292.5,324.1,292.5z"/>
	<path d="M277.5,243.7v36.6c0,6.7,5.5,12.2,12.2,12.2h34.2c6.7,0,12.2-5.5,12.2-12.2v-36.6H277.5z"/>
	<text transform="matrix(1 0 0 1 291.9062 224.2112)" class="st3 st4">6D</text>
	<circle class="st1" cx="306.8" cy="243.7" r="8.5"/>
	<circle class="st1" cx="306.8" cy="292.5" r="6.8"/>
	<path class="st2" d="M402.1,292.5h-34.6c-6.6,0-12-5.4-12-12v-73.6c0-6.6,5.4-12,12-12h34.6c6.6,0,12,5.4,12,12v73.6
		C414.1,287.1,408.7,292.5,402.1,292.5z"/>
	<path d="M355.5,243.7v36.6c0,6.7,5.5,12.2,12.2,12.2h34.2c6.7,0,12.2-5.5,12.2-12.2v-36.6H355.5z"/>
	<text transform="matrix(1 0 0 1 369.9062 224.2112)" class="st3 st4">6E</text>
	<circle class="st1" cx="384.8" cy="243.7" r="8.5"/>
	<circle class="st1" cx="384.8" cy="292.5" r="6.8"/>
	<path class="st2" d="M90.1,435.5H55.5c-6.6,0-12-5.4-12-12v-73.6c0-6.6,5.4-12,12-12h34.6c6.6,0,12,5.4,12,12v73.6
		C102.1,430.1,96.7,435.5,90.1,435.5z"/>
	<path d="M43.5,386.7v36.6c0,6.7,5.5,12.2,12.2,12.2h34.2c6.7,0,12.2-5.5,12.2-12.2v-36.6H43.5z"/>
	<text transform="matrix(1 0 0 1 57.9062 367.2122)" class="st3 st4">5A</text>
	<circle class="st1" cx="72.8" cy="386.7" r="8.5"/>
	<circle class="st1" cx="72.8" cy="435.5" r="6.8"/>
	<path class="st2" d="M168.1,435.5h-34.6c-6.6,0-12-5.4-12-12v-73.6c0-6.6,5.4-12,12-12h34.6c6.6,0,12,5.4,12,12v73.6
		C180.1,430.1,174.7,435.5,168.1,435.5z"/>
	<path d="M121.5,386.7v36.6c0,6.7,5.5,12.2,12.2,12.2h34.2c6.7,0,12.2-5.5,12.2-12.2v-36.6H121.5z"/>
	<text transform="matrix(1 0 0 1 135.9062 367.2122)" class="st3 st4">5B</text>
	<circle class="st1" cx="150.8" cy="386.7" r="8.5"/>
	<circle class="st1" cx="150.8" cy="435.5" r="6.8"/>
	<path class="st2" d="M246.1,435.5h-34.6c-6.6,0-12-5.4-12-12v-73.6c0-6.6,5.4-12,12-12h34.6c6.6,0,12,5.4,12,12v73.6
		C258.1,430.1,252.7,435.5,246.1,435.5z"/>
	<path d="M199.5,386.7v36.6c0,6.7,5.5,12.2,12.2,12.2h34.2c6.7,0,12.2-5.5,12.2-12.2v-36.6H199.5z"/>
	<text transform="matrix(1 0 0 1 213.9062 367.2122)" class="st3 st4">5C</text>
	<circle class="st1" cx="228.8" cy="386.7" r="8.5"/>
	<circle class="st1" cx="228.8" cy="435.5" r="6.8"/>
	<path class="st2" d="M324.1,435.5h-34.6c-6.6,0-12-5.4-12-12v-73.6c0-6.6,5.4-12,12-12h34.6c6.6,0,12,5.4,12,12v73.6
		C336.1,430.1,330.7,435.5,324.1,435.5z"/>
	<path d="M277.5,386.7v36.6c0,6.7,5.5,12.2,12.2,12.2h34.2c6.7,0,12.2-5.5,12.2-12.2v-36.6H277.5z"/>
	<text transform="matrix(1 0 0 1 291.9062 367.2122)" class="st3 st4">5D</text>
	<circle class="st1" cx="306.8" cy="386.7" r="8.5"/>
	<circle class="st1" cx="306.8" cy="435.5" r="6.8"/>
	<path class="st2" d="M402.1,435.5h-34.6c-6.6,0-12-5.4-12-12v-73.6c0-6.6,5.4-12,12-12h34.6c6.6,0,12,5.4,12,12v73.6
		C414.1,430.1,408.7,435.5,402.1,435.5z"/>
	<path d="M355.5,386.7v36.6c0,6.7,5.5,12.2,12.2,12.2h34.2c6.7,0,12.2-5.5,12.2-12.2v-36.6H355.5z"/>
	<text transform="matrix(1 0 0 1 369.9062 367.2122)" class="st3 st4">5E</text>
	<circle class="st1" cx="384.8" cy="386.7" r="8.5"/>
	<circle class="st1" cx="384.8" cy="435.5" r="6.8"/>
	<path class="st2" d="M90.1,578.5H55.5c-6.6,0-12-5.4-12-12v-73.6c0-6.6,5.4-12,12-12h34.6c6.6,0,12,5.4,12,12v73.6
		C102.1,573.1,96.7,578.5,90.1,578.5z"/>
	<path d="M43.5,529.7v36.6c0,6.7,5.5,12.2,12.2,12.2h34.2c6.7,0,12.2-5.5,12.2-12.2v-36.6H43.5z"/>
	<text transform="matrix(1 0 0 1 57.9062 510.2127)" class="st3 st4">4A</text>
	<circle class="st1" cx="72.8" cy="529.7" r="8.5"/>
	<circle class="st1" cx="72.8" cy="578.5" r="6.8"/>
	<path class="st2" d="M168.1,578.5h-34.6c-6.6,0-12-5.4-12-12v-73.6c0-6.6,5.4-12,12-12h34.6c6.6,0,12,5.4,12,12v73.6
		C180.1,573.1,174.7,578.5,168.1,578.5z"/>
	<path d="M121.5,529.7v36.6c0,6.7,5.5,12.2,12.2,12.2h34.2c6.7,0,12.2-5.5,12.2-12.2v-36.6H121.5z"/>
	<text transform="matrix(1 0 0 1 135.9062 510.2127)" class="st3 st4">4B</text>
	<circle class="st1" cx="150.8" cy="529.7" r="8.5"/>
	<circle class="st1" cx="150.8" cy="578.5" r="6.8"/>
	<path class="st2" d="M246.1,578.5h-34.6c-6.6,0-12-5.4-12-12v-73.6c0-6.6,5.4-12,12-12h34.6c6.6,0,12,5.4,12,12v73.6
		C258.1,573.1,252.7,578.5,246.1,578.5z"/>
	<path d="M199.5,529.7v36.6c0,6.7,5.5,12.2,12.2,12.2h34.2c6.7,0,12.2-5.5,12.2-12.2v-36.6H199.5z"/>
	<text transform="matrix(1 0 0 1 213.9062 510.2127)" class="st3 st4">4C</text>
	<circle class="st1" cx="228.8" cy="529.7" r="8.5"/>
	<circle class="st1" cx="228.8" cy="578.5" r="6.8"/>
	<path class="st2" d="M324.1,578.5h-34.6c-6.6,0-12-5.4-12-12v-73.6c0-6.6,5.4-12,12-12h34.6c6.6,0,12,5.4,12,12v73.6
		C336.1,573.1,330.7,578.5,324.1,578.5z"/>
	<path d="M277.5,529.7v36.6c0,6.7,5.5,12.2,12.2,12.2h34.2c6.7,0,12.2-5.5,12.2-12.2v-36.6H277.5z"/>
	<text transform="matrix(1 0 0 1 291.9062 510.2127)" class="st3 st4">4D</text>
	<circle class="st1" cx="306.8" cy="529.7" r="8.5"/>
	<circle class="st1" cx="306.8" cy="578.5" r="6.8"/>
	<path class="st2" d="M402.1,578.5h-34.6c-6.6,0-12-5.4-12-12v-73.6c0-6.6,5.4-12,12-12h34.6c6.6,0,12,5.4,12,12v73.6
		C414.1,573.1,408.7,578.5,402.1,578.5z"/>
	<path d="M355.5,529.7v36.6c0,6.7,5.5,12.2,12.2,12.2h34.2c6.7,0,12.2-5.5,12.2-12.2v-36.6H355.5z"/>
	<text transform="matrix(1 0 0 1 369.9062 510.2127)" class="st3 st4">4E</text>
	<circle class="st1" cx="384.8" cy="529.7" r="8.5"/>
	<circle class="st1" cx="384.8" cy="578.5" r="6.8"/>
	<path class="st2" d="M90.1,721.5H55.5c-6.6,0-12-5.4-12-12v-73.6c0-6.6,5.4-12,12-12h34.6c6.6,0,12,5.4,12,12v73.6
		C102.1,716.1,96.7,721.5,90.1,721.5z"/>
	<path d="M43.5,672.7v36.6c0,6.7,5.5,12.2,12.2,12.2h34.2c6.7,0,12.2-5.5,12.2-12.2v-36.6H43.5z"/>
	<text transform="matrix(1 0 0 1 57.9062 653.2132)" class="st3 st4">3A</text>
	<circle class="st1" cx="72.8" cy="672.7" r="8.5"/>
	<circle class="st1" cx="72.8" cy="721.5" r="6.8"/>
	<path class="st2" d="M168.1,721.5h-34.6c-6.6,0-12-5.4-12-12v-73.6c0-6.6,5.4-12,12-12h34.6c6.6,0,12,5.4,12,12v73.6
		C180.1,716.1,174.7,721.5,168.1,721.5z"/>
	<path d="M121.5,672.7v36.6c0,6.7,5.5,12.2,12.2,12.2h34.2c6.7,0,12.2-5.5,12.2-12.2v-36.6H121.5z"/>
	<text transform="matrix(1 0 0 1 135.9062 653.2132)" class="st3 st4">3B</text>
	<circle class="st1" cx="150.8" cy="672.7" r="8.5"/>
	<circle class="st1" cx="150.8" cy="721.5" r="6.8"/>
	<path class="st2" d="M246.1,721.5h-34.6c-6.6,0-12-5.4-12-12v-73.6c0-6.6,5.4-12,12-12h34.6c6.6,0,12,5.4,12,12v73.6
		C258.1,716.1,252.7,721.5,246.1,721.5z"/>
	<path d="M199.5,672.7v36.6c0,6.7,5.5,12.2,12.2,12.2h34.2c6.7,0,12.2-5.5,12.2-12.2v-36.6H199.5z"/>
	<text transform="matrix(1 0 0 1 213.9062 653.2132)" class="st3 st4">3C</text>
	<circle class="st1" cx="228.8" cy="672.7" r="8.5"/>
	<circle class="st1" cx="228.8" cy="721.5" r="6.8"/>
	<path class="st2" d="M324.1,721.5h-34.6c-6.6,0-12-5.4-12-12v-73.6c0-6.6,5.4-12,12-12h34.6c6.6,0,12,5.4,12,12v73.6
		C336.1,716.1,330.7,721.5,324.1,721.5z"/>
	<path d="M277.5,672.7v36.6c0,6.7,5.5,12.2,12.2,12.2h34.2c6.7,0,12.2-5.5,12.2-12.2v-36.6H277.5z"/>
	<text transform="matrix(1 0 0 1 291.9062 653.2132)" class="st3 st4">3D</text>
	<circle class="st1" cx="306.8" cy="672.7" r="8.5"/>
	<circle class="st1" cx="306.8" cy="721.5" r="6.8"/>
	<path class="st2" d="M402.1,721.5h-34.6c-6.6,0-12-5.4-12-12v-73.6c0-6.6,5.4-12,12-12h34.6c6.6,0,12,5.4,12,12v73.6
		C414.1,716.1,408.7,721.5,402.1,721.5z"/>
	<path d="M355.5,672.7v36.6c0,6.7,5.5,12.2,12.2,12.2h34.2c6.7,0,12.2-5.5,12.2-12.2v-36.6H355.5z"/>
	<text transform="matrix(1 0 0 1 369.6704 653.7132)" class="st3 st4">3E</text>
	<circle class="st1" cx="384.8" cy="672.7" r="8.5"/>
	<circle class="st1" cx="384.8" cy="721.5" r="6.8"/>
</g>
<g>
	<path class="st1" d="M831.1,654.3H504.9c-9.4,0-17-7.7-17-17v-371c0-9.4,7.7-17,17-17h326.2c9.4,0,17,7.7,17,17v371
		C848.1,646.6,840.5,654.3,831.1,654.3z"/>
	<path class="st1" d="M555.6,204.5v-24.2c0-3-2.5-5.5-5.5-5.5h0c-3,0-5.5,2.5-5.5,5.5v24.2c-3.3,1.9-5.5,5.5-5.5,9.6
		c0,6.1,5,11.1,11.1,11.1c6.1,0,11.1-5,11.1-11.1C561.1,210,558.9,206.4,555.6,204.5z"/>
	<path class="st1" d="M779.9,204.5v-24.2c0-3-2.5-5.5-5.5-5.5h0c-3,0-5.5,2.5-5.5,5.5v24.2c-3.3,1.9-5.5,5.5-5.5,9.6
		c0,6.1,5,11.1,11.1,11.1c6.1,0,11.1-5,11.1-11.1C785.4,210,783.2,206.4,779.9,204.5z"/>
	<path class="st1" d="M670.4,719.8v-24.2c0-3-2.5-5.5-5.5-5.5h0c-3,0-5.5,2.5-5.5,5.5v24.2c-3.3,1.9-5.5,5.5-5.5,9.6
		c0,6.1,5,11.1,11.1,11.1c6.1,0,11.1-5,11.1-11.1C675.9,725.2,673.7,721.7,670.4,719.8z"/>
</g>
<g>
	<line class="st1" x1="292.7" y1="10.5" x2="292.7" y2="19.5"/>
	<line class="st1" x1="292.7" y1="26.3" x2="292.7" y2="52.6"/>
	<line class="st1" x1="292.7" y1="59.4" x2="292.7" y2="85.7"/>
	<line class="st1" x1="292.7" y1="92.5" x2="292.7" y2="118"/>
	<line class="st1" x1="296.2" y1="10.5" x2="296.2" y2="36.1"/>
	<line class="st1" x1="296.2" y1="42.8" x2="296.2" y2="69.2"/>
	<line class="st1" x1="296.2" y1="75.9" x2="296.2" y2="102.3"/>
	<line class="st1" x1="289.2" y1="36.1" x2="289.2" y2="10.5"/>
	<line class="st1" x1="289.2" y1="69.2" x2="289.2" y2="42.8"/>
	<line class="st1" x1="289.2" y1="102.3" x2="289.2" y2="75.9"/>
	<line class="st1" x1="338" y1="10.5" x2="338" y2="36.1"/>
	<line class="st1" x1="338" y1="42.8" x2="338" y2="69.2"/>
	<line class="st1" x1="338" y1="75.9" x2="338" y2="102.3"/>
	<line class="st1" x1="303.2" y1="10.5" x2="303.2" y2="36.1"/>
	<line class="st1" x1="303.2" y1="42.8" x2="303.2" y2="69.2"/>
	<line class="st1" x1="303.2" y1="75.9" x2="303.2" y2="102.3"/>
	<line class="st1" x1="299.7" y1="10.5" x2="299.7" y2="19.5"/>
	<line class="st1" x1="299.7" y1="26.3" x2="299.7" y2="52.6"/>
	<line class="st1" x1="299.7" y1="59.4" x2="299.7" y2="85.7"/>
	<line class="st1" x1="299.7" y1="92.5" x2="299.7" y2="118"/>
	<line class="st1" x1="306.7" y1="10.5" x2="306.7" y2="19.5"/>
	<line class="st1" x1="306.7" y1="26.3" x2="306.7" y2="52.6"/>
	<line class="st1" x1="306.7" y1="59.4" x2="306.7" y2="85.7"/>
	<line class="st1" x1="306.7" y1="92.5" x2="306.7" y2="118"/>
	<line class="st1" x1="310.2" y1="10.5" x2="310.2" y2="36.1"/>
	<line class="st1" x1="310.2" y1="42.8" x2="310.2" y2="69.2"/>
	<line class="st1" x1="310.2" y1="75.9" x2="310.2" y2="102.3"/>
	<line class="st1" x1="317.2" y1="10.5" x2="317.2" y2="36.1"/>
	<line class="st1" x1="317.2" y1="42.8" x2="317.2" y2="69.2"/>
	<line class="st1" x1="317.2" y1="75.9" x2="317.2" y2="102.3"/>
	<line class="st1" x1="313.7" y1="10.5" x2="313.7" y2="19.5"/>
	<line class="st1" x1="313.7" y1="26.3" x2="313.7" y2="52.6"/>
	<line class="st1" x1="313.7" y1="59.4" x2="313.7" y2="85.7"/>
	<line class="st1" x1="313.7" y1="92.5" x2="313.7" y2="118"/>
	<line class="st1" x1="320.7" y1="10.5" x2="320.7" y2="19.5"/>
	<line class="st1" x1="320.7" y1="26.3" x2="320.7" y2="52.6"/>
	<line class="st1" x1="320.7" y1="59.4" x2="320.7" y2="85.7"/>
	<line class="st1" x1="320.7" y1="92.5" x2="320.7" y2="118"/>
	<line class="st1" x1="324.2" y1="10.5" x2="324.2" y2="36.1"/>
	<line class="st1" x1="324.2" y1="42.8" x2="324.2" y2="69.2"/>
	<line class="st1" x1="324.2" y1="75.9" x2="324.2" y2="102.3"/>
	<line class="st1" x1="331.2" y1="10.5" x2="331.2" y2="36.1"/>
	<line class="st1" x1="331.2" y1="42.8" x2="331.2" y2="69.2"/>
	<line class="st1" x1="331.2" y1="75.9" x2="331.2" y2="102.3"/>
	<line class="st1" x1="327.7" y1="10.5" x2="327.7" y2="19.5"/>
	<line class="st1" x1="327.7" y1="26.3" x2="327.7" y2="52.6"/>
	<line class="st1" x1="327.7" y1="59.4" x2="327.7" y2="85.7"/>
	<line class="st1" x1="327.7" y1="92.5" x2="327.7" y2="118"/>
	<line class="st1" x1="334.7" y1="10.5" x2="334.7" y2="19.5"/>
	<line class="st1" x1="334.7" y1="26.3" x2="334.7" y2="52.6"/>
	<line class="st1" x1="334.7" y1="59.4" x2="334.7" y2="85.7"/>
	<line class="st1" x1="334.7" y1="92.5" x2="334.7" y2="118"/>
	<line class="st1" x1="292.7" y1="151.7" x2="292.7" y2="125.6"/>
	<line class="st1" x1="292.7" y1="151.9" x2="292.7" y2="151.7"/>
	<line class="st1" x1="296.2" y1="109" x2="296.2" y2="135.4"/>
	<line class="st1" x1="296.2" y1="151.7" x2="296.2" y2="142.1"/>
	<line class="st1" x1="296.2" y1="151.7" x2="296.2" y2="151.9"/>
	<line class="st1" x1="289.2" y1="135.4" x2="289.2" y2="109"/>
	<line class="st1" x1="289.2" y1="151.7" x2="289.2" y2="151.9"/>
	<line class="st1" x1="289.2" y1="151.7" x2="289.2" y2="142.1"/>
	<line class="st1" x1="338" y1="109" x2="338" y2="135.4"/>
	<line class="st1" x1="338" y1="151.7" x2="338" y2="142.1"/>
	<line class="st1" x1="338" y1="151.7" x2="338" y2="151.9"/>
	<line class="st1" x1="303.2" y1="109" x2="303.2" y2="135.4"/>
	<line class="st1" x1="303.2" y1="151.7" x2="303.2" y2="151.9"/>
	<line class="st1" x1="303.2" y1="151.7" x2="303.2" y2="142.1"/>
	<line class="st1" x1="299.7" y1="151.7" x2="299.7" y2="125.6"/>
	<line class="st1" x1="299.7" y1="151.7" x2="299.7" y2="151.9"/>
	<line class="st1" x1="306.7" y1="151.7" x2="306.7" y2="125.6"/>
	<line class="st1" x1="306.7" y1="151.7" x2="306.7" y2="151.9"/>
	<line class="st1" x1="310.2" y1="109" x2="310.2" y2="135.4"/>
	<line class="st1" x1="310.2" y1="151.7" x2="310.2" y2="151.9"/>
	<line class="st1" x1="310.2" y1="151.7" x2="310.2" y2="142.1"/>
	<line class="st1" x1="317.2" y1="109" x2="317.2" y2="135.4"/>
	<line class="st1" x1="317.2" y1="151.7" x2="317.2" y2="142.1"/>
	<line class="st1" x1="317.2" y1="151.7" x2="317.2" y2="151.9"/>
	<line class="st1" x1="313.7" y1="151.7" x2="313.7" y2="151.9"/>
	<line class="st1" x1="313.7" y1="151.7" x2="313.7" y2="125.6"/>
	<line class="st1" x1="320.7" y1="151.7" x2="320.7" y2="125.6"/>
	<line class="st1" x1="320.7" y1="151.7" x2="320.7" y2="151.9"/>
	<line class="st1" x1="324.2" y1="109" x2="324.2" y2="135.4"/>
	<line class="st1" x1="324.2" y1="151.7" x2="324.2" y2="151.9"/>
	<line class="st1" x1="324.2" y1="151.7" x2="324.2" y2="142.1"/>
	<line class="st1" x1="331.2" y1="109" x2="331.2" y2="135.4"/>
	<line class="st1" x1="331.2" y1="151.7" x2="331.2" y2="151.9"/>
	<line class="st1" x1="331.2" y1="151.7" x2="331.2" y2="142.1"/>
	<line class="st1" x1="327.7" y1="151.7" x2="327.7" y2="151.9"/>
	<line class="st1" x1="327.7" y1="151.7" x2="327.7" y2="125.6"/>
	<line class="st1" x1="334.7" y1="151.7" x2="334.7" y2="151.9"/>
	<line class="st1" x1="334.7" y1="151.7" x2="334.7" y2="125.6"/>
	<line class="st1" x1="665.9" y1="10.5" x2="665.9" y2="19.5"/>
	<line class="st1" x1="665.9" y1="26.3" x2="665.9" y2="52.6"/>
	<line class="st1" x1="665.9" y1="59.4" x2="665.9" y2="85.7"/>
	<line class="st1" x1="665.9" y1="92.5" x2="665.9" y2="118"/>
	<line class="st1" x1="669.4" y1="10.5" x2="669.4" y2="36.1"/>
	<line class="st1" x1="669.4" y1="42.8" x2="669.4" y2="69.2"/>
	<line class="st1" x1="669.4" y1="75.9" x2="669.4" y2="102.3"/>
	<line class="st1" x1="662.4" y1="36.1" x2="662.4" y2="10.5"/>
	<line class="st1" x1="662.4" y1="69.2" x2="662.4" y2="42.8"/>
	<line class="st1" x1="662.4" y1="102.3" x2="662.4" y2="75.9"/>
	<line class="st1" x1="711.2" y1="10.5" x2="711.2" y2="36.1"/>
	<line class="st1" x1="711.2" y1="42.8" x2="711.2" y2="69.2"/>
	<line class="st1" x1="711.2" y1="75.9" x2="711.2" y2="102.3"/>
	<line class="st1" x1="676.4" y1="10.5" x2="676.4" y2="36.1"/>
	<line class="st1" x1="676.4" y1="42.8" x2="676.4" y2="69.2"/>
	<line class="st1" x1="676.4" y1="75.9" x2="676.4" y2="102.3"/>
	<line class="st1" x1="672.9" y1="10.5" x2="672.9" y2="19.5"/>
	<line class="st1" x1="672.9" y1="26.3" x2="672.9" y2="52.6"/>
	<line class="st1" x1="672.9" y1="59.4" x2="672.9" y2="85.7"/>
	<line class="st1" x1="672.9" y1="92.5" x2="672.9" y2="118"/>
	<line class="st1" x1="679.9" y1="10.5" x2="679.9" y2="19.5"/>
	<line class="st1" x1="679.9" y1="26.3" x2="679.9" y2="52.6"/>
	<line class="st1" x1="679.9" y1="59.4" x2="679.9" y2="85.7"/>
	<line class="st1" x1="679.9" y1="92.5" x2="679.9" y2="118"/>
	<line class="st1" x1="683.4" y1="10.5" x2="683.4" y2="36.1"/>
	<line class="st1" x1="683.4" y1="42.8" x2="683.4" y2="69.2"/>
	<line class="st1" x1="683.4" y1="75.9" x2="683.4" y2="102.3"/>
	<line class="st1" x1="690.4" y1="10.5" x2="690.4" y2="36.1"/>
	<line class="st1" x1="690.4" y1="42.8" x2="690.4" y2="69.2"/>
	<line class="st1" x1="690.4" y1="75.9" x2="690.4" y2="102.3"/>
	<line class="st1" x1="686.9" y1="10.5" x2="686.9" y2="19.5"/>
	<line class="st1" x1="686.9" y1="26.3" x2="686.9" y2="52.6"/>
	<line class="st1" x1="686.9" y1="59.4" x2="686.9" y2="85.7"/>
	<line class="st1" x1="686.9" y1="92.5" x2="686.9" y2="118"/>
	<line class="st1" x1="693.9" y1="10.5" x2="693.9" y2="19.5"/>
	<line class="st1" x1="693.9" y1="26.3" x2="693.9" y2="52.6"/>
	<line class="st1" x1="693.9" y1="59.4" x2="693.9" y2="85.7"/>
	<line class="st1" x1="693.9" y1="92.5" x2="693.9" y2="118"/>
	<line class="st1" x1="697.4" y1="10.5" x2="697.4" y2="36.1"/>
	<line class="st1" x1="697.4" y1="42.8" x2="697.4" y2="69.2"/>
	<line class="st1" x1="697.4" y1="75.9" x2="697.4" y2="102.3"/>
	<line class="st1" x1="704.4" y1="10.5" x2="704.4" y2="36.1"/>
	<line class="st1" x1="704.4" y1="42.8" x2="704.4" y2="69.2"/>
	<line class="st1" x1="704.4" y1="75.9" x2="704.4" y2="102.3"/>
	<line class="st1" x1="700.9" y1="10.5" x2="700.9" y2="19.5"/>
	<line class="st1" x1="700.9" y1="26.3" x2="700.9" y2="52.6"/>
	<line class="st1" x1="700.9" y1="59.4" x2="700.9" y2="85.7"/>
	<line class="st1" x1="700.9" y1="92.5" x2="700.9" y2="118"/>
	<line class="st1" x1="707.9" y1="10.5" x2="707.9" y2="19.5"/>
	<line class="st1" x1="707.9" y1="26.3" x2="707.9" y2="52.6"/>
	<line class="st1" x1="707.9" y1="59.4" x2="707.9" y2="85.7"/>
	<line class="st1" x1="707.9" y1="92.5" x2="707.9" y2="118"/>
	<line class="st1" x1="665.9" y1="151.7" x2="665.9" y2="125.6"/>
	<line class="st1" x1="665.9" y1="151.7" x2="665.9" y2="151.9"/>
	<line class="st1" x1="669.4" y1="109" x2="669.4" y2="135.4"/>
	<line class="st1" x1="669.4" y1="151.7" x2="669.4" y2="151.9"/>
	<line class="st1" x1="669.4" y1="151.7" x2="669.4" y2="142.1"/>
	<line class="st1" x1="662.4" y1="135.4" x2="662.4" y2="109"/>
	<line class="st1" x1="662.4" y1="151.7" x2="662.4" y2="142.1"/>
	<line class="st1" x1="662.4" y1="151.9" x2="662.4" y2="151.7"/>
	<line class="st1" x1="711.2" y1="109" x2="711.2" y2="135.4"/>
	<line class="st1" x1="711.2" y1="151.7" x2="711.2" y2="151.9"/>
	<line class="st1" x1="711.2" y1="151.7" x2="711.2" y2="142.1"/>
	<line class="st1" x1="676.4" y1="109" x2="676.4" y2="135.4"/>
	<line class="st1" x1="676.4" y1="151.7" x2="676.4" y2="151.9"/>
	<line class="st1" x1="676.4" y1="151.7" x2="676.4" y2="142.1"/>
	<line class="st1" x1="672.9" y1="151.7" x2="672.9" y2="151.9"/>
	<line class="st1" x1="672.9" y1="151.7" x2="672.9" y2="125.6"/>
	<line class="st1" x1="679.9" y1="151.7" x2="679.9" y2="125.6"/>
	<line class="st1" x1="679.9" y1="151.7" x2="679.9" y2="151.9"/>
	<line class="st1" x1="683.4" y1="109" x2="683.4" y2="135.4"/>
	<line class="st1" x1="683.4" y1="151.7" x2="683.4" y2="142.1"/>
	<line class="st1" x1="683.4" y1="151.7" x2="683.4" y2="151.9"/>
	<line class="st1" x1="690.4" y1="109" x2="690.4" y2="135.4"/>
	<line class="st1" x1="690.4" y1="151.7" x2="690.4" y2="142.1"/>
	<line class="st1" x1="690.4" y1="151.7" x2="690.4" y2="151.9"/>
	<line class="st1" x1="686.9" y1="151.7" x2="686.9" y2="125.6"/>
	<line class="st1" x1="686.9" y1="151.7" x2="686.9" y2="151.9"/>
	<line class="st1" x1="693.9" y1="151.7" x2="693.9" y2="125.6"/>
	<line class="st1" x1="693.9" y1="151.7" x2="693.9" y2="151.9"/>
	<line class="st1" x1="697.4" y1="109" x2="697.4" y2="135.4"/>
	<line class="st1" x1="697.4" y1="151.7" x2="697.4" y2="142.1"/>
	<line class="st1" x1="697.4" y1="151.7" x2="697.4" y2="151.9"/>
	<line class="st1" x1="704.4" y1="109" x2="704.4" y2="135.4"/>
	<line class="st1" x1="704.4" y1="151.7" x2="704.4" y2="151.9"/>
	<line class="st1" x1="704.4" y1="151.7" x2="704.4" y2="142.1"/>
	<line class="st1" x1="700.9" y1="151.7" x2="700.9" y2="125.6"/>
	<line class="st1" x1="700.9" y1="151.7" x2="700.9" y2="151.9"/>
	<line class="st1" x1="707.9" y1="151.7" x2="707.9" y2="151.9"/>
	<line class="st1" x1="707.9" y1="151.7" x2="707.9" y2="125.6"/>
	<polyline class="st1" points="12.7,10.1 12.7,151.7 42.4,151.7 	"/>
	<line class="st1" x1="481.6" y1="151.7" x2="415.2" y2="151.7"/>
	<polyline class="st1" points="989.5,10.1 989.5,151.7 854.4,151.7 	"/>
	<line class="st1" x1="292.7" y1="10.1" x2="292.7" y2="10.3"/>
	<line class="st1" x1="296.2" y1="10.1" x2="296.2" y2="10.3"/>
	<line class="st1" x1="289.2" y1="10.1" x2="289.2" y2="10.3"/>
	<line class="st1" x1="338" y1="10.3" x2="338" y2="10.1"/>
	<line class="st1" x1="303.2" y1="10.1" x2="303.2" y2="10.3"/>
	<line class="st1" x1="299.7" y1="10.1" x2="299.7" y2="10.3"/>
	<line class="st1" x1="306.7" y1="10.1" x2="306.7" y2="10.3"/>
	<line class="st1" x1="310.2" y1="10.1" x2="310.2" y2="10.3"/>
	<line class="st1" x1="317.2" y1="10.1" x2="317.2" y2="10.3"/>
	<line class="st1" x1="313.7" y1="10.1" x2="313.7" y2="10.3"/>
	<line class="st1" x1="320.7" y1="10.1" x2="320.7" y2="10.3"/>
	<line class="st1" x1="324.2" y1="10.1" x2="324.2" y2="10.3"/>
	<line class="st1" x1="331.2" y1="10.1" x2="331.2" y2="10.3"/>
	<line class="st1" x1="327.7" y1="10.1" x2="327.7" y2="10.3"/>
	<line class="st1" x1="334.7" y1="10.1" x2="334.7" y2="10.3"/>
	<line class="st1" x1="665.9" y1="10.1" x2="665.9" y2="10.3"/>
	<line class="st1" x1="669.4" y1="10.1" x2="669.4" y2="10.3"/>
	<line class="st1" x1="662.4" y1="10.1" x2="662.4" y2="10.3"/>
	<line class="st1" x1="711.2" y1="10.3" x2="711.2" y2="10.1"/>
	<line class="st1" x1="676.4" y1="10.1" x2="676.4" y2="10.3"/>
	<line class="st1" x1="672.9" y1="10.1" x2="672.9" y2="10.3"/>
	<line class="st1" x1="679.9" y1="10.1" x2="679.9" y2="10.3"/>
	<line class="st1" x1="683.4" y1="10.1" x2="683.4" y2="10.3"/>
	<line class="st1" x1="690.4" y1="10.1" x2="690.4" y2="10.3"/>
	<line class="st1" x1="686.9" y1="10.1" x2="686.9" y2="10.3"/>
	<line class="st1" x1="693.9" y1="10.1" x2="693.9" y2="10.3"/>
	<line class="st1" x1="697.4" y1="10.1" x2="697.4" y2="10.3"/>
	<line class="st1" x1="704.4" y1="10.1" x2="704.4" y2="10.3"/>
	<line class="st1" x1="700.9" y1="10.1" x2="700.9" y2="10.3"/>
	<line class="st1" x1="707.9" y1="10.1" x2="707.9" y2="10.3"/>
	<line class="st1" x1="289.2" y1="10.1" x2="12.7" y2="10.1"/>
	<line class="st1" x1="317.2" y1="10.1" x2="320.7" y2="10.1"/>
	<line class="st1" x1="320.7" y1="10.1" x2="324.2" y2="10.1"/>
	<line class="st1" x1="327.7" y1="10.1" x2="331.2" y2="10.1"/>
	<polyline class="st1" points="331.2,10.1 332.8,10.1 334.7,10.1 	"/>
	<line class="st1" x1="324.2" y1="10.1" x2="327.7" y2="10.1"/>
	<line class="st1" x1="313.7" y1="10.1" x2="317.2" y2="10.1"/>
	<line class="st1" x1="334.7" y1="10.1" x2="338" y2="10.1"/>
	<polyline class="st1" points="292.7,10.1 293,10.1 296.2,10.1 	"/>
	<line class="st1" x1="289.2" y1="10.1" x2="292.7" y2="10.1"/>
	<line class="st1" x1="296.2" y1="10.1" x2="299.7" y2="10.1"/>
	<line class="st1" x1="306.7" y1="10.1" x2="310.2" y2="10.1"/>
	<line class="st1" x1="299.7" y1="10.1" x2="303.2" y2="10.1"/>
	<line class="st1" x1="310.2" y1="10.1" x2="313.7" y2="10.1"/>
	<line class="st1" x1="303.2" y1="10.1" x2="306.7" y2="10.1"/>
	<line class="st1" x1="672.9" y1="10.1" x2="676.4" y2="10.1"/>
	<line class="st1" x1="697.4" y1="10.1" x2="700.9" y2="10.1"/>
	<line class="st1" x1="700.9" y1="10.1" x2="704.4" y2="10.1"/>
	<line class="st1" x1="693.9" y1="10.1" x2="697.4" y2="10.1"/>
	<line class="st1" x1="690.4" y1="10.1" x2="693.9" y2="10.1"/>
	<line class="st1" x1="989.5" y1="10.1" x2="711.2" y2="10.1"/>
	<polyline class="st1" points="707.9,10.1 710.3,10.1 711.2,10.1 	"/>
	<line class="st1" x1="704.4" y1="10.1" x2="707.9" y2="10.1"/>
	<line class="st1" x1="676.4" y1="10.1" x2="679.9" y2="10.1"/>
	<line class="st1" x1="665.9" y1="10.1" x2="669.4" y2="10.1"/>
	<line class="st1" x1="669.4" y1="10.1" x2="672.9" y2="10.1"/>
	<polyline class="st1" points="662.4,10.1 665.7,10.1 665.9,10.1 	"/>
	<line class="st1" x1="683.4" y1="10.1" x2="686.9" y2="10.1"/>
	<line class="st1" x1="686.9" y1="10.1" x2="690.4" y2="10.1"/>
	<line class="st1" x1="679.9" y1="10.1" x2="683.4" y2="10.1"/>
	<line class="st1" x1="662.4" y1="10.1" x2="338" y2="10.1"/>
	<path class="st1" d="M415.2,151.7c15.6,0,28.3,12.8,28.3,28.3v558.4c0,15.6-12.8,28.3-28.3,28.3H42.4c-15.6,0-28.3-12.8-28.3-28.3
		V180.1c0-15.6,12.8-28.3,28.3-28.3"/>
	<line class="st1" x1="306.7" y1="151.7" x2="303.2" y2="151.7"/>
	<line class="st1" x1="310.2" y1="151.7" x2="306.7" y2="151.7"/>
	<line class="st1" x1="313.7" y1="151.7" x2="310.2" y2="151.7"/>
	<line class="st1" x1="317.2" y1="151.7" x2="313.7" y2="151.7"/>
	<line class="st1" x1="303.2" y1="151.7" x2="299.7" y2="151.7"/>
	<line class="st1" x1="289.2" y1="151.7" x2="42.4" y2="151.7"/>
	<line class="st1" x1="289.2" y1="151.7" x2="292.7" y2="151.7"/>
	<polyline class="st1" points="296.2,151.7 293,151.7 292.7,151.7 	"/>
	<line class="st1" x1="299.7" y1="151.7" x2="296.2" y2="151.7"/>
	<line class="st1" x1="338" y1="151.7" x2="334.7" y2="151.7"/>
	<polyline class="st1" points="334.7,151.7 332.8,151.7 331.2,151.7 	"/>
	<line class="st1" x1="338" y1="151.7" x2="415.2" y2="151.7"/>
	<line class="st1" x1="324.2" y1="151.7" x2="320.7" y2="151.7"/>
	<line class="st1" x1="320.7" y1="151.7" x2="317.2" y2="151.7"/>
	<line class="st1" x1="331.2" y1="151.7" x2="327.7" y2="151.7"/>
	<line class="st1" x1="327.7" y1="151.7" x2="324.2" y2="151.7"/>
	<path class="st1" d="M481.6,151.7c-15.6,0-28.3,12.8-28.3,28.3v558.4c0,15.6,12.8,28.3,28.3,28.3h372.8c15.6,0,28.3-12.8,28.3-28.3
		V180.1c0-15.6-12.8-28.3-28.3-28.3"/>
	<line class="st1" x1="683.4" y1="151.7" x2="679.9" y2="151.7"/>
	<line class="st1" x1="690.4" y1="151.7" x2="686.9" y2="151.7"/>
	<line class="st1" x1="679.9" y1="151.7" x2="676.4" y2="151.7"/>
	<line class="st1" x1="686.9" y1="151.7" x2="683.4" y2="151.7"/>
	<line class="st1" x1="693.9" y1="151.7" x2="690.4" y2="151.7"/>
	<line class="st1" x1="697.4" y1="151.7" x2="693.9" y2="151.7"/>
	<line class="st1" x1="704.4" y1="151.7" x2="700.9" y2="151.7"/>
	<line class="st1" x1="700.9" y1="151.7" x2="697.4" y2="151.7"/>
	<line class="st1" x1="676.4" y1="151.7" x2="672.9" y2="151.7"/>
	<line class="st1" x1="669.4" y1="151.7" x2="665.9" y2="151.7"/>
	<line class="st1" x1="481.6" y1="151.7" x2="662.4" y2="151.7"/>
	<polyline class="st1" points="665.9,151.7 665.7,151.7 662.4,151.7 	"/>
	<line class="st1" x1="672.9" y1="151.7" x2="669.4" y2="151.7"/>
	<polyline class="st1" points="711.2,151.7 710.3,151.7 707.9,151.7 	"/>
	<line class="st1" x1="711.2" y1="151.7" x2="854.4" y2="151.7"/>
	<line class="st1" x1="707.9" y1="151.7" x2="704.4" y2="151.7"/>
</g>
<circle class="st1" cx="464.8" cy="80.9" r="4.2"/>
<circle class="st1" cx="500.3" cy="80.9" r="11.3"/>
<circle class="st1" cx="535.7" cy="80.9" r="4.2"/>
</svg>
