<svg xmlns="http://www.w3.org/2000/svg" viewBox="0 0 1190.55 841.89"><title>Afficheur-Led</title><g id="Calque_24" data-name="Calque 24"><g id="Calque_29" data-name="Calque 29"><path d="M68.64,37.77V605.84H1123.88V37.77Zm946.51,71a6.68,6.68,0,0,1,4.91-2,6.39,6.39,0,0,1,4.82,2,6.63,6.63,0,0,1,1.91,4.73,6.85,6.85,0,0,1-1.91,4.91,6.38,6.38,0,0,1-4.82,2,6.84,6.84,0,0,1-6.91-6.92A6.47,6.47,0,0,1,1015.16,108.75Zm-99.7,80.08a6.69,6.69,0,0,1,2,4.91,6.47,6.47,0,0,1-2,4.73,6.68,6.68,0,0,1-4.91,2,6.84,6.84,0,0,1-6.73-6.73,6.68,6.68,0,0,1,2-4.91,6.47,6.47,0,0,1,4.73-2A6.69,6.69,0,0,1,915.45,188.82Zm1.64,22.93a6.62,6.62,0,0,1-1.91,4.73,6.81,6.81,0,0,1-9.64,0,6.62,6.62,0,0,1-1.91-4.73,6.86,6.86,0,0,1,1.91-4.91,6.81,6.81,0,0,1,9.64,0A6.85,6.85,0,0,1,917.09,211.76Zm-18.92-39.31a6.47,6.47,0,0,1,4.73-2,6.69,6.69,0,0,1,4.91,2,6.48,6.48,0,0,1,2,4.73,6.84,6.84,0,0,1-6.91,6.92,6.46,6.46,0,0,1-4.73-2,6.67,6.67,0,0,1-2-4.91A6.47,6.47,0,0,1,898.17,172.45ZM884.34,161a6.47,6.47,0,0,1,4.73-2,6.69,6.69,0,0,1,4.91,2,6.48,6.48,0,0,1,2,4.73,6.84,6.84,0,0,1-6.91,6.92,6.46,6.46,0,0,1-4.73-2,6.67,6.67,0,0,1-2-4.91A6.46,6.46,0,0,1,884.34,161Zm10.55,78.07a6.39,6.39,0,0,1-2,4.82,6.62,6.62,0,0,1-4.73,1.91,6.84,6.84,0,0,1-4.91-1.91,6.38,6.38,0,0,1-2-4.82,6.84,6.84,0,0,1,6.91-6.92,6.47,6.47,0,0,1,4.73,2A6.69,6.69,0,0,1,894.89,239.05ZM869.6,108.93a6.47,6.47,0,0,1,4.73-2,6.69,6.69,0,0,1,4.91,2,6.48,6.48,0,0,1,2,4.73,6.83,6.83,0,0,1-6.91,6.92,6.46,6.46,0,0,1-4.73-2,6.67,6.67,0,0,1-2-4.91A6.47,6.47,0,0,1,869.6,108.93Zm6.73,57.15a6.47,6.47,0,0,1-4.73,2,6.67,6.67,0,0,1-4.91-2,6.46,6.46,0,0,1-2-4.73,6.84,6.84,0,0,1,6.91-6.92,6.48,6.48,0,0,1,4.73,2,6.69,6.69,0,0,1,2,4.91A6.48,6.48,0,0,1,876.33,166.08Zm.91,76.8a6.84,6.84,0,0,1-6.73,6.73,6.68,6.68,0,0,1-4.91-2,6.47,6.47,0,0,1-2-4.73,6.83,6.83,0,0,1,6.91-6.92,6.47,6.47,0,0,1,4.73,2A6.69,6.69,0,0,1,877.24,242.88ZM860.69,124.76a6.47,6.47,0,0,1,4.73-2,6.69,6.69,0,0,1,4.91,2,6.48,6.48,0,0,1,2,4.73,6.84,6.84,0,0,1-6.91,6.92,6.46,6.46,0,0,1-4.73-2,6.67,6.67,0,0,1-2-4.91A6.47,6.47,0,0,1,860.69,124.76Zm-9.1,15.65a6.68,6.68,0,0,1,4.91-2,6.39,6.39,0,0,1,4.82,2,6.85,6.85,0,0,1,1.91,4.91,6.63,6.63,0,0,1-1.91,4.73,6.38,6.38,0,0,1-4.82,2,6.67,6.67,0,0,1-4.91-2,6.46,6.46,0,0,1-2-4.73A6.68,6.68,0,0,1,851.59,140.42Zm8.19,98.46a6.48,6.48,0,0,1-2,4.73,6.69,6.69,0,0,1-4.91,2,6.84,6.84,0,0,1-6.73-6.73,6.68,6.68,0,0,1,2-4.91,6.47,6.47,0,0,1,4.73-2,6.84,6.84,0,0,1,6.91,6.92Zm-17.1-82.62a6.68,6.68,0,0,1,4.91-2,6.47,6.47,0,0,1,4.73,2,6.69,6.69,0,0,1,2,4.91,6.84,6.84,0,0,1-6.73,6.73,6.67,6.67,0,0,1-4.91-2,6.46,6.46,0,0,1-2-4.73A6.68,6.68,0,0,1,842.67,156.25Zm-8.92,15.83a6.68,6.68,0,0,1,4.91-2,6.47,6.47,0,0,1,4.73,2,6.69,6.69,0,0,1,2,4.91,6.84,6.84,0,0,1-6.73,6.73,6.67,6.67,0,0,1-4.91-2,6.46,6.46,0,0,1-2-4.73A6.68,6.68,0,0,1,833.76,172.08Zm11.83,55.51a6.84,6.84,0,0,1-6.73,6.73,6.67,6.67,0,0,1-4.91-2,6.46,6.46,0,0,1-2-4.73,6.84,6.84,0,0,1,6.91-6.92,6.47,6.47,0,0,1,4.73,2A6.69,6.69,0,0,1,845.58,227.59Zm-19.47-39.13a6.47,6.47,0,0,1,4.73-2,6.83,6.83,0,0,1,6.91,6.92,6.47,6.47,0,0,1-2,4.73,6.68,6.68,0,0,1-4.91,2,6.84,6.84,0,0,1-6.73-6.73A6.68,6.68,0,0,1,826.12,188.46Zm0,18a6.68,6.68,0,0,1,4.91-2,6.47,6.47,0,0,1,4.73,2,6.69,6.69,0,0,1,2,4.91,6.84,6.84,0,0,1-6.73,6.73,6.67,6.67,0,0,1-4.91-2,6.46,6.46,0,0,1-2-4.73A6.68,6.68,0,0,1,826.12,206.48ZM710,155a6.48,6.48,0,0,1,2,4.73,6.68,6.68,0,0,1-2,4.91,6.46,6.46,0,0,1-4.73,2,6.84,6.84,0,0,1-6.91-6.92,6.47,6.47,0,0,1,2-4.73,6.68,6.68,0,0,1,4.91-2A6.47,6.47,0,0,1,710,155Zm-16.56,71.34a6.85,6.85,0,0,1-1.91,4.91,6.38,6.38,0,0,1-4.82,2,6.84,6.84,0,0,1-6.91-6.92,6.47,6.47,0,0,1,2-4.73,6.68,6.68,0,0,1,4.91-2,6.39,6.39,0,0,1,4.82,2A6.63,6.63,0,0,1,693.48,226.31Zm-1.82-13.83a6.84,6.84,0,0,1,6.73-6.73,6.69,6.69,0,0,1,4.91,2,6.48,6.48,0,0,1,2,4.73,6.84,6.84,0,0,1-6.91,6.92,6.46,6.46,0,0,1-4.73-2A6.67,6.67,0,0,1,691.66,212.48ZM698,426.29a6.84,6.84,0,0,1,6.91,6.92,6.47,6.47,0,0,1-2,4.73,6.67,6.67,0,0,1-4.91,2,6.84,6.84,0,0,1-6.73-6.73,6.68,6.68,0,0,1,2-4.91A6.47,6.47,0,0,1,698,426.29ZM700.39,445a6.68,6.68,0,0,1,4.91-2,6.84,6.84,0,0,1,6.73,6.73,6.68,6.68,0,0,1-2,4.91,6.46,6.46,0,0,1-4.73,2,6.84,6.84,0,0,1-6.91-6.92A6.47,6.47,0,0,1,700.39,445Zm9.83-244.38a6.46,6.46,0,0,1-4.73,2,6.84,6.84,0,0,1-6.91-6.92,6.47,6.47,0,0,1,2-4.73,6.68,6.68,0,0,1,4.91-2,6.84,6.84,0,0,1,6.73,6.73A6.68,6.68,0,0,1,710.22,200.65Zm-7.28-62.42a6.69,6.69,0,0,1,2,4.91,6.47,6.47,0,0,1-2,4.73,6.67,6.67,0,0,1-4.91,2,6.84,6.84,0,0,1-6.73-6.73,6.68,6.68,0,0,1,2-4.91,6.47,6.47,0,0,1,4.73-2A6.68,6.68,0,0,1,702.94,138.23ZM681.65,124.4a6.68,6.68,0,0,1,4.91-2,6.84,6.84,0,0,1,6.73,6.73,6.68,6.68,0,0,1-2,4.91,6.46,6.46,0,0,1-4.73,2,6.84,6.84,0,0,1-6.91-6.92A6.47,6.47,0,0,1,681.65,124.4ZM567.39,188.82a6.69,6.69,0,0,1,2,4.91,6.47,6.47,0,0,1-2,4.73,6.68,6.68,0,0,1-4.91,2,6.84,6.84,0,0,1-6.73-6.73,6.68,6.68,0,0,1,2-4.91,6.47,6.47,0,0,1,4.73-2A6.69,6.69,0,0,1,567.39,188.82ZM569,211.76a6.62,6.62,0,0,1-1.91,4.73,6.81,6.81,0,0,1-9.64,0,6.62,6.62,0,0,1-1.91-4.73,6.86,6.86,0,0,1,1.91-4.91,6.81,6.81,0,0,1,9.64,0A6.85,6.85,0,0,1,569,211.76Zm-18.92-39.31a6.47,6.47,0,0,1,4.73-2,6.69,6.69,0,0,1,4.91,2,6.48,6.48,0,0,1,2,4.73,6.84,6.84,0,0,1-6.91,6.92,6.46,6.46,0,0,1-4.73-2,6.67,6.67,0,0,1-2-4.91A6.47,6.47,0,0,1,550.11,172.45ZM536.28,161a6.47,6.47,0,0,1,4.73-2,6.69,6.69,0,0,1,4.91,2,6.48,6.48,0,0,1,2,4.73,6.84,6.84,0,0,1-6.91,6.92,6.46,6.46,0,0,1-4.73-2,6.67,6.67,0,0,1-2-4.91A6.46,6.46,0,0,1,536.28,161Zm10.55,78.07a6.39,6.39,0,0,1-2,4.82,6.62,6.62,0,0,1-4.73,1.91,6.84,6.84,0,0,1-4.91-1.91,6.38,6.38,0,0,1-2-4.82,6.84,6.84,0,0,1,6.91-6.92,6.47,6.47,0,0,1,4.73,2A6.69,6.69,0,0,1,546.83,239.05ZM521.54,108.93a6.47,6.47,0,0,1,4.73-2,6.69,6.69,0,0,1,4.91,2,6.48,6.48,0,0,1,2,4.73,6.83,6.83,0,0,1-6.91,6.92,6.46,6.46,0,0,1-4.73-2,6.67,6.67,0,0,1-2-4.91A6.47,6.47,0,0,1,521.54,108.93Zm6.73,57.15a6.47,6.47,0,0,1-4.73,2,6.67,6.67,0,0,1-4.91-2,6.46,6.46,0,0,1-2-4.73,6.84,6.84,0,0,1,6.91-6.92,6.48,6.48,0,0,1,4.73,2,6.69,6.69,0,0,1,2,4.91A6.48,6.48,0,0,1,528.28,166.08Zm.91,76.8a6.84,6.84,0,0,1-6.73,6.73,6.68,6.68,0,0,1-4.91-2,6.47,6.47,0,0,1-2-4.73,6.83,6.83,0,0,1,6.91-6.92,6.47,6.47,0,0,1,4.73,2A6.69,6.69,0,0,1,529.18,242.88ZM512.63,124.76a6.47,6.47,0,0,1,4.73-2,6.69,6.69,0,0,1,4.91,2,6.48,6.48,0,0,1,2,4.73,6.84,6.84,0,0,1-6.91,6.92,6.46,6.46,0,0,1-4.73-2,6.67,6.67,0,0,1-2-4.91A6.47,6.47,0,0,1,512.63,124.76Zm-9.1,15.65a6.68,6.68,0,0,1,4.91-2,6.39,6.39,0,0,1,4.82,2,6.85,6.85,0,0,1,1.91,4.91,6.63,6.63,0,0,1-1.91,4.73,6.38,6.38,0,0,1-4.82,2,6.67,6.67,0,0,1-4.91-2,6.46,6.46,0,0,1-2-4.73A6.68,6.68,0,0,1,503.53,140.42Zm8.19,98.46a6.48,6.48,0,0,1-2,4.73,6.69,6.69,0,0,1-4.91,2,6.84,6.84,0,0,1-6.73-6.73,6.68,6.68,0,0,1,2-4.91,6.47,6.47,0,0,1,4.73-2,6.84,6.84,0,0,1,6.91,6.92Zm-17.1-82.62a6.68,6.68,0,0,1,4.91-2,6.47,6.47,0,0,1,4.73,2,6.69,6.69,0,0,1,2,4.91,6.84,6.84,0,0,1-6.73,6.73,6.67,6.67,0,0,1-4.91-2,6.46,6.46,0,0,1-2-4.73A6.68,6.68,0,0,1,494.62,156.25Zm-8.92,15.83a6.68,6.68,0,0,1,4.91-2,6.47,6.47,0,0,1,4.73,2,6.69,6.69,0,0,1,2,4.91,6.84,6.84,0,0,1-6.73,6.73,6.67,6.67,0,0,1-4.91-2,6.46,6.46,0,0,1-2-4.73A6.68,6.68,0,0,1,485.7,172.08Zm11.83,55.51a6.84,6.84,0,0,1-6.73,6.73,6.67,6.67,0,0,1-4.91-2,6.46,6.46,0,0,1-2-4.73,6.84,6.84,0,0,1,6.91-6.92,6.47,6.47,0,0,1,4.73,2A6.69,6.69,0,0,1,497.53,227.59Zm-19.47-39.13a6.47,6.47,0,0,1,4.73-2,6.83,6.83,0,0,1,6.91,6.92,6.47,6.47,0,0,1-2,4.73,6.68,6.68,0,0,1-4.91,2,6.84,6.84,0,0,1-6.73-6.73A6.68,6.68,0,0,1,478.06,188.46Zm0,18a6.68,6.68,0,0,1,4.91-2,6.47,6.47,0,0,1,4.73,2,6.69,6.69,0,0,1,2,4.91,6.84,6.84,0,0,1-6.73,6.73,6.67,6.67,0,0,1-4.91-2,6.46,6.46,0,0,1-2-4.73A6.68,6.68,0,0,1,478.06,206.48ZM245,137.87a6.47,6.47,0,0,1,4.73-2,6.69,6.69,0,0,1,4.91,2,6.48,6.48,0,0,1,2,4.73,6.84,6.84,0,0,1-6.91,6.92,6.46,6.46,0,0,1-4.73-2,6.68,6.68,0,0,1-2-4.91A6.47,6.47,0,0,1,245,137.87Zm-7.28,306.62a6.68,6.68,0,0,1,4.91-2,6.47,6.47,0,0,1,4.73,2,6.69,6.69,0,0,1,2,4.91,6.84,6.84,0,0,1-6.73,6.73,6.67,6.67,0,0,1-4.91-2,6.46,6.46,0,0,1-2-4.73A6.68,6.68,0,0,1,237.71,444.49Zm-2-249.29a6.84,6.84,0,0,1,6.91-6.92,6.47,6.47,0,0,1,4.73,2,6.69,6.69,0,0,1,2,4.91,6.84,6.84,0,0,1-6.73,6.73,6.67,6.67,0,0,1-4.91-2A6.46,6.46,0,0,1,235.71,195.19ZM245,437.57a6.67,6.67,0,0,1-2-4.91,6.84,6.84,0,0,1,6.73-6.73,6.69,6.69,0,0,1,4.91,2,6.48,6.48,0,0,1,2,4.73,6.84,6.84,0,0,1-6.91,6.92A6.46,6.46,0,0,1,245,437.57Zm0-220.9a6.67,6.67,0,0,1-2-4.91,6.84,6.84,0,0,1,6.73-6.73,6.69,6.69,0,0,1,4.91,2,6.48,6.48,0,0,1,2,4.73,6.84,6.84,0,0,1-6.91,6.92A6.46,6.46,0,0,1,245,216.67Zm-7.28-62.24a6.68,6.68,0,0,1,4.91-2,6.47,6.47,0,0,1,4.73,2,6.69,6.69,0,0,1,2,4.91,6.84,6.84,0,0,1-6.73,6.73,6.67,6.67,0,0,1-4.91-2,6.46,6.46,0,0,1-2-4.73A6.68,6.68,0,0,1,237.71,154.43Zm-2.55,18a6.68,6.68,0,0,1,4.91-2,6.39,6.39,0,0,1,4.82,2,6.63,6.63,0,0,1,1.91,4.73,6.84,6.84,0,0,1-1.91,4.91,6.38,6.38,0,0,1-4.82,2,6.84,6.84,0,0,1-6.91-6.92A6.47,6.47,0,0,1,235.16,172.45Zm-23.29,16.38a6.69,6.69,0,0,1,2,4.91,6.47,6.47,0,0,1-2,4.73,6.68,6.68,0,0,1-4.91,2,6.84,6.84,0,0,1-6.73-6.73,6.68,6.68,0,0,1,2-4.91,6.47,6.47,0,0,1,4.73-2A6.69,6.69,0,0,1,211.88,188.82Zm1.64,22.93a6.62,6.62,0,0,1-1.91,4.73,6.81,6.81,0,0,1-9.64,0,6.62,6.62,0,0,1-1.91-4.73,6.86,6.86,0,0,1,1.91-4.91,6.81,6.81,0,0,1,9.64,0A6.85,6.85,0,0,1,213.51,211.76Zm-18.92-39.31a6.47,6.47,0,0,1,4.73-2,6.69,6.69,0,0,1,4.91,2,6.48,6.48,0,0,1,2,4.73,6.84,6.84,0,0,1-6.91,6.92,6.46,6.46,0,0,1-4.73-2,6.67,6.67,0,0,1-2-4.91A6.47,6.47,0,0,1,194.59,172.45ZM180.76,161a6.47,6.47,0,0,1,4.73-2,6.69,6.69,0,0,1,4.91,2,6.48,6.48,0,0,1,2,4.73,6.84,6.84,0,0,1-6.91,6.92,6.46,6.46,0,0,1-4.73-2,6.67,6.67,0,0,1-2-4.91A6.46,6.46,0,0,1,180.76,161Zm10.55,78.07a6.39,6.39,0,0,1-2,4.82,6.62,6.62,0,0,1-4.73,1.91,6.84,6.84,0,0,1-4.91-1.91,6.38,6.38,0,0,1-2-4.82,6.84,6.84,0,0,1,6.91-6.92,6.47,6.47,0,0,1,4.73,2A6.69,6.69,0,0,1,191.32,239.05ZM166,108.93a6.47,6.47,0,0,1,4.73-2,6.69,6.69,0,0,1,4.91,2,6.48,6.48,0,0,1,2,4.73,6.83,6.83,0,0,1-6.91,6.92,6.46,6.46,0,0,1-4.73-2,6.67,6.67,0,0,1-2-4.91A6.47,6.47,0,0,1,166,108.93Zm6.73,57.15a6.47,6.47,0,0,1-4.73,2,6.67,6.67,0,0,1-4.91-2,6.46,6.46,0,0,1-2-4.73,6.84,6.84,0,0,1,6.91-6.92,6.48,6.48,0,0,1,4.73,2,6.69,6.69,0,0,1,2,4.91A6.48,6.48,0,0,1,172.76,166.08Zm.91,76.8a6.84,6.84,0,0,1-6.73,6.73,6.68,6.68,0,0,1-4.91-2,6.47,6.47,0,0,1-2-4.73,6.83,6.83,0,0,1,6.91-6.92,6.47,6.47,0,0,1,4.73,2A6.69,6.69,0,0,1,173.67,242.88ZM157.11,124.76a6.47,6.47,0,0,1,4.73-2,6.69,6.69,0,0,1,4.91,2,6.48,6.48,0,0,1,2,4.73,6.84,6.84,0,0,1-6.91,6.92,6.46,6.46,0,0,1-4.73-2,6.67,6.67,0,0,1-2-4.91A6.47,6.47,0,0,1,157.11,124.76ZM148,140.42a6.68,6.68,0,0,1,4.91-2,6.39,6.39,0,0,1,4.82,2,6.85,6.85,0,0,1,1.91,4.91,6.63,6.63,0,0,1-1.91,4.73,6.38,6.38,0,0,1-4.82,2,6.67,6.67,0,0,1-4.91-2,6.46,6.46,0,0,1-2-4.73A6.68,6.68,0,0,1,148,140.42Zm8.19,98.46a6.48,6.48,0,0,1-2,4.73,6.69,6.69,0,0,1-4.91,2,6.84,6.84,0,0,1-6.73-6.73,6.68,6.68,0,0,1,2-4.91,6.47,6.47,0,0,1,4.73-2,6.84,6.84,0,0,1,6.91,6.92Zm-17.1-82.62a6.68,6.68,0,0,1,4.91-2,6.47,6.47,0,0,1,4.73,2,6.69,6.69,0,0,1,2,4.91A6.84,6.84,0,0,1,144,167.9a6.67,6.67,0,0,1-4.91-2,6.46,6.46,0,0,1-2-4.73A6.68,6.68,0,0,1,139.1,156.25Zm-8.92,15.83a6.68,6.68,0,0,1,4.91-2,6.47,6.47,0,0,1,4.73,2,6.69,6.69,0,0,1,2,4.91,6.84,6.84,0,0,1-6.73,6.73,6.67,6.67,0,0,1-4.91-2,6.46,6.46,0,0,1-2-4.73A6.68,6.68,0,0,1,130.18,172.08ZM142,227.59a6.84,6.84,0,0,1-6.73,6.73,6.67,6.67,0,0,1-4.91-2,6.46,6.46,0,0,1-2-4.73,6.84,6.84,0,0,1,6.91-6.92,6.47,6.47,0,0,1,4.73,2A6.69,6.69,0,0,1,142,227.59Zm-19.47-39.13a6.47,6.47,0,0,1,4.73-2,6.83,6.83,0,0,1,6.91,6.92,6.47,6.47,0,0,1-2,4.73,6.68,6.68,0,0,1-4.91,2,6.84,6.84,0,0,1-6.73-6.73A6.68,6.68,0,0,1,122.54,188.46Zm0,18a6.68,6.68,0,0,1,4.91-2,6.47,6.47,0,0,1,4.73,2,6.69,6.69,0,0,1,2,4.91,6.84,6.84,0,0,1-6.73,6.73,6.67,6.67,0,0,1-4.91-2,6.46,6.46,0,0,1-2-4.73A6.68,6.68,0,0,1,122.54,206.48Zm4,293a6.68,6.68,0,0,1-4.91,2,6.46,6.46,0,0,1-4.73-2,6.67,6.67,0,0,1-2-4.91,6.84,6.84,0,0,1,6.73-6.73,6.69,6.69,0,0,1,4.91,2,6.48,6.48,0,0,1,2,4.73A6.68,6.68,0,0,1,126.54,499.45Zm.36-20a6.47,6.47,0,0,1,2-4.73,6.68,6.68,0,0,1,4.91-2,6.84,6.84,0,0,1,6.73,6.73,6.69,6.69,0,0,1-2,4.91,6.47,6.47,0,0,1-4.73,2,6.84,6.84,0,0,1-6.91-6.92Zm17.83,20a6.68,6.68,0,0,1-4.91,2,6.46,6.46,0,0,1-4.73-2,6.67,6.67,0,0,1-2-4.91,6.84,6.84,0,0,1,6.73-6.73,6.69,6.69,0,0,1,4.91,2,6.48,6.48,0,0,1,2,4.73A6.68,6.68,0,0,1,144.74,499.45Zm1.09-28.39a6.84,6.84,0,0,1-6.73-6.73,6.68,6.68,0,0,1,2-4.91,6.47,6.47,0,0,1,4.73-2,6.83,6.83,0,0,1,6.91,6.92,6.47,6.47,0,0,1-2,4.73A6.68,6.68,0,0,1,145.83,471.06Zm17.1,28.39a6.68,6.68,0,0,1-4.91,2,6.46,6.46,0,0,1-4.73-2,6.67,6.67,0,0,1-2-4.91A6.84,6.84,0,0,1,158,487.8a6.69,6.69,0,0,1,4.91,2,6.48,6.48,0,0,1,2,4.73A6.68,6.68,0,0,1,162.93,499.45Zm0-45.5a6.68,6.68,0,0,1-4.91,2,6.46,6.46,0,0,1-4.73-2,6.67,6.67,0,0,1-2-4.91A6.84,6.84,0,0,1,158,442.3a6.69,6.69,0,0,1,4.91,2,6.47,6.47,0,0,1,2,4.73A6.68,6.68,0,0,1,162.93,454Zm.36-20a6.46,6.46,0,0,1,2-4.73,6.68,6.68,0,0,1,4.91-2,6.84,6.84,0,0,1,6.73,6.73,6.68,6.68,0,0,1-2,4.91,6.46,6.46,0,0,1-4.73,2,6.83,6.83,0,0,1-6.91-6.92Zm17.83,65.52a6.68,6.68,0,0,1-4.91,2,6.46,6.46,0,0,1-4.73-2,6.67,6.67,0,0,1-2-4.91,6.84,6.84,0,0,1,6.73-6.73,6.69,6.69,0,0,1,4.91,2,6.48,6.48,0,0,1,2,4.73A6.68,6.68,0,0,1,181.13,499.45Zm18.19,36.4a6.68,6.68,0,0,1-4.91,2,6.47,6.47,0,0,1-4.73-2,6.68,6.68,0,0,1-2-4.91,6.84,6.84,0,0,1,6.73-6.73,6.68,6.68,0,0,1,4.91,2,6.48,6.48,0,0,1,2,4.73A6.69,6.69,0,0,1,199.32,535.85Zm0-18.2a6.67,6.67,0,0,1-4.91,2,6.46,6.46,0,0,1-4.73-2,6.67,6.67,0,0,1-2-4.91,6.84,6.84,0,0,1,6.73-6.73,6.68,6.68,0,0,1,4.91,2,6.48,6.48,0,0,1,2,4.73A6.68,6.68,0,0,1,199.32,517.65Zm0-18.2a6.67,6.67,0,0,1-4.91,2,6.46,6.46,0,0,1-4.73-2,6.67,6.67,0,0,1-2-4.91,6.84,6.84,0,0,1,6.73-6.73,6.68,6.68,0,0,1,4.91,2,6.48,6.48,0,0,1,2,4.73A6.68,6.68,0,0,1,199.32,499.45Zm0-18.2a6.67,6.67,0,0,1-4.91,2,6.46,6.46,0,0,1-4.73-2,6.67,6.67,0,0,1-2-4.91,6.84,6.84,0,0,1,6.73-6.73,6.68,6.68,0,0,1,4.91,2,6.48,6.48,0,0,1,2,4.73A6.68,6.68,0,0,1,199.32,481.25Zm0-18.2a6.67,6.67,0,0,1-4.91,2,6.46,6.46,0,0,1-4.73-2,6.67,6.67,0,0,1-2-4.91,6.84,6.84,0,0,1,6.73-6.73,6.68,6.68,0,0,1,4.91,2,6.48,6.48,0,0,1,2,4.73A6.68,6.68,0,0,1,199.32,463.05Zm0-18.2a6.67,6.67,0,0,1-4.91,2,6.46,6.46,0,0,1-4.73-2,6.67,6.67,0,0,1-2-4.91,6.84,6.84,0,0,1,6.73-6.73,6.68,6.68,0,0,1,4.91,2,6.48,6.48,0,0,1,2,4.73A6.68,6.68,0,0,1,199.32,444.85Zm0-18.2a6.67,6.67,0,0,1-4.91,2q-5.83,0-6.73-5.64a6.57,6.57,0,0,1-5.46,2.55,6.84,6.84,0,0,1-6.73-6.73,6.68,6.68,0,0,1,2-4.91,6.47,6.47,0,0,1,4.73-2q5.82,0,6.73,5.82a6.91,6.91,0,0,1,10.37-.73,6.48,6.48,0,0,1,2,4.73A6.68,6.68,0,0,1,199.32,426.65Zm0-18.2a6.67,6.67,0,0,1-4.91,2,6.46,6.46,0,0,1-4.73-2,6.67,6.67,0,0,1-2-4.91,6.84,6.84,0,0,1,6.73-6.73,6.68,6.68,0,0,1,4.91,2,6.48,6.48,0,0,1,2,4.73A6.68,6.68,0,0,1,199.32,408.45Zm4.19-175.77a6.46,6.46,0,0,1-4.73,2,6.67,6.67,0,0,1-4.91-2,6.46,6.46,0,0,1-2-4.73,6.84,6.84,0,0,1,6.91-6.92,6.47,6.47,0,0,1,4.73,2,6.69,6.69,0,0,1,2,4.91A6.47,6.47,0,0,1,203.51,232.68Zm14,266.77a6.68,6.68,0,0,1-4.91,2,6.46,6.46,0,0,1-4.73-2,6.67,6.67,0,0,1-2-4.91,6.84,6.84,0,0,1,6.73-6.73,6.69,6.69,0,0,1,4.91,2,6.48,6.48,0,0,1,2,4.73A6.68,6.68,0,0,1,217.52,499.45Zm15.65-32.21a6.47,6.47,0,0,1,2-4.73,6.68,6.68,0,0,1,4.91-2,6.39,6.39,0,0,1,4.82,2,6.63,6.63,0,0,1,1.91,4.73,6.84,6.84,0,0,1-1.91,4.91,6.38,6.38,0,0,1-4.82,2,6.84,6.84,0,0,1-6.91-6.92ZM237.71,490a6.46,6.46,0,0,1-2-4.73,6.84,6.84,0,0,1,6.91-6.92,6.47,6.47,0,0,1,4.73,2,6.69,6.69,0,0,1,2,4.91,6.84,6.84,0,0,1-6.73,6.73A6.67,6.67,0,0,1,237.71,490ZM245,506.73a6.67,6.67,0,0,1-2-4.91,6.84,6.84,0,0,1,6.73-6.73,6.69,6.69,0,0,1,4.91,2,6.48,6.48,0,0,1,2,4.73,6.84,6.84,0,0,1-6.91,6.92A6.46,6.46,0,0,1,245,506.73Zm21.11,14a6.68,6.68,0,0,1-4.91,2,6.46,6.46,0,0,1-4.73-2,6.67,6.67,0,0,1-2-4.91,6.84,6.84,0,0,1,6.73-6.73,6.69,6.69,0,0,1,4.91,2,6.48,6.48,0,0,1,2,4.73A6.68,6.68,0,0,1,266.09,520.74Zm0-97.18a6.68,6.68,0,0,1-4.91,2,6.46,6.46,0,0,1-4.73-2,6.67,6.67,0,0,1-2-4.91,6.84,6.84,0,0,1,6.73-6.73,6.69,6.69,0,0,1,4.91,2,6.48,6.48,0,0,1,2,4.73A6.68,6.68,0,0,1,266.09,423.56Zm0-192.88a6.68,6.68,0,0,1-4.91,2,6.46,6.46,0,0,1-4.73-2,6.67,6.67,0,0,1-2-4.91,6.84,6.84,0,0,1,6.73-6.73,6.69,6.69,0,0,1,4.91,2,6.48,6.48,0,0,1,2,4.73A6.68,6.68,0,0,1,266.09,230.68Zm0-97.18a6.68,6.68,0,0,1-4.91,2,6.46,6.46,0,0,1-4.73-2,6.67,6.67,0,0,1-2-4.91,6.84,6.84,0,0,1,6.73-6.73,6.69,6.69,0,0,1,4.91,2,6.48,6.48,0,0,1,2,4.73A6.68,6.68,0,0,1,266.09,133.5Zm14.74,397.8a6.47,6.47,0,0,1-4.73,2,6.84,6.84,0,0,1-6.91-6.92,6.47,6.47,0,0,1,2-4.73,6.68,6.68,0,0,1,4.91-2,6.84,6.84,0,0,1,6.73,6.73A6.68,6.68,0,0,1,280.83,531.3Zm0-118.29a6.46,6.46,0,0,1-4.73,2,6.84,6.84,0,0,1-6.91-6.92,6.47,6.47,0,0,1,2-4.73,6.68,6.68,0,0,1,4.91-2,6.84,6.84,0,0,1,6.73,6.73A6.68,6.68,0,0,1,280.83,413Zm0-171.77a6.47,6.47,0,0,1-4.73,2,6.84,6.84,0,0,1-6.91-6.92,6.47,6.47,0,0,1,2-4.73,6.68,6.68,0,0,1,4.91-2,6.84,6.84,0,0,1,6.73,6.73A6.68,6.68,0,0,1,280.83,241.24Zm0-118.29a6.46,6.46,0,0,1-4.73,2,6.84,6.84,0,0,1-6.91-6.92,6.47,6.47,0,0,1,2-4.73,6.68,6.68,0,0,1,4.91-2,6.84,6.84,0,0,1,6.73,6.73A6.68,6.68,0,0,1,280.83,122.94Zm17.1,414.36a6.69,6.69,0,0,1-4.91,2,6.84,6.84,0,0,1-6.73-6.73,6.68,6.68,0,0,1,2-4.91,6.47,6.47,0,0,1,4.73-2,6.84,6.84,0,0,1,6.91,6.92A6.48,6.48,0,0,1,297.93,537.3Zm0-130.49a6.67,6.67,0,0,1-4.91,2,6.84,6.84,0,0,1-6.73-6.73,6.68,6.68,0,0,1,2-4.91,6.47,6.47,0,0,1,4.73-2,6.84,6.84,0,0,1,6.91,6.92A6.47,6.47,0,0,1,297.93,406.82Zm0-159.57a6.69,6.69,0,0,1-4.91,2,6.84,6.84,0,0,1-6.73-6.73,6.68,6.68,0,0,1,2-4.91,6.47,6.47,0,0,1,4.73-2,6.84,6.84,0,0,1,6.91,6.92A6.48,6.48,0,0,1,297.93,247.24Zm0-130.49a6.67,6.67,0,0,1-4.91,2,6.84,6.84,0,0,1-6.73-6.73,6.68,6.68,0,0,1,2-4.91,6.47,6.47,0,0,1,4.73-2,6.84,6.84,0,0,1,6.91,6.92A6.47,6.47,0,0,1,297.93,116.76Zm18,422a6.47,6.47,0,0,1-4.73,2,6.84,6.84,0,0,1-6.91-6.92,6.38,6.38,0,0,1,2-4.82,6.84,6.84,0,0,1,4.91-1.91,6.63,6.63,0,0,1,4.73,1.91,6.39,6.39,0,0,1,2,4.82A6.69,6.69,0,0,1,315.95,538.76Zm0-133.22a6.46,6.46,0,0,1-4.73,2,6.84,6.84,0,0,1-6.91-6.92,6.47,6.47,0,0,1,2-4.73,6.68,6.68,0,0,1,4.91-2,6.84,6.84,0,0,1,6.73,6.73A6.68,6.68,0,0,1,315.95,405.54Zm0-156.84a6.47,6.47,0,0,1-4.73,2,6.84,6.84,0,0,1-6.91-6.92,6.38,6.38,0,0,1,2-4.82,6.84,6.84,0,0,1,4.91-1.91,6.63,6.63,0,0,1,4.73,1.91,6.39,6.39,0,0,1,2,4.82A6.69,6.69,0,0,1,315.95,248.7Zm0-133.22a6.46,6.46,0,0,1-4.73,2,6.84,6.84,0,0,1-6.91-6.92,6.47,6.47,0,0,1,2-4.73,6.68,6.68,0,0,1,4.91-2,6.84,6.84,0,0,1,6.73,6.73A6.68,6.68,0,0,1,315.95,115.48ZM334.14,537.3a6.47,6.47,0,0,1-4.73,2,6.68,6.68,0,0,1-4.91-2,6.46,6.46,0,0,1-2-4.73,6.84,6.84,0,0,1,6.91-6.92,6.47,6.47,0,0,1,4.73,2,6.69,6.69,0,0,1,2,4.91A6.48,6.48,0,0,1,334.14,537.3Zm0-130.49a6.46,6.46,0,0,1-4.73,2,6.67,6.67,0,0,1-4.91-2,6.46,6.46,0,0,1-2-4.73,6.83,6.83,0,0,1,6.91-6.92,6.47,6.47,0,0,1,4.73,2,6.69,6.69,0,0,1,2,4.91A6.47,6.47,0,0,1,334.14,406.82Zm0-159.57a6.47,6.47,0,0,1-4.73,2,6.68,6.68,0,0,1-4.91-2,6.46,6.46,0,0,1-2-4.73,6.83,6.83,0,0,1,6.91-6.92,6.47,6.47,0,0,1,4.73,2,6.69,6.69,0,0,1,2,4.91A6.48,6.48,0,0,1,334.14,247.24Zm0-130.49a6.46,6.46,0,0,1-4.73,2,6.67,6.67,0,0,1-4.91-2,6.46,6.46,0,0,1-2-4.73,6.83,6.83,0,0,1,6.91-6.92,6.47,6.47,0,0,1,4.73,2,6.69,6.69,0,0,1,2,4.91A6.47,6.47,0,0,1,334.14,116.76Zm17.1,414.54a6.69,6.69,0,0,1-4.91,2,6.47,6.47,0,0,1-4.73-2,6.67,6.67,0,0,1-2-4.91,6.84,6.84,0,0,1,6.73-6.73,6.69,6.69,0,0,1,4.91,2,6.48,6.48,0,0,1,2,4.73A6.68,6.68,0,0,1,351.24,531.3Zm0-118.29a6.68,6.68,0,0,1-4.91,2,6.46,6.46,0,0,1-4.73-2,6.67,6.67,0,0,1-2-4.91,6.84,6.84,0,0,1,6.73-6.73,6.69,6.69,0,0,1,4.91,2,6.48,6.48,0,0,1,2,4.73A6.68,6.68,0,0,1,351.24,413Zm0-171.77a6.69,6.69,0,0,1-4.91,2,6.47,6.47,0,0,1-4.73-2,6.67,6.67,0,0,1-2-4.91,6.84,6.84,0,0,1,6.73-6.73,6.69,6.69,0,0,1,4.91,2,6.48,6.48,0,0,1,2,4.73A6.68,6.68,0,0,1,351.24,241.24Zm0-118.29a6.68,6.68,0,0,1-4.91,2,6.46,6.46,0,0,1-4.73-2,6.67,6.67,0,0,1-2-4.91,6.84,6.84,0,0,1,6.73-6.73,6.69,6.69,0,0,1,4.91,2,6.48,6.48,0,0,1,2,4.73A6.68,6.68,0,0,1,351.24,122.94ZM366,520.74a6.47,6.47,0,0,1-4.73,2,6.84,6.84,0,0,1-6.91-6.92,6.47,6.47,0,0,1,2-4.73,6.68,6.68,0,0,1,4.91-2,6.84,6.84,0,0,1,6.73,6.73A6.68,6.68,0,0,1,366,520.74Zm0-97.18a6.47,6.47,0,0,1-4.73,2,6.84,6.84,0,0,1-6.91-6.92,6.47,6.47,0,0,1,2-4.73,6.68,6.68,0,0,1,4.91-2,6.84,6.84,0,0,1,6.73,6.73A6.68,6.68,0,0,1,366,423.56Zm0-192.88a6.47,6.47,0,0,1-4.73,2,6.84,6.84,0,0,1-6.91-6.92,6.47,6.47,0,0,1,2-4.73,6.68,6.68,0,0,1,4.91-2,6.84,6.84,0,0,1,6.73,6.73A6.68,6.68,0,0,1,366,230.68Zm0-97.18a6.47,6.47,0,0,1-4.73,2,6.84,6.84,0,0,1-6.91-6.92,6.47,6.47,0,0,1,2-4.73,6.68,6.68,0,0,1,4.91-2,6.84,6.84,0,0,1,6.73,6.73A6.68,6.68,0,0,1,366,133.5ZM482.06,499.45a6.68,6.68,0,0,1-4.91,2,6.46,6.46,0,0,1-4.73-2,6.67,6.67,0,0,1-2-4.91,6.84,6.84,0,0,1,6.73-6.73,6.69,6.69,0,0,1,4.91,2,6.48,6.48,0,0,1,2,4.73A6.68,6.68,0,0,1,482.06,499.45Zm.36-20a6.47,6.47,0,0,1,2-4.73,6.68,6.68,0,0,1,4.91-2,6.84,6.84,0,0,1,6.73,6.73,6.69,6.69,0,0,1-2,4.91,6.47,6.47,0,0,1-4.73,2,6.84,6.84,0,0,1-6.91-6.92Zm17.83,20a6.68,6.68,0,0,1-4.91,2,6.46,6.46,0,0,1-4.73-2,6.67,6.67,0,0,1-2-4.91,6.84,6.84,0,0,1,6.73-6.73,6.69,6.69,0,0,1,4.91,2,6.48,6.48,0,0,1,2,4.73A6.68,6.68,0,0,1,500.26,499.45Zm1.09-28.39a6.84,6.84,0,0,1-6.73-6.73,6.68,6.68,0,0,1,2-4.91,6.47,6.47,0,0,1,4.73-2,6.83,6.83,0,0,1,6.91,6.92,6.47,6.47,0,0,1-2,4.73A6.68,6.68,0,0,1,501.35,471.06Zm17.1,28.39a6.68,6.68,0,0,1-4.91,2,6.46,6.46,0,0,1-4.73-2,6.67,6.67,0,0,1-2-4.91,6.84,6.84,0,0,1,6.73-6.73,6.69,6.69,0,0,1,4.91,2,6.48,6.48,0,0,1,2,4.73A6.68,6.68,0,0,1,518.45,499.45Zm0-45.5a6.68,6.68,0,0,1-4.91,2,6.46,6.46,0,0,1-4.73-2,6.67,6.67,0,0,1-2-4.91,6.84,6.84,0,0,1,6.73-6.73,6.69,6.69,0,0,1,4.91,2,6.47,6.47,0,0,1,2,4.73A6.68,6.68,0,0,1,518.45,454Zm.36-20a6.46,6.46,0,0,1,2-4.73,6.68,6.68,0,0,1,4.91-2,6.84,6.84,0,0,1,6.73,6.73,6.68,6.68,0,0,1-2,4.91,6.46,6.46,0,0,1-4.73,2,6.83,6.83,0,0,1-6.91-6.92Zm17.83,65.52a6.68,6.68,0,0,1-4.91,2,6.46,6.46,0,0,1-4.73-2,6.67,6.67,0,0,1-2-4.91,6.84,6.84,0,0,1,6.73-6.73,6.69,6.69,0,0,1,4.91,2,6.48,6.48,0,0,1,2,4.73A6.68,6.68,0,0,1,536.64,499.45Zm18.19,36.4a6.68,6.68,0,0,1-4.91,2,6.47,6.47,0,0,1-4.73-2,6.68,6.68,0,0,1-2-4.91,6.84,6.84,0,0,1,6.73-6.73,6.68,6.68,0,0,1,4.91,2,6.48,6.48,0,0,1,2,4.73A6.69,6.69,0,0,1,554.84,535.85Zm0-18.2a6.67,6.67,0,0,1-4.91,2,6.46,6.46,0,0,1-4.73-2,6.67,6.67,0,0,1-2-4.91,6.84,6.84,0,0,1,6.73-6.73,6.68,6.68,0,0,1,4.91,2,6.48,6.48,0,0,1,2,4.73A6.68,6.68,0,0,1,554.84,517.65Zm0-18.2a6.67,6.67,0,0,1-4.91,2,6.46,6.46,0,0,1-4.73-2,6.67,6.67,0,0,1-2-4.91,6.84,6.84,0,0,1,6.73-6.73,6.68,6.68,0,0,1,4.91,2,6.48,6.48,0,0,1,2,4.73A6.68,6.68,0,0,1,554.84,499.45Zm0-18.2a6.67,6.67,0,0,1-4.91,2,6.46,6.46,0,0,1-4.73-2,6.67,6.67,0,0,1-2-4.91,6.84,6.84,0,0,1,6.73-6.73,6.68,6.68,0,0,1,4.91,2,6.48,6.48,0,0,1,2,4.73A6.68,6.68,0,0,1,554.84,481.25Zm0-18.2a6.67,6.67,0,0,1-4.91,2,6.46,6.46,0,0,1-4.73-2,6.67,6.67,0,0,1-2-4.91,6.84,6.84,0,0,1,6.73-6.73,6.68,6.68,0,0,1,4.91,2,6.48,6.48,0,0,1,2,4.73A6.68,6.68,0,0,1,554.84,463.05Zm0-18.2a6.67,6.67,0,0,1-4.91,2,6.46,6.46,0,0,1-4.73-2,6.67,6.67,0,0,1-2-4.91,6.84,6.84,0,0,1,6.73-6.73,6.68,6.68,0,0,1,4.91,2,6.48,6.48,0,0,1,2,4.73A6.68,6.68,0,0,1,554.84,444.85Zm0-18.2a6.67,6.67,0,0,1-4.91,2q-5.83,0-6.73-5.64a6.57,6.57,0,0,1-5.46,2.55,6.84,6.84,0,0,1-6.73-6.73,6.68,6.68,0,0,1,2-4.91,6.47,6.47,0,0,1,4.73-2q5.82,0,6.73,5.82a6.91,6.91,0,0,1,10.37-.73,6.48,6.48,0,0,1,2,4.73A6.68,6.68,0,0,1,554.84,426.65Zm0-18.2a6.67,6.67,0,0,1-4.91,2,6.46,6.46,0,0,1-4.73-2,6.67,6.67,0,0,1-2-4.91,6.84,6.84,0,0,1,6.73-6.73,6.68,6.68,0,0,1,4.91,2,6.48,6.48,0,0,1,2,4.73A6.68,6.68,0,0,1,554.84,408.45ZM559,232.68a6.46,6.46,0,0,1-4.73,2,6.67,6.67,0,0,1-4.91-2,6.46,6.46,0,0,1-2-4.73,6.84,6.84,0,0,1,6.91-6.92,6.47,6.47,0,0,1,4.73,2,6.69,6.69,0,0,1,2,4.91A6.47,6.47,0,0,1,559,232.68Zm14,266.77a6.68,6.68,0,0,1-4.91,2,6.46,6.46,0,0,1-4.73-2,6.67,6.67,0,0,1-2-4.91,6.84,6.84,0,0,1,6.73-6.73,6.69,6.69,0,0,1,4.91,2,6.48,6.48,0,0,1,2,4.73A6.68,6.68,0,0,1,573,499.45Zm31,36.4a6.39,6.39,0,0,1-4.82,2,6.84,6.84,0,0,1-6.91-6.92,6.47,6.47,0,0,1,2-4.73,6.68,6.68,0,0,1,4.91-2,6.39,6.39,0,0,1,4.82,2,6.63,6.63,0,0,1,1.91,4.73A6.85,6.85,0,0,1,604.05,535.85Zm0-18.2a6.38,6.38,0,0,1-4.82,2,6.84,6.84,0,0,1-6.91-6.92,6.47,6.47,0,0,1,2-4.73,6.68,6.68,0,0,1,4.91-2,6.39,6.39,0,0,1,4.82,2,6.63,6.63,0,0,1,1.91,4.73A6.84,6.84,0,0,1,604.05,517.65Zm0-18.2a6.38,6.38,0,0,1-4.82,2,6.83,6.83,0,0,1-6.91-6.92,6.47,6.47,0,0,1,2-4.73,6.68,6.68,0,0,1,4.91-2,6.39,6.39,0,0,1,4.82,2,6.63,6.63,0,0,1,1.91,4.73A6.85,6.85,0,0,1,604.05,499.45Zm0-18.2a6.38,6.38,0,0,1-4.82,2,6.83,6.83,0,0,1-6.91-6.92,6.47,6.47,0,0,1,2-4.73,6.68,6.68,0,0,1,4.91-2,6.39,6.39,0,0,1,4.82,2,6.63,6.63,0,0,1,1.91,4.73A6.85,6.85,0,0,1,604.05,481.25Zm0-18.2a6.38,6.38,0,0,1-4.82,2,6.83,6.83,0,0,1-6.91-6.92,6.47,6.47,0,0,1,2-4.73,6.68,6.68,0,0,1,4.91-2,6.39,6.39,0,0,1,4.82,2,6.63,6.63,0,0,1,1.91,4.73A6.85,6.85,0,0,1,604.05,463.05Zm0-18.2a6.38,6.38,0,0,1-4.82,2,6.84,6.84,0,0,1-6.91-6.92,6.47,6.47,0,0,1,2-4.73,6.68,6.68,0,0,1,4.91-2,6.39,6.39,0,0,1,4.82,2,6.63,6.63,0,0,1,1.91,4.73A6.84,6.84,0,0,1,604.05,444.85Zm0-18.2a6.38,6.38,0,0,1-4.82,2,6.83,6.83,0,0,1-6.91-6.92,6.47,6.47,0,0,1,2-4.73,6.68,6.68,0,0,1,4.91-2,6.39,6.39,0,0,1,4.82,2,6.63,6.63,0,0,1,1.91,4.73A6.84,6.84,0,0,1,604.05,426.65Zm0-18.2a6.38,6.38,0,0,1-4.82,2,6.83,6.83,0,0,1-6.91-6.92,6.47,6.47,0,0,1,2-4.73,6.68,6.68,0,0,1,4.91-2,6.39,6.39,0,0,1,4.82,2,6.63,6.63,0,0,1,1.91,4.73A6.85,6.85,0,0,1,604.05,408.45Zm0-162.67a6.39,6.39,0,0,1-4.82,2,6.83,6.83,0,0,1-6.91-6.92,6.47,6.47,0,0,1,2-4.73,6.68,6.68,0,0,1,4.91-2,6.39,6.39,0,0,1,4.82,2,6.63,6.63,0,0,1,1.91,4.73A6.85,6.85,0,0,1,604.05,245.79Zm0-18.2a6.38,6.38,0,0,1-4.82,2,6.83,6.83,0,0,1-6.91-6.92,6.47,6.47,0,0,1,2-4.73,6.68,6.68,0,0,1,4.91-2,6.39,6.39,0,0,1,4.82,2,6.63,6.63,0,0,1,1.91,4.73A6.85,6.85,0,0,1,604.05,227.59Zm0-18.2a6.38,6.38,0,0,1-4.82,2,6.83,6.83,0,0,1-6.91-6.92,6.47,6.47,0,0,1,2-4.73,6.68,6.68,0,0,1,4.91-2,6.39,6.39,0,0,1,4.82,2,6.63,6.63,0,0,1,1.91,4.73A6.85,6.85,0,0,1,604.05,209.39Zm0-18.2a6.38,6.38,0,0,1-4.82,2,6.83,6.83,0,0,1-6.91-6.92,6.47,6.47,0,0,1,2-4.73,6.68,6.68,0,0,1,4.91-2,6.39,6.39,0,0,1,4.82,2,6.63,6.63,0,0,1,1.91,4.73A6.85,6.85,0,0,1,604.05,191.19Zm0-18.2a6.38,6.38,0,0,1-4.82,2,6.83,6.83,0,0,1-6.91-6.92,6.47,6.47,0,0,1,2-4.73,6.68,6.68,0,0,1,4.91-2,6.39,6.39,0,0,1,4.82,2,6.63,6.63,0,0,1,1.91,4.73A6.85,6.85,0,0,1,604.05,173Zm0-18.2a6.38,6.38,0,0,1-4.82,2,6.83,6.83,0,0,1-6.91-6.92,6.47,6.47,0,0,1,2-4.73,6.68,6.68,0,0,1,4.91-2,6.39,6.39,0,0,1,4.82,2,6.63,6.63,0,0,1,1.91,4.73A6.85,6.85,0,0,1,604.05,154.79Zm0-18.2a6.38,6.38,0,0,1-4.82,2,6.83,6.83,0,0,1-6.91-6.92,6.47,6.47,0,0,1,2-4.73,6.68,6.68,0,0,1,4.91-2,6.39,6.39,0,0,1,4.82,2,6.63,6.63,0,0,1,1.91,4.73A6.85,6.85,0,0,1,604.05,136.59Zm0-18.2a6.38,6.38,0,0,1-4.82,2,6.83,6.83,0,0,1-6.91-6.92,6.47,6.47,0,0,1,2-4.73,6.68,6.68,0,0,1,4.91-2,6.39,6.39,0,0,1,4.82,2,6.63,6.63,0,0,1,1.91,4.73A6.85,6.85,0,0,1,604.05,118.39Zm18.19,417.45a6.38,6.38,0,0,1-4.82,2,6.84,6.84,0,0,1-6.91-6.92,6.47,6.47,0,0,1,2-4.73,6.68,6.68,0,0,1,4.91-2,6.39,6.39,0,0,1,4.82,2,6.62,6.62,0,0,1,1.91,4.73A6.85,6.85,0,0,1,622.25,535.85Zm0-127.39a6.38,6.38,0,0,1-4.82,2,6.84,6.84,0,0,1-6.91-6.92,6.47,6.47,0,0,1,2-4.73,6.68,6.68,0,0,1,4.91-2,6.39,6.39,0,0,1,4.82,2,6.63,6.63,0,0,1,1.91,4.73A6.84,6.84,0,0,1,622.25,408.45Zm0-162.67a6.38,6.38,0,0,1-4.82,2,6.84,6.84,0,0,1-6.91-6.92,6.46,6.46,0,0,1,2-4.73,6.68,6.68,0,0,1,4.91-2,6.38,6.38,0,0,1,4.82,2,6.62,6.62,0,0,1,1.91,4.73A6.85,6.85,0,0,1,622.25,245.79Zm0-127.39a6.38,6.38,0,0,1-4.82,2,6.84,6.84,0,0,1-6.91-6.92,6.47,6.47,0,0,1,2-4.73,6.68,6.68,0,0,1,4.91-2,6.39,6.39,0,0,1,4.82,2,6.63,6.63,0,0,1,1.91,4.73A6.84,6.84,0,0,1,622.25,118.39Zm18.2,417.45a6.39,6.39,0,0,1-4.82,2,6.84,6.84,0,0,1-6.91-6.92,6.47,6.47,0,0,1,2-4.73,6.68,6.68,0,0,1,4.91-2,6.39,6.39,0,0,1,4.82,2,6.63,6.63,0,0,1,1.91,4.73A6.85,6.85,0,0,1,640.44,535.85Zm0-127.39a6.38,6.38,0,0,1-4.82,2,6.84,6.84,0,0,1-6.91-6.92,6.47,6.47,0,0,1,2-4.73,6.68,6.68,0,0,1,4.91-2,6.39,6.39,0,0,1,4.82,2,6.63,6.63,0,0,1,1.91,4.73A6.85,6.85,0,0,1,640.44,408.45Zm0-162.67a6.39,6.39,0,0,1-4.82,2,6.84,6.84,0,0,1-6.91-6.92,6.46,6.46,0,0,1,2-4.73,6.68,6.68,0,0,1,4.91-2,6.39,6.39,0,0,1,4.82,2,6.63,6.63,0,0,1,1.91,4.73A6.85,6.85,0,0,1,640.44,245.79Zm0-127.39a6.38,6.38,0,0,1-4.82,2,6.84,6.84,0,0,1-6.91-6.92,6.47,6.47,0,0,1,2-4.73,6.68,6.68,0,0,1,4.91-2,6.39,6.39,0,0,1,4.82,2,6.63,6.63,0,0,1,1.91,4.73A6.84,6.84,0,0,1,640.44,118.39Zm18.1,416.91a6.47,6.47,0,0,1-4.73,2,6.68,6.68,0,0,1-4.91-2,6.47,6.47,0,0,1-2-4.73,6.83,6.83,0,0,1,6.91-6.92,6.47,6.47,0,0,1,4.73,2,6.69,6.69,0,0,1,2,4.91A6.48,6.48,0,0,1,658.55,535.3Zm.09-126.12a6.38,6.38,0,0,1-4.82,2,6.67,6.67,0,0,1-4.91-2,6.46,6.46,0,0,1-2-4.73,6.83,6.83,0,0,1,6.91-6.92,6.39,6.39,0,0,1,4.82,2,6.85,6.85,0,0,1,1.91,4.91A6.63,6.63,0,0,1,658.64,409.18Zm-.09-163.94a6.47,6.47,0,0,1-4.73,2,6.68,6.68,0,0,1-4.91-2,6.47,6.47,0,0,1-2-4.73,6.83,6.83,0,0,1,6.91-6.92,6.47,6.47,0,0,1,4.73,2,6.69,6.69,0,0,1,2,4.91A6.48,6.48,0,0,1,658.55,245.24Zm.09-126.12a6.38,6.38,0,0,1-4.82,2,6.67,6.67,0,0,1-4.91-2,6.46,6.46,0,0,1-2-4.73,6.83,6.83,0,0,1,6.91-6.92,6.39,6.39,0,0,1,4.82,2,6.85,6.85,0,0,1,1.91,4.91A6.63,6.63,0,0,1,658.64,119.12Zm17.56,411.81a6.69,6.69,0,0,1-4.91,2,6.47,6.47,0,0,1-4.73-2,6.67,6.67,0,0,1-2-4.91,6.84,6.84,0,0,1,6.73-6.73,6.69,6.69,0,0,1,4.91,2,6.48,6.48,0,0,1,2,4.73A6.68,6.68,0,0,1,676.19,530.93Zm0-116.66a6.68,6.68,0,0,1-4.91,2,6.46,6.46,0,0,1-4.73-2,6.67,6.67,0,0,1-2-4.91,6.84,6.84,0,0,1,6.73-6.73,6.69,6.69,0,0,1,4.91,2,6.48,6.48,0,0,1,2,4.73A6.69,6.69,0,0,1,676.19,414.28Zm0-173.4a6.69,6.69,0,0,1-4.91,2,6.47,6.47,0,0,1-4.73-2,6.67,6.67,0,0,1-2-4.91,6.84,6.84,0,0,1,6.73-6.73,6.69,6.69,0,0,1,4.91,2,6.48,6.48,0,0,1,2,4.73A6.68,6.68,0,0,1,676.19,240.87Zm0-116.66a6.68,6.68,0,0,1-4.91,2,6.46,6.46,0,0,1-4.73-2,6.67,6.67,0,0,1-2-4.91,6.84,6.84,0,0,1,6.73-6.73,6.69,6.69,0,0,1,4.91,2,6.48,6.48,0,0,1,2,4.73A6.68,6.68,0,0,1,676.19,124.22Zm5.46,290.24a6.68,6.68,0,0,1,4.91-2,6.84,6.84,0,0,1,6.73,6.73,6.68,6.68,0,0,1-2,4.91,6.46,6.46,0,0,1-4.73,2,6.84,6.84,0,0,1-6.91-6.92A6.47,6.47,0,0,1,681.65,414.46Zm9.92,106.83a6.38,6.38,0,0,1-4.82,2,6.84,6.84,0,0,1-6.91-6.92,6.47,6.47,0,0,1,2-4.73,6.68,6.68,0,0,1,4.91-2,6.39,6.39,0,0,1,4.82,2,6.63,6.63,0,0,1,1.91,4.73A6.85,6.85,0,0,1,691.57,521.29Zm11.74-13.83a6.68,6.68,0,0,1-4.91,2,6.46,6.46,0,0,1-4.73-2,6.67,6.67,0,0,1-2-4.91,6.84,6.84,0,0,1,6.73-6.73,6.69,6.69,0,0,1,4.91,2,6.48,6.48,0,0,1,2,4.73A6.68,6.68,0,0,1,703.3,507.46Zm6.91-16.74a6.46,6.46,0,0,1-4.73,2,6.84,6.84,0,0,1-6.91-6.92,6.47,6.47,0,0,1,2-4.73,6.68,6.68,0,0,1,4.91-2,6.84,6.84,0,0,1,6.73,6.73A6.68,6.68,0,0,1,710.22,490.71Zm2.18-18a6.46,6.46,0,0,1-4.73,2,6.84,6.84,0,0,1-6.91-6.92,6.46,6.46,0,0,1,2-4.73,6.67,6.67,0,0,1,4.91-2,6.84,6.84,0,0,1,6.73,6.73A6.68,6.68,0,0,1,712.4,472.7Zm0-290.06a6.46,6.46,0,0,1-4.73,2,6.84,6.84,0,0,1-6.91-6.92,6.46,6.46,0,0,1,2-4.73,6.67,6.67,0,0,1,4.91-2,6.84,6.84,0,0,1,6.73,6.73A6.68,6.68,0,0,1,712.4,182.64ZM830.12,499.45a6.68,6.68,0,0,1-4.91,2,6.46,6.46,0,0,1-4.73-2,6.67,6.67,0,0,1-2-4.91,6.84,6.84,0,0,1,6.73-6.73,6.69,6.69,0,0,1,4.91,2,6.48,6.48,0,0,1,2,4.73A6.68,6.68,0,0,1,830.12,499.45Zm.36-20a6.47,6.47,0,0,1,2-4.73,6.68,6.68,0,0,1,4.91-2,6.84,6.84,0,0,1,6.73,6.73,6.69,6.69,0,0,1-2,4.91,6.47,6.47,0,0,1-4.73,2,6.84,6.84,0,0,1-6.91-6.92Zm17.83,20a6.68,6.68,0,0,1-4.91,2,6.46,6.46,0,0,1-4.73-2,6.67,6.67,0,0,1-2-4.91,6.84,6.84,0,0,1,6.73-6.73,6.69,6.69,0,0,1,4.91,2,6.48,6.48,0,0,1,2,4.73A6.68,6.68,0,0,1,848.31,499.45Zm1.09-28.39a6.84,6.84,0,0,1-6.73-6.73,6.68,6.68,0,0,1,2-4.91,6.47,6.47,0,0,1,4.73-2,6.83,6.83,0,0,1,6.91,6.92,6.47,6.47,0,0,1-2,4.73A6.68,6.68,0,0,1,849.4,471.06Zm17.1,28.39a6.68,6.68,0,0,1-4.91,2,6.46,6.46,0,0,1-4.73-2,6.67,6.67,0,0,1-2-4.91,6.84,6.84,0,0,1,6.73-6.73,6.69,6.69,0,0,1,4.91,2,6.48,6.48,0,0,1,2,4.73A6.68,6.68,0,0,1,866.51,499.45Zm0-45.5a6.68,6.68,0,0,1-4.91,2,6.46,6.46,0,0,1-4.73-2,6.67,6.67,0,0,1-2-4.91,6.84,6.84,0,0,1,6.73-6.73,6.69,6.69,0,0,1,4.91,2,6.47,6.47,0,0,1,2,4.73A6.68,6.68,0,0,1,866.51,454Zm.36-20a6.46,6.46,0,0,1,2-4.73,6.68,6.68,0,0,1,4.91-2,6.84,6.84,0,0,1,6.73,6.73,6.68,6.68,0,0,1-2,4.91,6.46,6.46,0,0,1-4.73,2,6.83,6.83,0,0,1-6.91-6.92Zm17.83,65.52a6.68,6.68,0,0,1-4.91,2,6.46,6.46,0,0,1-4.73-2,6.67,6.67,0,0,1-2-4.91,6.84,6.84,0,0,1,6.73-6.73,6.69,6.69,0,0,1,4.91,2,6.48,6.48,0,0,1,2,4.73A6.68,6.68,0,0,1,884.7,499.45Zm18.19,36.4a6.68,6.68,0,0,1-4.91,2,6.47,6.47,0,0,1-4.73-2,6.68,6.68,0,0,1-2-4.91A6.84,6.84,0,0,1,898,524.2a6.68,6.68,0,0,1,4.91,2,6.48,6.48,0,0,1,2,4.73A6.69,6.69,0,0,1,902.9,535.85Zm0-18.2a6.67,6.67,0,0,1-4.91,2,6.46,6.46,0,0,1-4.73-2,6.67,6.67,0,0,1-2-4.91A6.84,6.84,0,0,1,898,506a6.68,6.68,0,0,1,4.91,2,6.48,6.48,0,0,1,2,4.73A6.68,6.68,0,0,1,902.9,517.65Zm0-18.2a6.67,6.67,0,0,1-4.91,2,6.46,6.46,0,0,1-4.73-2,6.67,6.67,0,0,1-2-4.91A6.84,6.84,0,0,1,898,487.8a6.68,6.68,0,0,1,4.91,2,6.48,6.48,0,0,1,2,4.73A6.68,6.68,0,0,1,902.9,499.45Zm0-18.2a6.67,6.67,0,0,1-4.91,2,6.46,6.46,0,0,1-4.73-2,6.67,6.67,0,0,1-2-4.91A6.84,6.84,0,0,1,898,469.6a6.68,6.68,0,0,1,4.91,2,6.48,6.48,0,0,1,2,4.73A6.68,6.68,0,0,1,902.9,481.25Zm0-18.2a6.67,6.67,0,0,1-4.91,2,6.46,6.46,0,0,1-4.73-2,6.67,6.67,0,0,1-2-4.91A6.84,6.84,0,0,1,898,451.4a6.68,6.68,0,0,1,4.91,2,6.48,6.48,0,0,1,2,4.73A6.68,6.68,0,0,1,902.9,463.05Zm0-18.2a6.67,6.67,0,0,1-4.91,2,6.46,6.46,0,0,1-4.73-2,6.67,6.67,0,0,1-2-4.91,6.84,6.84,0,0,1,6.73-6.73,6.68,6.68,0,0,1,4.91,2,6.48,6.48,0,0,1,2,4.73A6.68,6.68,0,0,1,902.9,444.85Zm0-18.2a6.67,6.67,0,0,1-4.91,2q-5.83,0-6.73-5.64a6.57,6.57,0,0,1-5.46,2.55,6.84,6.84,0,0,1-6.73-6.73,6.68,6.68,0,0,1,2-4.91,6.47,6.47,0,0,1,4.73-2q5.82,0,6.73,5.82A6.91,6.91,0,0,1,902.9,417a6.48,6.48,0,0,1,2,4.73A6.68,6.68,0,0,1,902.9,426.65Zm0-18.2a6.67,6.67,0,0,1-4.91,2,6.46,6.46,0,0,1-4.73-2,6.67,6.67,0,0,1-2-4.91,6.84,6.84,0,0,1,6.73-6.73,6.68,6.68,0,0,1,4.91,2,6.48,6.48,0,0,1,2,4.73A6.68,6.68,0,0,1,902.9,408.45Zm4.19-175.77a6.46,6.46,0,0,1-4.73,2,6.67,6.67,0,0,1-4.91-2,6.46,6.46,0,0,1-2-4.73,6.84,6.84,0,0,1,6.91-6.92,6.47,6.47,0,0,1,4.73,2,6.69,6.69,0,0,1,2,4.91A6.47,6.47,0,0,1,907.08,232.68Zm14,266.77a6.68,6.68,0,0,1-4.91,2,6.46,6.46,0,0,1-4.73-2,6.67,6.67,0,0,1-2-4.91,6.84,6.84,0,0,1,6.73-6.73,6.69,6.69,0,0,1,4.91,2,6.48,6.48,0,0,1,2,4.73A6.68,6.68,0,0,1,921.09,499.45Zm31,36.4a6.39,6.39,0,0,1-4.82,2,6.84,6.84,0,0,1-6.91-6.92,6.47,6.47,0,0,1,2-4.73,6.68,6.68,0,0,1,4.91-2,6.39,6.39,0,0,1,4.82,2,6.63,6.63,0,0,1,1.91,4.73A6.85,6.85,0,0,1,952.11,535.85Zm0-18.2a6.38,6.38,0,0,1-4.82,2,6.84,6.84,0,0,1-6.91-6.92,6.47,6.47,0,0,1,2-4.73,6.68,6.68,0,0,1,4.91-2,6.39,6.39,0,0,1,4.82,2,6.63,6.63,0,0,1,1.91,4.73A6.84,6.84,0,0,1,952.11,517.65Zm0-18.2a6.38,6.38,0,0,1-4.82,2,6.83,6.83,0,0,1-6.91-6.92,6.47,6.47,0,0,1,2-4.73,6.68,6.68,0,0,1,4.91-2,6.39,6.39,0,0,1,4.82,2,6.63,6.63,0,0,1,1.91,4.73A6.85,6.85,0,0,1,952.11,499.45Zm0-18.2a6.38,6.38,0,0,1-4.82,2,6.83,6.83,0,0,1-6.91-6.92,6.47,6.47,0,0,1,2-4.73,6.68,6.68,0,0,1,4.91-2,6.39,6.39,0,0,1,4.82,2,6.63,6.63,0,0,1,1.91,4.73A6.85,6.85,0,0,1,952.11,481.25Zm0-18.2a6.38,6.38,0,0,1-4.82,2,6.83,6.83,0,0,1-6.91-6.92,6.47,6.47,0,0,1,2-4.73,6.68,6.68,0,0,1,4.91-2,6.39,6.39,0,0,1,4.82,2,6.63,6.63,0,0,1,1.91,4.73A6.85,6.85,0,0,1,952.11,463.05Zm0-18.2a6.38,6.38,0,0,1-4.82,2,6.84,6.84,0,0,1-6.91-6.92,6.47,6.47,0,0,1,2-4.73,6.68,6.68,0,0,1,4.91-2,6.39,6.39,0,0,1,4.82,2,6.63,6.63,0,0,1,1.91,4.73A6.84,6.84,0,0,1,952.11,444.85Zm0-18.2a6.38,6.38,0,0,1-4.82,2,6.83,6.83,0,0,1-6.91-6.92,6.47,6.47,0,0,1,2-4.73,6.68,6.68,0,0,1,4.91-2,6.39,6.39,0,0,1,4.82,2,6.63,6.63,0,0,1,1.91,4.73A6.84,6.84,0,0,1,952.11,426.65Zm0-18.2a6.38,6.38,0,0,1-4.82,2,6.83,6.83,0,0,1-6.91-6.92,6.47,6.47,0,0,1,2-4.73,6.68,6.68,0,0,1,4.91-2,6.39,6.39,0,0,1,4.82,2,6.63,6.63,0,0,1,1.91,4.73A6.85,6.85,0,0,1,952.11,408.45Zm0-162.67a6.39,6.39,0,0,1-4.82,2,6.83,6.83,0,0,1-6.91-6.92,6.47,6.47,0,0,1,2-4.73,6.68,6.68,0,0,1,4.91-2,6.39,6.39,0,0,1,4.82,2,6.63,6.63,0,0,1,1.91,4.73A6.85,6.85,0,0,1,952.11,245.79Zm0-18.2a6.38,6.38,0,0,1-4.82,2,6.83,6.83,0,0,1-6.91-6.92,6.47,6.47,0,0,1,2-4.73,6.68,6.68,0,0,1,4.91-2,6.39,6.39,0,0,1,4.82,2,6.63,6.63,0,0,1,1.91,4.73A6.85,6.85,0,0,1,952.11,227.59Zm0-18.2a6.38,6.38,0,0,1-4.82,2,6.83,6.83,0,0,1-6.91-6.92,6.47,6.47,0,0,1,2-4.73,6.68,6.68,0,0,1,4.91-2,6.39,6.39,0,0,1,4.82,2,6.63,6.63,0,0,1,1.91,4.73A6.85,6.85,0,0,1,952.11,209.39Zm0-18.2a6.38,6.38,0,0,1-4.82,2,6.83,6.83,0,0,1-6.91-6.92,6.47,6.47,0,0,1,2-4.73,6.68,6.68,0,0,1,4.91-2,6.39,6.39,0,0,1,4.82,2,6.63,6.63,0,0,1,1.91,4.73A6.85,6.85,0,0,1,952.11,191.19Zm0-18.2a6.38,6.38,0,0,1-4.82,2,6.83,6.83,0,0,1-6.91-6.92,6.47,6.47,0,0,1,2-4.73,6.68,6.68,0,0,1,4.91-2,6.39,6.39,0,0,1,4.82,2,6.63,6.63,0,0,1,1.91,4.73A6.85,6.85,0,0,1,952.11,173Zm0-18.2a6.38,6.38,0,0,1-4.82,2,6.83,6.83,0,0,1-6.91-6.92,6.47,6.47,0,0,1,2-4.73,6.68,6.68,0,0,1,4.91-2,6.39,6.39,0,0,1,4.82,2,6.63,6.63,0,0,1,1.91,4.73A6.85,6.85,0,0,1,952.11,154.79Zm0-18.2a6.38,6.38,0,0,1-4.82,2,6.83,6.83,0,0,1-6.91-6.92,6.47,6.47,0,0,1,2-4.73,6.68,6.68,0,0,1,4.91-2,6.39,6.39,0,0,1,4.82,2,6.63,6.63,0,0,1,1.91,4.73A6.85,6.85,0,0,1,952.11,136.59Zm0-18.2a6.38,6.38,0,0,1-4.82,2,6.83,6.83,0,0,1-6.91-6.92,6.47,6.47,0,0,1,2-4.73,6.68,6.68,0,0,1,4.91-2,6.39,6.39,0,0,1,4.82,2,6.63,6.63,0,0,1,1.91,4.73A6.85,6.85,0,0,1,952.11,118.39ZM970.3,535.85a6.38,6.38,0,0,1-4.82,2,6.84,6.84,0,0,1-6.91-6.92,6.47,6.47,0,0,1,2-4.73,6.68,6.68,0,0,1,4.91-2,6.39,6.39,0,0,1,4.82,2,6.62,6.62,0,0,1,1.91,4.73A6.85,6.85,0,0,1,970.3,535.85Zm0-72.8a6.38,6.38,0,0,1-4.82,2,6.84,6.84,0,0,1-6.91-6.92,6.47,6.47,0,0,1,2-4.73,6.68,6.68,0,0,1,4.91-2,6.39,6.39,0,0,1,4.82,2,6.62,6.62,0,0,1,1.91,4.73A6.84,6.84,0,0,1,970.3,463.05Zm0-54.6a6.38,6.38,0,0,1-4.82,2,6.84,6.84,0,0,1-6.91-6.92,6.47,6.47,0,0,1,2-4.73,6.68,6.68,0,0,1,4.91-2,6.39,6.39,0,0,1,4.82,2,6.63,6.63,0,0,1,1.91,4.73A6.84,6.84,0,0,1,970.3,408.45Zm0-162.67a6.38,6.38,0,0,1-4.82,2,6.84,6.84,0,0,1-6.91-6.92,6.46,6.46,0,0,1,2-4.73,6.68,6.68,0,0,1,4.91-2,6.38,6.38,0,0,1,4.82,2,6.62,6.62,0,0,1,1.91,4.73A6.85,6.85,0,0,1,970.3,245.79Zm0-72.8a6.38,6.38,0,0,1-4.82,2,6.84,6.84,0,0,1-6.91-6.92,6.47,6.47,0,0,1,2-4.73,6.68,6.68,0,0,1,4.91-2,6.39,6.39,0,0,1,4.82,2,6.62,6.62,0,0,1,1.91,4.73A6.84,6.84,0,0,1,970.3,173Zm0-54.6a6.38,6.38,0,0,1-4.82,2,6.84,6.84,0,0,1-6.91-6.92,6.47,6.47,0,0,1,2-4.73,6.68,6.68,0,0,1,4.91-2,6.39,6.39,0,0,1,4.82,2,6.63,6.63,0,0,1,1.91,4.73A6.84,6.84,0,0,1,970.3,118.39Zm18.2,417.45a6.39,6.39,0,0,1-4.82,2,6.84,6.84,0,0,1-6.91-6.92,6.47,6.47,0,0,1,2-4.73,6.68,6.68,0,0,1,4.91-2,6.39,6.39,0,0,1,4.82,2,6.63,6.63,0,0,1,1.91,4.73A6.85,6.85,0,0,1,988.5,535.85Zm0-72.8a6.38,6.38,0,0,1-4.82,2,6.84,6.84,0,0,1-6.91-6.92,6.47,6.47,0,0,1,2-4.73,6.68,6.68,0,0,1,4.91-2,6.39,6.39,0,0,1,4.82,2,6.63,6.63,0,0,1,1.91,4.73A6.85,6.85,0,0,1,988.5,463.05Zm0-54.6a6.38,6.38,0,0,1-4.82,2,6.84,6.84,0,0,1-6.91-6.92,6.47,6.47,0,0,1,2-4.73,6.68,6.68,0,0,1,4.91-2,6.39,6.39,0,0,1,4.82,2,6.63,6.63,0,0,1,1.91,4.73A6.85,6.85,0,0,1,988.5,408.45Zm0-162.67a6.39,6.39,0,0,1-4.82,2,6.84,6.84,0,0,1-6.91-6.92,6.46,6.46,0,0,1,2-4.73,6.68,6.68,0,0,1,4.91-2,6.39,6.39,0,0,1,4.82,2,6.63,6.63,0,0,1,1.91,4.73A6.85,6.85,0,0,1,988.5,245.79Zm0-72.8a6.38,6.38,0,0,1-4.82,2,6.84,6.84,0,0,1-6.91-6.92,6.47,6.47,0,0,1,2-4.73,6.68,6.68,0,0,1,4.91-2,6.39,6.39,0,0,1,4.82,2,6.63,6.63,0,0,1,1.91,4.73A6.85,6.85,0,0,1,988.5,173Zm0-54.6a6.38,6.38,0,0,1-4.82,2,6.84,6.84,0,0,1-6.91-6.92,6.47,6.47,0,0,1,2-4.73,6.68,6.68,0,0,1,4.91-2,6.39,6.39,0,0,1,4.82,2,6.63,6.63,0,0,1,1.91,4.73A6.84,6.84,0,0,1,988.5,118.39Zm18.19,417.45a6.39,6.39,0,0,1-4.82,2,6.84,6.84,0,0,1-6.91-6.92,6.46,6.46,0,0,1,2-4.73,6.68,6.68,0,0,1,4.91-2,6.39,6.39,0,0,1,4.82,2,6.63,6.63,0,0,1,1.91,4.73A6.85,6.85,0,0,1,1006.69,535.85Zm0-72.8a6.38,6.38,0,0,1-4.82,2,6.83,6.83,0,0,1-6.91-6.92,6.46,6.46,0,0,1,2-4.73,6.68,6.68,0,0,1,4.91-2,6.39,6.39,0,0,1,4.82,2,6.63,6.63,0,0,1,1.91,4.73A6.85,6.85,0,0,1,1006.69,463.05Zm0-54.6a6.38,6.38,0,0,1-4.82,2,6.83,6.83,0,0,1-6.91-6.92,6.47,6.47,0,0,1,2-4.73,6.68,6.68,0,0,1,4.91-2,6.39,6.39,0,0,1,4.82,2,6.63,6.63,0,0,1,1.91,4.73A6.85,6.85,0,0,1,1006.69,408.45Zm0-162.67a6.39,6.39,0,0,1-4.82,2,6.83,6.83,0,0,1-6.91-6.92,6.46,6.46,0,0,1,2-4.73,6.68,6.68,0,0,1,4.91-2,6.39,6.39,0,0,1,4.82,2,6.63,6.63,0,0,1,1.91,4.73A6.85,6.85,0,0,1,1006.69,245.79Zm0-72.8a6.38,6.38,0,0,1-4.82,2,6.83,6.83,0,0,1-6.91-6.92,6.46,6.46,0,0,1,2-4.73,6.68,6.68,0,0,1,4.91-2,6.39,6.39,0,0,1,4.82,2,6.63,6.63,0,0,1,1.91,4.73A6.85,6.85,0,0,1,1006.69,173Zm0-54.6a6.38,6.38,0,0,1-4.82,2,6.83,6.83,0,0,1-6.91-6.92,6.47,6.47,0,0,1,2-4.73,6.68,6.68,0,0,1,4.91-2,6.39,6.39,0,0,1,4.82,2,6.63,6.63,0,0,1,1.91,4.73A6.85,6.85,0,0,1,1006.69,118.39Zm18.19,417.45a6.39,6.39,0,0,1-4.82,2,6.84,6.84,0,0,1-6.91-6.92,6.47,6.47,0,0,1,2-4.73,6.68,6.68,0,0,1,4.91-2,6.39,6.39,0,0,1,4.82,2,6.63,6.63,0,0,1,1.91,4.73A6.85,6.85,0,0,1,1024.89,535.85Zm0-127.39a6.38,6.38,0,0,1-4.82,2,6.84,6.84,0,0,1-6.91-6.92,6.47,6.47,0,0,1,2-4.73,6.68,6.68,0,0,1,4.91-2,6.39,6.39,0,0,1,4.82,2,6.63,6.63,0,0,1,1.91,4.73A6.85,6.85,0,0,1,1024.89,408.45Zm0-162.67a6.39,6.39,0,0,1-4.82,2,6.84,6.84,0,0,1-6.91-6.92,6.46,6.46,0,0,1,2-4.73,6.67,6.67,0,0,1,4.91-2,6.39,6.39,0,0,1,4.82,2,6.63,6.63,0,0,1,1.91,4.73A6.85,6.85,0,0,1,1024.89,245.79Z" style="fill:none;stroke:red;stroke-miterlimit:10;stroke-width:0.028346456587315px"/><rect x="66.67" y="626.34" width="1055.24" height="170.08" style="fill:none;stroke:red;stroke-miterlimit:10;stroke-width:0.028346456587315px"/></g></g></svg>