<?xml version="1.0" encoding="utf-8"?>
<!-- Generator: Adobe Illustrator 20.1.0, SVG Export Plug-In . SVG Version: 6.00 Build 0)  -->
<svg version="1.1" id="Calque_1" xmlns="http://www.w3.org/2000/svg" xmlns:xlink="http://www.w3.org/1999/xlink" x="0px" y="0px"
	 viewBox="0 0 1190.6 841.9" style="enable-background:new 0 0 1190.6 841.9;" xml:space="preserve">
<style type="text/css">
	.st0{fill:none;stroke:#FF0000;stroke-width:1.000000e-02;stroke-miterlimit:10;}
	.st1{fill:none;stroke:#FF0000;stroke-width:0.1;stroke-miterlimit:10;}
</style>
<title>Afficheur-Led</title>
<path class="st0" d="M444.5,570.8c-2.3,0-4.3-1.9-4.3-4.3s1.9-4.3,4.3-4.3s4.3,1.9,4.3,4.3S446.9,570.8,444.5,570.8z M473.2,570.5
	c-2.3,0-4.3-1.9-4.3-4.3c0-2.3,1.9-4.3,4.3-4.3s4.3,1.9,4.3,4.3C477.4,568.6,475.5,570.5,473.2,570.5z M384.1,594.2v-62.4h18.1
	c0,0.2,0,0.3,0,0.5v2.8c-0.2,10,5.1,16.6,21.8,16.6h75.8c0,0,0,28.3,0,28.3h34.8h140.3h27.9v-5H687c0,0-3.2,1.1-6.5,1.1
	s-5.7-1.1-5.7-1.1v-1.4v-22h100.1c17.7,0,21.8-8.2,21.8-16.6v-2.8c0-0.2,0-0.3,0-0.5h18.1v19.8h0v105.2h-18.1c0-0.3,0-0.6,0-0.8
	v-4.7c0-17.7-14.5-32.2-32.2-32.2H434.3c-17.7,0-32.2,14.5-32.2,32.2v4.7c0,0.3,0,0.6,0,0.8h-18.1V551.7"/>
<path class="st1" d="M636.3,570.8c-0.2-25-8.3-33.6-34.4-33.6c-26.3,0-32.7,5.3-64.7,5.3v5h-15.8c0,0-2.7-1.4-6.2-1.4
	c-3.6,0-5.8,1.4-5.8,1.4v23.4H636.3z M612.3,551.7c2.3,0,4.3,1.9,4.3,4.3c0,2.3-1.9,4.3-4.3,4.3s-4.3-1.9-4.3-4.3
	C608,553.6,609.9,551.7,612.3,551.7z M583.6,552c2.3,0,4.3,1.9,4.3,4.3c0,2.3-1.9,4.3-4.3,4.3s-4.3-1.9-4.3-4.3
	C579.4,553.9,581.3,552,583.6,552z"/>
<g>
	<polyline class="st0" points="182.1,776.9 13,776.9 13,652.1 	"/>
	<polyline class="st0" points="351.1,652.1 351.1,776.9 182.1,776.9 	"/>
	<line class="st0" x1="182.1" y1="776.9" x2="182.1" y2="777"/>
	<line class="st0" x1="182.1" y1="776.9" x2="182.1" y2="652.3"/>
	<line class="st0" x1="13" y1="402.7" x2="13" y2="527.4"/>
	<line class="st0" x1="182.1" y1="402.7" x2="182.1" y2="527.4"/>
	<polyline class="st0" points="378.5,527.4 378.5,652.1 351.1,652.1 	"/>
	<line class="st0" x1="332.8" y1="652.1" x2="351.1" y2="652.1"/>
	<line class="st0" x1="351.1" y1="527.4" x2="332.8" y2="527.4"/>
	<line class="st0" x1="332.8" y1="652.1" x2="287.1" y2="652.1"/>
	<line class="st0" x1="287.1" y1="527.4" x2="332.8" y2="527.4"/>
	<line class="st0" x1="332.8" y1="652.1" x2="332.8" y2="527.4"/>
	<line class="st0" x1="241.4" y1="652.1" x2="287.1" y2="652.1"/>
	<line class="st0" x1="287.1" y1="527.4" x2="241.4" y2="527.4"/>
	<line class="st0" x1="287.1" y1="527.4" x2="287.1" y2="652.1"/>
	<line class="st0" x1="195.7" y1="527.4" x2="241.4" y2="527.4"/>
	<line class="st0" x1="195.7" y1="652.1" x2="241.4" y2="652.1"/>
	<line class="st0" x1="241.4" y1="652.1" x2="241.4" y2="527.4"/>
	<line class="st0" x1="150.1" y1="652.1" x2="182.1" y2="652.1"/>
	<line class="st0" x1="195.7" y1="652.1" x2="182.1" y2="652.1"/>
	<line class="st0" x1="182.1" y1="527.4" x2="150.1" y2="527.4"/>
	<line class="st0" x1="195.7" y1="527.4" x2="182.1" y2="527.4"/>
	<line class="st0" x1="195.7" y1="527.4" x2="195.7" y2="652.1"/>
	<line class="st0" x1="150.1" y1="652.1" x2="104.4" y2="652.1"/>
	<line class="st0" x1="104.4" y1="527.4" x2="150.1" y2="527.4"/>
	<line class="st0" x1="150.1" y1="652.1" x2="150.1" y2="527.4"/>
	<line class="st0" x1="104.4" y1="527.4" x2="58.7" y2="527.4"/>
	<line class="st0" x1="104.4" y1="652.1" x2="58.7" y2="652.1"/>
	<line class="st0" x1="104.4" y1="527.4" x2="104.4" y2="652.1"/>
	<line class="st0" x1="13" y1="652.1" x2="13" y2="527.4"/>
	<line class="st0" x1="13" y1="652.1" x2="58.7" y2="652.1"/>
	<line class="st0" x1="13" y1="527.4" x2="58.7" y2="527.4"/>
	<line class="st0" x1="58.7" y1="652.1" x2="58.7" y2="527.4"/>
	<line class="st0" x1="13" y1="153.3" x2="13" y2="278"/>
	<line class="st0" x1="689.3" y1="278" x2="689.3" y2="153.3"/>
	<line class="st0" x1="13" y1="278" x2="13" y2="402.7"/>
	<line class="st0" x1="182.1" y1="402.7" x2="13" y2="402.7"/>
	<line class="st0" x1="182.1" y1="402.7" x2="351.1" y2="402.7"/>
	<line class="st0" x1="351.1" y1="153.3" x2="351.1" y2="278"/>
	<polyline class="st0" points="369.3,402.7 689.3,402.7 689.3,278 	"/>
	<line class="st0" x1="351.1" y1="278" x2="13" y2="278"/>
	<line class="st0" x1="689.3" y1="278" x2="351.1" y2="278"/>
	<line class="st0" x1="351.1" y1="278" x2="351.1" y2="402.7"/>
	<line class="st0" x1="293" y1="21.1" x2="293" y2="12"/>
	<line class="st0" x1="293" y1="54.2" x2="293" y2="27.8"/>
	<line class="st0" x1="293" y1="87.3" x2="293" y2="60.9"/>
	<line class="st0" x1="293" y1="119.6" x2="293" y2="94"/>
	<line class="st0" x1="296.5" y1="37.6" x2="296.5" y2="12"/>
	<line class="st0" x1="296.5" y1="70.7" x2="296.5" y2="44.4"/>
	<line class="st0" x1="296.5" y1="103.8" x2="296.5" y2="77.5"/>
	<line class="st0" x1="289.5" y1="37.6" x2="289.5" y2="12"/>
	<line class="st0" x1="289.5" y1="70.7" x2="289.5" y2="44.4"/>
	<line class="st0" x1="289.5" y1="103.8" x2="289.5" y2="77.5"/>
	<line class="st0" x1="338.4" y1="37.6" x2="338.4" y2="12"/>
	<line class="st0" x1="338.4" y1="70.7" x2="338.4" y2="44.4"/>
	<line class="st0" x1="338.4" y1="103.8" x2="338.4" y2="77.5"/>
	<line class="st0" x1="303.5" y1="37.6" x2="303.5" y2="12"/>
	<line class="st0" x1="303.5" y1="70.7" x2="303.5" y2="44.4"/>
	<line class="st0" x1="303.5" y1="103.8" x2="303.5" y2="77.5"/>
	<line class="st0" x1="300" y1="21.1" x2="300" y2="12"/>
	<line class="st0" x1="300" y1="54.2" x2="300" y2="27.8"/>
	<line class="st0" x1="300" y1="87.3" x2="300" y2="60.9"/>
	<line class="st0" x1="300" y1="119.6" x2="300" y2="94"/>
	<line class="st0" x1="307" y1="21.1" x2="307" y2="12"/>
	<line class="st0" x1="307" y1="54.2" x2="307" y2="27.8"/>
	<line class="st0" x1="307" y1="87.3" x2="307" y2="60.9"/>
	<line class="st0" x1="307" y1="119.6" x2="307" y2="94"/>
	<line class="st0" x1="310.5" y1="37.6" x2="310.5" y2="12"/>
	<line class="st0" x1="310.5" y1="70.7" x2="310.5" y2="44.4"/>
	<line class="st0" x1="310.5" y1="103.8" x2="310.5" y2="77.5"/>
	<line class="st0" x1="317.5" y1="37.6" x2="317.5" y2="12"/>
	<line class="st0" x1="317.5" y1="70.7" x2="317.5" y2="44.4"/>
	<line class="st0" x1="317.5" y1="103.8" x2="317.5" y2="77.5"/>
	<line class="st0" x1="314" y1="21.1" x2="314" y2="12"/>
	<line class="st0" x1="314" y1="54.2" x2="314" y2="27.8"/>
	<line class="st0" x1="314" y1="87.3" x2="314" y2="60.9"/>
	<line class="st0" x1="314" y1="119.6" x2="314" y2="94"/>
	<line class="st0" x1="321" y1="21.1" x2="321" y2="12"/>
	<line class="st0" x1="321" y1="54.2" x2="321" y2="27.8"/>
	<line class="st0" x1="321" y1="87.3" x2="321" y2="60.9"/>
	<line class="st0" x1="321" y1="119.6" x2="321" y2="94"/>
	<line class="st0" x1="324.5" y1="37.6" x2="324.5" y2="12"/>
	<line class="st0" x1="324.5" y1="70.7" x2="324.5" y2="44.4"/>
	<line class="st0" x1="324.5" y1="103.8" x2="324.5" y2="77.5"/>
	<line class="st0" x1="331.5" y1="37.6" x2="331.5" y2="12"/>
	<line class="st0" x1="331.5" y1="70.7" x2="331.5" y2="44.4"/>
	<line class="st0" x1="331.5" y1="103.8" x2="331.5" y2="77.5"/>
	<line class="st0" x1="328" y1="21.1" x2="328" y2="12"/>
	<line class="st0" x1="328" y1="54.2" x2="328" y2="27.8"/>
	<line class="st0" x1="328" y1="87.3" x2="328" y2="60.9"/>
	<line class="st0" x1="328" y1="119.6" x2="328" y2="94"/>
	<line class="st0" x1="335" y1="21.1" x2="335" y2="12"/>
	<line class="st0" x1="335" y1="54.2" x2="335" y2="27.8"/>
	<line class="st0" x1="335" y1="87.3" x2="335" y2="60.9"/>
	<line class="st0" x1="335" y1="119.6" x2="335" y2="94"/>
	<line class="st0" x1="293" y1="127.1" x2="293" y2="153.3"/>
	<line class="st0" x1="296.5" y1="136.9" x2="296.5" y2="110.6"/>
	<line class="st0" x1="296.5" y1="143.7" x2="296.5" y2="153.3"/>
	<line class="st0" x1="289.5" y1="136.9" x2="289.5" y2="110.6"/>
	<line class="st0" x1="289.5" y1="143.7" x2="289.5" y2="153.3"/>
	<line class="st0" x1="338.4" y1="136.9" x2="338.4" y2="110.6"/>
	<line class="st0" x1="338.4" y1="143.7" x2="338.4" y2="153.3"/>
	<line class="st0" x1="303.5" y1="136.9" x2="303.5" y2="110.6"/>
	<line class="st0" x1="303.5" y1="143.7" x2="303.5" y2="153.3"/>
	<line class="st0" x1="300" y1="127.1" x2="300" y2="153.3"/>
	<line class="st0" x1="307" y1="127.1" x2="307" y2="153.3"/>
	<line class="st0" x1="310.5" y1="136.9" x2="310.5" y2="110.6"/>
	<line class="st0" x1="310.5" y1="143.7" x2="310.5" y2="153.3"/>
	<line class="st0" x1="317.5" y1="136.9" x2="317.5" y2="110.6"/>
	<line class="st0" x1="317.5" y1="143.7" x2="317.5" y2="153.3"/>
	<line class="st0" x1="314" y1="127.1" x2="314" y2="153.3"/>
	<line class="st0" x1="321" y1="127.1" x2="321" y2="153.3"/>
	<line class="st0" x1="324.5" y1="136.9" x2="324.5" y2="110.6"/>
	<line class="st0" x1="324.5" y1="143.7" x2="324.5" y2="153.3"/>
	<line class="st0" x1="331.5" y1="136.9" x2="331.5" y2="110.6"/>
	<line class="st0" x1="331.5" y1="143.7" x2="331.5" y2="153.3"/>
	<line class="st0" x1="328" y1="127.1" x2="328" y2="153.3"/>
	<line class="st0" x1="335" y1="127.1" x2="335" y2="153.3"/>
	<line class="st0" x1="666.3" y1="21.1" x2="666.3" y2="12"/>
	<line class="st0" x1="666.3" y1="54.2" x2="666.3" y2="27.8"/>
	<line class="st0" x1="666.3" y1="87.3" x2="666.3" y2="60.9"/>
	<line class="st0" x1="666.3" y1="119.6" x2="666.3" y2="94"/>
	<line class="st0" x1="669.8" y1="37.6" x2="669.8" y2="12"/>
	<line class="st0" x1="669.8" y1="70.7" x2="669.8" y2="44.4"/>
	<line class="st0" x1="669.8" y1="103.8" x2="669.8" y2="77.5"/>
	<line class="st0" x1="662.8" y1="37.6" x2="662.8" y2="12"/>
	<line class="st0" x1="662.8" y1="70.7" x2="662.8" y2="44.4"/>
	<line class="st0" x1="662.8" y1="103.8" x2="662.8" y2="77.5"/>
	<line class="st0" x1="711.6" y1="12" x2="711.6" y2="37.6"/>
	<line class="st0" x1="711.6" y1="44.4" x2="711.6" y2="70.7"/>
	<line class="st0" x1="711.6" y1="77.5" x2="711.6" y2="103.8"/>
	<line class="st0" x1="676.8" y1="37.6" x2="676.8" y2="12"/>
	<line class="st0" x1="676.8" y1="70.7" x2="676.8" y2="44.4"/>
	<line class="st0" x1="676.8" y1="103.8" x2="676.8" y2="77.5"/>
	<line class="st0" x1="673.3" y1="21.1" x2="673.3" y2="12"/>
	<line class="st0" x1="673.3" y1="54.2" x2="673.3" y2="27.8"/>
	<line class="st0" x1="673.3" y1="87.3" x2="673.3" y2="60.9"/>
	<line class="st0" x1="673.3" y1="119.6" x2="673.3" y2="94"/>
	<line class="st0" x1="680.3" y1="21.1" x2="680.3" y2="12"/>
	<line class="st0" x1="680.3" y1="54.2" x2="680.3" y2="27.8"/>
	<line class="st0" x1="680.3" y1="87.3" x2="680.3" y2="60.9"/>
	<line class="st0" x1="680.3" y1="119.6" x2="680.3" y2="94"/>
	<line class="st0" x1="683.8" y1="37.6" x2="683.8" y2="12"/>
	<line class="st0" x1="683.8" y1="70.7" x2="683.8" y2="44.4"/>
	<line class="st0" x1="683.8" y1="103.8" x2="683.8" y2="77.5"/>
	<line class="st0" x1="690.8" y1="37.6" x2="690.8" y2="12"/>
	<line class="st0" x1="690.8" y1="70.7" x2="690.8" y2="44.4"/>
	<line class="st0" x1="690.8" y1="103.8" x2="690.8" y2="77.5"/>
	<line class="st0" x1="687.3" y1="21.1" x2="687.3" y2="12"/>
	<line class="st0" x1="687.3" y1="54.2" x2="687.3" y2="27.8"/>
	<line class="st0" x1="687.3" y1="87.3" x2="687.3" y2="60.9"/>
	<line class="st0" x1="687.3" y1="119.6" x2="687.3" y2="94"/>
	<line class="st0" x1="694.3" y1="21.1" x2="694.3" y2="12"/>
	<line class="st0" x1="694.3" y1="54.2" x2="694.3" y2="27.8"/>
	<line class="st0" x1="694.3" y1="87.3" x2="694.3" y2="60.9"/>
	<line class="st0" x1="694.3" y1="119.6" x2="694.3" y2="94"/>
	<line class="st0" x1="697.8" y1="37.6" x2="697.8" y2="12"/>
	<line class="st0" x1="697.8" y1="70.7" x2="697.8" y2="44.4"/>
	<line class="st0" x1="697.8" y1="103.8" x2="697.8" y2="77.5"/>
	<line class="st0" x1="704.8" y1="37.6" x2="704.8" y2="12"/>
	<line class="st0" x1="704.8" y1="70.7" x2="704.8" y2="44.4"/>
	<line class="st0" x1="704.8" y1="103.8" x2="704.8" y2="77.5"/>
	<line class="st0" x1="701.3" y1="21.1" x2="701.3" y2="12"/>
	<line class="st0" x1="701.3" y1="54.2" x2="701.3" y2="27.8"/>
	<line class="st0" x1="701.3" y1="87.3" x2="701.3" y2="60.9"/>
	<line class="st0" x1="701.3" y1="119.6" x2="701.3" y2="94"/>
	<line class="st0" x1="708.3" y1="21.1" x2="708.3" y2="12"/>
	<line class="st0" x1="708.3" y1="54.2" x2="708.3" y2="27.8"/>
	<line class="st0" x1="708.3" y1="87.3" x2="708.3" y2="60.9"/>
	<line class="st0" x1="708.3" y1="119.6" x2="708.3" y2="94"/>
	<line class="st0" x1="666.3" y1="153.3" x2="666.3" y2="127.1"/>
	<line class="st0" x1="669.8" y1="136.9" x2="669.8" y2="110.6"/>
	<line class="st0" x1="669.8" y1="153.3" x2="669.8" y2="143.7"/>
	<line class="st0" x1="662.8" y1="136.9" x2="662.8" y2="110.6"/>
	<line class="st0" x1="662.8" y1="153.3" x2="662.8" y2="143.7"/>
	<line class="st0" x1="711.6" y1="110.6" x2="711.6" y2="136.9"/>
	<line class="st0" x1="711.6" y1="153.3" x2="711.6" y2="143.7"/>
	<line class="st0" x1="676.8" y1="136.9" x2="676.8" y2="110.6"/>
	<line class="st0" x1="676.8" y1="153.3" x2="676.8" y2="143.7"/>
	<line class="st0" x1="673.3" y1="153.3" x2="673.3" y2="127.1"/>
	<line class="st0" x1="680.3" y1="153.3" x2="680.3" y2="127.1"/>
	<line class="st0" x1="683.8" y1="136.9" x2="683.8" y2="110.6"/>
	<line class="st0" x1="683.8" y1="153.3" x2="683.8" y2="143.7"/>
	<line class="st0" x1="690.8" y1="136.9" x2="690.8" y2="110.6"/>
	<line class="st0" x1="690.8" y1="153.3" x2="690.8" y2="143.7"/>
	<line class="st0" x1="687.3" y1="153.3" x2="687.3" y2="127.1"/>
	<line class="st0" x1="694.3" y1="153.3" x2="694.3" y2="127.1"/>
	<line class="st0" x1="697.8" y1="136.9" x2="697.8" y2="110.6"/>
	<line class="st0" x1="697.8" y1="153.3" x2="697.8" y2="143.7"/>
	<line class="st0" x1="704.8" y1="136.9" x2="704.8" y2="110.6"/>
	<line class="st0" x1="704.8" y1="153.3" x2="704.8" y2="143.7"/>
	<line class="st0" x1="701.3" y1="153.3" x2="701.3" y2="127.1"/>
	<line class="st0" x1="708.3" y1="127.1" x2="708.3" y2="153.3"/>
	<line class="st0" x1="689.3" y1="153.3" x2="690.8" y2="153.3"/>
	<line class="st0" x1="704.8" y1="153.3" x2="708.3" y2="153.3"/>
	<line class="st0" x1="690.8" y1="153.3" x2="694.3" y2="153.3"/>
	<line class="st0" x1="697.8" y1="153.3" x2="701.3" y2="153.3"/>
	<line class="st0" x1="701.3" y1="153.3" x2="704.8" y2="153.3"/>
	<polyline class="st0" points="711.6,153.3 989.8,153.3 989.8,11.6 710.6,11.6 666.1,11.6 333.1,11.6 293.4,11.6 13,11.6 13,153.3 	
		"/>
	<line class="st0" x1="694.3" y1="153.3" x2="697.8" y2="153.3"/>
	<line class="st0" x1="711.6" y1="153.3" x2="708.3" y2="153.3"/>
	<line class="st0" x1="314" y1="153.3" x2="310.5" y2="153.3"/>
	<line class="st0" x1="310.5" y1="153.3" x2="307" y2="153.3"/>
	<line class="st0" x1="296.5" y1="153.3" x2="293" y2="153.3"/>
	<line class="st0" x1="293" y1="153.3" x2="289.5" y2="153.3"/>
	<line class="st0" x1="289.5" y1="153.3" x2="13" y2="153.3"/>
	<line class="st0" x1="317.5" y1="153.3" x2="314" y2="153.3"/>
	<line class="st0" x1="300" y1="153.3" x2="296.5" y2="153.3"/>
	<line class="st0" x1="307" y1="153.3" x2="303.5" y2="153.3"/>
	<line class="st0" x1="303.5" y1="153.3" x2="300" y2="153.3"/>
	<line class="st0" x1="331.5" y1="153.3" x2="328" y2="153.3"/>
	<line class="st0" x1="338.4" y1="153.3" x2="335" y2="153.3"/>
	<line class="st0" x1="335" y1="153.3" x2="331.5" y2="153.3"/>
	<line class="st0" x1="351.1" y1="153.3" x2="338.4" y2="153.3"/>
	<line class="st0" x1="328" y1="153.3" x2="324.5" y2="153.3"/>
	<line class="st0" x1="324.5" y1="153.3" x2="321" y2="153.3"/>
	<line class="st0" x1="321" y1="153.3" x2="317.5" y2="153.3"/>
	<line class="st0" x1="683.8" y1="153.3" x2="687.3" y2="153.3"/>
	<line class="st0" x1="351.1" y1="153.3" x2="662.8" y2="153.3"/>
	<line class="st0" x1="666.3" y1="153.3" x2="669.8" y2="153.3"/>
	<line class="st0" x1="662.8" y1="153.3" x2="666.3" y2="153.3"/>
	<line class="st0" x1="673.3" y1="153.3" x2="676.8" y2="153.3"/>
	<line class="st0" x1="680.3" y1="153.3" x2="683.8" y2="153.3"/>
	<line class="st0" x1="669.8" y1="153.3" x2="673.3" y2="153.3"/>
	<line class="st0" x1="676.8" y1="153.3" x2="680.3" y2="153.3"/>
	<line class="st0" x1="687.3" y1="153.3" x2="689.3" y2="153.3"/>
	<path class="st0" d="M369.3,402.7c0,0.3,0,0.6,0,0.8v4.7c0,17.7,14.5,32.2,32.2,32.2h330.2c17.7,0,32.2-14.5,32.2-32.2v-4.7
		c0-0.3,0-0.6,0-0.8h5.2h12.9v85v39.7H378.5"/>
	<polyline class="st0" points="351.1,527.4 351.1,487.8 351.1,402.7 	"/>
	<line class="st0" x1="378.5" y1="527.4" x2="351.1" y2="527.4"/>
	<polyline class="st0" points="369.3,402.7 363.2,402.7 351.1,402.7 	"/>
</g>
</svg>
