<svg xmlns="http://www.w3.org/2000/svg" viewBox="0 0 1190.55 841.89"><title>Afficheur-Led</title><g id="Calque_24" data-name="Calque 24"><g id="Calque_28" data-name="Calque 28"><path d="M46.82,39.08V607.16H791.44V39.08ZM737.36,206.52a6.84,6.84,0,0,1-6.73,6.73,6.67,6.67,0,0,1-4.91-2,6.46,6.46,0,0,1-2-4.73,6.84,6.84,0,0,1,6.91-6.92,6.48,6.48,0,0,1,4.73,2A6.69,6.69,0,0,1,737.36,206.52ZM715.89,164.3a6.46,6.46,0,0,1-4.73,2,6.83,6.83,0,0,1-6.91-6.92,6.47,6.47,0,0,1,2-4.73,6.68,6.68,0,0,1,4.91-2,6.84,6.84,0,0,1,6.73,6.73A6.68,6.68,0,0,1,715.89,164.3Zm3.64,12.38a6.47,6.47,0,0,1-2,4.73,6.68,6.68,0,0,1-4.91,2,6.84,6.84,0,0,1-6.73-6.73,6.68,6.68,0,0,1,2-4.91,6.47,6.47,0,0,1,4.73-2,6.84,6.84,0,0,1,6.91,6.92Zm-11.83,54.6a6.68,6.68,0,0,1,4.91-2,6.47,6.47,0,0,1,4.73,2,6.69,6.69,0,0,1,2,4.91,6.84,6.84,0,0,1-6.73,6.73,6.67,6.67,0,0,1-4.91-2,6.46,6.46,0,0,1-2-4.73A6.68,6.68,0,0,1,707.71,231.27Zm13.1,243.2a6.84,6.84,0,0,1,4.91-1.91,6.62,6.62,0,0,1,4.73,1.91,6.39,6.39,0,0,1,2,4.82,6.68,6.68,0,0,1-2,4.91,6.46,6.46,0,0,1-4.73,2,6.84,6.84,0,0,1-6.91-6.92A6.38,6.38,0,0,1,720.81,474.47Zm-3.28-3a6.68,6.68,0,0,1-4.91,2,6.84,6.84,0,0,1-6.73-6.73,6.68,6.68,0,0,1,2-4.91,6.47,6.47,0,0,1,4.73-2,6.84,6.84,0,0,1,6.91,6.92A6.47,6.47,0,0,1,717.53,471.46ZM717,439.62a6.46,6.46,0,0,1-4.73-2,6.67,6.67,0,0,1-2-4.91A6.84,6.84,0,0,1,717,426a6.69,6.69,0,0,1,4.91,2,6.48,6.48,0,0,1,2,4.73,6.84,6.84,0,0,1-6.91,6.92Zm13.46-210.89a6.46,6.46,0,0,1-4.73,2,6.84,6.84,0,0,1-6.91-6.92,6.47,6.47,0,0,1,2-4.73,6.68,6.68,0,0,1,4.91-2,6.84,6.84,0,0,1,6.73,6.73A6.68,6.68,0,0,1,730.45,228.72Zm0-44.31a6.39,6.39,0,0,1,2,4.82,6.68,6.68,0,0,1-2,4.91,6.46,6.46,0,0,1-4.73,2,6.84,6.84,0,0,1-6.91-6.92,6.38,6.38,0,0,1,2-4.82,6.84,6.84,0,0,1,4.91-1.91A6.63,6.63,0,0,1,730.45,184.41Zm-6.55-41.77a6.84,6.84,0,0,1-6.91,6.92,6.46,6.46,0,0,1-4.73-2,6.67,6.67,0,0,1-2-4.91,6.84,6.84,0,0,1,6.73-6.73,6.69,6.69,0,0,1,4.91,2A6.48,6.48,0,0,1,723.9,142.64Zm-17.83-21.47a6.47,6.47,0,0,1,4.73-2,6.84,6.84,0,0,1,6.91,6.92,6.47,6.47,0,0,1-2,4.73,6.68,6.68,0,0,1-4.91,2,6.84,6.84,0,0,1-6.73-6.73A6.68,6.68,0,0,1,706.07,121.17ZM595.81,430.88a6.68,6.68,0,0,1,4.91-2,6.84,6.84,0,0,1,6.73,6.73,6.68,6.68,0,0,1-2,4.91,6.46,6.46,0,0,1-4.73,2,6.84,6.84,0,0,1-6.91-6.92A6.47,6.47,0,0,1,595.81,430.88Zm-4.73-7.64a6.67,6.67,0,0,1-2-4.91,6.47,6.47,0,0,1,2-4.73,6.68,6.68,0,0,1,4.91-2,6.84,6.84,0,0,1,6.73,6.73,6.68,6.68,0,0,1-2,4.91,6.46,6.46,0,0,1-4.73,2A6.67,6.67,0,0,1,591.08,423.24Zm10.37-194.42a6.85,6.85,0,0,1-4.91,1.91,6.62,6.62,0,0,1-4.73-1.91,6.38,6.38,0,0,1-2-4.82,6.68,6.68,0,0,1,2-4.91,6.47,6.47,0,0,1,4.73-2,6.84,6.84,0,0,1,6.91,6.92A6.39,6.39,0,0,1,601.45,228.81Zm-10.37,8.46a6.84,6.84,0,0,1-6.73,6.73,6.67,6.67,0,0,1-4.91-2,6.46,6.46,0,0,1-2-4.73,6.84,6.84,0,0,1,6.91-6.92,6.47,6.47,0,0,1,4.73,2A6.69,6.69,0,0,1,591.08,237.28ZM577.62,401.76a6.47,6.47,0,0,1,4.73-2,6.83,6.83,0,0,1,6.91,6.92,6.47,6.47,0,0,1-2,4.73,6.68,6.68,0,0,1-4.91,2,6.84,6.84,0,0,1-6.73-6.73A6.68,6.68,0,0,1,577.62,401.76Zm11.1,45.5a6.68,6.68,0,0,1,4.91-2,6.84,6.84,0,0,1,6.73,6.73,6.68,6.68,0,0,1-2,4.91,6.46,6.46,0,0,1-4.73,2,6.84,6.84,0,0,1-6.91-6.92A6.47,6.47,0,0,1,588.72,447.26Zm.36,19.84a6.47,6.47,0,0,1,4.73-2,6.84,6.84,0,0,1,6.91,6.92,6.47,6.47,0,0,1-2,4.73,6.68,6.68,0,0,1-4.91,2,6.84,6.84,0,0,1-6.73-6.73A6.68,6.68,0,0,1,589.08,467.1Zm9.83,15.1a6.47,6.47,0,0,1,4.73-2,6.83,6.83,0,0,1,6.91,6.92,6.47,6.47,0,0,1-2,4.73,6.68,6.68,0,0,1-4.91,2,6.84,6.84,0,0,1-6.73-6.73A6.68,6.68,0,0,1,598.9,482.2Zm9.83-275.5a6.68,6.68,0,0,1-2,4.91,6.46,6.46,0,0,1-4.73,2,6.84,6.84,0,0,1-6.91-6.92,6.47,6.47,0,0,1,2-4.73,6.68,6.68,0,0,1,4.91-2,6.84,6.84,0,0,1,6.73,6.73Zm-4.55-12.92a6.46,6.46,0,0,1-4.73,2,6.84,6.84,0,0,1-6.91-6.92,6.38,6.38,0,0,1,2-4.82,6.84,6.84,0,0,1,4.91-1.91,6.63,6.63,0,0,1,4.73,1.91,6.39,6.39,0,0,1,2,4.82A6.68,6.68,0,0,1,604.18,193.78Zm-10.73-83.72a6.68,6.68,0,0,1,4.91-2,6.84,6.84,0,0,1,6.73,6.73,6.68,6.68,0,0,1-2,4.91,6.46,6.46,0,0,1-4.73,2,6.84,6.84,0,0,1-6.91-6.92A6.47,6.47,0,0,1,593.45,110.06Zm.73,59a6.48,6.48,0,0,1,2,4.73,6.84,6.84,0,0,1-6.91,6.92,6.46,6.46,0,0,1-4.73-2,6.67,6.67,0,0,1-2-4.91,6.84,6.84,0,0,1,6.73-6.73A6.69,6.69,0,0,1,594.17,169Zm-18.92-59a6.68,6.68,0,0,1,4.91-2,6.84,6.84,0,0,1,6.73,6.73,6.68,6.68,0,0,1-2,4.91,6.46,6.46,0,0,1-4.73,2,6.83,6.83,0,0,1-6.91-6.92A6.47,6.47,0,0,1,575.25,110.06Zm-1.46,47.68a6.84,6.84,0,0,1,6.91,6.92,6.47,6.47,0,0,1-2,4.73,6.68,6.68,0,0,1-4.91,2,6.84,6.84,0,0,1-6.73-6.73,6.68,6.68,0,0,1,2-4.91A6.47,6.47,0,0,1,573.8,157.75Zm.55,86.08a6.48,6.48,0,0,1-2,4.73,6.69,6.69,0,0,1-4.91,2,6.84,6.84,0,0,1-6.73-6.73,6.68,6.68,0,0,1,2-4.91,6.47,6.47,0,0,1,4.73-2,6.84,6.84,0,0,1,6.91,6.92ZM557.06,110.06a6.68,6.68,0,0,1,4.91-2,6.84,6.84,0,0,1,6.73,6.73,6.68,6.68,0,0,1-2,4.91,6.46,6.46,0,0,1-4.73,2,6.84,6.84,0,0,1-6.91-6.92A6.47,6.47,0,0,1,557.06,110.06Zm-1.27,46A6.83,6.83,0,0,1,562.7,163a6.47,6.47,0,0,1-2,4.73,6.68,6.68,0,0,1-4.91,2,6.84,6.84,0,0,1-6.73-6.73,6.68,6.68,0,0,1,2-4.91A6.47,6.47,0,0,1,555.78,156.11Zm-17.1,82.26a6.68,6.68,0,0,1-4.91,2,6.37,6.37,0,0,1-4.82-2,6.85,6.85,0,0,1-1.91-4.91,6.63,6.63,0,0,1,1.91-4.73,6.38,6.38,0,0,1,4.82-2,6.69,6.69,0,0,1,4.91,2,6.48,6.48,0,0,1,2,4.73A6.68,6.68,0,0,1,538.68,238.37Zm1.46,179.41a6.84,6.84,0,0,1-6.91,6.92,6.46,6.46,0,0,1-4.73-2,6.67,6.67,0,0,1-2-4.91,6.84,6.84,0,0,1,6.73-6.73,6.69,6.69,0,0,1,4.91,2A6.48,6.48,0,0,1,540.14,417.78Zm2.18-16.38a6.47,6.47,0,0,1,4.73-2,6.84,6.84,0,0,1,6.91,6.92,6.47,6.47,0,0,1-2,4.73,6.68,6.68,0,0,1-4.91,2,6.84,6.84,0,0,1-6.73-6.73A6.68,6.68,0,0,1,542.32,401.4Zm7.1-152.11a6.84,6.84,0,0,1-6.73-6.73,6.68,6.68,0,0,1,2-4.91,6.47,6.47,0,0,1,4.73-2,6.83,6.83,0,0,1,6.91,6.92,6.48,6.48,0,0,1-2,4.73A6.69,6.69,0,0,1,549.42,249.29ZM538.86,110.06a6.68,6.68,0,0,1,4.91-2,6.84,6.84,0,0,1,6.73,6.73,6.68,6.68,0,0,1-2,4.91,6.46,6.46,0,0,1-4.73,2,6.84,6.84,0,0,1-6.91-6.92A6.47,6.47,0,0,1,538.86,110.06Zm-1.46,18.2a6.47,6.47,0,0,1,4.73-2,6.69,6.69,0,0,1,4.91,2,6.48,6.48,0,0,1,2,4.73,6.84,6.84,0,0,1-6.91,6.92,6.46,6.46,0,0,1-4.73-2,6.67,6.67,0,0,1-2-4.91A6.47,6.47,0,0,1,537.41,128.26Zm-1.64,18a6.68,6.68,0,0,1,4.91-2,6.47,6.47,0,0,1,4.73,2,6.69,6.69,0,0,1,2,4.91,6.39,6.39,0,0,1-2,4.82,6.62,6.62,0,0,1-4.73,1.91,6.84,6.84,0,0,1-4.91-1.91,6.38,6.38,0,0,1-2-4.82A6.68,6.68,0,0,1,535.77,146.28Zm-1.64,18.2a6.68,6.68,0,0,1,4.91-2,6.48,6.48,0,0,1,4.73,2,6.69,6.69,0,0,1,2,4.91,6.84,6.84,0,0,1-6.73,6.73,6.67,6.67,0,0,1-4.91-2,6.46,6.46,0,0,1-2-4.73A6.68,6.68,0,0,1,534.13,164.48ZM400.41,221.35a6.39,6.39,0,0,1,2,4.82,6.15,6.15,0,0,1-1.82,4.82,6.33,6.33,0,0,1-4.73,2.09,6.84,6.84,0,0,1-4.91-1.91,7,7,0,0,1-2.18-4.82,6.68,6.68,0,0,1,2-4.91,6.47,6.47,0,0,1,4.73-2A6.85,6.85,0,0,1,400.41,221.35Zm-8.55-16.11a6.48,6.48,0,0,1,2,4.73,6.11,6.11,0,0,1-1.82,4.91,7.17,7.17,0,0,1-4.73,2.18,6.67,6.67,0,0,1-4.91-2,7.17,7.17,0,0,1-2.18-4.73,6.68,6.68,0,0,1,2-4.91,6.47,6.47,0,0,1,4.73-2A6.11,6.11,0,0,1,391.85,205.25Zm-8.55-16a7.19,7.19,0,0,1,2.18,4.73,6.68,6.68,0,0,1-2,4.91,6.46,6.46,0,0,1-4.73,2,6.09,6.09,0,0,1-4.91-1.82,6.67,6.67,0,0,1-2-4.91,5.87,5.87,0,0,1,1.82-4.73,7.18,7.18,0,0,1,4.73-2.18A6.68,6.68,0,0,1,383.3,189.23Zm-8.55-16.11a7,7,0,0,1,2.18,4.82,6.77,6.77,0,0,1-2,4.82,6.33,6.33,0,0,1-4.73,2.09,6.84,6.84,0,0,1-4.91-1.91,6.38,6.38,0,0,1-2-4.82,6.13,6.13,0,0,1,1.82-4.82,6.34,6.34,0,0,1,4.73-2.09A6.85,6.85,0,0,1,374.75,173.12Zm-8.37,25.75a6.46,6.46,0,0,1-4.73,2,6.09,6.09,0,0,1-4.91-1.82,6.67,6.67,0,0,1-2-4.91,5.87,5.87,0,0,1,1.82-4.73,7.37,7.37,0,0,1,4.91-2.18,6.47,6.47,0,0,1,4.73,2,7.19,7.19,0,0,1,2.18,4.73A6.68,6.68,0,0,1,366.38,198.88Zm2,253.12a6.47,6.47,0,0,1-2,4.73,7.17,7.17,0,0,1-4.73,2.18,6.66,6.66,0,0,1-4.91-2,6.46,6.46,0,0,1-2-4.73,6.1,6.1,0,0,1,1.82-4.91,6.68,6.68,0,0,1,4.91-2,5.88,5.88,0,0,1,4.73,1.82A7.38,7.38,0,0,1,368.38,452ZM366.2,157a7.38,7.38,0,0,1,2.18,4.91,6.47,6.47,0,0,1-2,4.73,7.17,7.17,0,0,1-4.73,2.18,6.66,6.66,0,0,1-4.91-2,6.46,6.46,0,0,1-2-4.73,6.1,6.1,0,0,1,1.82-4.91,6.68,6.68,0,0,1,4.91-2A5.88,5.88,0,0,1,366.2,157Zm-8.55-16a7.2,7.2,0,0,1,2.18,4.73,6.68,6.68,0,0,1-2,4.91,6.46,6.46,0,0,1-4.73,2,6.09,6.09,0,0,1-4.91-1.82,6.67,6.67,0,0,1-2-4.91,5.87,5.87,0,0,1,1.82-4.73,7.37,7.37,0,0,1,4.91-2.18A6.47,6.47,0,0,1,357.65,141Zm-8.28,57.87a6.38,6.38,0,0,1-4.82,2,6.09,6.09,0,0,1-4.91-1.82,6.92,6.92,0,0,1-.09-9.65,7,7,0,0,1,4.82-2.18,6.78,6.78,0,0,1,4.82,2,6.34,6.34,0,0,1,2.09,4.73A6.85,6.85,0,0,1,349.37,198.88Zm1.91,220.9a6.94,6.94,0,0,1-1.91,4.82,6.25,6.25,0,0,1-4.82,2.09,6.84,6.84,0,0,1-4.91-1.91,6.37,6.37,0,0,1-2-4.82,6.94,6.94,0,0,1,1.91-4.82,6.25,6.25,0,0,1,4.82-2.09,6.94,6.94,0,0,1,4.82,1.91A6.26,6.26,0,0,1,351.28,419.78ZM349.19,124.9a6.26,6.26,0,0,1,2.09,4.82,6.94,6.94,0,0,1-1.91,4.82,6.25,6.25,0,0,1-4.82,2.09,6.84,6.84,0,0,1-4.91-1.91,6.38,6.38,0,0,1-2-4.82,6.94,6.94,0,0,1,1.91-4.82,6.25,6.25,0,0,1,4.82-2.09A6.94,6.94,0,0,1,349.19,124.9ZM331,109a6.38,6.38,0,0,1,4.82-2,6.15,6.15,0,0,1,4.82,1.82,6.55,6.55,0,0,1,2.09,4.91,6.62,6.62,0,0,1-1.91,4.73,7,7,0,0,1-4.82,2.18,6.76,6.76,0,0,1-4.82-2,6.33,6.33,0,0,1-2.09-4.73A6.86,6.86,0,0,1,331,109Zm-8.46,16a6.47,6.47,0,0,1,4.73-2,6.84,6.84,0,0,1,6.91,6.92,6.47,6.47,0,0,1-2,4.73,6.67,6.67,0,0,1-4.91,2,6.84,6.84,0,0,1-6.73-6.73A6.68,6.68,0,0,1,322.53,125Zm11.64,69a6.85,6.85,0,0,1-1.91,4.91,6.38,6.38,0,0,1-4.82,2,6.12,6.12,0,0,1-4.82-1.82,6.53,6.53,0,0,1-2.09-4.91,6.63,6.63,0,0,1,1.91-4.73,7,7,0,0,1,4.82-2.18,6.78,6.78,0,0,1,4.82,2A6.34,6.34,0,0,1,334.18,194ZM314,141a6.68,6.68,0,0,1,4.91-2,6.47,6.47,0,0,1,4.73,2,6.69,6.69,0,0,1,2,4.91,6.84,6.84,0,0,1-6.73,6.73,6.67,6.67,0,0,1-4.91-2,6.46,6.46,0,0,1-2-4.73A6.68,6.68,0,0,1,314,141Zm-8.55,16.2a6.68,6.68,0,0,1,4.91-2,6.84,6.84,0,0,1,6.73,6.73,6.68,6.68,0,0,1-2,4.91,6.46,6.46,0,0,1-4.73,2,6.84,6.84,0,0,1-6.91-6.92A6.47,6.47,0,0,1,305.43,157.2ZM317.08,194a6.85,6.85,0,0,1-1.91,4.91,6.38,6.38,0,0,1-4.82,2,6.12,6.12,0,0,1-4.82-1.82,6.53,6.53,0,0,1-2.09-4.91,6.63,6.63,0,0,1,1.91-4.73,7,7,0,0,1,4.82-2.18,6.69,6.69,0,0,1,4.91,2A6.48,6.48,0,0,1,317.08,194Zm-20.2-20.75a6.68,6.68,0,0,1,4.91-2,6.84,6.84,0,0,1,6.73,6.73,6.68,6.68,0,0,1-2,4.91,6.46,6.46,0,0,1-4.73,2,6.84,6.84,0,0,1-6.91-6.92A6.47,6.47,0,0,1,296.88,173.21Zm-8.55,16a6.68,6.68,0,0,1,4.91-2,6.47,6.47,0,0,1,4.73,2,6.69,6.69,0,0,1,2,4.91,6.84,6.84,0,0,1-6.73,6.73,6.66,6.66,0,0,1-4.91-2,6.46,6.46,0,0,1-2-4.73A6.68,6.68,0,0,1,288.33,189.23Zm-8.55,16.2a6.68,6.68,0,0,1,4.91-2,6.84,6.84,0,0,1,6.73,6.73,6.68,6.68,0,0,1-2,4.91,6.46,6.46,0,0,1-4.73,2,6.84,6.84,0,0,1-6.91-6.92A6.47,6.47,0,0,1,279.78,205.43Zm-8.55,16a6.67,6.67,0,0,1,4.91-2,6.84,6.84,0,0,1,6.73,6.73,6.68,6.68,0,0,1-2,4.91,6.46,6.46,0,0,1-4.73,2,6.84,6.84,0,0,1-6.91-6.92A6.46,6.46,0,0,1,271.23,221.44Zm-8.55,16a6.91,6.91,0,0,1,11.83,4.91,6.48,6.48,0,0,1-2,4.73,7,7,0,0,1-9.83,0,6.46,6.46,0,0,1-2-4.73A6.68,6.68,0,0,1,262.67,237.46ZM229.56,430.88a6.68,6.68,0,0,1,4.91-2,6.84,6.84,0,0,1,6.73,6.73,6.68,6.68,0,0,1-2,4.91,6.46,6.46,0,0,1-4.73,2,6.84,6.84,0,0,1-6.91-6.92A6.47,6.47,0,0,1,229.56,430.88Zm-4.73-7.64a6.67,6.67,0,0,1-2-4.91,6.47,6.47,0,0,1,2-4.73,6.68,6.68,0,0,1,4.91-2,6.84,6.84,0,0,1,6.73,6.73,6.68,6.68,0,0,1-2,4.91,6.46,6.46,0,0,1-4.73,2A6.67,6.67,0,0,1,224.83,423.24ZM235.2,228.81a6.85,6.85,0,0,1-4.91,1.91,6.62,6.62,0,0,1-4.73-1.91,6.38,6.38,0,0,1-2-4.82,6.68,6.68,0,0,1,2-4.91,6.47,6.47,0,0,1,4.73-2A6.84,6.84,0,0,1,237.2,224,6.39,6.39,0,0,1,235.2,228.81Zm-10.37,8.46A6.84,6.84,0,0,1,218.1,244a6.67,6.67,0,0,1-4.91-2,6.46,6.46,0,0,1-2-4.73,6.84,6.84,0,0,1,6.91-6.92,6.47,6.47,0,0,1,4.73,2A6.69,6.69,0,0,1,224.83,237.28ZM211.37,401.76a6.47,6.47,0,0,1,4.73-2,6.83,6.83,0,0,1,6.91,6.92,6.47,6.47,0,0,1-2,4.73,6.68,6.68,0,0,1-4.91,2,6.84,6.84,0,0,1-6.73-6.73A6.68,6.68,0,0,1,211.37,401.76Zm11.1,45.5a6.68,6.68,0,0,1,4.91-2,6.84,6.84,0,0,1,6.73,6.73,6.68,6.68,0,0,1-2,4.91,6.46,6.46,0,0,1-4.73,2,6.84,6.84,0,0,1-6.91-6.92A6.47,6.47,0,0,1,222.47,447.26Zm.36,19.84a6.47,6.47,0,0,1,4.73-2,6.84,6.84,0,0,1,6.91,6.92,6.47,6.47,0,0,1-2,4.73,6.68,6.68,0,0,1-4.91,2,6.84,6.84,0,0,1-6.73-6.73A6.68,6.68,0,0,1,222.83,467.1Zm9.83,15.1a6.47,6.47,0,0,1,4.73-2,6.83,6.83,0,0,1,6.91,6.92,6.47,6.47,0,0,1-2,4.73,6.68,6.68,0,0,1-4.91,2,6.84,6.84,0,0,1-6.73-6.73A6.68,6.68,0,0,1,232.65,482.2Zm9.83-275.5a6.68,6.68,0,0,1-2,4.91,6.46,6.46,0,0,1-4.73,2,6.84,6.84,0,0,1-6.91-6.92,6.47,6.47,0,0,1,2-4.73,6.68,6.68,0,0,1,4.91-2,6.84,6.84,0,0,1,6.73,6.73Zm-4.55-12.92a6.46,6.46,0,0,1-4.73,2,6.84,6.84,0,0,1-6.91-6.92,6.38,6.38,0,0,1,2-4.82,6.84,6.84,0,0,1,4.91-1.91,6.63,6.63,0,0,1,4.73,1.91,6.39,6.39,0,0,1,2,4.82A6.68,6.68,0,0,1,237.93,193.78ZM227.2,110.06a6.68,6.68,0,0,1,4.91-2,6.84,6.84,0,0,1,6.73,6.73,6.68,6.68,0,0,1-2,4.91,6.46,6.46,0,0,1-4.73,2,6.84,6.84,0,0,1-6.91-6.92A6.47,6.47,0,0,1,227.2,110.06Zm.73,59a6.48,6.48,0,0,1,2,4.73,6.84,6.84,0,0,1-6.91,6.92,6.46,6.46,0,0,1-4.73-2,6.67,6.67,0,0,1-2-4.91A6.84,6.84,0,0,1,223,167,6.69,6.69,0,0,1,227.92,169Zm-18.92-59a6.68,6.68,0,0,1,4.91-2,6.84,6.84,0,0,1,6.73,6.73,6.68,6.68,0,0,1-2,4.91,6.46,6.46,0,0,1-4.73,2A6.83,6.83,0,0,1,207,114.8,6.47,6.47,0,0,1,209,110.06Zm-1.46,47.68a6.84,6.84,0,0,1,6.91,6.92,6.47,6.47,0,0,1-2,4.73,6.68,6.68,0,0,1-4.91,2,6.84,6.84,0,0,1-6.73-6.73,6.68,6.68,0,0,1,2-4.91A6.47,6.47,0,0,1,207.55,157.75Zm.55,86.08a6.48,6.48,0,0,1-2,4.73,6.69,6.69,0,0,1-4.91,2,6.84,6.84,0,0,1-6.73-6.73,6.68,6.68,0,0,1,2-4.91,6.47,6.47,0,0,1,4.73-2,6.84,6.84,0,0,1,6.91,6.92ZM190.81,110.06a6.68,6.68,0,0,1,4.91-2,6.84,6.84,0,0,1,6.73,6.73,6.68,6.68,0,0,1-2,4.91,6.46,6.46,0,0,1-4.73,2,6.84,6.84,0,0,1-6.91-6.92A6.47,6.47,0,0,1,190.81,110.06Zm-1.27,46a6.83,6.83,0,0,1,6.91,6.92,6.47,6.47,0,0,1-2,4.73,6.68,6.68,0,0,1-4.91,2A6.84,6.84,0,0,1,182.8,163a6.68,6.68,0,0,1,2-4.91A6.47,6.47,0,0,1,189.53,156.11Zm-17.1,82.26a6.68,6.68,0,0,1-4.91,2,6.37,6.37,0,0,1-4.82-2,6.85,6.85,0,0,1-1.91-4.91,6.63,6.63,0,0,1,1.91-4.73,6.38,6.38,0,0,1,4.82-2,6.69,6.69,0,0,1,4.91,2,6.48,6.48,0,0,1,2,4.73A6.68,6.68,0,0,1,172.43,238.37Zm1.46,179.41a6.84,6.84,0,0,1-6.91,6.92,6.46,6.46,0,0,1-4.73-2,6.67,6.67,0,0,1-2-4.91A6.84,6.84,0,0,1,167,411a6.69,6.69,0,0,1,4.91,2A6.48,6.48,0,0,1,173.89,417.78Zm2.18-16.38a6.47,6.47,0,0,1,4.73-2,6.84,6.84,0,0,1,6.91,6.92,6.47,6.47,0,0,1-2,4.73,6.68,6.68,0,0,1-4.91,2,6.84,6.84,0,0,1-6.73-6.73A6.68,6.68,0,0,1,176.07,401.4Zm7.1-152.11a6.84,6.84,0,0,1-6.73-6.73,6.68,6.68,0,0,1,2-4.91,6.47,6.47,0,0,1,4.73-2,6.83,6.83,0,0,1,6.91,6.92,6.48,6.48,0,0,1-2,4.73A6.69,6.69,0,0,1,183.17,249.29ZM172.61,110.06a6.68,6.68,0,0,1,4.91-2,6.84,6.84,0,0,1,6.73,6.73,6.68,6.68,0,0,1-2,4.91,6.46,6.46,0,0,1-4.73,2,6.84,6.84,0,0,1-6.91-6.92A6.47,6.47,0,0,1,172.61,110.06Zm-1.46,18.2a6.47,6.47,0,0,1,4.73-2,6.69,6.69,0,0,1,4.91,2,6.48,6.48,0,0,1,2,4.73,6.84,6.84,0,0,1-6.91,6.92,6.46,6.46,0,0,1-4.73-2,6.67,6.67,0,0,1-2-4.91A6.47,6.47,0,0,1,171.16,128.26Zm-1.64,18a6.68,6.68,0,0,1,4.91-2,6.47,6.47,0,0,1,4.73,2,6.69,6.69,0,0,1,2,4.91,6.39,6.39,0,0,1-2,4.82,6.62,6.62,0,0,1-4.73,1.91,6.84,6.84,0,0,1-4.91-1.91,6.38,6.38,0,0,1-2-4.82A6.68,6.68,0,0,1,169.52,146.28Zm-1.64,18.2a6.68,6.68,0,0,1,4.91-2,6.48,6.48,0,0,1,4.73,2,6.69,6.69,0,0,1,2,4.91,6.84,6.84,0,0,1-6.73,6.73,6.67,6.67,0,0,1-4.91-2,6.46,6.46,0,0,1-2-4.73A6.68,6.68,0,0,1,167.88,164.48ZM152.42,213.8a6.68,6.68,0,0,1,4.91-2,6.47,6.47,0,0,1,4.73,2,6.69,6.69,0,0,1,2,4.91,6.84,6.84,0,0,1-6.73,6.73,6.66,6.66,0,0,1-4.91-2,6.46,6.46,0,0,1-2-4.73A6.68,6.68,0,0,1,152.42,213.8Zm.73,296.61a6.67,6.67,0,0,1-2-4.91,6.38,6.38,0,0,1,2-4.82,6.62,6.62,0,0,1,4.73-1.91,6.85,6.85,0,0,1,4.91,1.91,6.39,6.39,0,0,1,2,4.82,6.84,6.84,0,0,1-6.91,6.92A6.46,6.46,0,0,1,153.14,510.41Zm17.83,16a6.68,6.68,0,0,1-4.91,2,6.46,6.46,0,0,1-4.73-2,6.67,6.67,0,0,1-2-4.91,6.38,6.38,0,0,1,2-4.82,6.92,6.92,0,0,1,9.64.09,6.48,6.48,0,0,1,2,4.73A6.68,6.68,0,0,1,171,526.43ZM185.53,537a6.47,6.47,0,0,1-4.73,2,6.68,6.68,0,0,1-4.91-2,6.47,6.47,0,0,1-2-4.73,6.84,6.84,0,0,1,6.91-6.92,6.47,6.47,0,0,1,4.73,2,6.69,6.69,0,0,1,2,4.91A6.48,6.48,0,0,1,185.53,537Zm1.82-74.62a6.68,6.68,0,0,1,2-4.91,6.47,6.47,0,0,1,4.73-2,6.83,6.83,0,0,1,6.91,6.92,6.48,6.48,0,0,1-2,4.73,6.68,6.68,0,0,1-4.91,2,6.84,6.84,0,0,1-6.73-6.73Zm15.83,78.26a6.47,6.47,0,0,1-4.73,2,6.84,6.84,0,0,1-6.91-6.92,6.47,6.47,0,0,1,2-4.73,6.68,6.68,0,0,1,4.91-2,6.84,6.84,0,0,1,6.73,6.73A6.69,6.69,0,0,1,203.18,540.62Zm.18-133.4a6.46,6.46,0,0,1-4.73,2,6.67,6.67,0,0,1-4.91-2,6.46,6.46,0,0,1-2-4.73,6.84,6.84,0,0,1,6.91-6.92,6.47,6.47,0,0,1,4.73,2,6.69,6.69,0,0,1,2,4.91A6.47,6.47,0,0,1,203.36,407.22Zm2.18,55.14a6.68,6.68,0,0,1,2-4.91,6.47,6.47,0,0,1,4.73-2,6.84,6.84,0,0,1,6.91,6.92,6.47,6.47,0,0,1-2,4.73,6.68,6.68,0,0,1-4.91,2,6.84,6.84,0,0,1-6.73-6.73ZM221,536.62a6.69,6.69,0,0,1-4.91,2,6.84,6.84,0,0,1-6.73-6.73,6.68,6.68,0,0,1,2-4.91,6.47,6.47,0,0,1,4.73-2,6.83,6.83,0,0,1,6.91,6.92A6.48,6.48,0,0,1,221,536.62Zm14.37-10.56a6.46,6.46,0,0,1-4.73,2,6.83,6.83,0,0,1-6.91-6.92,6.47,6.47,0,0,1,2-4.73,6.68,6.68,0,0,1,4.91-2,6.84,6.84,0,0,1,6.73,6.73A6.68,6.68,0,0,1,235.38,526.06Zm8.19-16.2a6.68,6.68,0,0,1-4.91,2,6.46,6.46,0,0,1-4.73-2,6.67,6.67,0,0,1-2-4.91,6.84,6.84,0,0,1,6.73-6.73,6.69,6.69,0,0,1,4.91,2,6.48,6.48,0,0,1,2,4.73A6.68,6.68,0,0,1,243.57,509.86Zm28.93,27.3a7,7,0,0,1-9.83,0,6.46,6.46,0,0,1-2-4.73,6.91,6.91,0,1,1,13.83,0A6.47,6.47,0,0,1,272.5,537.16Zm8.37-16a6.46,6.46,0,0,1-4.73,2,6.84,6.84,0,0,1-6.91-6.92,6.47,6.47,0,0,1,2-4.73,6.68,6.68,0,0,1,4.91-2,6.84,6.84,0,0,1,6.73,6.73A6.68,6.68,0,0,1,280.87,521.15Zm8.55-16a6.46,6.46,0,0,1-4.73,2,6.84,6.84,0,0,1-6.91-6.92,6.47,6.47,0,0,1,2-4.73,6.68,6.68,0,0,1,4.91-2,6.84,6.84,0,0,1,6.73,6.73A6.68,6.68,0,0,1,289.42,505.13Zm8.55-16.2a6.46,6.46,0,0,1-4.73,2,6.66,6.66,0,0,1-4.91-2,6.46,6.46,0,0,1-2-4.73,6.84,6.84,0,0,1,6.91-6.92,6.47,6.47,0,0,1,4.73,2,6.69,6.69,0,0,1,2,4.91A6.47,6.47,0,0,1,298,488.94Zm-1.09-16a6.67,6.67,0,0,1-2-4.91,6.47,6.47,0,0,1,2-4.73,6.68,6.68,0,0,1,4.91-2,6.84,6.84,0,0,1,6.73,6.73,6.68,6.68,0,0,1-2,4.91,6.46,6.46,0,0,1-4.73,2A6.67,6.67,0,0,1,296.88,472.92Zm18.29,16a6.38,6.38,0,0,1-4.82,2,6.12,6.12,0,0,1-4.82-1.82,6.53,6.53,0,0,1-2.09-4.91,6.62,6.62,0,0,1,1.91-4.73,7,7,0,0,1,4.82-2.18,6.69,6.69,0,0,1,4.91,2,6.48,6.48,0,0,1,2,4.73A6.84,6.84,0,0,1,315.16,488.94Zm-.09-32a6.46,6.46,0,0,1-4.73,2,6.84,6.84,0,0,1-6.91-6.92,6.47,6.47,0,0,1,2-4.73,6.68,6.68,0,0,1,4.91-2,6.84,6.84,0,0,1,6.73,6.73A6.68,6.68,0,0,1,315.07,456.9ZM314,440.71a6.46,6.46,0,0,1-2-4.73,6.84,6.84,0,0,1,6.91-6.92,6.47,6.47,0,0,1,4.73,2,6.69,6.69,0,0,1,2,4.91,6.84,6.84,0,0,1-6.73,6.73A6.67,6.67,0,0,1,314,440.71Zm18.29,48.23a6.38,6.38,0,0,1-4.82,2,6.12,6.12,0,0,1-4.82-1.82,6.53,6.53,0,0,1-2.09-4.91,6.62,6.62,0,0,1,1.91-4.73,7,7,0,0,1,4.82-2.18,6.78,6.78,0,0,1,4.82,2,6.34,6.34,0,0,1,2.09,4.73A6.84,6.84,0,0,1,332.27,488.94Zm-.09-64.24a6.67,6.67,0,0,1-4.91,2,6.84,6.84,0,0,1-6.73-6.73,6.68,6.68,0,0,1,2-4.91,6.47,6.47,0,0,1,4.73-2,6.84,6.84,0,0,1,6.91,6.92A6.47,6.47,0,0,1,332.18,424.69Zm-1-16a6.33,6.33,0,0,1-2.09-4.73A6.86,6.86,0,0,1,331,399a6.38,6.38,0,0,1,4.82-2,6.15,6.15,0,0,1,4.82,1.82,6.55,6.55,0,0,1,2.09,4.91,6.62,6.62,0,0,1-1.91,4.73,7,7,0,0,1-4.82,2.18A6.76,6.76,0,0,1,331.18,408.68Zm18.19,80.26a6.38,6.38,0,0,1-4.82,2,6.09,6.09,0,0,1-4.91-1.82,6.92,6.92,0,0,1-.09-9.65,7,7,0,0,1,4.82-2.18,6.78,6.78,0,0,1,4.82,2,6.34,6.34,0,0,1,2.09,4.73A6.84,6.84,0,0,1,349.37,488.94Zm-1.18-48a6.67,6.67,0,0,1-2-4.91,5.87,5.87,0,0,1,1.82-4.73,7.37,7.37,0,0,1,4.91-2.18,6.47,6.47,0,0,1,4.73,2,7.2,7.2,0,0,1,2.18,4.73,6.68,6.68,0,0,1-2,4.91,6.46,6.46,0,0,1-4.73,2A6.09,6.09,0,0,1,348.19,440.89Zm18.19,48a6.46,6.46,0,0,1-4.73,2,6.09,6.09,0,0,1-4.91-1.82,6.67,6.67,0,0,1-2-4.91,5.87,5.87,0,0,1,1.82-4.73,7.36,7.36,0,0,1,4.91-2.18,6.47,6.47,0,0,1,4.73,2,7.19,7.19,0,0,1,2.18,4.73A6.68,6.68,0,0,1,366.38,488.94ZM365.29,473a6.37,6.37,0,0,1-2-4.82,6.13,6.13,0,0,1,1.82-4.82,6.34,6.34,0,0,1,4.73-2.09,6.85,6.85,0,0,1,4.91,1.91,7,7,0,0,1,2.18,4.82,6.77,6.77,0,0,1-2,4.82,6.33,6.33,0,0,1-4.73,2.09A6.84,6.84,0,0,1,365.29,473Zm8.55,16.11a6.67,6.67,0,0,1-2-4.91,5.87,5.87,0,0,1,1.82-4.73,7.18,7.18,0,0,1,4.73-2.18,6.68,6.68,0,0,1,4.91,2,7.19,7.19,0,0,1,2.18,4.73,6.68,6.68,0,0,1-2,4.91,6.46,6.46,0,0,1-4.73,2A6.09,6.09,0,0,1,373.84,489.12Zm8.55,16a7.17,7.17,0,0,1-2.18-4.73,6.68,6.68,0,0,1,2-4.91,6.47,6.47,0,0,1,4.73-2,6.12,6.12,0,0,1,4.91,1.82,6.48,6.48,0,0,1,2,4.73A6.11,6.11,0,0,1,392,505a7.17,7.17,0,0,1-4.73,2.18A6.67,6.67,0,0,1,382.39,505.13Zm8.55,16.11a7,7,0,0,1-2.18-4.82,6.68,6.68,0,0,1,2-4.91,6.47,6.47,0,0,1,4.73-2,6.85,6.85,0,0,1,4.91,1.91,6.39,6.39,0,0,1,2,4.82,6.15,6.15,0,0,1-1.82,4.82,6.33,6.33,0,0,1-4.73,2.09A6.84,6.84,0,0,1,390.95,521.24Zm18.19,15.92a6.69,6.69,0,0,1-4.91,2,6.62,6.62,0,0,1-4.73-1.91,7,7,0,0,1-2.18-4.82,6.77,6.77,0,0,1,2-4.82,6.34,6.34,0,0,1,4.73-2.09,6.85,6.85,0,0,1,4.91,1.91,6.39,6.39,0,0,1,2,4.82A6.12,6.12,0,0,1,409.14,537.16Zm0-290.06a6.69,6.69,0,0,1-4.91,2,6.62,6.62,0,0,1-4.73-1.91,7,7,0,0,1-2.18-4.82,6.77,6.77,0,0,1,2-4.82,6.34,6.34,0,0,1,4.73-2.09,6.85,6.85,0,0,1,4.91,1.91,6.39,6.39,0,0,1,2,4.82A6.12,6.12,0,0,1,409.14,247.1Zm109.53-33.3a6.68,6.68,0,0,1,4.91-2,6.47,6.47,0,0,1,4.73,2,6.69,6.69,0,0,1,2,4.91,6.84,6.84,0,0,1-6.73,6.73,6.66,6.66,0,0,1-4.91-2,6.46,6.46,0,0,1-2-4.73A6.68,6.68,0,0,1,518.67,213.8Zm.73,296.61a6.67,6.67,0,0,1-2-4.91,6.38,6.38,0,0,1,2-4.82,6.62,6.62,0,0,1,4.73-1.91,6.85,6.85,0,0,1,4.91,1.91,6.39,6.39,0,0,1,2,4.82,6.84,6.84,0,0,1-6.91,6.92A6.46,6.46,0,0,1,519.39,510.41Zm17.83,16a6.68,6.68,0,0,1-4.91,2,6.46,6.46,0,0,1-4.73-2,6.67,6.67,0,0,1-2-4.91,6.38,6.38,0,0,1,2-4.82,6.92,6.92,0,0,1,9.64.09,6.48,6.48,0,0,1,2,4.73A6.68,6.68,0,0,1,537.23,526.43ZM551.78,537a6.47,6.47,0,0,1-4.73,2,6.68,6.68,0,0,1-4.91-2,6.47,6.47,0,0,1-2-4.73,6.84,6.84,0,0,1,6.91-6.92,6.47,6.47,0,0,1,4.73,2,6.69,6.69,0,0,1,2,4.91A6.48,6.48,0,0,1,551.78,537Zm1.82-74.62a6.68,6.68,0,0,1,2-4.91,6.47,6.47,0,0,1,4.73-2,6.83,6.83,0,0,1,6.91,6.92,6.48,6.48,0,0,1-2,4.73,6.68,6.68,0,0,1-4.91,2,6.84,6.84,0,0,1-6.73-6.73Zm15.83,78.26a6.47,6.47,0,0,1-4.73,2,6.84,6.84,0,0,1-6.91-6.92,6.47,6.47,0,0,1,2-4.73,6.68,6.68,0,0,1,4.91-2,6.84,6.84,0,0,1,6.73,6.73A6.69,6.69,0,0,1,569.43,540.62Zm.18-133.4a6.46,6.46,0,0,1-4.73,2,6.67,6.67,0,0,1-4.91-2,6.46,6.46,0,0,1-2-4.73,6.84,6.84,0,0,1,6.91-6.92,6.47,6.47,0,0,1,4.73,2,6.69,6.69,0,0,1,2,4.91A6.47,6.47,0,0,1,569.61,407.22Zm2.18,55.14a6.68,6.68,0,0,1,2-4.91,6.47,6.47,0,0,1,4.73-2,6.84,6.84,0,0,1,6.91,6.92,6.47,6.47,0,0,1-2,4.73,6.68,6.68,0,0,1-4.91,2,6.84,6.84,0,0,1-6.73-6.73Zm15.47,74.25a6.69,6.69,0,0,1-4.91,2,6.84,6.84,0,0,1-6.73-6.73,6.68,6.68,0,0,1,2-4.91,6.47,6.47,0,0,1,4.73-2,6.83,6.83,0,0,1,6.91,6.92A6.48,6.48,0,0,1,587.26,536.62Zm14.37-10.56a6.46,6.46,0,0,1-4.73,2,6.83,6.83,0,0,1-6.91-6.92,6.47,6.47,0,0,1,2-4.73,6.68,6.68,0,0,1,4.91-2,6.84,6.84,0,0,1,6.73,6.73A6.68,6.68,0,0,1,601.63,526.06Zm8.19-16.2a6.68,6.68,0,0,1-4.91,2,6.46,6.46,0,0,1-4.73-2,6.67,6.67,0,0,1-2-4.91,6.84,6.84,0,0,1,6.73-6.73,6.69,6.69,0,0,1,4.91,2,6.48,6.48,0,0,1,2,4.73A6.68,6.68,0,0,1,609.82,509.86Zm36.11,27.3a6.39,6.39,0,0,1-4.82,2,6.84,6.84,0,0,1-6.91-6.92,6.47,6.47,0,0,1,2-4.73,6.68,6.68,0,0,1,4.91-2,6.39,6.39,0,0,1,4.82,2,6.63,6.63,0,0,1,1.91,4.73A6.85,6.85,0,0,1,645.94,537.16Zm0-18.2a6.38,6.38,0,0,1-4.82,2,6.84,6.84,0,0,1-6.91-6.92,6.47,6.47,0,0,1,2-4.73,6.68,6.68,0,0,1,4.91-2,6.39,6.39,0,0,1,4.82,2,6.63,6.63,0,0,1,1.91,4.73A6.84,6.84,0,0,1,645.94,519Zm0-18.2a6.38,6.38,0,0,1-4.82,2,6.83,6.83,0,0,1-6.91-6.92,6.47,6.47,0,0,1,2-4.73,6.68,6.68,0,0,1,4.91-2,6.39,6.39,0,0,1,4.82,2,6.63,6.63,0,0,1,1.91,4.73A6.85,6.85,0,0,1,645.94,500.76Zm0-18.2a6.38,6.38,0,0,1-4.82,2,6.83,6.83,0,0,1-6.91-6.92,6.47,6.47,0,0,1,2-4.73,6.68,6.68,0,0,1,4.91-2,6.39,6.39,0,0,1,4.82,2,6.63,6.63,0,0,1,1.91,4.73A6.85,6.85,0,0,1,645.94,482.57Zm0-18.2a6.38,6.38,0,0,1-4.82,2,6.83,6.83,0,0,1-6.91-6.92,6.47,6.47,0,0,1,2-4.73,6.68,6.68,0,0,1,4.91-2,6.39,6.39,0,0,1,4.82,2,6.63,6.63,0,0,1,1.91,4.73A6.85,6.85,0,0,1,645.94,464.37Zm0-18.2a6.38,6.38,0,0,1-4.82,2,6.84,6.84,0,0,1-6.91-6.92,6.47,6.47,0,0,1,2-4.73,6.68,6.68,0,0,1,4.91-2,6.39,6.39,0,0,1,4.82,2,6.63,6.63,0,0,1,1.91,4.73A6.84,6.84,0,0,1,645.94,446.17Zm0-18.2a6.38,6.38,0,0,1-4.82,2,6.83,6.83,0,0,1-6.91-6.92,6.47,6.47,0,0,1,2-4.73,6.68,6.68,0,0,1,4.91-2,6.39,6.39,0,0,1,4.82,2,6.63,6.63,0,0,1,1.91,4.73A6.84,6.84,0,0,1,645.94,428Zm0-18.2a6.38,6.38,0,0,1-4.82,2,6.83,6.83,0,0,1-6.91-6.92,6.47,6.47,0,0,1,2-4.73,6.68,6.68,0,0,1,4.91-2,6.39,6.39,0,0,1,4.82,2,6.63,6.63,0,0,1,1.91,4.73A6.85,6.85,0,0,1,645.94,409.77Zm0-162.67a6.39,6.39,0,0,1-4.82,2,6.83,6.83,0,0,1-6.91-6.92,6.47,6.47,0,0,1,2-4.73,6.68,6.68,0,0,1,4.91-2,6.39,6.39,0,0,1,4.82,2,6.63,6.63,0,0,1,1.91,4.73A6.85,6.85,0,0,1,645.94,247.1Zm0-18.2a6.38,6.38,0,0,1-4.82,2A6.83,6.83,0,0,1,634.2,224a6.47,6.47,0,0,1,2-4.73,6.68,6.68,0,0,1,4.91-2,6.39,6.39,0,0,1,4.82,2,6.63,6.63,0,0,1,1.91,4.73A6.85,6.85,0,0,1,645.94,228.9Zm0-18.2a6.38,6.38,0,0,1-4.82,2,6.83,6.83,0,0,1-6.91-6.92,6.47,6.47,0,0,1,2-4.73,6.68,6.68,0,0,1,4.91-2,6.39,6.39,0,0,1,4.82,2,6.63,6.63,0,0,1,1.91,4.73A6.85,6.85,0,0,1,645.94,210.71Zm0-18.2a6.38,6.38,0,0,1-4.82,2,6.83,6.83,0,0,1-6.91-6.92,6.47,6.47,0,0,1,2-4.73,6.68,6.68,0,0,1,4.91-2,6.39,6.39,0,0,1,4.82,2,6.63,6.63,0,0,1,1.91,4.73A6.85,6.85,0,0,1,645.94,192.51Zm0-18.2a6.38,6.38,0,0,1-4.82,2,6.83,6.83,0,0,1-6.91-6.92,6.47,6.47,0,0,1,2-4.73,6.68,6.68,0,0,1,4.91-2,6.39,6.39,0,0,1,4.82,2,6.63,6.63,0,0,1,1.91,4.73A6.85,6.85,0,0,1,645.94,174.31Zm0-18.2a6.38,6.38,0,0,1-4.82,2,6.83,6.83,0,0,1-6.91-6.92,6.47,6.47,0,0,1,2-4.73,6.68,6.68,0,0,1,4.91-2,6.39,6.39,0,0,1,4.82,2,6.63,6.63,0,0,1,1.91,4.73A6.85,6.85,0,0,1,645.94,156.11Zm0-18.2a6.38,6.38,0,0,1-4.82,2A6.83,6.83,0,0,1,634.2,133a6.47,6.47,0,0,1,2-4.73,6.68,6.68,0,0,1,4.91-2,6.39,6.39,0,0,1,4.82,2,6.63,6.63,0,0,1,1.91,4.73A6.85,6.85,0,0,1,645.94,137.91Zm0-18.2a6.38,6.38,0,0,1-4.82,2,6.83,6.83,0,0,1-6.91-6.92,6.47,6.47,0,0,1,2-4.73,6.68,6.68,0,0,1,4.91-2,6.39,6.39,0,0,1,4.82,2,6.63,6.63,0,0,1,1.91,4.73A6.85,6.85,0,0,1,645.94,119.71Zm18.19,417.45a6.38,6.38,0,0,1-4.82,2,6.84,6.84,0,0,1-6.91-6.92,6.47,6.47,0,0,1,2-4.73,6.68,6.68,0,0,1,4.91-2,6.39,6.39,0,0,1,4.82,2,6.62,6.62,0,0,1,1.91,4.73A6.85,6.85,0,0,1,664.13,537.16Zm0-72.8a6.38,6.38,0,0,1-4.82,2,6.84,6.84,0,0,1-6.91-6.92,6.47,6.47,0,0,1,2-4.73,6.68,6.68,0,0,1,4.91-2,6.39,6.39,0,0,1,4.82,2,6.62,6.62,0,0,1,1.91,4.73A6.84,6.84,0,0,1,664.13,464.37Zm0-54.6a6.38,6.38,0,0,1-4.82,2,6.84,6.84,0,0,1-6.91-6.92,6.47,6.47,0,0,1,2-4.73,6.68,6.68,0,0,1,4.91-2,6.39,6.39,0,0,1,4.82,2,6.63,6.63,0,0,1,1.91,4.73A6.84,6.84,0,0,1,664.13,409.77Zm0-162.67a6.38,6.38,0,0,1-4.82,2,6.84,6.84,0,0,1-6.91-6.92,6.46,6.46,0,0,1,2-4.73,6.68,6.68,0,0,1,4.91-2,6.38,6.38,0,0,1,4.82,2,6.62,6.62,0,0,1,1.91,4.73A6.85,6.85,0,0,1,664.13,247.1Zm0-72.8a6.38,6.38,0,0,1-4.82,2,6.84,6.84,0,0,1-6.91-6.92,6.47,6.47,0,0,1,2-4.73,6.68,6.68,0,0,1,4.91-2,6.39,6.39,0,0,1,4.82,2,6.62,6.62,0,0,1,1.91,4.73A6.84,6.84,0,0,1,664.13,174.31Zm0-54.6a6.38,6.38,0,0,1-4.82,2,6.84,6.84,0,0,1-6.91-6.92,6.47,6.47,0,0,1,2-4.73,6.68,6.68,0,0,1,4.91-2,6.39,6.39,0,0,1,4.82,2A6.63,6.63,0,0,1,666,114.8,6.84,6.84,0,0,1,664.13,119.71Zm18.2,417.45a6.39,6.39,0,0,1-4.82,2,6.84,6.84,0,0,1-6.91-6.92,6.47,6.47,0,0,1,2-4.73,6.68,6.68,0,0,1,4.91-2,6.39,6.39,0,0,1,4.82,2,6.63,6.63,0,0,1,1.91,4.73A6.85,6.85,0,0,1,682.33,537.16Zm0-72.8a6.38,6.38,0,0,1-4.82,2,6.84,6.84,0,0,1-6.91-6.92,6.47,6.47,0,0,1,2-4.73,6.68,6.68,0,0,1,4.91-2,6.39,6.39,0,0,1,4.82,2,6.63,6.63,0,0,1,1.91,4.73A6.85,6.85,0,0,1,682.33,464.37Zm0-54.6a6.38,6.38,0,0,1-4.82,2,6.84,6.84,0,0,1-6.91-6.92,6.47,6.47,0,0,1,2-4.73,6.68,6.68,0,0,1,4.91-2,6.39,6.39,0,0,1,4.82,2,6.63,6.63,0,0,1,1.91,4.73A6.85,6.85,0,0,1,682.33,409.77Zm0-162.67a6.39,6.39,0,0,1-4.82,2,6.84,6.84,0,0,1-6.91-6.92,6.46,6.46,0,0,1,2-4.73,6.68,6.68,0,0,1,4.91-2,6.39,6.39,0,0,1,4.82,2,6.63,6.63,0,0,1,1.91,4.73A6.85,6.85,0,0,1,682.33,247.1Zm0-72.8a6.38,6.38,0,0,1-4.82,2,6.84,6.84,0,0,1-6.91-6.92,6.47,6.47,0,0,1,2-4.73,6.68,6.68,0,0,1,4.91-2,6.39,6.39,0,0,1,4.82,2,6.63,6.63,0,0,1,1.91,4.73A6.85,6.85,0,0,1,682.33,174.31Zm0-54.6a6.38,6.38,0,0,1-4.82,2,6.84,6.84,0,0,1-6.91-6.92,6.47,6.47,0,0,1,2-4.73,6.68,6.68,0,0,1,4.91-2,6.39,6.39,0,0,1,4.82,2,6.63,6.63,0,0,1,1.91,4.73A6.84,6.84,0,0,1,682.33,119.71Zm17.92,416.91a6.69,6.69,0,0,1-4.91,2,6.84,6.84,0,0,1-6.73-6.73,6.68,6.68,0,0,1,2-4.91,6.47,6.47,0,0,1,4.73-2,6.84,6.84,0,0,1,6.91,6.92A6.48,6.48,0,0,1,700.25,536.62Zm.27-72.25a6.38,6.38,0,0,1-4.82,2,6.83,6.83,0,0,1-6.91-6.92,6.46,6.46,0,0,1,2-4.73,6.68,6.68,0,0,1,4.91-2,6.39,6.39,0,0,1,4.82,2,6.63,6.63,0,0,1,1.91,4.73A6.85,6.85,0,0,1,700.52,464.37ZM688.6,241.83a6.68,6.68,0,0,1,2-4.91,6.47,6.47,0,0,1,4.73-2,6.84,6.84,0,0,1,6.91,6.92,6.48,6.48,0,0,1-2,4.73,6.69,6.69,0,0,1-4.91,2,6.84,6.84,0,0,1-6.73-6.73Zm11.83,169.58a6.46,6.46,0,0,1-4.73,2,6.67,6.67,0,0,1-4.91-2,6.46,6.46,0,0,1-2-4.73,6.83,6.83,0,0,1,6.91-6.92,6.47,6.47,0,0,1,4.73,2,6.69,6.69,0,0,1,2,4.91A6.47,6.47,0,0,1,700.43,411.41Zm.09-237.1a6.38,6.38,0,0,1-4.82,2,6.83,6.83,0,0,1-6.91-6.92,6.46,6.46,0,0,1,2-4.73,6.68,6.68,0,0,1,4.91-2,6.39,6.39,0,0,1,4.82,2,6.63,6.63,0,0,1,1.91,4.73A6.85,6.85,0,0,1,700.52,174.31Zm-.09-53a6.46,6.46,0,0,1-4.73,2,6.67,6.67,0,0,1-4.91-2,6.46,6.46,0,0,1-2-4.73,6.83,6.83,0,0,1,6.91-6.92,6.47,6.47,0,0,1,4.73,2,6.69,6.69,0,0,1,2,4.91A6.47,6.47,0,0,1,700.43,121.35Zm5.64,289.88a6.47,6.47,0,0,1,4.73-2,6.84,6.84,0,0,1,6.91,6.92,6.47,6.47,0,0,1-2,4.73,6.68,6.68,0,0,1-4.91,2,6.84,6.84,0,0,1-6.73-6.73A6.68,6.68,0,0,1,706.07,411.23Zm.18,33.49a6.68,6.68,0,0,1,4.91-2,6.84,6.84,0,0,1,6.73,6.73,6.68,6.68,0,0,1-2,4.91,6.46,6.46,0,0,1-4.73,2,6.84,6.84,0,0,1-6.91-6.92A6.46,6.46,0,0,1,706.25,444.71ZM717.35,531a6.46,6.46,0,0,1-4.73,2,6.67,6.67,0,0,1-4.91-2,6.46,6.46,0,0,1-2-4.73,6.83,6.83,0,0,1,6.91-6.92,6.47,6.47,0,0,1,4.73,2,6.69,6.69,0,0,1,2,4.91A6.47,6.47,0,0,1,717.35,531Zm13.1-12.19a6.46,6.46,0,0,1-4.73,2,6.84,6.84,0,0,1-6.91-6.92,6.47,6.47,0,0,1,2-4.73,6.68,6.68,0,0,1,4.91-2,6.84,6.84,0,0,1,6.73,6.73A6.68,6.68,0,0,1,730.45,518.78Zm4.91-17.47a6.47,6.47,0,0,1-4.73,2,6.67,6.67,0,0,1-4.91-2,6.46,6.46,0,0,1-2-4.73,6.84,6.84,0,0,1,6.91-6.92,6.48,6.48,0,0,1,4.73,2,6.7,6.7,0,0,1,2,4.91A6.47,6.47,0,0,1,735.36,501.31Z" style="fill:none;stroke:red;stroke-miterlimit:10;stroke-width:0.028346456587315px"/><rect x="821.48" y="41.1" width="170.08" height="744.63" style="fill:none;stroke:red;stroke-miterlimit:10;stroke-width:0.028346456587315px"/><rect x="1005.67" y="41.1" width="170.08" height="744.63" style="fill:none;stroke:red;stroke-miterlimit:10;stroke-width:0.028346456587315px"/></g><g id="Calque_30" data-name="Calque 30"><path d="M77.57,632.73V802.81H662.64V632.73ZM205.89,764.34c-3.17,11.89-9.59,18.64-9.86,18.92a5,5,0,1,1-7.2-6.94c.81-.85,19.94-21.8-.69-56.32-22.79-38.12-.44-64.45.53-65.55a5,5,0,0,1,7.55,6.56c-.78.91-18.43,22.18.51,53.86C209.5,736.25,208.76,753.57,205.89,764.34Zm24.76,0c-3.17,11.89-9.59,18.64-9.86,18.92a5,5,0,1,1-7.2-6.94c.81-.85,19.94-21.8-.69-56.32-22.79-38.12-.44-64.45.53-65.55A5,5,0,0,1,221,661c-.78.91-18.43,22.18.51,53.86C234.26,736.25,233.52,753.57,230.64,764.34Zm24.76,0c-3.17,11.89-9.59,18.64-9.86,18.92a5,5,0,1,1-7.2-6.94c.81-.85,19.94-21.8-.69-56.32-22.79-38.12-.44-64.45.53-65.55a5,5,0,0,1,7.55,6.56c-.78.91-18.43,22.18.51,53.86C259,736.25,258.27,753.57,255.4,764.34Zm24.76,0c-3.17,11.89-9.59,18.64-9.86,18.92a5,5,0,1,1-7.2-6.94c.81-.85,19.94-21.8-.69-56.32-22.79-38.12-.44-64.45.53-65.55a5,5,0,0,1,7.55,6.56c-.78.91-18.43,22.18.51,53.86C283.77,736.25,283,753.57,280.16,764.34Zm24.76,0c-3.17,11.89-9.59,18.64-9.86,18.92a5,5,0,1,1-7.2-6.94c.81-.85,19.94-21.8-.69-56.32-22.79-38.12-.44-64.45.53-65.55a5,5,0,0,1,7.55,6.56c-.78.91-18.43,22.18.51,53.86C308.53,736.25,307.78,753.57,304.91,764.34Zm24.76,0c-3.17,11.89-9.59,18.64-9.86,18.92a5,5,0,1,1-7.2-6.94c.81-.85,19.94-21.8-.69-56.32-22.79-38.12-.44-64.45.53-65.55A5,5,0,0,1,320,661c-.78.91-18.43,22.18.51,53.86C333.28,736.25,332.54,753.57,329.67,764.34Zm24.76,0c-3.17,11.89-9.59,18.64-9.86,18.92a5,5,0,1,1-7.2-6.94c.81-.85,19.94-21.8-.69-56.32-22.79-38.12-.44-64.45.53-65.55a5,5,0,0,1,7.55,6.56c-.78.91-18.43,22.18.51,53.86C358,736.25,357.3,753.57,354.42,764.34Zm55.71,19.05a5,5,0,0,1-7.07-.13c-.27-.28-6.69-7-9.86-18.92-2.87-10.76-3.61-28.09,9.17-49.47,18.94-31.68,1.29-52.94.51-53.86a5,5,0,0,1,7.55-6.56c1,1.1,23.31,27.42.53,65.55-20.63,34.52-1.5,55.47-.69,56.32A5,5,0,0,1,410.13,783.39Zm24.76,0a5,5,0,0,1-7.07-.13c-.27-.28-6.69-7-9.86-18.92-2.87-10.76-3.61-28.09,9.17-49.47,18.94-31.68,1.29-52.94.51-53.86a5,5,0,0,1,7.55-6.56c1,1.1,23.31,27.42.53,65.55-20.63,34.52-1.5,55.47-.69,56.32A5,5,0,0,1,434.89,783.39Zm24.76,0a5,5,0,0,1-7.07-.13c-.27-.28-6.69-7-9.86-18.92-2.87-10.76-3.61-28.09,9.17-49.47,18.94-31.68,1.29-52.94.51-53.86a5,5,0,0,1,7.55-6.56c1,1.1,23.31,27.42.53,65.55-20.63,34.52-1.5,55.47-.69,56.32A5,5,0,0,1,459.64,783.39Zm24.76,0a5,5,0,0,1-7.07-.13c-.27-.28-6.69-7-9.86-18.92-2.87-10.76-3.61-28.09,9.17-49.47,18.94-31.68,1.29-52.94.51-53.86a5,5,0,0,1,7.55-6.56c1,1.1,23.31,27.42.53,65.55-20.63,34.52-1.5,55.47-.69,56.32A5,5,0,0,1,484.4,783.39Zm24.76,0a5,5,0,0,1-7.07-.13c-.27-.28-6.69-7-9.86-18.92-2.87-10.76-3.61-28.09,9.17-49.47,18.94-31.68,1.29-52.94.51-53.86a5,5,0,0,1,7.55-6.56c1,1.1,23.31,27.42.53,65.55-20.63,34.52-1.5,55.47-.69,56.32A5,5,0,0,1,509.15,783.39Zm24.76,0a5,5,0,0,1-7.07-.13c-.27-.28-6.69-7-9.86-18.92-2.87-10.76-3.61-28.09,9.17-49.47,18.94-31.68,1.29-52.94.51-53.86a5,5,0,0,1,7.55-6.56c1,1.1,23.31,27.42.53,65.55-20.63,34.52-1.5,55.47-.69,56.32A5,5,0,0,1,533.91,783.39Zm24.88-7.07a5,5,0,1,1-7.2,6.94c-.27-.28-6.69-7-9.86-18.92-2.87-10.76-3.61-28.09,9.17-49.47,18.94-31.68,1.29-52.94.51-53.86a5,5,0,0,1,7.55-6.56c1,1.1,23.31,27.42.53,65.55C538.85,754.52,558,775.47,558.79,776.32Z" style="fill:none;stroke:red;stroke-miterlimit:10;stroke-width:0.028346456587315px"/></g></g></svg>