<svg xmlns="http://www.w3.org/2000/svg" viewBox="0 0 1190.55 841.89"><title>Afficheur-Led</title><g id="Calque_24" data-name="Calque 24"><g id="Calque_27" data-name="Calque 27"><path d="M1075.39,37.73H36.54V605.81H1075.39ZM872.71,429.53a6.68,6.68,0,0,1,4.91-2,6.84,6.84,0,0,1,6.73,6.73,6.68,6.68,0,0,1-2,4.91,6.46,6.46,0,0,1-4.73,2,6.84,6.84,0,0,1-6.91-6.92A6.47,6.47,0,0,1,872.71,429.53ZM868,421.89a6.67,6.67,0,0,1-2-4.91,6.47,6.47,0,0,1,2-4.73,6.68,6.68,0,0,1,4.91-2,6.84,6.84,0,0,1,6.73,6.73,6.68,6.68,0,0,1-2,4.91,6.46,6.46,0,0,1-4.73,2A6.67,6.67,0,0,1,868,421.89Zm10.37-194.42a6.85,6.85,0,0,1-4.91,1.91,6.62,6.62,0,0,1-4.73-1.91,6.38,6.38,0,0,1-2-4.82,6.68,6.68,0,0,1,2-4.91,6.47,6.47,0,0,1,4.73-2,6.84,6.84,0,0,1,6.91,6.92A6.39,6.39,0,0,1,878.35,227.46ZM868,235.93a6.84,6.84,0,0,1-6.73,6.73,6.67,6.67,0,0,1-4.91-2,6.46,6.46,0,0,1-2-4.73,6.84,6.84,0,0,1,6.91-6.92,6.47,6.47,0,0,1,4.73,2A6.69,6.69,0,0,1,868,235.93ZM854.51,400.41a6.47,6.47,0,0,1,4.73-2,6.83,6.83,0,0,1,6.91,6.92,6.47,6.47,0,0,1-2,4.73,6.68,6.68,0,0,1-4.91,2,6.84,6.84,0,0,1-6.73-6.73A6.68,6.68,0,0,1,854.51,400.41Zm11.1,45.5a6.68,6.68,0,0,1,4.91-2,6.84,6.84,0,0,1,6.73,6.73,6.68,6.68,0,0,1-2,4.91,6.46,6.46,0,0,1-4.73,2,6.84,6.84,0,0,1-6.91-6.92A6.47,6.47,0,0,1,865.61,445.91Zm.36,19.84a6.47,6.47,0,0,1,4.73-2,6.84,6.84,0,0,1,6.91,6.92,6.47,6.47,0,0,1-2,4.73,6.68,6.68,0,0,1-4.91,2,6.84,6.84,0,0,1-6.73-6.73A6.68,6.68,0,0,1,866,465.75Zm9.83,15.1a6.47,6.47,0,0,1,4.73-2,6.83,6.83,0,0,1,6.91,6.92,6.47,6.47,0,0,1-2,4.73,6.68,6.68,0,0,1-4.91,2,6.84,6.84,0,0,1-6.73-6.73A6.68,6.68,0,0,1,875.8,480.85Zm9.83-275.5a6.68,6.68,0,0,1-2,4.91,6.46,6.46,0,0,1-4.73,2,6.84,6.84,0,0,1-6.91-6.92,6.47,6.47,0,0,1,2-4.73,6.68,6.68,0,0,1,4.91-2,6.84,6.84,0,0,1,6.73,6.73Zm-4.55-12.92a6.46,6.46,0,0,1-4.73,2,6.84,6.84,0,0,1-6.91-6.92,6.38,6.38,0,0,1,2-4.82,6.84,6.84,0,0,1,4.91-1.91,6.63,6.63,0,0,1,4.73,1.91,6.39,6.39,0,0,1,2,4.82A6.68,6.68,0,0,1,881.08,192.43Zm-10.73-83.72a6.68,6.68,0,0,1,4.91-2,6.84,6.84,0,0,1,6.73,6.73,6.68,6.68,0,0,1-2,4.91,6.46,6.46,0,0,1-4.73,2,6.84,6.84,0,0,1-6.91-6.92A6.47,6.47,0,0,1,870.34,108.71Zm.73,59a6.48,6.48,0,0,1,2,4.73,6.84,6.84,0,0,1-6.91,6.92,6.46,6.46,0,0,1-4.73-2,6.67,6.67,0,0,1-2-4.91,6.84,6.84,0,0,1,6.73-6.73A6.69,6.69,0,0,1,871.07,167.68Zm-18.92-59a6.68,6.68,0,0,1,4.91-2,6.84,6.84,0,0,1,6.73,6.73,6.68,6.68,0,0,1-2,4.91,6.46,6.46,0,0,1-4.73,2,6.83,6.83,0,0,1-6.91-6.92A6.47,6.47,0,0,1,852.15,108.71Zm-1.46,47.68a6.84,6.84,0,0,1,6.91,6.92,6.47,6.47,0,0,1-2,4.73,6.68,6.68,0,0,1-4.91,2,6.84,6.84,0,0,1-6.73-6.73,6.68,6.68,0,0,1,2-4.91A6.47,6.47,0,0,1,850.69,156.4Zm.55,86.08a6.48,6.48,0,0,1-2,4.73,6.69,6.69,0,0,1-4.91,2,6.84,6.84,0,0,1-6.73-6.73,6.68,6.68,0,0,1,2-4.91,6.47,6.47,0,0,1,4.73-2,6.84,6.84,0,0,1,6.91,6.92ZM834,108.71a6.68,6.68,0,0,1,4.91-2,6.84,6.84,0,0,1,6.73,6.73,6.68,6.68,0,0,1-2,4.91,6.46,6.46,0,0,1-4.73,2,6.84,6.84,0,0,1-6.91-6.92A6.47,6.47,0,0,1,834,108.71Zm-1.27,46a6.83,6.83,0,0,1,6.91,6.92,6.47,6.47,0,0,1-2,4.73,6.68,6.68,0,0,1-4.91,2,6.84,6.84,0,0,1-6.73-6.73,6.68,6.68,0,0,1,2-4.91A6.47,6.47,0,0,1,832.68,154.76ZM815.58,237a6.68,6.68,0,0,1-4.91,2,6.37,6.37,0,0,1-4.82-2,6.85,6.85,0,0,1-1.91-4.91,6.63,6.63,0,0,1,1.91-4.73,6.38,6.38,0,0,1,4.82-2,6.69,6.69,0,0,1,4.91,2,6.48,6.48,0,0,1,2,4.73A6.68,6.68,0,0,1,815.58,237ZM817,416.43a6.84,6.84,0,0,1-6.91,6.92,6.46,6.46,0,0,1-4.73-2,6.67,6.67,0,0,1-2-4.91,6.84,6.84,0,0,1,6.73-6.73,6.69,6.69,0,0,1,4.91,2A6.48,6.48,0,0,1,817,416.43ZM819.21,400a6.47,6.47,0,0,1,4.73-2,6.84,6.84,0,0,1,6.91,6.92,6.47,6.47,0,0,1-2,4.73,6.68,6.68,0,0,1-4.91,2,6.84,6.84,0,0,1-6.73-6.73A6.68,6.68,0,0,1,819.21,400Zm7.1-152.11a6.84,6.84,0,0,1-6.73-6.73,6.68,6.68,0,0,1,2-4.91,6.47,6.47,0,0,1,4.73-2,6.83,6.83,0,0,1,6.91,6.92,6.48,6.48,0,0,1-2,4.73A6.69,6.69,0,0,1,826.31,247.94ZM815.76,108.71a6.68,6.68,0,0,1,4.91-2,6.84,6.84,0,0,1,6.73,6.73,6.68,6.68,0,0,1-2,4.91,6.46,6.46,0,0,1-4.73,2,6.84,6.84,0,0,1-6.91-6.92A6.47,6.47,0,0,1,815.76,108.71Zm-1.46,18.2a6.47,6.47,0,0,1,4.73-2,6.69,6.69,0,0,1,4.91,2,6.48,6.48,0,0,1,2,4.73,6.84,6.84,0,0,1-6.91,6.92,6.46,6.46,0,0,1-4.73-2,6.67,6.67,0,0,1-2-4.91A6.47,6.47,0,0,1,814.3,126.91Zm-1.64,18a6.68,6.68,0,0,1,4.91-2,6.47,6.47,0,0,1,4.73,2,6.69,6.69,0,0,1,2,4.91,6.39,6.39,0,0,1-2,4.82,6.62,6.62,0,0,1-4.73,1.91,6.84,6.84,0,0,1-4.91-1.91,6.38,6.38,0,0,1-2-4.82A6.68,6.68,0,0,1,812.67,144.93ZM811,163.13a6.68,6.68,0,0,1,4.91-2,6.48,6.48,0,0,1,4.73,2,6.69,6.69,0,0,1,2,4.91,6.84,6.84,0,0,1-6.73,6.73,6.67,6.67,0,0,1-4.91-2,6.46,6.46,0,0,1-2-4.73A6.68,6.68,0,0,1,811,163.13Zm-130.27-8.19a6.48,6.48,0,0,1,2,4.73,6.68,6.68,0,0,1-2,4.91,6.46,6.46,0,0,1-4.73,2,6.84,6.84,0,0,1-6.91-6.92,6.47,6.47,0,0,1,2-4.73,6.68,6.68,0,0,1,4.91-2A6.47,6.47,0,0,1,680.76,154.94ZM664.2,226.28a6.85,6.85,0,0,1-1.91,4.91,6.38,6.38,0,0,1-4.82,2,6.84,6.84,0,0,1-6.91-6.92,6.47,6.47,0,0,1,2-4.73,6.68,6.68,0,0,1,4.91-2,6.39,6.39,0,0,1,4.82,2A6.63,6.63,0,0,1,664.2,226.28Zm-1.82-13.83a6.84,6.84,0,0,1,6.73-6.73,6.69,6.69,0,0,1,4.91,2,6.48,6.48,0,0,1,2,4.73,6.84,6.84,0,0,1-6.91,6.92,6.46,6.46,0,0,1-4.73-2A6.67,6.67,0,0,1,662.38,212.45Zm6.37,213.81a6.84,6.84,0,0,1,6.91,6.92,6.47,6.47,0,0,1-2,4.73,6.67,6.67,0,0,1-4.91,2,6.84,6.84,0,0,1-6.73-6.73,6.68,6.68,0,0,1,2-4.91A6.47,6.47,0,0,1,668.75,426.25ZM671.11,445a6.68,6.68,0,0,1,4.91-2,6.84,6.84,0,0,1,6.73,6.73,6.68,6.68,0,0,1-2,4.91,6.46,6.46,0,0,1-4.73,2,6.84,6.84,0,0,1-6.91-6.92A6.47,6.47,0,0,1,671.11,445Zm9.83-244.38a6.46,6.46,0,0,1-4.73,2,6.84,6.84,0,0,1-6.91-6.92,6.47,6.47,0,0,1,2-4.73,6.68,6.68,0,0,1,4.91-2,6.84,6.84,0,0,1,6.73,6.73A6.68,6.68,0,0,1,680.94,200.62Zm-7.28-62.42a6.69,6.69,0,0,1,2,4.91,6.47,6.47,0,0,1-2,4.73,6.67,6.67,0,0,1-4.91,2,6.84,6.84,0,0,1-6.73-6.73,6.68,6.68,0,0,1,2-4.91,6.47,6.47,0,0,1,4.73-2A6.68,6.68,0,0,1,673.66,138.2Zm-21.29-13.83a6.68,6.68,0,0,1,4.91-2A6.84,6.84,0,0,1,664,129.1a6.68,6.68,0,0,1-2,4.91,6.46,6.46,0,0,1-4.73,2,6.84,6.84,0,0,1-6.91-6.92A6.47,6.47,0,0,1,652.37,124.37ZM524.65,429.53a6.68,6.68,0,0,1,4.91-2,6.84,6.84,0,0,1,6.73,6.73,6.68,6.68,0,0,1-2,4.91,6.46,6.46,0,0,1-4.73,2,6.84,6.84,0,0,1-6.91-6.92A6.47,6.47,0,0,1,524.65,429.53Zm-4.73-7.64a6.67,6.67,0,0,1-2-4.91,6.47,6.47,0,0,1,2-4.73,6.68,6.68,0,0,1,4.91-2,6.84,6.84,0,0,1,6.73,6.73,6.68,6.68,0,0,1-2,4.91,6.46,6.46,0,0,1-4.73,2A6.67,6.67,0,0,1,519.92,421.89Zm10.37-194.42a6.85,6.85,0,0,1-4.91,1.91,6.62,6.62,0,0,1-4.73-1.91,6.38,6.38,0,0,1-2-4.82,6.68,6.68,0,0,1,2-4.91,6.47,6.47,0,0,1,4.73-2,6.84,6.84,0,0,1,6.91,6.92A6.39,6.39,0,0,1,530.29,227.46Zm-10.37,8.46a6.84,6.84,0,0,1-6.73,6.73,6.67,6.67,0,0,1-4.91-2,6.46,6.46,0,0,1-2-4.73,6.84,6.84,0,0,1,6.91-6.92,6.47,6.47,0,0,1,4.73,2A6.69,6.69,0,0,1,519.92,235.93ZM506.46,400.41a6.47,6.47,0,0,1,4.73-2,6.83,6.83,0,0,1,6.91,6.92,6.47,6.47,0,0,1-2,4.73,6.68,6.68,0,0,1-4.91,2,6.84,6.84,0,0,1-6.73-6.73A6.68,6.68,0,0,1,506.46,400.41Zm11.1,45.5a6.68,6.68,0,0,1,4.91-2,6.84,6.84,0,0,1,6.73,6.73,6.68,6.68,0,0,1-2,4.91,6.46,6.46,0,0,1-4.73,2,6.84,6.84,0,0,1-6.91-6.92A6.47,6.47,0,0,1,517.55,445.91Zm.36,19.84a6.47,6.47,0,0,1,4.73-2,6.84,6.84,0,0,1,6.91,6.92,6.47,6.47,0,0,1-2,4.73,6.68,6.68,0,0,1-4.91,2,6.84,6.84,0,0,1-6.73-6.73A6.68,6.68,0,0,1,517.92,465.75Zm9.83,15.1a6.47,6.47,0,0,1,4.73-2,6.83,6.83,0,0,1,6.91,6.92,6.47,6.47,0,0,1-2,4.73,6.68,6.68,0,0,1-4.91,2,6.84,6.84,0,0,1-6.73-6.73A6.68,6.68,0,0,1,527.74,480.85Zm9.83-275.5a6.68,6.68,0,0,1-2,4.91,6.46,6.46,0,0,1-4.73,2,6.84,6.84,0,0,1-6.91-6.92,6.47,6.47,0,0,1,2-4.73,6.68,6.68,0,0,1,4.91-2,6.84,6.84,0,0,1,6.73,6.73ZM533,192.43a6.46,6.46,0,0,1-4.73,2,6.84,6.84,0,0,1-6.91-6.92,6.38,6.38,0,0,1,2-4.82,6.84,6.84,0,0,1,4.91-1.91,6.63,6.63,0,0,1,4.73,1.91,6.39,6.39,0,0,1,2,4.82A6.68,6.68,0,0,1,533,192.43Zm-10.73-83.72a6.68,6.68,0,0,1,4.91-2,6.84,6.84,0,0,1,6.73,6.73,6.68,6.68,0,0,1-2,4.91,6.46,6.46,0,0,1-4.73,2,6.84,6.84,0,0,1-6.91-6.92A6.47,6.47,0,0,1,522.28,108.71Zm.73,59a6.48,6.48,0,0,1,2,4.73,6.84,6.84,0,0,1-6.91,6.92,6.46,6.46,0,0,1-4.73-2,6.67,6.67,0,0,1-2-4.91,6.84,6.84,0,0,1,6.73-6.73A6.69,6.69,0,0,1,523,167.68Zm-18.92-59a6.68,6.68,0,0,1,4.91-2,6.84,6.84,0,0,1,6.73,6.73,6.68,6.68,0,0,1-2,4.91,6.46,6.46,0,0,1-4.73,2,6.83,6.83,0,0,1-6.91-6.92A6.47,6.47,0,0,1,504.09,108.71Zm-1.46,47.68a6.84,6.84,0,0,1,6.91,6.92,6.47,6.47,0,0,1-2,4.73,6.68,6.68,0,0,1-4.91,2,6.84,6.84,0,0,1-6.73-6.73,6.68,6.68,0,0,1,2-4.91A6.47,6.47,0,0,1,502.63,156.4Zm.55,86.08a6.48,6.48,0,0,1-2,4.73,6.69,6.69,0,0,1-4.91,2,6.84,6.84,0,0,1-6.73-6.73,6.68,6.68,0,0,1,2-4.91,6.47,6.47,0,0,1,4.73-2,6.84,6.84,0,0,1,6.91,6.92ZM485.89,108.71a6.68,6.68,0,0,1,4.91-2,6.84,6.84,0,0,1,6.73,6.73,6.68,6.68,0,0,1-2,4.91,6.46,6.46,0,0,1-4.73,2,6.84,6.84,0,0,1-6.91-6.92A6.47,6.47,0,0,1,485.89,108.71Zm-1.27,46a6.83,6.83,0,0,1,6.91,6.92,6.47,6.47,0,0,1-2,4.73,6.68,6.68,0,0,1-4.91,2,6.84,6.84,0,0,1-6.73-6.73,6.68,6.68,0,0,1,2-4.91A6.47,6.47,0,0,1,484.62,154.76ZM467.52,237a6.68,6.68,0,0,1-4.91,2,6.37,6.37,0,0,1-4.82-2,6.85,6.85,0,0,1-1.91-4.91,6.63,6.63,0,0,1,1.91-4.73,6.38,6.38,0,0,1,4.82-2,6.69,6.69,0,0,1,4.91,2,6.48,6.48,0,0,1,2,4.73A6.68,6.68,0,0,1,467.52,237ZM469,416.43a6.84,6.84,0,0,1-6.91,6.92,6.46,6.46,0,0,1-4.73-2,6.67,6.67,0,0,1-2-4.91,6.84,6.84,0,0,1,6.73-6.73,6.69,6.69,0,0,1,4.91,2A6.48,6.48,0,0,1,469,416.43ZM471.16,400a6.47,6.47,0,0,1,4.73-2A6.84,6.84,0,0,1,482.8,405a6.47,6.47,0,0,1-2,4.73,6.68,6.68,0,0,1-4.91,2,6.84,6.84,0,0,1-6.73-6.73A6.68,6.68,0,0,1,471.16,400Zm7.1-152.11a6.84,6.84,0,0,1-6.73-6.73,6.68,6.68,0,0,1,2-4.91,6.47,6.47,0,0,1,4.73-2,6.83,6.83,0,0,1,6.91,6.92,6.48,6.48,0,0,1-2,4.73A6.69,6.69,0,0,1,478.25,247.94ZM467.7,108.71a6.68,6.68,0,0,1,4.91-2,6.84,6.84,0,0,1,6.73,6.73,6.68,6.68,0,0,1-2,4.91,6.46,6.46,0,0,1-4.73,2,6.84,6.84,0,0,1-6.91-6.92A6.47,6.47,0,0,1,467.7,108.71Zm-1.46,18.2a6.47,6.47,0,0,1,4.73-2,6.69,6.69,0,0,1,4.91,2,6.48,6.48,0,0,1,2,4.73,6.84,6.84,0,0,1-6.91,6.92,6.46,6.46,0,0,1-4.73-2,6.67,6.67,0,0,1-2-4.91A6.47,6.47,0,0,1,466.25,126.91Zm-1.64,18a6.68,6.68,0,0,1,4.91-2,6.47,6.47,0,0,1,4.73,2,6.69,6.69,0,0,1,2,4.91,6.39,6.39,0,0,1-2,4.82,6.62,6.62,0,0,1-4.73,1.91,6.84,6.84,0,0,1-4.91-1.91,6.38,6.38,0,0,1-2-4.82A6.68,6.68,0,0,1,464.61,144.93ZM463,163.13a6.68,6.68,0,0,1,4.91-2,6.48,6.48,0,0,1,4.73,2,6.69,6.69,0,0,1,2,4.91,6.84,6.84,0,0,1-6.73,6.73,6.67,6.67,0,0,1-4.91-2,6.46,6.46,0,0,1-2-4.73A6.68,6.68,0,0,1,463,163.13Zm-247.26-25.3a6.47,6.47,0,0,1,4.73-2,6.69,6.69,0,0,1,4.91,2,6.48,6.48,0,0,1,2,4.73,6.84,6.84,0,0,1-6.91,6.92,6.46,6.46,0,0,1-4.73-2,6.68,6.68,0,0,1-2-4.91A6.47,6.47,0,0,1,215.71,137.83Zm-7.28,306.62a6.68,6.68,0,0,1,4.91-2,6.47,6.47,0,0,1,4.73,2,6.69,6.69,0,0,1,2,4.91,6.84,6.84,0,0,1-6.73,6.73,6.67,6.67,0,0,1-4.91-2,6.46,6.46,0,0,1-2-4.73A6.68,6.68,0,0,1,208.43,444.45Zm-2-249.29a6.84,6.84,0,0,1,6.91-6.92,6.47,6.47,0,0,1,4.73,2,6.69,6.69,0,0,1,2,4.91,6.84,6.84,0,0,1-6.73,6.73,6.67,6.67,0,0,1-4.91-2A6.46,6.46,0,0,1,206.43,195.16Zm9.28,242.38a6.67,6.67,0,0,1-2-4.91,6.84,6.84,0,0,1,6.73-6.73,6.69,6.69,0,0,1,4.91,2,6.48,6.48,0,0,1,2,4.73,6.84,6.84,0,0,1-6.91,6.92A6.46,6.46,0,0,1,215.71,437.54Zm0-220.9a6.67,6.67,0,0,1-2-4.91,6.84,6.84,0,0,1,6.73-6.73,6.69,6.69,0,0,1,4.91,2,6.48,6.48,0,0,1,2,4.73,6.84,6.84,0,0,1-6.91,6.92A6.46,6.46,0,0,1,215.71,216.63Zm-7.28-62.24a6.68,6.68,0,0,1,4.91-2,6.47,6.47,0,0,1,4.73,2,6.69,6.69,0,0,1,2,4.91,6.84,6.84,0,0,1-6.73,6.73,6.67,6.67,0,0,1-4.91-2,6.46,6.46,0,0,1-2-4.73A6.68,6.68,0,0,1,208.43,154.39Zm-2.55,18a6.68,6.68,0,0,1,4.91-2,6.39,6.39,0,0,1,4.82,2,6.63,6.63,0,0,1,1.91,4.73,6.84,6.84,0,0,1-1.91,4.91,6.38,6.38,0,0,1-4.82,2,6.84,6.84,0,0,1-6.91-6.92A6.47,6.47,0,0,1,205.88,172.41ZM169.13,429.53a6.68,6.68,0,0,1,4.91-2,6.84,6.84,0,0,1,6.73,6.73,6.68,6.68,0,0,1-2,4.91,6.46,6.46,0,0,1-4.73,2,6.84,6.84,0,0,1-6.91-6.92A6.47,6.47,0,0,1,169.13,429.53Zm-4.73-7.64a6.67,6.67,0,0,1-2-4.91,6.47,6.47,0,0,1,2-4.73,6.68,6.68,0,0,1,4.91-2A6.84,6.84,0,0,1,176,417a6.68,6.68,0,0,1-2,4.91,6.46,6.46,0,0,1-4.73,2A6.67,6.67,0,0,1,164.4,421.89Zm10.37-194.42a6.85,6.85,0,0,1-4.91,1.91,6.62,6.62,0,0,1-4.73-1.91,6.38,6.38,0,0,1-2-4.82,6.68,6.68,0,0,1,2-4.91,6.47,6.47,0,0,1,4.73-2,6.84,6.84,0,0,1,6.91,6.92A6.39,6.39,0,0,1,174.77,227.46Zm-10.37,8.46a6.84,6.84,0,0,1-6.73,6.73,6.67,6.67,0,0,1-4.91-2,6.46,6.46,0,0,1-2-4.73,6.84,6.84,0,0,1,6.91-6.92,6.47,6.47,0,0,1,4.73,2A6.69,6.69,0,0,1,164.4,235.93ZM150.94,400.41a6.47,6.47,0,0,1,4.73-2,6.83,6.83,0,0,1,6.91,6.92,6.47,6.47,0,0,1-2,4.73,6.68,6.68,0,0,1-4.91,2,6.84,6.84,0,0,1-6.73-6.73A6.68,6.68,0,0,1,150.94,400.41Zm11.1,45.5a6.68,6.68,0,0,1,4.91-2,6.84,6.84,0,0,1,6.73,6.73,6.68,6.68,0,0,1-2,4.91,6.46,6.46,0,0,1-4.73,2,6.84,6.84,0,0,1-6.91-6.92A6.47,6.47,0,0,1,162,445.91Zm.36,19.84a6.47,6.47,0,0,1,4.73-2,6.84,6.84,0,0,1,6.91,6.92,6.47,6.47,0,0,1-2,4.73,6.68,6.68,0,0,1-4.91,2,6.84,6.84,0,0,1-6.73-6.73A6.68,6.68,0,0,1,162.4,465.75Zm9.83,15.1a6.47,6.47,0,0,1,4.73-2,6.83,6.83,0,0,1,6.91,6.92,6.47,6.47,0,0,1-2,4.73,6.68,6.68,0,0,1-4.91,2,6.84,6.84,0,0,1-6.73-6.73A6.68,6.68,0,0,1,172.23,480.85Zm9.83-275.5a6.68,6.68,0,0,1-2,4.91,6.46,6.46,0,0,1-4.73,2,6.84,6.84,0,0,1-6.91-6.92,6.47,6.47,0,0,1,2-4.73,6.68,6.68,0,0,1,4.91-2,6.84,6.84,0,0,1,6.73,6.73Zm-4.55-12.92a6.46,6.46,0,0,1-4.73,2,6.84,6.84,0,0,1-6.91-6.92,6.38,6.38,0,0,1,2-4.82,6.84,6.84,0,0,1,4.91-1.91,6.63,6.63,0,0,1,4.73,1.91,6.39,6.39,0,0,1,2,4.82A6.68,6.68,0,0,1,177.5,192.43Zm-10.73-83.72a6.68,6.68,0,0,1,4.91-2,6.84,6.84,0,0,1,6.73,6.73,6.68,6.68,0,0,1-2,4.91,6.46,6.46,0,0,1-4.73,2,6.84,6.84,0,0,1-6.91-6.92A6.47,6.47,0,0,1,166.77,108.71Zm.73,59a6.48,6.48,0,0,1,2,4.73,6.84,6.84,0,0,1-6.91,6.92,6.46,6.46,0,0,1-4.73-2,6.67,6.67,0,0,1-2-4.91,6.84,6.84,0,0,1,6.73-6.73A6.69,6.69,0,0,1,167.49,167.68Zm-18.92-59a6.68,6.68,0,0,1,4.91-2,6.84,6.84,0,0,1,6.73,6.73,6.68,6.68,0,0,1-2,4.91,6.46,6.46,0,0,1-4.73,2,6.83,6.83,0,0,1-6.91-6.92A6.47,6.47,0,0,1,148.57,108.71Zm-1.46,47.68a6.84,6.84,0,0,1,6.91,6.92,6.47,6.47,0,0,1-2,4.73,6.68,6.68,0,0,1-4.91,2,6.84,6.84,0,0,1-6.73-6.73,6.68,6.68,0,0,1,2-4.91A6.47,6.47,0,0,1,147.12,156.4Zm.55,86.08a6.48,6.48,0,0,1-2,4.73,6.69,6.69,0,0,1-4.91,2,6.84,6.84,0,0,1-6.73-6.73,6.68,6.68,0,0,1,2-4.91,6.47,6.47,0,0,1,4.73-2,6.84,6.84,0,0,1,6.91,6.92ZM130.38,108.71a6.68,6.68,0,0,1,4.91-2,6.84,6.84,0,0,1,6.73,6.73,6.68,6.68,0,0,1-2,4.91,6.46,6.46,0,0,1-4.73,2,6.84,6.84,0,0,1-6.91-6.92A6.47,6.47,0,0,1,130.38,108.71Zm-1.27,46a6.83,6.83,0,0,1,6.91,6.92,6.47,6.47,0,0,1-2,4.73,6.68,6.68,0,0,1-4.91,2,6.84,6.84,0,0,1-6.73-6.73,6.68,6.68,0,0,1,2-4.91A6.47,6.47,0,0,1,129.1,154.76ZM112,237a6.68,6.68,0,0,1-4.91,2,6.37,6.37,0,0,1-4.82-2,6.85,6.85,0,0,1-1.91-4.91,6.63,6.63,0,0,1,1.91-4.73,6.38,6.38,0,0,1,4.82-2,6.69,6.69,0,0,1,4.91,2,6.48,6.48,0,0,1,2,4.73A6.68,6.68,0,0,1,112,237Zm1.46,179.41a6.84,6.84,0,0,1-6.91,6.92,6.46,6.46,0,0,1-4.73-2,6.67,6.67,0,0,1-2-4.91,6.84,6.84,0,0,1,6.73-6.73,6.69,6.69,0,0,1,4.91,2A6.48,6.48,0,0,1,113.46,416.43ZM115.64,400a6.47,6.47,0,0,1,4.73-2,6.84,6.84,0,0,1,6.91,6.92,6.47,6.47,0,0,1-2,4.73,6.68,6.68,0,0,1-4.91,2,6.84,6.84,0,0,1-6.73-6.73A6.68,6.68,0,0,1,115.64,400Zm7.1-152.11A6.84,6.84,0,0,1,116,241.2a6.68,6.68,0,0,1,2-4.91,6.47,6.47,0,0,1,4.73-2,6.83,6.83,0,0,1,6.91,6.92,6.48,6.48,0,0,1-2,4.73A6.69,6.69,0,0,1,122.74,247.94ZM112.18,108.71a6.68,6.68,0,0,1,4.91-2,6.84,6.84,0,0,1,6.73,6.73,6.68,6.68,0,0,1-2,4.91,6.46,6.46,0,0,1-4.73,2,6.84,6.84,0,0,1-6.91-6.92A6.47,6.47,0,0,1,112.18,108.71Zm-1.46,18.2a6.47,6.47,0,0,1,4.73-2,6.69,6.69,0,0,1,4.91,2,6.48,6.48,0,0,1,2,4.73,6.84,6.84,0,0,1-6.91,6.92,6.46,6.46,0,0,1-4.73-2,6.67,6.67,0,0,1-2-4.91A6.47,6.47,0,0,1,110.73,126.91Zm-1.64,18a6.68,6.68,0,0,1,4.91-2,6.47,6.47,0,0,1,4.73,2,6.69,6.69,0,0,1,2,4.91,6.39,6.39,0,0,1-2,4.82,6.62,6.62,0,0,1-4.73,1.91,6.84,6.84,0,0,1-4.91-1.91,6.38,6.38,0,0,1-2-4.82A6.68,6.68,0,0,1,109.09,144.93Zm-1.64,18.2a6.68,6.68,0,0,1,4.91-2,6.48,6.48,0,0,1,4.73,2,6.69,6.69,0,0,1,2,4.91,6.84,6.84,0,0,1-6.73,6.73,6.67,6.67,0,0,1-4.91-2,6.46,6.46,0,0,1-2-4.73A6.68,6.68,0,0,1,107.45,163.13ZM92,212.45a6.68,6.68,0,0,1,4.91-2,6.47,6.47,0,0,1,4.73,2,6.69,6.69,0,0,1,2,4.91,6.84,6.84,0,0,1-6.73,6.73,6.66,6.66,0,0,1-4.91-2,6.46,6.46,0,0,1-2-4.73A6.68,6.68,0,0,1,92,212.45Zm.73,296.61a6.67,6.67,0,0,1-2-4.91,6.38,6.38,0,0,1,2-4.82,6.62,6.62,0,0,1,4.73-1.91,6.85,6.85,0,0,1,4.91,1.91,6.39,6.39,0,0,1,2,4.82,6.84,6.84,0,0,1-6.91,6.92A6.46,6.46,0,0,1,92.71,509.06Zm17.83,16a6.68,6.68,0,0,1-4.91,2,6.46,6.46,0,0,1-4.73-2,6.67,6.67,0,0,1-2-4.91,6.38,6.38,0,0,1,2-4.82,6.92,6.92,0,0,1,9.64.09,6.48,6.48,0,0,1,2,4.73A6.68,6.68,0,0,1,110.55,525.08Zm14.56,10.56a6.47,6.47,0,0,1-4.73,2,6.68,6.68,0,0,1-4.91-2,6.47,6.47,0,0,1-2-4.73,6.84,6.84,0,0,1,6.91-6.92,6.47,6.47,0,0,1,4.73,2,6.69,6.69,0,0,1,2,4.91A6.48,6.48,0,0,1,125.1,535.63ZM126.92,461a6.68,6.68,0,0,1,2-4.91,6.47,6.47,0,0,1,4.73-2,6.83,6.83,0,0,1,6.91,6.92,6.48,6.48,0,0,1-2,4.73,6.68,6.68,0,0,1-4.91,2,6.84,6.84,0,0,1-6.73-6.73Zm15.83,78.26a6.47,6.47,0,0,1-4.73,2,6.84,6.84,0,0,1-6.91-6.92,6.47,6.47,0,0,1,2-4.73,6.68,6.68,0,0,1,4.91-2,6.84,6.84,0,0,1,6.73,6.73A6.69,6.69,0,0,1,142.75,539.27Zm.18-133.4a6.46,6.46,0,0,1-4.73,2,6.67,6.67,0,0,1-4.91-2,6.46,6.46,0,0,1-2-4.73,6.84,6.84,0,0,1,6.91-6.92,6.47,6.47,0,0,1,4.73,2,6.69,6.69,0,0,1,2,4.91A6.47,6.47,0,0,1,142.93,405.87ZM145.12,461a6.68,6.68,0,0,1,2-4.91,6.47,6.47,0,0,1,4.73-2,6.84,6.84,0,0,1,6.91,6.92,6.47,6.47,0,0,1-2,4.73,6.68,6.68,0,0,1-4.91,2,6.84,6.84,0,0,1-6.73-6.73Zm15.47,74.25a6.69,6.69,0,0,1-4.91,2,6.84,6.84,0,0,1-6.73-6.73,6.68,6.68,0,0,1,2-4.91,6.47,6.47,0,0,1,4.73-2,6.83,6.83,0,0,1,6.91,6.92A6.48,6.48,0,0,1,160.58,535.27ZM175,524.71a6.46,6.46,0,0,1-4.73,2,6.83,6.83,0,0,1-6.91-6.92,6.47,6.47,0,0,1,2-4.73,6.68,6.68,0,0,1,4.91-2A6.84,6.84,0,0,1,177,519.8,6.68,6.68,0,0,1,175,524.71Zm8.19-16.2a6.68,6.68,0,0,1-4.91,2,6.46,6.46,0,0,1-4.73-2,6.67,6.67,0,0,1-2-4.91,6.84,6.84,0,0,1,6.73-6.73,6.69,6.69,0,0,1,4.91,2,6.48,6.48,0,0,1,2,4.73A6.68,6.68,0,0,1,183.14,508.51Zm20.74-41.31a6.47,6.47,0,0,1,2-4.73,6.68,6.68,0,0,1,4.91-2,6.39,6.39,0,0,1,4.82,2,6.63,6.63,0,0,1,1.91,4.73,6.84,6.84,0,0,1-1.91,4.91,6.38,6.38,0,0,1-4.82,2,6.84,6.84,0,0,1-6.91-6.92ZM208.43,490a6.46,6.46,0,0,1-2-4.73,6.84,6.84,0,0,1,6.91-6.92,6.47,6.47,0,0,1,4.73,2,6.69,6.69,0,0,1,2,4.91,6.84,6.84,0,0,1-6.73,6.73A6.67,6.67,0,0,1,208.43,490Zm7.28,16.74a6.67,6.67,0,0,1-2-4.91,6.84,6.84,0,0,1,6.73-6.73,6.69,6.69,0,0,1,4.91,2,6.48,6.48,0,0,1,2,4.73,6.84,6.84,0,0,1-6.91,6.92A6.46,6.46,0,0,1,215.71,506.69Zm21.11,14a6.68,6.68,0,0,1-4.91,2,6.46,6.46,0,0,1-4.73-2,6.67,6.67,0,0,1-2-4.91,6.84,6.84,0,0,1,6.73-6.73,6.69,6.69,0,0,1,4.91,2,6.48,6.48,0,0,1,2,4.73A6.68,6.68,0,0,1,236.81,520.71Zm0-97.18a6.68,6.68,0,0,1-4.91,2,6.46,6.46,0,0,1-4.73-2,6.67,6.67,0,0,1-2-4.91,6.84,6.84,0,0,1,6.73-6.73,6.69,6.69,0,0,1,4.91,2,6.48,6.48,0,0,1,2,4.73A6.68,6.68,0,0,1,236.81,423.52Zm0-192.88a6.68,6.68,0,0,1-4.91,2,6.46,6.46,0,0,1-4.73-2,6.67,6.67,0,0,1-2-4.91A6.84,6.84,0,0,1,231.9,219a6.69,6.69,0,0,1,4.91,2,6.48,6.48,0,0,1,2,4.73A6.68,6.68,0,0,1,236.81,230.65Zm0-97.18a6.68,6.68,0,0,1-4.91,2,6.46,6.46,0,0,1-4.73-2,6.67,6.67,0,0,1-2-4.91,6.84,6.84,0,0,1,6.73-6.73,6.69,6.69,0,0,1,4.91,2,6.48,6.48,0,0,1,2,4.73A6.68,6.68,0,0,1,236.81,133.46Zm14.74,397.8a6.47,6.47,0,0,1-4.73,2,6.84,6.84,0,0,1-6.91-6.92,6.47,6.47,0,0,1,2-4.73,6.68,6.68,0,0,1,4.91-2,6.84,6.84,0,0,1,6.73,6.73A6.68,6.68,0,0,1,251.55,531.26Zm0-118.29a6.46,6.46,0,0,1-4.73,2,6.84,6.84,0,0,1-6.91-6.92,6.47,6.47,0,0,1,2-4.73,6.68,6.68,0,0,1,4.91-2,6.84,6.84,0,0,1,6.73,6.73A6.68,6.68,0,0,1,251.55,413Zm0-171.77a6.47,6.47,0,0,1-4.73,2,6.84,6.84,0,0,1-6.91-6.92,6.47,6.47,0,0,1,2-4.73,6.68,6.68,0,0,1,4.91-2,6.84,6.84,0,0,1,6.73,6.73A6.68,6.68,0,0,1,251.55,241.2Zm0-118.29a6.46,6.46,0,0,1-4.73,2,6.84,6.84,0,0,1-6.91-6.92,6.47,6.47,0,0,1,2-4.73,6.68,6.68,0,0,1,4.91-2,6.84,6.84,0,0,1,6.73,6.73A6.68,6.68,0,0,1,251.55,122.91Zm17.1,414.36a6.69,6.69,0,0,1-4.91,2,6.84,6.84,0,0,1-6.73-6.73,6.68,6.68,0,0,1,2-4.91,6.47,6.47,0,0,1,4.73-2,6.84,6.84,0,0,1,6.91,6.92A6.48,6.48,0,0,1,268.65,537.27Zm0-130.49a6.67,6.67,0,0,1-4.91,2,6.84,6.84,0,0,1-6.73-6.73,6.68,6.68,0,0,1,2-4.91,6.47,6.47,0,0,1,4.73-2,6.84,6.84,0,0,1,6.91,6.92A6.47,6.47,0,0,1,268.65,406.78Zm0-159.57a6.69,6.69,0,0,1-4.91,2,6.84,6.84,0,0,1-6.73-6.73,6.68,6.68,0,0,1,2-4.91,6.47,6.47,0,0,1,4.73-2,6.84,6.84,0,0,1,6.91,6.92A6.48,6.48,0,0,1,268.65,247.21Zm0-130.49a6.67,6.67,0,0,1-4.91,2A6.84,6.84,0,0,1,257,112a6.68,6.68,0,0,1,2-4.91,6.47,6.47,0,0,1,4.73-2,6.84,6.84,0,0,1,6.91,6.92A6.47,6.47,0,0,1,268.65,116.72Zm18,422a6.47,6.47,0,0,1-4.73,2,6.84,6.84,0,0,1-6.91-6.92,6.38,6.38,0,0,1,2-4.82,6.84,6.84,0,0,1,4.91-1.91,6.63,6.63,0,0,1,4.73,1.91,6.39,6.39,0,0,1,2,4.82A6.69,6.69,0,0,1,286.67,538.72Zm0-133.22a6.46,6.46,0,0,1-4.73,2,6.84,6.84,0,0,1-6.91-6.92,6.47,6.47,0,0,1,2-4.73,6.68,6.68,0,0,1,4.91-2,6.84,6.84,0,0,1,6.73,6.73A6.68,6.68,0,0,1,286.67,405.51Zm0-156.84a6.47,6.47,0,0,1-4.73,2,6.84,6.84,0,0,1-6.91-6.92,6.38,6.38,0,0,1,2-4.82,6.84,6.84,0,0,1,4.91-1.91,6.63,6.63,0,0,1,4.73,1.91,6.39,6.39,0,0,1,2,4.82A6.69,6.69,0,0,1,286.67,248.66Zm0-133.22a6.46,6.46,0,0,1-4.73,2,6.84,6.84,0,0,1-6.91-6.92,6.47,6.47,0,0,1,2-4.73,6.68,6.68,0,0,1,4.91-2,6.84,6.84,0,0,1,6.73,6.73A6.68,6.68,0,0,1,286.67,115.45Zm18.19,421.82a6.47,6.47,0,0,1-4.73,2,6.68,6.68,0,0,1-4.91-2,6.46,6.46,0,0,1-2-4.73,6.84,6.84,0,0,1,6.91-6.92,6.47,6.47,0,0,1,4.73,2,6.69,6.69,0,0,1,2,4.91A6.48,6.48,0,0,1,304.86,537.27Zm0-130.49a6.46,6.46,0,0,1-4.73,2,6.67,6.67,0,0,1-4.91-2,6.46,6.46,0,0,1-2-4.73,6.83,6.83,0,0,1,6.91-6.92,6.47,6.47,0,0,1,4.73,2,6.69,6.69,0,0,1,2,4.91A6.47,6.47,0,0,1,304.86,406.78Zm0-159.57a6.47,6.47,0,0,1-4.73,2,6.68,6.68,0,0,1-4.91-2,6.46,6.46,0,0,1-2-4.73,6.83,6.83,0,0,1,6.91-6.92,6.47,6.47,0,0,1,4.73,2,6.69,6.69,0,0,1,2,4.91A6.48,6.48,0,0,1,304.86,247.21Zm0-130.49a6.46,6.46,0,0,1-4.73,2,6.67,6.67,0,0,1-4.91-2,6.46,6.46,0,0,1-2-4.73,6.83,6.83,0,0,1,6.91-6.92,6.47,6.47,0,0,1,4.73,2,6.69,6.69,0,0,1,2,4.91A6.47,6.47,0,0,1,304.86,116.72ZM322,531.26a6.69,6.69,0,0,1-4.91,2,6.47,6.47,0,0,1-4.73-2,6.67,6.67,0,0,1-2-4.91,6.84,6.84,0,0,1,6.73-6.73,6.69,6.69,0,0,1,4.91,2,6.48,6.48,0,0,1,2,4.73A6.68,6.68,0,0,1,322,531.26ZM322,413a6.68,6.68,0,0,1-4.91,2,6.46,6.46,0,0,1-4.73-2,6.67,6.67,0,0,1-2-4.91,6.84,6.84,0,0,1,6.73-6.73,6.69,6.69,0,0,1,4.91,2,6.48,6.48,0,0,1,2,4.73A6.68,6.68,0,0,1,322,413Zm0-171.77a6.69,6.69,0,0,1-4.91,2,6.47,6.47,0,0,1-4.73-2,6.67,6.67,0,0,1-2-4.91,6.84,6.84,0,0,1,6.73-6.73,6.69,6.69,0,0,1,4.91,2,6.48,6.48,0,0,1,2,4.73A6.68,6.68,0,0,1,322,241.2Zm0-118.29a6.68,6.68,0,0,1-4.91,2,6.46,6.46,0,0,1-4.73-2,6.67,6.67,0,0,1-2-4.91,6.84,6.84,0,0,1,6.73-6.73,6.69,6.69,0,0,1,4.91,2,6.48,6.48,0,0,1,2,4.73A6.68,6.68,0,0,1,322,122.91Zm14.74,397.8a6.47,6.47,0,0,1-4.73,2,6.84,6.84,0,0,1-6.91-6.92,6.47,6.47,0,0,1,2-4.73,6.68,6.68,0,0,1,4.91-2,6.84,6.84,0,0,1,6.73,6.73A6.68,6.68,0,0,1,336.7,520.71Zm0-97.18a6.47,6.47,0,0,1-4.73,2,6.84,6.84,0,0,1-6.91-6.92,6.47,6.47,0,0,1,2-4.73,6.68,6.68,0,0,1,4.91-2,6.84,6.84,0,0,1,6.73,6.73A6.68,6.68,0,0,1,336.7,423.52Zm0-192.88a6.47,6.47,0,0,1-4.73,2,6.84,6.84,0,0,1-6.91-6.92,6.47,6.47,0,0,1,2-4.73,6.68,6.68,0,0,1,4.91-2,6.84,6.84,0,0,1,6.73,6.73A6.68,6.68,0,0,1,336.7,230.65Zm0-97.18a6.47,6.47,0,0,1-4.73,2,6.84,6.84,0,0,1-6.91-6.92,6.47,6.47,0,0,1,2-4.73,6.68,6.68,0,0,1,4.91-2,6.84,6.84,0,0,1,6.73,6.73A6.68,6.68,0,0,1,336.7,133.46Zm110.8,79a6.68,6.68,0,0,1,4.91-2,6.47,6.47,0,0,1,4.73,2,6.69,6.69,0,0,1,2,4.91,6.84,6.84,0,0,1-6.73,6.73,6.66,6.66,0,0,1-4.91-2,6.46,6.46,0,0,1-2-4.73A6.68,6.68,0,0,1,447.5,212.45Zm.73,296.61a6.67,6.67,0,0,1-2-4.91,6.38,6.38,0,0,1,2-4.82,6.62,6.62,0,0,1,4.73-1.91,6.85,6.85,0,0,1,4.91,1.91,6.39,6.39,0,0,1,2,4.82,6.84,6.84,0,0,1-6.91,6.92A6.46,6.46,0,0,1,448.23,509.06Zm17.83,16a6.68,6.68,0,0,1-4.91,2,6.46,6.46,0,0,1-4.73-2,6.67,6.67,0,0,1-2-4.91,6.38,6.38,0,0,1,2-4.82,6.92,6.92,0,0,1,9.64.09,6.48,6.48,0,0,1,2,4.73A6.68,6.68,0,0,1,466.06,525.08Zm14.56,10.56a6.47,6.47,0,0,1-4.73,2,6.68,6.68,0,0,1-4.91-2,6.47,6.47,0,0,1-2-4.73,6.84,6.84,0,0,1,6.91-6.92,6.47,6.47,0,0,1,4.73,2,6.69,6.69,0,0,1,2,4.91A6.48,6.48,0,0,1,480.62,535.63ZM482.44,461a6.68,6.68,0,0,1,2-4.91,6.47,6.47,0,0,1,4.73-2,6.83,6.83,0,0,1,6.91,6.92,6.48,6.48,0,0,1-2,4.73,6.68,6.68,0,0,1-4.91,2,6.84,6.84,0,0,1-6.73-6.73Zm15.83,78.26a6.47,6.47,0,0,1-4.73,2,6.84,6.84,0,0,1-6.91-6.92,6.47,6.47,0,0,1,2-4.73,6.68,6.68,0,0,1,4.91-2,6.84,6.84,0,0,1,6.73,6.73A6.69,6.69,0,0,1,498.27,539.27Zm.18-133.4a6.46,6.46,0,0,1-4.73,2,6.67,6.67,0,0,1-4.91-2,6.46,6.46,0,0,1-2-4.73,6.84,6.84,0,0,1,6.91-6.92,6.47,6.47,0,0,1,4.73,2,6.69,6.69,0,0,1,2,4.91A6.47,6.47,0,0,1,498.45,405.87ZM500.63,461a6.68,6.68,0,0,1,2-4.91,6.47,6.47,0,0,1,4.73-2,6.84,6.84,0,0,1,6.91,6.92,6.47,6.47,0,0,1-2,4.73,6.68,6.68,0,0,1-4.91,2,6.84,6.84,0,0,1-6.73-6.73Zm15.47,74.25a6.69,6.69,0,0,1-4.91,2,6.84,6.84,0,0,1-6.73-6.73,6.68,6.68,0,0,1,2-4.91,6.47,6.47,0,0,1,4.73-2,6.83,6.83,0,0,1,6.91,6.92A6.48,6.48,0,0,1,516.1,535.27Zm14.37-10.56a6.46,6.46,0,0,1-4.73,2,6.83,6.83,0,0,1-6.91-6.92,6.47,6.47,0,0,1,2-4.73,6.68,6.68,0,0,1,4.91-2,6.84,6.84,0,0,1,6.73,6.73A6.68,6.68,0,0,1,530.47,524.71Zm8.19-16.2a6.68,6.68,0,0,1-4.91,2,6.46,6.46,0,0,1-4.73-2,6.67,6.67,0,0,1-2-4.91,6.84,6.84,0,0,1,6.73-6.73,6.69,6.69,0,0,1,4.91,2,6.48,6.48,0,0,1,2,4.73A6.68,6.68,0,0,1,538.66,508.51Zm36.11,27.3a6.39,6.39,0,0,1-4.82,2A6.84,6.84,0,0,1,563,530.9a6.47,6.47,0,0,1,2-4.73,6.68,6.68,0,0,1,4.91-2,6.39,6.39,0,0,1,4.82,2,6.63,6.63,0,0,1,1.91,4.73A6.85,6.85,0,0,1,574.77,535.81Zm0-18.2a6.38,6.38,0,0,1-4.82,2A6.84,6.84,0,0,1,563,512.7a6.47,6.47,0,0,1,2-4.73,6.68,6.68,0,0,1,4.91-2,6.39,6.39,0,0,1,4.82,2,6.63,6.63,0,0,1,1.91,4.73A6.84,6.84,0,0,1,574.77,517.61Zm0-18.2a6.38,6.38,0,0,1-4.82,2A6.83,6.83,0,0,1,563,494.5a6.47,6.47,0,0,1,2-4.73,6.68,6.68,0,0,1,4.91-2,6.39,6.39,0,0,1,4.82,2,6.63,6.63,0,0,1,1.91,4.73A6.85,6.85,0,0,1,574.77,499.41Zm0-18.2a6.38,6.38,0,0,1-4.82,2A6.83,6.83,0,0,1,563,476.3a6.47,6.47,0,0,1,2-4.73,6.68,6.68,0,0,1,4.91-2,6.39,6.39,0,0,1,4.82,2,6.63,6.63,0,0,1,1.91,4.73A6.85,6.85,0,0,1,574.77,481.22Zm0-18.2a6.38,6.38,0,0,1-4.82,2A6.83,6.83,0,0,1,563,458.1a6.47,6.47,0,0,1,2-4.73,6.68,6.68,0,0,1,4.91-2,6.39,6.39,0,0,1,4.82,2,6.63,6.63,0,0,1,1.91,4.73A6.85,6.85,0,0,1,574.77,463Zm0-18.2a6.38,6.38,0,0,1-4.82,2A6.84,6.84,0,0,1,563,439.9a6.47,6.47,0,0,1,2-4.73,6.68,6.68,0,0,1,4.91-2,6.39,6.39,0,0,1,4.82,2,6.63,6.63,0,0,1,1.91,4.73A6.84,6.84,0,0,1,574.77,444.82Zm0-18.2a6.38,6.38,0,0,1-4.82,2,6.83,6.83,0,0,1-6.91-6.92,6.47,6.47,0,0,1,2-4.73,6.68,6.68,0,0,1,4.91-2,6.39,6.39,0,0,1,4.82,2,6.63,6.63,0,0,1,1.91,4.73A6.84,6.84,0,0,1,574.77,426.62Zm0-18.2a6.38,6.38,0,0,1-4.82,2,6.83,6.83,0,0,1-6.91-6.92,6.47,6.47,0,0,1,2-4.73,6.68,6.68,0,0,1,4.91-2,6.39,6.39,0,0,1,4.82,2,6.63,6.63,0,0,1,1.91,4.73A6.85,6.85,0,0,1,574.77,408.42Zm0-162.67a6.39,6.39,0,0,1-4.82,2,6.83,6.83,0,0,1-6.91-6.92,6.47,6.47,0,0,1,2-4.73,6.68,6.68,0,0,1,4.91-2,6.39,6.39,0,0,1,4.82,2,6.63,6.63,0,0,1,1.91,4.73A6.85,6.85,0,0,1,574.77,245.75Zm0-18.2a6.38,6.38,0,0,1-4.82,2,6.83,6.83,0,0,1-6.91-6.92,6.47,6.47,0,0,1,2-4.73,6.68,6.68,0,0,1,4.91-2,6.39,6.39,0,0,1,4.82,2,6.63,6.63,0,0,1,1.91,4.73A6.85,6.85,0,0,1,574.77,227.55Zm0-18.2a6.38,6.38,0,0,1-4.82,2,6.83,6.83,0,0,1-6.91-6.92,6.47,6.47,0,0,1,2-4.73,6.68,6.68,0,0,1,4.91-2,6.39,6.39,0,0,1,4.82,2,6.63,6.63,0,0,1,1.91,4.73A6.85,6.85,0,0,1,574.77,209.36Zm0-18.2a6.38,6.38,0,0,1-4.82,2,6.83,6.83,0,0,1-6.91-6.92,6.47,6.47,0,0,1,2-4.73,6.68,6.68,0,0,1,4.91-2,6.39,6.39,0,0,1,4.82,2,6.63,6.63,0,0,1,1.91,4.73A6.85,6.85,0,0,1,574.77,191.16Zm0-18.2a6.38,6.38,0,0,1-4.82,2A6.83,6.83,0,0,1,563,168a6.47,6.47,0,0,1,2-4.73,6.68,6.68,0,0,1,4.91-2,6.39,6.39,0,0,1,4.82,2,6.63,6.63,0,0,1,1.91,4.73A6.85,6.85,0,0,1,574.77,173Zm0-18.2a6.38,6.38,0,0,1-4.82,2,6.83,6.83,0,0,1-6.91-6.92,6.47,6.47,0,0,1,2-4.73,6.68,6.68,0,0,1,4.91-2,6.39,6.39,0,0,1,4.82,2,6.63,6.63,0,0,1,1.91,4.73A6.85,6.85,0,0,1,574.77,154.76Zm0-18.2a6.38,6.38,0,0,1-4.82,2,6.83,6.83,0,0,1-6.91-6.92,6.47,6.47,0,0,1,2-4.73,6.68,6.68,0,0,1,4.91-2,6.39,6.39,0,0,1,4.82,2,6.63,6.63,0,0,1,1.91,4.73A6.85,6.85,0,0,1,574.77,136.56Zm0-18.2a6.38,6.38,0,0,1-4.82,2,6.83,6.83,0,0,1-6.91-6.92,6.47,6.47,0,0,1,2-4.73,6.68,6.68,0,0,1,4.91-2,6.39,6.39,0,0,1,4.82,2,6.63,6.63,0,0,1,1.91,4.73A6.85,6.85,0,0,1,574.77,118.36ZM593,535.81a6.38,6.38,0,0,1-4.82,2,6.84,6.84,0,0,1-6.91-6.92,6.47,6.47,0,0,1,2-4.73,6.68,6.68,0,0,1,4.91-2,6.39,6.39,0,0,1,4.82,2,6.62,6.62,0,0,1,1.91,4.73A6.85,6.85,0,0,1,593,535.81Zm0-127.39a6.38,6.38,0,0,1-4.82,2,6.84,6.84,0,0,1-6.91-6.92,6.47,6.47,0,0,1,2-4.73,6.68,6.68,0,0,1,4.91-2,6.39,6.39,0,0,1,4.82,2,6.63,6.63,0,0,1,1.91,4.73A6.84,6.84,0,0,1,593,408.42Zm0-162.67a6.38,6.38,0,0,1-4.82,2,6.84,6.84,0,0,1-6.91-6.92,6.46,6.46,0,0,1,2-4.73,6.68,6.68,0,0,1,4.91-2,6.38,6.38,0,0,1,4.82,2,6.62,6.62,0,0,1,1.91,4.73A6.85,6.85,0,0,1,593,245.75Zm0-127.39a6.38,6.38,0,0,1-4.82,2,6.84,6.84,0,0,1-6.91-6.92,6.47,6.47,0,0,1,2-4.73,6.68,6.68,0,0,1,4.91-2,6.39,6.39,0,0,1,4.82,2,6.63,6.63,0,0,1,1.91,4.73A6.84,6.84,0,0,1,593,118.36Zm18.2,417.45a6.39,6.39,0,0,1-4.82,2,6.84,6.84,0,0,1-6.91-6.92,6.47,6.47,0,0,1,2-4.73,6.68,6.68,0,0,1,4.91-2,6.39,6.39,0,0,1,4.82,2,6.63,6.63,0,0,1,1.91,4.73A6.85,6.85,0,0,1,611.16,535.81Zm0-127.39a6.38,6.38,0,0,1-4.82,2,6.84,6.84,0,0,1-6.91-6.92,6.47,6.47,0,0,1,2-4.73,6.68,6.68,0,0,1,4.91-2,6.39,6.39,0,0,1,4.82,2,6.63,6.63,0,0,1,1.91,4.73A6.85,6.85,0,0,1,611.16,408.42Zm0-162.67a6.39,6.39,0,0,1-4.82,2,6.84,6.84,0,0,1-6.91-6.92,6.46,6.46,0,0,1,2-4.73,6.68,6.68,0,0,1,4.91-2,6.39,6.39,0,0,1,4.82,2,6.63,6.63,0,0,1,1.91,4.73A6.85,6.85,0,0,1,611.16,245.75Zm0-127.39a6.38,6.38,0,0,1-4.82,2,6.84,6.84,0,0,1-6.91-6.92,6.47,6.47,0,0,1,2-4.73,6.68,6.68,0,0,1,4.91-2,6.39,6.39,0,0,1,4.82,2,6.63,6.63,0,0,1,1.91,4.73A6.84,6.84,0,0,1,611.16,118.36Zm18.1,416.91a6.47,6.47,0,0,1-4.73,2,6.68,6.68,0,0,1-4.91-2,6.47,6.47,0,0,1-2-4.73,6.83,6.83,0,0,1,6.91-6.92,6.47,6.47,0,0,1,4.73,2,6.69,6.69,0,0,1,2,4.91A6.48,6.48,0,0,1,629.27,535.27Zm.09-126.12a6.38,6.38,0,0,1-4.82,2,6.67,6.67,0,0,1-4.91-2,6.46,6.46,0,0,1-2-4.73,6.83,6.83,0,0,1,6.91-6.92,6.39,6.39,0,0,1,4.82,2,6.85,6.85,0,0,1,1.91,4.91A6.63,6.63,0,0,1,629.36,409.15Zm-.09-163.94a6.47,6.47,0,0,1-4.73,2,6.68,6.68,0,0,1-4.91-2,6.47,6.47,0,0,1-2-4.73,6.83,6.83,0,0,1,6.91-6.92,6.47,6.47,0,0,1,4.73,2,6.69,6.69,0,0,1,2,4.91A6.48,6.48,0,0,1,629.27,245.21Zm.09-126.12a6.38,6.38,0,0,1-4.82,2,6.67,6.67,0,0,1-4.91-2,6.46,6.46,0,0,1-2-4.73,6.83,6.83,0,0,1,6.91-6.92,6.39,6.39,0,0,1,4.82,2,6.85,6.85,0,0,1,1.91,4.91A6.63,6.63,0,0,1,629.36,119.09ZM646.92,530.9a6.69,6.69,0,0,1-4.91,2,6.47,6.47,0,0,1-4.73-2,6.67,6.67,0,0,1-2-4.91,6.84,6.84,0,0,1,6.73-6.73,6.69,6.69,0,0,1,4.91,2,6.48,6.48,0,0,1,2,4.73A6.68,6.68,0,0,1,646.92,530.9Zm0-116.66a6.68,6.68,0,0,1-4.91,2,6.46,6.46,0,0,1-4.73-2,6.67,6.67,0,0,1-2-4.91A6.84,6.84,0,0,1,642,402.6a6.69,6.69,0,0,1,4.91,2,6.48,6.48,0,0,1,2,4.73A6.69,6.69,0,0,1,646.92,414.24Zm0-173.4a6.69,6.69,0,0,1-4.91,2,6.47,6.47,0,0,1-4.73-2,6.67,6.67,0,0,1-2-4.91,6.84,6.84,0,0,1,6.73-6.73,6.69,6.69,0,0,1,4.91,2,6.48,6.48,0,0,1,2,4.73A6.68,6.68,0,0,1,646.92,240.84Zm0-116.66a6.68,6.68,0,0,1-4.91,2,6.46,6.46,0,0,1-4.73-2,6.67,6.67,0,0,1-2-4.91,6.84,6.84,0,0,1,6.73-6.73,6.69,6.69,0,0,1,4.91,2,6.48,6.48,0,0,1,2,4.73A6.68,6.68,0,0,1,646.92,124.18Zm5.46,290.24a6.68,6.68,0,0,1,4.91-2,6.84,6.84,0,0,1,6.73,6.73,6.68,6.68,0,0,1-2,4.91,6.46,6.46,0,0,1-4.73,2,6.84,6.84,0,0,1-6.91-6.92A6.47,6.47,0,0,1,652.37,414.43Zm9.92,106.83a6.38,6.38,0,0,1-4.82,2,6.84,6.84,0,0,1-6.91-6.92,6.47,6.47,0,0,1,2-4.73,6.68,6.68,0,0,1,4.91-2,6.39,6.39,0,0,1,4.82,2,6.63,6.63,0,0,1,1.91,4.73A6.85,6.85,0,0,1,662.29,521.25ZM674,507.42a6.68,6.68,0,0,1-4.91,2,6.46,6.46,0,0,1-4.73-2,6.67,6.67,0,0,1-2-4.91,6.84,6.84,0,0,1,6.73-6.73,6.69,6.69,0,0,1,4.91,2,6.48,6.48,0,0,1,2,4.73A6.68,6.68,0,0,1,674,507.42Zm6.91-16.74a6.46,6.46,0,0,1-4.73,2,6.84,6.84,0,0,1-6.91-6.92,6.47,6.47,0,0,1,2-4.73,6.68,6.68,0,0,1,4.91-2,6.84,6.84,0,0,1,6.73,6.73A6.68,6.68,0,0,1,680.94,490.68Zm2.18-18a6.46,6.46,0,0,1-4.73,2,6.84,6.84,0,0,1-6.91-6.92,6.46,6.46,0,0,1,2-4.73,6.67,6.67,0,0,1,4.91-2,6.84,6.84,0,0,1,6.73,6.73A6.68,6.68,0,0,1,683.12,472.66Zm0-290.06a6.46,6.46,0,0,1-4.73,2,6.84,6.84,0,0,1-6.91-6.92,6.46,6.46,0,0,1,2-4.73,6.67,6.67,0,0,1,4.91-2,6.84,6.84,0,0,1,6.73,6.73A6.68,6.68,0,0,1,683.12,182.6Zm112.44,29.85a6.68,6.68,0,0,1,4.91-2,6.47,6.47,0,0,1,4.73,2,6.69,6.69,0,0,1,2,4.91,6.84,6.84,0,0,1-6.73,6.73,6.66,6.66,0,0,1-4.91-2,6.46,6.46,0,0,1-2-4.73A6.68,6.68,0,0,1,795.56,212.45Zm.73,296.61a6.67,6.67,0,0,1-2-4.91,6.38,6.38,0,0,1,2-4.82,6.62,6.62,0,0,1,4.73-1.91,6.85,6.85,0,0,1,4.91,1.91,6.39,6.39,0,0,1,2,4.82,6.84,6.84,0,0,1-6.91,6.92A6.46,6.46,0,0,1,796.29,509.06Zm17.83,16a6.68,6.68,0,0,1-4.91,2,6.46,6.46,0,0,1-4.73-2,6.67,6.67,0,0,1-2-4.91,6.38,6.38,0,0,1,2-4.82,6.92,6.92,0,0,1,9.64.09,6.48,6.48,0,0,1,2,4.73A6.68,6.68,0,0,1,814.12,525.08Zm14.56,10.56a6.47,6.47,0,0,1-4.73,2,6.68,6.68,0,0,1-4.91-2,6.47,6.47,0,0,1-2-4.73,6.84,6.84,0,0,1,6.91-6.92,6.47,6.47,0,0,1,4.73,2,6.69,6.69,0,0,1,2,4.91A6.48,6.48,0,0,1,828.68,535.63ZM830.5,461a6.68,6.68,0,0,1,2-4.91,6.47,6.47,0,0,1,4.73-2,6.83,6.83,0,0,1,6.91,6.92,6.48,6.48,0,0,1-2,4.73,6.68,6.68,0,0,1-4.91,2A6.84,6.84,0,0,1,830.5,461Zm15.83,78.26a6.47,6.47,0,0,1-4.73,2,6.84,6.84,0,0,1-6.91-6.92,6.47,6.47,0,0,1,2-4.73,6.68,6.68,0,0,1,4.91-2,6.84,6.84,0,0,1,6.73,6.73A6.69,6.69,0,0,1,846.32,539.27Zm.18-133.4a6.46,6.46,0,0,1-4.73,2,6.67,6.67,0,0,1-4.91-2,6.46,6.46,0,0,1-2-4.73,6.84,6.84,0,0,1,6.91-6.92,6.47,6.47,0,0,1,4.73,2,6.69,6.69,0,0,1,2,4.91A6.47,6.47,0,0,1,846.51,405.87ZM848.69,461a6.68,6.68,0,0,1,2-4.91,6.47,6.47,0,0,1,4.73-2,6.84,6.84,0,0,1,6.91,6.92,6.47,6.47,0,0,1-2,4.73,6.68,6.68,0,0,1-4.91,2,6.84,6.84,0,0,1-6.73-6.73Zm15.47,74.25a6.69,6.69,0,0,1-4.91,2,6.84,6.84,0,0,1-6.73-6.73,6.68,6.68,0,0,1,2-4.91,6.47,6.47,0,0,1,4.73-2,6.83,6.83,0,0,1,6.91,6.92A6.48,6.48,0,0,1,864.16,535.27Zm14.37-10.56a6.46,6.46,0,0,1-4.73,2,6.83,6.83,0,0,1-6.91-6.92,6.47,6.47,0,0,1,2-4.73,6.68,6.68,0,0,1,4.91-2,6.84,6.84,0,0,1,6.73,6.73A6.68,6.68,0,0,1,878.53,524.71Zm8.19-16.2a6.68,6.68,0,0,1-4.91,2,6.46,6.46,0,0,1-4.73-2,6.67,6.67,0,0,1-2-4.91,6.84,6.84,0,0,1,6.73-6.73,6.69,6.69,0,0,1,4.91,2,6.48,6.48,0,0,1,2,4.73A6.68,6.68,0,0,1,886.72,508.51Zm36.11,27.3a6.39,6.39,0,0,1-4.82,2,6.84,6.84,0,0,1-6.91-6.92,6.47,6.47,0,0,1,2-4.73,6.68,6.68,0,0,1,4.91-2,6.39,6.39,0,0,1,4.82,2,6.63,6.63,0,0,1,1.91,4.73A6.85,6.85,0,0,1,922.83,535.81Zm0-18.2a6.38,6.38,0,0,1-4.82,2,6.84,6.84,0,0,1-6.91-6.92,6.47,6.47,0,0,1,2-4.73,6.68,6.68,0,0,1,4.91-2,6.39,6.39,0,0,1,4.82,2,6.63,6.63,0,0,1,1.91,4.73A6.84,6.84,0,0,1,922.83,517.61Zm0-18.2a6.38,6.38,0,0,1-4.82,2,6.83,6.83,0,0,1-6.91-6.92,6.47,6.47,0,0,1,2-4.73,6.68,6.68,0,0,1,4.91-2,6.39,6.39,0,0,1,4.82,2,6.63,6.63,0,0,1,1.91,4.73A6.85,6.85,0,0,1,922.83,499.41Zm0-18.2a6.38,6.38,0,0,1-4.82,2,6.83,6.83,0,0,1-6.91-6.92,6.47,6.47,0,0,1,2-4.73,6.68,6.68,0,0,1,4.91-2,6.39,6.39,0,0,1,4.82,2,6.63,6.63,0,0,1,1.91,4.73A6.85,6.85,0,0,1,922.83,481.22Zm0-18.2a6.38,6.38,0,0,1-4.82,2,6.83,6.83,0,0,1-6.91-6.92,6.47,6.47,0,0,1,2-4.73,6.68,6.68,0,0,1,4.91-2,6.39,6.39,0,0,1,4.82,2,6.63,6.63,0,0,1,1.91,4.73A6.85,6.85,0,0,1,922.83,463Zm0-18.2a6.38,6.38,0,0,1-4.82,2,6.84,6.84,0,0,1-6.91-6.92,6.47,6.47,0,0,1,2-4.73,6.68,6.68,0,0,1,4.91-2,6.39,6.39,0,0,1,4.82,2,6.63,6.63,0,0,1,1.91,4.73A6.84,6.84,0,0,1,922.83,444.82Zm0-18.2a6.38,6.38,0,0,1-4.82,2,6.83,6.83,0,0,1-6.91-6.92,6.47,6.47,0,0,1,2-4.73,6.68,6.68,0,0,1,4.91-2,6.39,6.39,0,0,1,4.82,2,6.63,6.63,0,0,1,1.91,4.73A6.84,6.84,0,0,1,922.83,426.62Zm0-18.2a6.38,6.38,0,0,1-4.82,2,6.83,6.83,0,0,1-6.91-6.92,6.47,6.47,0,0,1,2-4.73,6.68,6.68,0,0,1,4.91-2,6.39,6.39,0,0,1,4.82,2,6.63,6.63,0,0,1,1.91,4.73A6.85,6.85,0,0,1,922.83,408.42Zm0-162.67a6.39,6.39,0,0,1-4.82,2,6.83,6.83,0,0,1-6.91-6.92,6.47,6.47,0,0,1,2-4.73,6.68,6.68,0,0,1,4.91-2,6.39,6.39,0,0,1,4.82,2,6.63,6.63,0,0,1,1.91,4.73A6.85,6.85,0,0,1,922.83,245.75Zm0-18.2a6.38,6.38,0,0,1-4.82,2,6.83,6.83,0,0,1-6.91-6.92,6.47,6.47,0,0,1,2-4.73,6.68,6.68,0,0,1,4.91-2,6.39,6.39,0,0,1,4.82,2,6.63,6.63,0,0,1,1.91,4.73A6.85,6.85,0,0,1,922.83,227.55Zm0-18.2a6.38,6.38,0,0,1-4.82,2,6.83,6.83,0,0,1-6.91-6.92,6.47,6.47,0,0,1,2-4.73,6.68,6.68,0,0,1,4.91-2,6.39,6.39,0,0,1,4.82,2,6.63,6.63,0,0,1,1.91,4.73A6.85,6.85,0,0,1,922.83,209.36Zm0-18.2a6.38,6.38,0,0,1-4.82,2,6.83,6.83,0,0,1-6.91-6.92,6.47,6.47,0,0,1,2-4.73,6.68,6.68,0,0,1,4.91-2,6.39,6.39,0,0,1,4.82,2,6.63,6.63,0,0,1,1.91,4.73A6.85,6.85,0,0,1,922.83,191.16Zm0-18.2a6.38,6.38,0,0,1-4.82,2A6.83,6.83,0,0,1,911.1,168a6.47,6.47,0,0,1,2-4.73,6.68,6.68,0,0,1,4.91-2,6.39,6.39,0,0,1,4.82,2,6.63,6.63,0,0,1,1.91,4.73A6.85,6.85,0,0,1,922.83,173Zm0-18.2a6.38,6.38,0,0,1-4.82,2,6.83,6.83,0,0,1-6.91-6.92,6.47,6.47,0,0,1,2-4.73,6.68,6.68,0,0,1,4.91-2,6.39,6.39,0,0,1,4.82,2,6.63,6.63,0,0,1,1.91,4.73A6.85,6.85,0,0,1,922.83,154.76Zm0-18.2a6.38,6.38,0,0,1-4.82,2,6.83,6.83,0,0,1-6.91-6.92,6.47,6.47,0,0,1,2-4.73,6.68,6.68,0,0,1,4.91-2,6.39,6.39,0,0,1,4.82,2,6.63,6.63,0,0,1,1.91,4.73A6.85,6.85,0,0,1,922.83,136.56Zm0-18.2a6.38,6.38,0,0,1-4.82,2,6.83,6.83,0,0,1-6.91-6.92,6.47,6.47,0,0,1,2-4.73,6.68,6.68,0,0,1,4.91-2,6.39,6.39,0,0,1,4.82,2,6.63,6.63,0,0,1,1.91,4.73A6.85,6.85,0,0,1,922.83,118.36ZM941,535.81a6.38,6.38,0,0,1-4.82,2,6.84,6.84,0,0,1-6.91-6.92,6.47,6.47,0,0,1,2-4.73,6.68,6.68,0,0,1,4.91-2,6.39,6.39,0,0,1,4.82,2,6.62,6.62,0,0,1,1.91,4.73A6.85,6.85,0,0,1,941,535.81Zm0-72.8a6.38,6.38,0,0,1-4.82,2,6.84,6.84,0,0,1-6.91-6.92,6.47,6.47,0,0,1,2-4.73,6.68,6.68,0,0,1,4.91-2,6.39,6.39,0,0,1,4.82,2,6.62,6.62,0,0,1,1.91,4.73A6.84,6.84,0,0,1,941,463Zm0-54.6a6.38,6.38,0,0,1-4.82,2,6.84,6.84,0,0,1-6.91-6.92,6.47,6.47,0,0,1,2-4.73,6.68,6.68,0,0,1,4.91-2,6.39,6.39,0,0,1,4.82,2,6.63,6.63,0,0,1,1.91,4.73A6.84,6.84,0,0,1,941,408.42Zm0-162.67a6.38,6.38,0,0,1-4.82,2,6.84,6.84,0,0,1-6.91-6.92,6.46,6.46,0,0,1,2-4.73,6.68,6.68,0,0,1,4.91-2,6.38,6.38,0,0,1,4.82,2,6.62,6.62,0,0,1,1.91,4.73A6.85,6.85,0,0,1,941,245.75Zm0-72.8a6.38,6.38,0,0,1-4.82,2,6.84,6.84,0,0,1-6.91-6.92,6.47,6.47,0,0,1,2-4.73,6.68,6.68,0,0,1,4.91-2,6.39,6.39,0,0,1,4.82,2,6.62,6.62,0,0,1,1.91,4.73A6.84,6.84,0,0,1,941,173Zm0-54.6a6.38,6.38,0,0,1-4.82,2,6.84,6.84,0,0,1-6.91-6.92,6.47,6.47,0,0,1,2-4.73,6.68,6.68,0,0,1,4.91-2,6.39,6.39,0,0,1,4.82,2,6.63,6.63,0,0,1,1.91,4.73A6.84,6.84,0,0,1,941,118.36Zm18.2,417.45a6.39,6.39,0,0,1-4.82,2,6.84,6.84,0,0,1-6.91-6.92,6.47,6.47,0,0,1,2-4.73,6.68,6.68,0,0,1,4.91-2,6.39,6.39,0,0,1,4.82,2,6.63,6.63,0,0,1,1.91,4.73A6.85,6.85,0,0,1,959.22,535.81Zm0-72.8a6.38,6.38,0,0,1-4.82,2,6.84,6.84,0,0,1-6.91-6.92,6.47,6.47,0,0,1,2-4.73,6.68,6.68,0,0,1,4.91-2,6.39,6.39,0,0,1,4.82,2,6.63,6.63,0,0,1,1.91,4.73A6.85,6.85,0,0,1,959.22,463Zm0-54.6a6.38,6.38,0,0,1-4.82,2,6.84,6.84,0,0,1-6.91-6.92,6.47,6.47,0,0,1,2-4.73,6.68,6.68,0,0,1,4.91-2,6.39,6.39,0,0,1,4.82,2,6.63,6.63,0,0,1,1.91,4.73A6.85,6.85,0,0,1,959.22,408.42Zm0-162.67a6.39,6.39,0,0,1-4.82,2,6.84,6.84,0,0,1-6.91-6.92,6.46,6.46,0,0,1,2-4.73,6.68,6.68,0,0,1,4.91-2,6.39,6.39,0,0,1,4.82,2,6.63,6.63,0,0,1,1.91,4.73A6.85,6.85,0,0,1,959.22,245.75Zm0-72.8a6.38,6.38,0,0,1-4.82,2,6.84,6.84,0,0,1-6.91-6.92,6.47,6.47,0,0,1,2-4.73,6.68,6.68,0,0,1,4.91-2,6.39,6.39,0,0,1,4.82,2,6.63,6.63,0,0,1,1.91,4.73A6.85,6.85,0,0,1,959.22,173Zm0-54.6a6.38,6.38,0,0,1-4.82,2,6.84,6.84,0,0,1-6.91-6.92,6.47,6.47,0,0,1,2-4.73,6.68,6.68,0,0,1,4.91-2,6.39,6.39,0,0,1,4.82,2,6.63,6.63,0,0,1,1.91,4.73A6.84,6.84,0,0,1,959.22,118.36Zm18.19,417.45a6.39,6.39,0,0,1-4.82,2,6.84,6.84,0,0,1-6.91-6.92,6.46,6.46,0,0,1,2-4.73,6.68,6.68,0,0,1,4.91-2,6.39,6.39,0,0,1,4.82,2,6.63,6.63,0,0,1,1.91,4.73A6.85,6.85,0,0,1,977.41,535.81Zm0-72.8a6.38,6.38,0,0,1-4.82,2,6.83,6.83,0,0,1-6.91-6.92,6.46,6.46,0,0,1,2-4.73,6.68,6.68,0,0,1,4.91-2,6.39,6.39,0,0,1,4.82,2,6.63,6.63,0,0,1,1.91,4.73A6.85,6.85,0,0,1,977.41,463Zm0-54.6a6.38,6.38,0,0,1-4.82,2,6.83,6.83,0,0,1-6.91-6.92,6.47,6.47,0,0,1,2-4.73,6.68,6.68,0,0,1,4.91-2,6.39,6.39,0,0,1,4.82,2,6.63,6.63,0,0,1,1.91,4.73A6.85,6.85,0,0,1,977.41,408.42Zm0-162.67a6.39,6.39,0,0,1-4.82,2,6.83,6.83,0,0,1-6.91-6.92,6.46,6.46,0,0,1,2-4.73,6.68,6.68,0,0,1,4.91-2,6.39,6.39,0,0,1,4.82,2,6.63,6.63,0,0,1,1.91,4.73A6.85,6.85,0,0,1,977.41,245.75Zm0-72.8a6.38,6.38,0,0,1-4.82,2,6.83,6.83,0,0,1-6.91-6.92,6.46,6.46,0,0,1,2-4.73,6.68,6.68,0,0,1,4.91-2,6.39,6.39,0,0,1,4.82,2,6.63,6.63,0,0,1,1.91,4.73A6.85,6.85,0,0,1,977.41,173Zm0-54.6a6.38,6.38,0,0,1-4.82,2,6.83,6.83,0,0,1-6.91-6.92,6.47,6.47,0,0,1,2-4.73,6.68,6.68,0,0,1,4.91-2,6.39,6.39,0,0,1,4.82,2,6.63,6.63,0,0,1,1.91,4.73A6.85,6.85,0,0,1,977.41,118.36Zm18.19,417.45a6.39,6.39,0,0,1-4.82,2,6.84,6.84,0,0,1-6.91-6.92,6.47,6.47,0,0,1,2-4.73,6.68,6.68,0,0,1,4.91-2,6.39,6.39,0,0,1,4.82,2,6.63,6.63,0,0,1,1.91,4.73A6.85,6.85,0,0,1,995.61,535.81Zm0-127.39a6.38,6.38,0,0,1-4.82,2,6.84,6.84,0,0,1-6.91-6.92,6.47,6.47,0,0,1,2-4.73,6.68,6.68,0,0,1,4.91-2,6.39,6.39,0,0,1,4.82,2,6.63,6.63,0,0,1,1.91,4.73A6.85,6.85,0,0,1,995.61,408.42Zm0-162.67a6.39,6.39,0,0,1-4.82,2,6.84,6.84,0,0,1-6.91-6.92,6.46,6.46,0,0,1,2-4.73,6.67,6.67,0,0,1,4.91-2,6.39,6.39,0,0,1,4.82,2,6.63,6.63,0,0,1,1.91,4.73A6.85,6.85,0,0,1,995.61,245.75Zm0-127.39a6.38,6.38,0,0,1-4.82,2,6.84,6.84,0,0,1-6.91-6.92,6.47,6.47,0,0,1,2-4.73,6.68,6.68,0,0,1,4.91-2,6.39,6.39,0,0,1,4.82,2,6.63,6.63,0,0,1,1.91,4.73A6.85,6.85,0,0,1,995.61,118.36Z" style="fill:none;stroke:red;stroke-miterlimit:10;stroke-width:0.028346456587315px"/><rect x="40.18" y="632.92" width="1038.85" height="170.08" style="fill:none;stroke:red;stroke-miterlimit:10;stroke-width:0.028346456587315px"/></g></g></svg>