<svg xmlns="http://www.w3.org/2000/svg" viewBox="0 0 1190.55 841.89"><title>Afficheur-Led</title><g id="Calque_31" data-name="Calque 31"><polyline points="176.52 394.33 7.46 394.33 7.46 490.71 176.52 490.71" style="fill:none;stroke:red;stroke-miterlimit:10;stroke-width:0.10000000149011612px"/><polyline points="176.52 394.33 345.58 394.33 345.58 490.71 176.52 490.71" style="fill:none;stroke:red;stroke-miterlimit:10;stroke-width:0.10000000149011612px"/><line x1="176.52" y1="394.33" x2="176.52" y2="490.71" style="fill:none;stroke:red;stroke-miterlimit:10;stroke-width:0.10000000149011612px"/><polyline points="7.46 201.29 7.46 297.67 176.52 297.67" style="fill:none;stroke:red;stroke-miterlimit:10;stroke-width:0.10000000149011612px"/><polyline points="345.58 201.29 345.58 297.67 176.52 297.67" style="fill:none;stroke:red;stroke-miterlimit:10;stroke-width:0.10000000149011612px"/><line x1="176.52" y1="201.29" x2="176.52" y2="297.67" style="fill:none;stroke:red;stroke-miterlimit:10;stroke-width:0.10000000149011612px"/><polyline points="327.21 394.19 372.89 394.19 372.89 297.81 327.21 297.81" style="fill:none;stroke:red;stroke-miterlimit:10;stroke-width:0.10000000149011612px"/><line x1="281.53" y1="394.19" x2="327.21" y2="394.19" style="fill:none;stroke:red;stroke-miterlimit:10;stroke-width:0.10000000149011612px"/><line x1="327.21" y1="297.81" x2="281.53" y2="297.81" style="fill:none;stroke:red;stroke-miterlimit:10;stroke-width:0.10000000149011612px"/><line x1="327.21" y1="394.19" x2="327.21" y2="297.81" style="fill:none;stroke:red;stroke-miterlimit:10;stroke-width:0.10000000149011612px"/><line x1="281.53" y1="394.19" x2="235.85" y2="394.19" style="fill:none;stroke:red;stroke-miterlimit:10;stroke-width:0.10000000149011612px"/><line x1="235.85" y1="297.81" x2="281.53" y2="297.81" style="fill:none;stroke:red;stroke-miterlimit:10;stroke-width:0.10000000149011612px"/><line x1="281.53" y1="394.19" x2="281.53" y2="297.81" style="fill:none;stroke:red;stroke-miterlimit:10;stroke-width:0.10000000149011612px"/><line x1="190.17" y1="297.81" x2="235.85" y2="297.81" style="fill:none;stroke:red;stroke-miterlimit:10;stroke-width:0.10000000149011612px"/><line x1="190.17" y1="394.19" x2="235.85" y2="394.19" style="fill:none;stroke:red;stroke-miterlimit:10;stroke-width:0.10000000149011612px"/><line x1="235.85" y1="297.81" x2="235.85" y2="394.19" style="fill:none;stroke:red;stroke-miterlimit:10;stroke-width:0.10000000149011612px"/><line x1="190.17" y1="394.19" x2="144.49" y2="394.19" style="fill:none;stroke:red;stroke-miterlimit:10;stroke-width:0.10000000149011612px"/><line x1="190.17" y1="297.81" x2="144.49" y2="297.81" style="fill:none;stroke:red;stroke-miterlimit:10;stroke-width:0.10000000149011612px"/><line x1="190.17" y1="297.81" x2="190.17" y2="394.19" style="fill:none;stroke:red;stroke-miterlimit:10;stroke-width:0.10000000149011612px"/><line x1="144.49" y1="394.19" x2="98.82" y2="394.19" style="fill:none;stroke:red;stroke-miterlimit:10;stroke-width:0.10000000149011612px"/><line x1="144.49" y1="297.81" x2="98.82" y2="297.81" style="fill:none;stroke:red;stroke-miterlimit:10;stroke-width:0.10000000149011612px"/><line x1="144.49" y1="297.81" x2="144.49" y2="394.19" style="fill:none;stroke:red;stroke-miterlimit:10;stroke-width:0.10000000149011612px"/><line x1="53.14" y1="297.81" x2="98.82" y2="297.81" style="fill:none;stroke:red;stroke-miterlimit:10;stroke-width:0.10000000149011612px"/><line x1="53.14" y1="394.19" x2="98.82" y2="394.19" style="fill:none;stroke:red;stroke-miterlimit:10;stroke-width:0.10000000149011612px"/><line x1="98.82" y1="394.19" x2="98.82" y2="297.81" style="fill:none;stroke:red;stroke-miterlimit:10;stroke-width:0.10000000149011612px"/><polyline points="53.14 394.19 7.46 394.19 7.46 297.81 53.14 297.81" style="fill:none;stroke:red;stroke-miterlimit:10;stroke-width:0.10000000149011612px"/><line x1="53.14" y1="394.19" x2="53.14" y2="297.81" style="fill:none;stroke:red;stroke-miterlimit:10;stroke-width:0.10000000149011612px"/><polyline points="345.58 8.54 7.46 8.54 7.46 104.92" style="fill:none;stroke:red;stroke-miterlimit:10;stroke-width:0.10000000149011612px"/><polyline points="345.58 8.54 683.71 8.54 683.71 104.92" style="fill:none;stroke:red;stroke-miterlimit:10;stroke-width:0.10000000149011612px"/><line x1="7.46" y1="104.92" x2="7.46" y2="201.29" style="fill:none;stroke:red;stroke-miterlimit:10;stroke-width:0.10000000149011612px"/><line x1="176.52" y1="201.29" x2="7.46" y2="201.29" style="fill:none;stroke:red;stroke-miterlimit:10;stroke-width:0.10000000149011612px"/><line x1="345.58" y1="201.29" x2="176.52" y2="201.29" style="fill:none;stroke:red;stroke-miterlimit:10;stroke-width:0.10000000149011612px"/><line x1="345.58" y1="8.54" x2="345.58" y2="104.92" style="fill:none;stroke:red;stroke-miterlimit:10;stroke-width:0.10000000149011612px"/><polyline points="345.58 201.29 683.71 201.29 683.71 104.92" style="fill:none;stroke:red;stroke-miterlimit:10;stroke-width:0.10000000149011612px"/><line x1="345.58" y1="104.92" x2="7.46" y2="104.92" style="fill:none;stroke:red;stroke-miterlimit:10;stroke-width:0.10000000149011612px"/><line x1="345.58" y1="104.92" x2="683.71" y2="104.92" style="fill:none;stroke:red;stroke-miterlimit:10;stroke-width:0.10000000149011612px"/><line x1="345.58" y1="104.92" x2="345.58" y2="201.29" style="fill:none;stroke:red;stroke-miterlimit:10;stroke-width:0.10000000149011612px"/></g></svg>