<svg xmlns="http://www.w3.org/2000/svg" viewBox="0 0 1190.55 841.89"><title>Afficheur-Led</title><g id="Calque_24" data-name="Calque 24"><g id="Calque_27" data-name="Calque 27"><rect x="38.2" y="18.21" width="1038.85" height="170.08" style="fill:none;stroke:red;stroke-miterlimit:10;stroke-width:0.028346456587315px"/></g><g id="Calque_29" data-name="Calque 29"><rect x="48.2" y="209.97" width="1055.24" height="170.08" style="fill:none;stroke:red;stroke-miterlimit:10;stroke-width:0.028346456587315px"/></g><g id="Calque_30" data-name="Calque 30"><path d="M445.44,499.08v23.37a15.19,15.19,0,0,0,5.72,1.12,22.86,22.86,0,0,0,6.5-1.12h15.67v5H98.41V499.08H19.22v85H37.33c0-.28,0-.55,0-.83v-4.68a32.25,32.25,0,0,1,32.16-32.16H537a32.25,32.25,0,0,1,32.16,32.16v4.68c0,.28,0,.55,0,.83h18.11v-85ZM43.21,518.28A4.25,4.25,0,1,1,47.46,514,4.25,4.25,0,0,1,43.21,518.28Zm28.65-.36a4.25,4.25,0,1,1,4.25-4.25A4.25,4.25,0,0,1,71.86,517.92Z" style="fill:none;stroke:red;stroke-miterlimit:10;stroke-width:0.100000001490116px"/><path d="M19.22,597.5v85H37.33c0-.28,0-.55,0-.83V677a32.25,32.25,0,0,1,32.16-32.16H537A32.25,32.25,0,0,1,569.2,677v4.68c0,.28,0,.55,0,.83h18.11v-85Z" style="fill:none;stroke:red;stroke-miterlimit:10;stroke-width:0.100000001490116px"/><path d="M19.22,707.66v85H37.33c0-.28,0-.55,0-.83v-4.68A32.25,32.25,0,0,1,69.46,755H537a32.25,32.25,0,0,1,32.16,32.16v4.68c0,.28,0,.55,0,.83h18.11v-85Z" style="fill:none;stroke:red;stroke-miterlimit:10;stroke-width:0.100000001490116px"/><path d="M106.22,490c.16,25,8.32,33.62,34.39,33.62,26.33,0,32.67-5.29,64.66-5.29v-5H221.1a15,15,0,0,0,6.25,1.38,11.85,11.85,0,0,0,5.8-1.38V490Zm24,19.19a4.25,4.25,0,1,1,4.25-4.25A4.25,4.25,0,0,1,130.21,509.15Zm28.65-.36a4.25,4.25,0,1,1,4.25-4.25A4.25,4.25,0,0,1,158.86,508.79Z" style="fill:none;stroke:red;stroke-miterlimit:10;stroke-width:0.100000001490116px"/><path d="M1031.46,497v23.37a15.19,15.19,0,0,0,5.72,1.12,22.86,22.86,0,0,0,6.5-1.12h15.67v5H684.42V497H605.23v85h18.11c0-.28,0-.55,0-.83v-4.68a32.25,32.25,0,0,1,32.16-32.16h467.58a32.25,32.25,0,0,1,32.16,32.16v4.68c0,.28,0,.55,0,.83h18.11V497ZM629.22,516.15a4.25,4.25,0,1,1,4.25-4.25A4.25,4.25,0,0,1,629.22,516.15Zm28.65-.36a4.25,4.25,0,1,1,4.25-4.25A4.25,4.25,0,0,1,657.87,515.8Z" style="fill:none;stroke:red;stroke-miterlimit:10;stroke-width:0.100000001490116px"/><path d="M605.23,595.38v85h18.11c0-.28,0-.55,0-.83v-4.68a32.25,32.25,0,0,1,32.16-32.16h467.58a32.25,32.25,0,0,1,32.16,32.16v4.68c0,.28,0,.55,0,.83h18.11v-85Z" style="fill:none;stroke:red;stroke-miterlimit:10;stroke-width:0.100000001490116px"/><path d="M605.23,707.66v85h18.11c0-.28,0-.55,0-.83v-4.68A32.25,32.25,0,0,1,655.48,755h467.58a32.25,32.25,0,0,1,32.16,32.16v4.68c0,.28,0,.55,0,.83h18.11v-85Z" style="fill:none;stroke:red;stroke-miterlimit:10;stroke-width:0.100000001490116px"/><path d="M692.23,487.83c.16,25,8.32,33.62,34.39,33.62,26.33,0,32.67-5.29,64.66-5.29v-5h15.84a15,15,0,0,0,6.25,1.38,11.85,11.85,0,0,0,5.8-1.38V487.83Zm24,19.19a4.25,4.25,0,1,1,4.25-4.25A4.25,4.25,0,0,1,716.22,507Zm28.65-.36a4.25,4.25,0,1,1,4.25-4.25A4.25,4.25,0,0,1,744.87,506.67Z" style="fill:none;stroke:red;stroke-miterlimit:10;stroke-width:0.100000001490116px"/><path d="M445.44,401.72v23.37a15.19,15.19,0,0,0,5.72,1.12,22.86,22.86,0,0,0,6.5-1.12h15.67v5H98.41V401.72H19.22v85H37.33c0-.28,0-.55,0-.83v-4.68a32.25,32.25,0,0,1,32.16-32.16H537a32.25,32.25,0,0,1,32.16,32.16v4.68c0,.28,0,.55,0,.83h18.11v-85ZM43.21,420.91a4.25,4.25,0,1,1,4.25-4.25A4.25,4.25,0,0,1,43.21,420.91Zm28.65-.36a4.25,4.25,0,1,1,4.25-4.25A4.25,4.25,0,0,1,71.86,420.56Z" style="fill:none;stroke:red;stroke-miterlimit:10;stroke-width:0.100000001490116px"/><path d="M106.22,392.59c.16,25,8.32,33.62,34.39,33.62,26.33,0,32.67-5.29,64.66-5.29v-5H221.1a15,15,0,0,0,6.25,1.38,11.85,11.85,0,0,0,5.8-1.38V392.59Zm24,19.19a4.25,4.25,0,1,1,4.25-4.25A4.25,4.25,0,0,1,130.21,411.78Zm28.65-.36a4.25,4.25,0,1,1,4.25-4.25A4.25,4.25,0,0,1,158.86,411.43Z" style="fill:none;stroke:red;stroke-miterlimit:10;stroke-width:0.100000001490116px"/><path d="M1031.46,399.6V423a15.19,15.19,0,0,0,5.72,1.12,22.86,22.86,0,0,0,6.5-1.12h15.67v5H684.42V399.6H605.23v85h18.11c0-.28,0-.55,0-.83v-4.68A32.25,32.25,0,0,1,655.48,447h467.58a32.25,32.25,0,0,1,32.16,32.16v4.68c0,.28,0,.55,0,.83h18.11v-85ZM629.22,418.79a4.25,4.25,0,1,1,4.25-4.25A4.25,4.25,0,0,1,629.22,418.79Zm28.65-.36a4.25,4.25,0,1,1,4.25-4.25A4.25,4.25,0,0,1,657.87,418.43Z" style="fill:none;stroke:red;stroke-miterlimit:10;stroke-width:0.100000001490116px"/><path d="M692.23,390.47c.16,25,8.32,33.62,34.39,33.62,26.33,0,32.67-5.29,64.66-5.29v-5h15.84a15,15,0,0,0,6.25,1.38,11.85,11.85,0,0,0,5.8-1.38V390.47Zm24,19.19a4.25,4.25,0,1,1,4.25-4.25A4.25,4.25,0,0,1,716.22,409.66Zm28.65-.36a4.25,4.25,0,1,1,4.25-4.25A4.25,4.25,0,0,1,744.87,409.3Z" style="fill:none;stroke:red;stroke-miterlimit:10;stroke-width:0.100000001490116px"/></g></g></svg>