<svg xmlns="http://www.w3.org/2000/svg" viewBox="0 0 1190.55 841.89"><title>Afficheur-Led</title><g id="Calque_24" data-name="Calque 24"><g id="Calque_30" data-name="Calque 30"><path d="M36.28,40.2V608.27H764.52V40.2ZM700.71,185.53a6.39,6.39,0,0,1,2,4.82,6.68,6.68,0,0,1-2,4.91,6.46,6.46,0,0,1-4.73,2,6.84,6.84,0,0,1-6.91-6.92,6.38,6.38,0,0,1,2-4.82,6.84,6.84,0,0,1,4.91-1.91A6.63,6.63,0,0,1,700.71,185.53Zm-14.56-20.11a6.46,6.46,0,0,1-4.73,2,6.83,6.83,0,0,1-6.91-6.92,6.47,6.47,0,0,1,2-4.73,6.68,6.68,0,0,1,4.91-2,6.84,6.84,0,0,1,6.73,6.73A6.68,6.68,0,0,1,686.15,165.42Zm3.64,12.38a6.47,6.47,0,0,1-2,4.73,6.68,6.68,0,0,1-4.91,2,6.84,6.84,0,0,1-6.73-6.73,6.68,6.68,0,0,1,2-4.91,6.47,6.47,0,0,1,4.73-2,6.84,6.84,0,0,1,6.91,6.92ZM678,232.39a6.68,6.68,0,0,1,4.91-2,6.47,6.47,0,0,1,4.73,2,6.69,6.69,0,0,1,2,4.91,6.84,6.84,0,0,1-6.73,6.73,6.67,6.67,0,0,1-4.91-2,6.46,6.46,0,0,1-2-4.73A6.68,6.68,0,0,1,678,232.39Zm13.1,243.2a6.84,6.84,0,0,1,4.91-1.91,6.62,6.62,0,0,1,4.73,1.91,6.39,6.39,0,0,1,2,4.82,6.68,6.68,0,0,1-2,4.91,6.46,6.46,0,0,1-4.73,2,6.84,6.84,0,0,1-6.91-6.92A6.38,6.38,0,0,1,691.06,475.59Zm-3.28-3a6.68,6.68,0,0,1-4.91,2,6.84,6.84,0,0,1-6.73-6.73,6.68,6.68,0,0,1,2-4.91,6.47,6.47,0,0,1,4.73-2,6.84,6.84,0,0,1,6.91,6.92A6.47,6.47,0,0,1,687.79,472.58Zm-.55-31.85a6.46,6.46,0,0,1-4.73-2,6.67,6.67,0,0,1-2-4.91,6.84,6.84,0,0,1,6.73-6.73,6.69,6.69,0,0,1,4.91,2,6.48,6.48,0,0,1,2,4.73,6.84,6.84,0,0,1-6.91,6.92Zm13.46-210.89a6.46,6.46,0,0,1-4.73,2,6.84,6.84,0,0,1-6.91-6.92,6.47,6.47,0,0,1,2-4.73,6.68,6.68,0,0,1,4.91-2,6.84,6.84,0,0,1,6.73,6.73A6.68,6.68,0,0,1,700.71,229.84Zm-6.55-86.08a6.84,6.84,0,0,1-6.91,6.92,6.46,6.46,0,0,1-4.73-2,6.67,6.67,0,0,1-2-4.91,6.84,6.84,0,0,1,6.73-6.73,6.69,6.69,0,0,1,4.91,2A6.48,6.48,0,0,1,694.16,143.76Zm-17.83-21.47a6.47,6.47,0,0,1,4.73-2A6.84,6.84,0,0,1,688,127.2a6.47,6.47,0,0,1-2,4.73,6.68,6.68,0,0,1-4.91,2,6.84,6.84,0,0,1-6.73-6.73A6.68,6.68,0,0,1,676.33,122.28Zm-96.79,69a6.69,6.69,0,0,1,2,4.91,6.47,6.47,0,0,1-2,4.73,6.68,6.68,0,0,1-4.91,2,6.84,6.84,0,0,1-6.73-6.73,6.68,6.68,0,0,1,2-4.91,6.47,6.47,0,0,1,4.73-2A6.69,6.69,0,0,1,579.53,191.26Zm1.64,22.93a6.62,6.62,0,0,1-1.91,4.73,6.8,6.8,0,0,1-9.64,0,6.62,6.62,0,0,1-1.91-4.73,6.85,6.85,0,0,1,1.91-4.91,6.81,6.81,0,0,1,9.64,0A6.85,6.85,0,0,1,581.17,214.19Zm-18.92-39.31a6.47,6.47,0,0,1,4.73-2,6.69,6.69,0,0,1,4.91,2,6.48,6.48,0,0,1,2,4.73,6.83,6.83,0,0,1-6.91,6.92,6.46,6.46,0,0,1-4.73-2,6.67,6.67,0,0,1-2-4.91A6.47,6.47,0,0,1,562.25,174.88Zm-13.83-11.47a6.47,6.47,0,0,1,4.73-2,6.69,6.69,0,0,1,4.91,2,6.47,6.47,0,0,1,2,4.73,6.84,6.84,0,0,1-6.91,6.92,6.46,6.46,0,0,1-4.73-2,6.67,6.67,0,0,1-2-4.91A6.46,6.46,0,0,1,548.42,163.41ZM559,241.49a6.39,6.39,0,0,1-2,4.82,6.63,6.63,0,0,1-4.73,1.91,6.84,6.84,0,0,1-4.91-1.91,6.38,6.38,0,0,1-2-4.82,6.84,6.84,0,0,1,6.91-6.92,6.47,6.47,0,0,1,4.73,2A6.69,6.69,0,0,1,559,241.49ZM533.68,111.36a6.47,6.47,0,0,1,4.73-2,6.69,6.69,0,0,1,4.91,2,6.48,6.48,0,0,1,2,4.73,6.83,6.83,0,0,1-6.91,6.92,6.46,6.46,0,0,1-4.73-2,6.67,6.67,0,0,1-2-4.91A6.47,6.47,0,0,1,533.68,111.36Zm6.73,57.15a6.46,6.46,0,0,1-4.73,2,6.67,6.67,0,0,1-4.91-2,6.46,6.46,0,0,1-2-4.73,6.84,6.84,0,0,1,6.91-6.92,6.47,6.47,0,0,1,4.73,2,6.69,6.69,0,0,1,2,4.91A6.48,6.48,0,0,1,540.41,168.51Zm.91,76.8a6.84,6.84,0,0,1-6.73,6.73,6.68,6.68,0,0,1-4.91-2,6.47,6.47,0,0,1-2-4.73,6.84,6.84,0,0,1,6.91-6.92,6.47,6.47,0,0,1,4.73,2A6.69,6.69,0,0,1,541.33,245.31ZM524.77,127.2a6.47,6.47,0,0,1,4.73-2,6.69,6.69,0,0,1,4.91,2,6.48,6.48,0,0,1,2,4.73,6.83,6.83,0,0,1-6.91,6.92,6.46,6.46,0,0,1-4.73-2,6.67,6.67,0,0,1-2-4.91A6.47,6.47,0,0,1,524.77,127.2Zm-9.1,15.65a6.68,6.68,0,0,1,4.91-2,6.39,6.39,0,0,1,4.82,2,6.85,6.85,0,0,1,1.91,4.91,6.62,6.62,0,0,1-1.91,4.73,6.38,6.38,0,0,1-4.82,2,6.67,6.67,0,0,1-4.91-2,6.46,6.46,0,0,1-2-4.73A6.68,6.68,0,0,1,515.67,142.85Zm8.19,98.46a6.48,6.48,0,0,1-2,4.73,6.69,6.69,0,0,1-4.91,2,6.84,6.84,0,0,1-6.73-6.73,6.68,6.68,0,0,1,2-4.91,6.47,6.47,0,0,1,4.73-2,6.83,6.83,0,0,1,6.91,6.92Zm-17.1-82.62a6.68,6.68,0,0,1,4.91-2,6.47,6.47,0,0,1,4.73,2,6.69,6.69,0,0,1,2,4.91,6.84,6.84,0,0,1-6.73,6.73,6.67,6.67,0,0,1-4.91-2,6.46,6.46,0,0,1-2-4.73A6.68,6.68,0,0,1,506.75,158.68Zm-8.92,15.83a6.68,6.68,0,0,1,4.91-2,6.47,6.47,0,0,1,4.73,2,6.69,6.69,0,0,1,2,4.91,6.84,6.84,0,0,1-6.73,6.73,6.67,6.67,0,0,1-4.91-2,6.46,6.46,0,0,1-2-4.73A6.68,6.68,0,0,1,497.84,174.52ZM509.67,230a6.84,6.84,0,0,1-6.73,6.73,6.67,6.67,0,0,1-4.91-2,6.46,6.46,0,0,1-2-4.73,6.84,6.84,0,0,1,6.91-6.92,6.47,6.47,0,0,1,4.73,2A6.69,6.69,0,0,1,509.67,230ZM490.2,190.89a6.47,6.47,0,0,1,4.73-2,6.84,6.84,0,0,1,6.91,6.92,6.47,6.47,0,0,1-2,4.73,6.68,6.68,0,0,1-4.91,2,6.84,6.84,0,0,1-6.73-6.73A6.68,6.68,0,0,1,490.2,190.89Zm0,18a6.68,6.68,0,0,1,4.91-2,6.47,6.47,0,0,1,4.73,2,6.69,6.69,0,0,1,2,4.91,6.84,6.84,0,0,1-6.73,6.73,6.67,6.67,0,0,1-4.91-2,6.46,6.46,0,0,1-2-4.73A6.68,6.68,0,0,1,490.2,208.91ZM370.66,222.47a6.39,6.39,0,0,1,2,4.82,6.15,6.15,0,0,1-1.82,4.82,6.33,6.33,0,0,1-4.73,2.09,6.84,6.84,0,0,1-4.91-1.91,7,7,0,0,1-2.18-4.82,6.68,6.68,0,0,1,2-4.91,6.47,6.47,0,0,1,4.73-2A6.85,6.85,0,0,1,370.66,222.47Zm-8.55-16.11a6.48,6.48,0,0,1,2,4.73,6.11,6.11,0,0,1-1.82,4.91,7.17,7.17,0,0,1-4.73,2.18,6.67,6.67,0,0,1-4.91-2,7.16,7.16,0,0,1-2.18-4.73,6.68,6.68,0,0,1,2-4.91,6.47,6.47,0,0,1,4.73-2A6.11,6.11,0,0,1,362.11,206.36Zm-8.55-16a7.2,7.2,0,0,1,2.18,4.73,6.68,6.68,0,0,1-2,4.91,6.46,6.46,0,0,1-4.73,2,6.09,6.09,0,0,1-4.91-1.82,6.67,6.67,0,0,1-2-4.91,5.87,5.87,0,0,1,1.82-4.73,7.19,7.19,0,0,1,4.73-2.18A6.69,6.69,0,0,1,353.56,190.35ZM345,174.24a7,7,0,0,1,2.18,4.82,6.77,6.77,0,0,1-2,4.82,6.33,6.33,0,0,1-4.73,2.09,6.84,6.84,0,0,1-4.91-1.91,6.38,6.38,0,0,1-2-4.82,6.13,6.13,0,0,1,1.82-4.82,6.34,6.34,0,0,1,4.73-2.09A6.85,6.85,0,0,1,345,174.24ZM336.64,200a6.46,6.46,0,0,1-4.73,2,6.09,6.09,0,0,1-4.91-1.82,6.67,6.67,0,0,1-2-4.91,5.87,5.87,0,0,1,1.82-4.73,7.37,7.37,0,0,1,4.91-2.18,6.47,6.47,0,0,1,4.73,2,7.2,7.2,0,0,1,2.18,4.73A6.68,6.68,0,0,1,336.64,200Zm2,253.12a6.47,6.47,0,0,1-2,4.73,7.17,7.17,0,0,1-4.73,2.18,6.67,6.67,0,0,1-4.91-2,6.46,6.46,0,0,1-2-4.73,6.1,6.1,0,0,1,1.82-4.91,6.68,6.68,0,0,1,4.91-2,5.88,5.88,0,0,1,4.73,1.82A7.39,7.39,0,0,1,338.64,453.11Zm-2.18-295a7.39,7.39,0,0,1,2.18,4.91,6.47,6.47,0,0,1-2,4.73,7.17,7.17,0,0,1-4.73,2.18,6.67,6.67,0,0,1-4.91-2,6.46,6.46,0,0,1-2-4.73,6.1,6.1,0,0,1,1.82-4.91,6.68,6.68,0,0,1,4.91-2A5.88,5.88,0,0,1,336.46,158.14Zm-8.55-16a7.2,7.2,0,0,1,2.18,4.73,6.68,6.68,0,0,1-2,4.91,6.46,6.46,0,0,1-4.73,2,6.09,6.09,0,0,1-4.91-1.82,6.67,6.67,0,0,1-2-4.91,5.87,5.87,0,0,1,1.82-4.73,7.37,7.37,0,0,1,4.91-2.18A6.47,6.47,0,0,1,327.91,142.12ZM319.63,200a6.38,6.38,0,0,1-4.82,2,6.09,6.09,0,0,1-4.91-1.82,6.93,6.93,0,0,1-.09-9.65,7,7,0,0,1,4.82-2.18,6.78,6.78,0,0,1,4.82,2,6.35,6.35,0,0,1,2.09,4.73A6.84,6.84,0,0,1,319.63,200Zm1.91,220.9a6.94,6.94,0,0,1-1.91,4.82,6.25,6.25,0,0,1-4.82,2.09,6.84,6.84,0,0,1-4.91-1.91,6.37,6.37,0,0,1-2-4.82,6.94,6.94,0,0,1,1.91-4.82,6.25,6.25,0,0,1,4.82-2.09,6.94,6.94,0,0,1,4.82,1.91A6.26,6.26,0,0,1,321.54,420.9ZM319.45,126a6.26,6.26,0,0,1,2.09,4.82,6.94,6.94,0,0,1-1.91,4.82,6.25,6.25,0,0,1-4.82,2.09,6.84,6.84,0,0,1-4.91-1.91,6.38,6.38,0,0,1-2-4.82,6.94,6.94,0,0,1,1.91-4.82,6.25,6.25,0,0,1,4.82-2.09A6.94,6.94,0,0,1,319.45,126Zm-18.19-15.92a6.38,6.38,0,0,1,4.82-2,6.15,6.15,0,0,1,4.82,1.82,6.55,6.55,0,0,1,2.09,4.91,6.62,6.62,0,0,1-1.91,4.73,7,7,0,0,1-4.82,2.18,6.76,6.76,0,0,1-4.82-2,6.33,6.33,0,0,1-2.09-4.73A6.85,6.85,0,0,1,301.25,110.09Zm-8.46,16a6.47,6.47,0,0,1,4.73-2,6.83,6.83,0,0,1,6.91,6.92,6.47,6.47,0,0,1-2,4.73,6.68,6.68,0,0,1-4.91,2,6.84,6.84,0,0,1-6.73-6.73A6.68,6.68,0,0,1,292.79,126.11Zm11.64,69a6.84,6.84,0,0,1-1.91,4.91,6.38,6.38,0,0,1-4.82,2,6.12,6.12,0,0,1-4.82-1.82,6.53,6.53,0,0,1-2.09-4.91,6.63,6.63,0,0,1,1.91-4.73,7,7,0,0,1,4.82-2.18,6.78,6.78,0,0,1,4.82,2A6.35,6.35,0,0,1,304.44,195.08Zm-20.2-53a6.68,6.68,0,0,1,4.91-2,6.47,6.47,0,0,1,4.73,2,6.69,6.69,0,0,1,2,4.91,6.84,6.84,0,0,1-6.73,6.73,6.67,6.67,0,0,1-4.91-2,6.46,6.46,0,0,1-2-4.73A6.68,6.68,0,0,1,284.24,142.12Zm-8.55,16.2a6.68,6.68,0,0,1,4.91-2,6.84,6.84,0,0,1,6.73,6.73,6.68,6.68,0,0,1-2,4.91,6.46,6.46,0,0,1-4.73,2,6.84,6.84,0,0,1-6.91-6.92A6.47,6.47,0,0,1,275.69,158.32Zm11.64,36.76a6.84,6.84,0,0,1-1.91,4.91,6.38,6.38,0,0,1-4.82,2,6.12,6.12,0,0,1-4.82-1.82,6.53,6.53,0,0,1-2.09-4.91,6.63,6.63,0,0,1,1.91-4.73,7,7,0,0,1,4.82-2.18,6.69,6.69,0,0,1,4.91,2A6.48,6.48,0,0,1,287.33,195.08Zm-20.2-20.75a6.68,6.68,0,0,1,4.91-2,6.84,6.84,0,0,1,6.73,6.73,6.68,6.68,0,0,1-2,4.91,6.46,6.46,0,0,1-4.73,2,6.84,6.84,0,0,1-6.91-6.92A6.47,6.47,0,0,1,267.14,174.33Zm-8.55,16a6.68,6.68,0,0,1,4.91-2,6.47,6.47,0,0,1,4.73,2,6.69,6.69,0,0,1,2,4.91A6.84,6.84,0,0,1,263.5,202a6.67,6.67,0,0,1-4.91-2,6.46,6.46,0,0,1-2-4.73A6.68,6.68,0,0,1,258.59,190.35ZM250,206.55a6.68,6.68,0,0,1,4.91-2,6.84,6.84,0,0,1,6.73,6.73,6.68,6.68,0,0,1-2,4.91,6.46,6.46,0,0,1-4.73,2,6.84,6.84,0,0,1-6.91-6.92A6.47,6.47,0,0,1,250,206.55Zm-8.55,16a6.68,6.68,0,0,1,4.91-2,6.84,6.84,0,0,1,6.73,6.73,6.68,6.68,0,0,1-2,4.91,6.46,6.46,0,0,1-4.73,2,6.84,6.84,0,0,1-6.91-6.92A6.46,6.46,0,0,1,241.48,222.56Zm-8.55,16a6.91,6.91,0,0,1,11.83,4.91,6.48,6.48,0,0,1-2,4.73,7,7,0,0,1-9.83,0,6.46,6.46,0,0,1-2-4.73A6.68,6.68,0,0,1,232.93,238.58Zm-19.65-47.32a6.69,6.69,0,0,1,2,4.91,6.47,6.47,0,0,1-2,4.73,6.68,6.68,0,0,1-4.91,2,6.84,6.84,0,0,1-6.73-6.73,6.68,6.68,0,0,1,2-4.91,6.47,6.47,0,0,1,4.73-2A6.69,6.69,0,0,1,213.28,191.26Zm1.64,22.93a6.62,6.62,0,0,1-1.91,4.73,6.81,6.81,0,0,1-9.64,0,6.62,6.62,0,0,1-1.91-4.73,6.86,6.86,0,0,1,1.91-4.91,6.81,6.81,0,0,1,9.64,0A6.86,6.86,0,0,1,214.92,214.19ZM196,174.88a6.47,6.47,0,0,1,4.73-2,6.69,6.69,0,0,1,4.91,2,6.48,6.48,0,0,1,2,4.73,6.84,6.84,0,0,1-6.91,6.92,6.46,6.46,0,0,1-4.73-2,6.67,6.67,0,0,1-2-4.91A6.47,6.47,0,0,1,196,174.88Zm-13.83-11.47a6.47,6.47,0,0,1,4.73-2,6.69,6.69,0,0,1,4.91,2,6.48,6.48,0,0,1,2,4.73,6.84,6.84,0,0,1-6.91,6.92,6.46,6.46,0,0,1-4.73-2,6.67,6.67,0,0,1-2-4.91A6.46,6.46,0,0,1,182.17,163.41Zm10.55,78.07a6.39,6.39,0,0,1-2,4.82,6.63,6.63,0,0,1-4.73,1.91,6.84,6.84,0,0,1-4.91-1.91,6.38,6.38,0,0,1-2-4.82,6.83,6.83,0,0,1,6.91-6.92,6.47,6.47,0,0,1,4.73,2A6.69,6.69,0,0,1,192.72,241.49ZM167.43,111.36a6.47,6.47,0,0,1,4.73-2,6.69,6.69,0,0,1,4.91,2,6.48,6.48,0,0,1,2,4.73,6.84,6.84,0,0,1-6.91,6.92,6.46,6.46,0,0,1-4.73-2,6.67,6.67,0,0,1-2-4.91A6.47,6.47,0,0,1,167.43,111.36Zm6.73,57.15a6.46,6.46,0,0,1-4.73,2,6.67,6.67,0,0,1-4.91-2,6.46,6.46,0,0,1-2-4.73,6.84,6.84,0,0,1,6.91-6.92,6.47,6.47,0,0,1,4.73,2,6.69,6.69,0,0,1,2,4.91A6.47,6.47,0,0,1,174.16,168.51Zm.91,76.8a6.84,6.84,0,0,1-6.73,6.73,6.68,6.68,0,0,1-4.91-2,6.47,6.47,0,0,1-2-4.73,6.84,6.84,0,0,1,6.91-6.92,6.47,6.47,0,0,1,4.73,2A6.69,6.69,0,0,1,175.07,245.31ZM158.52,127.2a6.47,6.47,0,0,1,4.73-2,6.69,6.69,0,0,1,4.91,2,6.48,6.48,0,0,1,2,4.73,6.84,6.84,0,0,1-6.91,6.92,6.46,6.46,0,0,1-4.73-2,6.67,6.67,0,0,1-2-4.91A6.47,6.47,0,0,1,158.52,127.2Zm-9.1,15.65a6.68,6.68,0,0,1,4.91-2,6.39,6.39,0,0,1,4.82,2,6.85,6.85,0,0,1,1.91,4.91,6.62,6.62,0,0,1-1.91,4.73,6.38,6.38,0,0,1-4.82,2,6.67,6.67,0,0,1-4.91-2,6.46,6.46,0,0,1-2-4.73A6.68,6.68,0,0,1,149.42,142.85Zm8.19,98.46a6.48,6.48,0,0,1-2,4.73,6.69,6.69,0,0,1-4.91,2,6.84,6.84,0,0,1-6.73-6.73,6.68,6.68,0,0,1,2-4.91,6.47,6.47,0,0,1,4.73-2,6.83,6.83,0,0,1,6.91,6.92Zm-17.1-82.62a6.68,6.68,0,0,1,4.91-2,6.47,6.47,0,0,1,4.73,2,6.69,6.69,0,0,1,2,4.91,6.84,6.84,0,0,1-6.73,6.73,6.67,6.67,0,0,1-4.91-2,6.46,6.46,0,0,1-2-4.73A6.68,6.68,0,0,1,140.5,158.68Zm-8.92,15.83a6.68,6.68,0,0,1,4.91-2,6.47,6.47,0,0,1,4.73,2,6.69,6.69,0,0,1,2,4.91,6.84,6.84,0,0,1-6.73,6.73,6.67,6.67,0,0,1-4.91-2,6.46,6.46,0,0,1-2-4.73A6.68,6.68,0,0,1,131.59,174.52ZM143.42,230a6.84,6.84,0,0,1-6.73,6.73,6.67,6.67,0,0,1-4.91-2,6.46,6.46,0,0,1-2-4.73,6.84,6.84,0,0,1,6.91-6.92,6.47,6.47,0,0,1,4.73,2A6.69,6.69,0,0,1,143.42,230Zm-19.47-39.13a6.47,6.47,0,0,1,4.73-2,6.84,6.84,0,0,1,6.91,6.92,6.47,6.47,0,0,1-2,4.73,6.68,6.68,0,0,1-4.91,2,6.84,6.84,0,0,1-6.73-6.73A6.68,6.68,0,0,1,123.95,190.89Zm0,18a6.68,6.68,0,0,1,4.91-2,6.47,6.47,0,0,1,4.73,2,6.69,6.69,0,0,1,2,4.91,6.84,6.84,0,0,1-6.73,6.73,6.67,6.67,0,0,1-4.91-2,6.46,6.46,0,0,1-2-4.73A6.68,6.68,0,0,1,123.95,208.91Zm4,293a6.68,6.68,0,0,1-4.91,2,6.46,6.46,0,0,1-4.73-2,6.67,6.67,0,0,1-2-4.91,6.84,6.84,0,0,1,6.73-6.73,6.69,6.69,0,0,1,4.91,2,6.48,6.48,0,0,1,2,4.73A6.68,6.68,0,0,1,128,501.88Zm.36-20a6.47,6.47,0,0,1,2-4.73,6.68,6.68,0,0,1,4.91-2,6.84,6.84,0,0,1,6.73,6.73,6.68,6.68,0,0,1-2,4.91,6.46,6.46,0,0,1-4.73,2,6.84,6.84,0,0,1-6.91-6.92Zm17.83,20a6.68,6.68,0,0,1-4.91,2,6.46,6.46,0,0,1-4.73-2,6.67,6.67,0,0,1-2-4.91,6.84,6.84,0,0,1,6.73-6.73,6.69,6.69,0,0,1,4.91,2,6.48,6.48,0,0,1,2,4.73A6.68,6.68,0,0,1,146.14,501.88Zm1.09-28.39a6.84,6.84,0,0,1-6.73-6.73,6.68,6.68,0,0,1,2-4.91,6.47,6.47,0,0,1,4.73-2,6.84,6.84,0,0,1,6.91,6.92,6.47,6.47,0,0,1-2,4.73A6.67,6.67,0,0,1,147.24,473.49Zm17.1,28.39a6.68,6.68,0,0,1-4.91,2,6.46,6.46,0,0,1-4.73-2,6.67,6.67,0,0,1-2-4.91,6.84,6.84,0,0,1,6.73-6.73,6.69,6.69,0,0,1,4.91,2,6.48,6.48,0,0,1,2,4.73A6.68,6.68,0,0,1,164.34,501.88Zm0-45.5a6.68,6.68,0,0,1-4.91,2,6.46,6.46,0,0,1-4.73-2,6.67,6.67,0,0,1-2-4.91,6.84,6.84,0,0,1,6.73-6.73,6.69,6.69,0,0,1,4.91,2,6.48,6.48,0,0,1,2,4.73A6.68,6.68,0,0,1,164.34,456.39Zm.36-20a6.47,6.47,0,0,1,2-4.73,6.68,6.68,0,0,1,4.91-2,6.84,6.84,0,0,1,6.73,6.73,6.68,6.68,0,0,1-2,4.91,6.46,6.46,0,0,1-4.73,2,6.84,6.84,0,0,1-6.91-6.92Zm17.83,65.52a6.68,6.68,0,0,1-4.91,2,6.46,6.46,0,0,1-4.73-2,6.67,6.67,0,0,1-2-4.91,6.84,6.84,0,0,1,6.73-6.73,6.68,6.68,0,0,1,4.91,2,6.48,6.48,0,0,1,2,4.73A6.68,6.68,0,0,1,182.53,501.88Zm18.19,36.4a6.69,6.69,0,0,1-4.91,2,6.47,6.47,0,0,1-4.73-2,6.68,6.68,0,0,1-2-4.91,6.84,6.84,0,0,1,6.73-6.73,6.69,6.69,0,0,1,4.91,2,6.48,6.48,0,0,1,2,4.73A6.69,6.69,0,0,1,200.73,538.28Zm0-18.2a6.68,6.68,0,0,1-4.91,2,6.46,6.46,0,0,1-4.73-2,6.67,6.67,0,0,1-2-4.91,6.84,6.84,0,0,1,6.73-6.73,6.69,6.69,0,0,1,4.91,2,6.48,6.48,0,0,1,2,4.73A6.68,6.68,0,0,1,200.73,520.08Zm0-18.2a6.68,6.68,0,0,1-4.91,2,6.46,6.46,0,0,1-4.73-2,6.67,6.67,0,0,1-2-4.91,6.84,6.84,0,0,1,6.73-6.73,6.69,6.69,0,0,1,4.91,2,6.48,6.48,0,0,1,2,4.73A6.68,6.68,0,0,1,200.73,501.88Zm0-18.2a6.68,6.68,0,0,1-4.91,2,6.46,6.46,0,0,1-4.73-2,6.67,6.67,0,0,1-2-4.91,6.84,6.84,0,0,1,6.73-6.73,6.69,6.69,0,0,1,4.91,2,6.48,6.48,0,0,1,2,4.73A6.68,6.68,0,0,1,200.73,483.68Zm0-18.2a6.68,6.68,0,0,1-4.91,2,6.46,6.46,0,0,1-4.73-2,6.67,6.67,0,0,1-2-4.91,6.84,6.84,0,0,1,6.73-6.73,6.69,6.69,0,0,1,4.91,2,6.48,6.48,0,0,1,2,4.73A6.69,6.69,0,0,1,200.73,465.49Zm0-18.2a6.68,6.68,0,0,1-4.91,2,6.46,6.46,0,0,1-4.73-2,6.67,6.67,0,0,1-2-4.91,6.84,6.84,0,0,1,6.73-6.73,6.69,6.69,0,0,1,4.91,2,6.48,6.48,0,0,1,2,4.73A6.68,6.68,0,0,1,200.73,447.29Zm0-18.2a6.68,6.68,0,0,1-4.91,2q-5.82,0-6.73-5.64a6.57,6.57,0,0,1-5.46,2.55,6.84,6.84,0,0,1-6.73-6.73,6.68,6.68,0,0,1,2-4.91,6.47,6.47,0,0,1,4.73-2q5.82,0,6.73,5.82a6.91,6.91,0,0,1,10.37-.73,6.48,6.48,0,0,1,2,4.73A6.68,6.68,0,0,1,200.73,429.09Zm0-18.2a6.68,6.68,0,0,1-4.91,2,6.46,6.46,0,0,1-4.73-2,6.67,6.67,0,0,1-2-4.91,6.84,6.84,0,0,1,6.73-6.73,6.69,6.69,0,0,1,4.91,2,6.48,6.48,0,0,1,2,4.73A6.68,6.68,0,0,1,200.73,410.89Zm4.18-175.77a6.46,6.46,0,0,1-4.73,2,6.67,6.67,0,0,1-4.91-2,6.46,6.46,0,0,1-2-4.73,6.84,6.84,0,0,1,6.91-6.92,6.47,6.47,0,0,1,4.73,2,6.69,6.69,0,0,1,2,4.91A6.47,6.47,0,0,1,204.91,235.12Zm14,266.77a6.68,6.68,0,0,1-4.91,2,6.46,6.46,0,0,1-4.73-2,6.67,6.67,0,0,1-2-4.91,6.84,6.84,0,0,1,6.73-6.73,6.68,6.68,0,0,1,4.91,2,6.48,6.48,0,0,1,2,4.73A6.68,6.68,0,0,1,218.92,501.88Zm23.83,36.4a7,7,0,0,1-9.83,0,6.46,6.46,0,0,1-2-4.73,6.91,6.91,0,1,1,13.83,0A6.48,6.48,0,0,1,242.76,538.28Zm8.37-16a6.46,6.46,0,0,1-4.73,2,6.84,6.84,0,0,1-6.91-6.92,6.47,6.47,0,0,1,2-4.73,6.68,6.68,0,0,1,4.91-2,6.84,6.84,0,0,1,6.73,6.73A6.68,6.68,0,0,1,251.13,522.27Zm8.55-16a6.46,6.46,0,0,1-4.73,2,6.84,6.84,0,0,1-6.91-6.92,6.47,6.47,0,0,1,2-4.73,6.68,6.68,0,0,1,4.91-2,6.84,6.84,0,0,1,6.73,6.73A6.68,6.68,0,0,1,259.68,506.25Zm8.55-16.2a6.46,6.46,0,0,1-4.73,2,6.67,6.67,0,0,1-4.91-2,6.46,6.46,0,0,1-2-4.73,6.83,6.83,0,0,1,6.91-6.92,6.47,6.47,0,0,1,4.73,2,6.69,6.69,0,0,1,2,4.91A6.47,6.47,0,0,1,268.23,490.05Zm-1.09-16a6.67,6.67,0,0,1-2-4.91,6.47,6.47,0,0,1,2-4.73,6.68,6.68,0,0,1,4.91-2,6.84,6.84,0,0,1,6.73,6.73,6.68,6.68,0,0,1-2,4.91,6.46,6.46,0,0,1-4.73,2A6.67,6.67,0,0,1,267.14,474Zm18.29,16a6.38,6.38,0,0,1-4.82,2,6.12,6.12,0,0,1-4.82-1.82,6.53,6.53,0,0,1-2.09-4.91,6.63,6.63,0,0,1,1.91-4.73,7,7,0,0,1,4.82-2.18,6.69,6.69,0,0,1,4.91,2,6.48,6.48,0,0,1,2,4.73A6.84,6.84,0,0,1,285.42,490.05Zm-.09-32a6.46,6.46,0,0,1-4.73,2,6.84,6.84,0,0,1-6.91-6.92,6.47,6.47,0,0,1,2-4.73,6.68,6.68,0,0,1,4.91-2,6.84,6.84,0,0,1,6.73,6.73A6.68,6.68,0,0,1,285.33,458Zm-1.09-16.2a6.46,6.46,0,0,1-2-4.73,6.83,6.83,0,0,1,6.91-6.92,6.47,6.47,0,0,1,4.73,2,6.69,6.69,0,0,1,2,4.91,6.84,6.84,0,0,1-6.73,6.73A6.67,6.67,0,0,1,284.24,441.83Zm18.29,48.23a6.38,6.38,0,0,1-4.82,2,6.12,6.12,0,0,1-4.82-1.82,6.53,6.53,0,0,1-2.09-4.91,6.63,6.63,0,0,1,1.91-4.73,7,7,0,0,1,4.82-2.18,6.78,6.78,0,0,1,4.82,2,6.34,6.34,0,0,1,2.09,4.73A6.84,6.84,0,0,1,302.53,490.05Zm-.09-64.24a6.68,6.68,0,0,1-4.91,2,6.84,6.84,0,0,1-6.73-6.73,6.68,6.68,0,0,1,2-4.91,6.47,6.47,0,0,1,4.73-2,6.83,6.83,0,0,1,6.91,6.92A6.47,6.47,0,0,1,302.43,425.81Zm-1-16a6.33,6.33,0,0,1-2.09-4.73,6.85,6.85,0,0,1,1.91-4.91,6.38,6.38,0,0,1,4.82-2,6.15,6.15,0,0,1,4.82,1.82,6.55,6.55,0,0,1,2.09,4.91,6.62,6.62,0,0,1-1.91,4.73,7,7,0,0,1-4.82,2.18A6.76,6.76,0,0,1,301.43,409.8Zm18.19,80.26a6.38,6.38,0,0,1-4.82,2,6.09,6.09,0,0,1-4.91-1.82,6.92,6.92,0,0,1-.09-9.65,7,7,0,0,1,4.82-2.18,6.78,6.78,0,0,1,4.82,2,6.34,6.34,0,0,1,2.09,4.73A6.84,6.84,0,0,1,319.63,490.05Zm-1.18-48a6.67,6.67,0,0,1-2-4.91,5.87,5.87,0,0,1,1.82-4.73,7.37,7.37,0,0,1,4.91-2.18,6.47,6.47,0,0,1,4.73,2,7.2,7.2,0,0,1,2.18,4.73,6.68,6.68,0,0,1-2,4.91,6.46,6.46,0,0,1-4.73,2A6.09,6.09,0,0,1,318.45,442Zm18.19,48a6.46,6.46,0,0,1-4.73,2,6.09,6.09,0,0,1-4.91-1.82,6.67,6.67,0,0,1-2-4.91,5.87,5.87,0,0,1,1.82-4.73,7.37,7.37,0,0,1,4.91-2.18,6.47,6.47,0,0,1,4.73,2,7.2,7.2,0,0,1,2.18,4.73A6.68,6.68,0,0,1,336.64,490.05Zm-1.09-15.92a6.37,6.37,0,0,1-2-4.82,6.13,6.13,0,0,1,1.82-4.82,6.34,6.34,0,0,1,4.73-2.09A6.85,6.85,0,0,1,345,464.3a7,7,0,0,1,2.18,4.82,6.77,6.77,0,0,1-2,4.82,6.33,6.33,0,0,1-4.73,2.09A6.84,6.84,0,0,1,335.55,474.13Zm8.55,16.11a6.67,6.67,0,0,1-2-4.91,5.87,5.87,0,0,1,1.82-4.73,7.19,7.19,0,0,1,4.73-2.18,6.69,6.69,0,0,1,4.91,2,7.2,7.2,0,0,1,2.18,4.73,6.68,6.68,0,0,1-2,4.91,6.46,6.46,0,0,1-4.73,2A6.09,6.09,0,0,1,344.1,490.24Zm8.55,16a7.16,7.16,0,0,1-2.18-4.73,6.68,6.68,0,0,1,2-4.91,6.47,6.47,0,0,1,4.73-2,6.12,6.12,0,0,1,4.91,1.82,6.48,6.48,0,0,1,2,4.73,6.11,6.11,0,0,1-1.82,4.91,7.17,7.17,0,0,1-4.73,2.18A6.67,6.67,0,0,1,352.65,506.25Zm8.55,16.11a7,7,0,0,1-2.18-4.82,6.68,6.68,0,0,1,2-4.91,6.47,6.47,0,0,1,4.73-2,6.85,6.85,0,0,1,4.91,1.91,6.39,6.39,0,0,1,2,4.82,6.15,6.15,0,0,1-1.82,4.82,6.33,6.33,0,0,1-4.73,2.09A6.84,6.84,0,0,1,361.2,522.36Zm18.19,15.92a6.69,6.69,0,0,1-4.91,2,6.62,6.62,0,0,1-4.73-1.91,7,7,0,0,1-2.18-4.82,6.77,6.77,0,0,1,2-4.82,6.34,6.34,0,0,1,4.73-2.09,6.85,6.85,0,0,1,4.91,1.91,6.39,6.39,0,0,1,2,4.82A6.12,6.12,0,0,1,379.4,538.28Zm0-290.06a6.69,6.69,0,0,1-4.91,2,6.62,6.62,0,0,1-4.73-1.91,7,7,0,0,1-2.18-4.82,6.77,6.77,0,0,1,2-4.82,6.34,6.34,0,0,1,4.73-2.09,6.85,6.85,0,0,1,4.91,1.91,6.39,6.39,0,0,1,2,4.82A6.12,6.12,0,0,1,379.4,248.22ZM494.2,501.88a6.68,6.68,0,0,1-4.91,2,6.46,6.46,0,0,1-4.73-2,6.67,6.67,0,0,1-2-4.91,6.84,6.84,0,0,1,6.73-6.73,6.69,6.69,0,0,1,4.91,2,6.48,6.48,0,0,1,2,4.73A6.68,6.68,0,0,1,494.2,501.88Zm.36-20a6.47,6.47,0,0,1,2-4.73,6.68,6.68,0,0,1,4.91-2,6.84,6.84,0,0,1,6.73,6.73,6.68,6.68,0,0,1-2,4.91,6.46,6.46,0,0,1-4.73,2,6.84,6.84,0,0,1-6.91-6.92Zm17.83,20a6.68,6.68,0,0,1-4.91,2,6.46,6.46,0,0,1-4.73-2,6.67,6.67,0,0,1-2-4.91,6.84,6.84,0,0,1,6.73-6.73,6.69,6.69,0,0,1,4.91,2,6.48,6.48,0,0,1,2,4.73A6.68,6.68,0,0,1,512.4,501.88Zm1.09-28.39a6.84,6.84,0,0,1-6.73-6.73,6.68,6.68,0,0,1,2-4.91,6.47,6.47,0,0,1,4.73-2,6.84,6.84,0,0,1,6.91,6.92,6.47,6.47,0,0,1-2,4.73A6.67,6.67,0,0,1,513.49,473.49Zm17.1,28.39a6.68,6.68,0,0,1-4.91,2,6.46,6.46,0,0,1-4.73-2,6.67,6.67,0,0,1-2-4.91,6.84,6.84,0,0,1,6.73-6.73,6.69,6.69,0,0,1,4.91,2,6.48,6.48,0,0,1,2,4.73A6.68,6.68,0,0,1,530.59,501.88Zm0-45.5a6.68,6.68,0,0,1-4.91,2,6.46,6.46,0,0,1-4.73-2,6.67,6.67,0,0,1-2-4.91,6.84,6.84,0,0,1,6.73-6.73,6.69,6.69,0,0,1,4.91,2,6.48,6.48,0,0,1,2,4.73A6.68,6.68,0,0,1,530.59,456.39Zm.36-20a6.47,6.47,0,0,1,2-4.73,6.68,6.68,0,0,1,4.91-2,6.84,6.84,0,0,1,6.73,6.73,6.68,6.68,0,0,1-2,4.91,6.46,6.46,0,0,1-4.73,2,6.83,6.83,0,0,1-6.91-6.92Zm17.83,65.52a6.68,6.68,0,0,1-4.91,2,6.46,6.46,0,0,1-4.73-2,6.67,6.67,0,0,1-2-4.91,6.84,6.84,0,0,1,6.73-6.73,6.68,6.68,0,0,1,4.91,2,6.47,6.47,0,0,1,2,4.73A6.68,6.68,0,0,1,548.78,501.88ZM567,538.28a6.68,6.68,0,0,1-4.91,2,6.47,6.47,0,0,1-4.73-2,6.68,6.68,0,0,1-2-4.91,6.84,6.84,0,0,1,6.73-6.73,6.68,6.68,0,0,1,4.91,2,6.47,6.47,0,0,1,2,4.73A6.69,6.69,0,0,1,567,538.28Zm0-18.2a6.67,6.67,0,0,1-4.91,2,6.45,6.45,0,0,1-4.73-2,6.67,6.67,0,0,1-2-4.91,6.84,6.84,0,0,1,6.73-6.73,6.68,6.68,0,0,1,4.91,2,6.47,6.47,0,0,1,2,4.73A6.68,6.68,0,0,1,567,520.08Zm0-18.2a6.67,6.67,0,0,1-4.91,2,6.46,6.46,0,0,1-4.73-2,6.67,6.67,0,0,1-2-4.91,6.84,6.84,0,0,1,6.73-6.73,6.68,6.68,0,0,1,4.91,2,6.47,6.47,0,0,1,2,4.73A6.68,6.68,0,0,1,567,501.88Zm0-18.2a6.67,6.67,0,0,1-4.91,2,6.46,6.46,0,0,1-4.73-2,6.67,6.67,0,0,1-2-4.91,6.84,6.84,0,0,1,6.73-6.73,6.68,6.68,0,0,1,4.91,2,6.48,6.48,0,0,1,2,4.73A6.68,6.68,0,0,1,567,483.68Zm0-18.2a6.67,6.67,0,0,1-4.91,2,6.46,6.46,0,0,1-4.73-2,6.67,6.67,0,0,1-2-4.91,6.84,6.84,0,0,1,6.73-6.73,6.68,6.68,0,0,1,4.91,2,6.47,6.47,0,0,1,2,4.73A6.68,6.68,0,0,1,567,465.49Zm0-18.2a6.67,6.67,0,0,1-4.91,2,6.45,6.45,0,0,1-4.73-2,6.67,6.67,0,0,1-2-4.91,6.84,6.84,0,0,1,6.73-6.73,6.68,6.68,0,0,1,4.91,2,6.47,6.47,0,0,1,2,4.73A6.68,6.68,0,0,1,567,447.29Zm0-18.2a6.67,6.67,0,0,1-4.91,2q-5.82,0-6.73-5.64a6.56,6.56,0,0,1-5.46,2.55,6.84,6.84,0,0,1-6.73-6.73,6.68,6.68,0,0,1,2-4.91,6.47,6.47,0,0,1,4.73-2q5.82,0,6.73,5.82a6.91,6.91,0,0,1,10.37-.73,6.47,6.47,0,0,1,2,4.73A6.68,6.68,0,0,1,567,429.09Zm0-18.2a6.67,6.67,0,0,1-4.91,2,6.46,6.46,0,0,1-4.73-2,6.67,6.67,0,0,1-2-4.91,6.84,6.84,0,0,1,6.73-6.73,6.68,6.68,0,0,1,4.91,2,6.47,6.47,0,0,1,2,4.73A6.68,6.68,0,0,1,567,410.89Zm4.19-175.77a6.46,6.46,0,0,1-4.73,2,6.67,6.67,0,0,1-4.91-2,6.46,6.46,0,0,1-2-4.73,6.83,6.83,0,0,1,6.91-6.92,6.47,6.47,0,0,1,4.73,2,6.69,6.69,0,0,1,2,4.91A6.47,6.47,0,0,1,571.16,235.12Zm14,266.77a6.68,6.68,0,0,1-4.91,2,6.46,6.46,0,0,1-4.73-2,6.67,6.67,0,0,1-2-4.91,6.84,6.84,0,0,1,6.73-6.73,6.69,6.69,0,0,1,4.91,2,6.48,6.48,0,0,1,2,4.73A6.68,6.68,0,0,1,585.17,501.88Zm31,36.4a6.39,6.39,0,0,1-4.82,2,6.84,6.84,0,0,1-6.91-6.92,6.47,6.47,0,0,1,2-4.73,6.68,6.68,0,0,1,4.91-2,6.39,6.39,0,0,1,4.82,2,6.63,6.63,0,0,1,1.91,4.73A6.85,6.85,0,0,1,616.19,538.28Zm0-18.2a6.38,6.38,0,0,1-4.82,2,6.84,6.84,0,0,1-6.91-6.92,6.47,6.47,0,0,1,2-4.73,6.68,6.68,0,0,1,4.91-2,6.39,6.39,0,0,1,4.82,2,6.63,6.63,0,0,1,1.91,4.73A6.84,6.84,0,0,1,616.19,520.08Zm0-18.2a6.38,6.38,0,0,1-4.82,2,6.83,6.83,0,0,1-6.91-6.92,6.47,6.47,0,0,1,2-4.73,6.68,6.68,0,0,1,4.91-2,6.39,6.39,0,0,1,4.82,2A6.63,6.63,0,0,1,618.1,497,6.85,6.85,0,0,1,616.19,501.88Zm0-18.2a6.38,6.38,0,0,1-4.82,2,6.83,6.83,0,0,1-6.91-6.92,6.47,6.47,0,0,1,2-4.73,6.68,6.68,0,0,1,4.91-2,6.39,6.39,0,0,1,4.82,2,6.63,6.63,0,0,1,1.91,4.73A6.85,6.85,0,0,1,616.19,483.68Zm0-18.2a6.38,6.38,0,0,1-4.82,2,6.83,6.83,0,0,1-6.91-6.92,6.47,6.47,0,0,1,2-4.73,6.68,6.68,0,0,1,4.91-2,6.39,6.39,0,0,1,4.82,2,6.63,6.63,0,0,1,1.91,4.73A6.85,6.85,0,0,1,616.19,465.49Zm0-18.2a6.38,6.38,0,0,1-4.82,2,6.84,6.84,0,0,1-6.91-6.92,6.47,6.47,0,0,1,2-4.73,6.68,6.68,0,0,1,4.91-2,6.39,6.39,0,0,1,4.82,2,6.63,6.63,0,0,1,1.91,4.73A6.84,6.84,0,0,1,616.19,447.29Zm0-18.2a6.38,6.38,0,0,1-4.82,2,6.83,6.83,0,0,1-6.91-6.92,6.47,6.47,0,0,1,2-4.73,6.68,6.68,0,0,1,4.91-2,6.39,6.39,0,0,1,4.82,2,6.63,6.63,0,0,1,1.91,4.73A6.84,6.84,0,0,1,616.19,429.09Zm0-18.2a6.38,6.38,0,0,1-4.82,2,6.83,6.83,0,0,1-6.91-6.92,6.47,6.47,0,0,1,2-4.73,6.68,6.68,0,0,1,4.91-2,6.39,6.39,0,0,1,4.82,2A6.63,6.63,0,0,1,618.1,406,6.85,6.85,0,0,1,616.19,410.89Zm0-162.67a6.39,6.39,0,0,1-4.82,2,6.83,6.83,0,0,1-6.91-6.92,6.47,6.47,0,0,1,2-4.73,6.68,6.68,0,0,1,4.91-2,6.39,6.39,0,0,1,4.82,2,6.63,6.63,0,0,1,1.91,4.73A6.85,6.85,0,0,1,616.19,248.22Zm0-18.2a6.38,6.38,0,0,1-4.82,2,6.83,6.83,0,0,1-6.91-6.92,6.47,6.47,0,0,1,2-4.73,6.68,6.68,0,0,1,4.91-2,6.39,6.39,0,0,1,4.82,2,6.63,6.63,0,0,1,1.91,4.73A6.85,6.85,0,0,1,616.19,230Zm0-18.2a6.38,6.38,0,0,1-4.82,2,6.83,6.83,0,0,1-6.91-6.92,6.47,6.47,0,0,1,2-4.73,6.68,6.68,0,0,1,4.91-2,6.39,6.39,0,0,1,4.82,2,6.63,6.63,0,0,1,1.91,4.73A6.85,6.85,0,0,1,616.19,211.82Zm0-18.2a6.38,6.38,0,0,1-4.82,2,6.83,6.83,0,0,1-6.91-6.92,6.47,6.47,0,0,1,2-4.73,6.68,6.68,0,0,1,4.91-2,6.39,6.39,0,0,1,4.82,2,6.63,6.63,0,0,1,1.91,4.73A6.85,6.85,0,0,1,616.19,193.62Zm0-18.2a6.38,6.38,0,0,1-4.82,2,6.83,6.83,0,0,1-6.91-6.92,6.47,6.47,0,0,1,2-4.73,6.68,6.68,0,0,1,4.91-2,6.39,6.39,0,0,1,4.82,2,6.63,6.63,0,0,1,1.91,4.73A6.85,6.85,0,0,1,616.19,175.43Zm0-18.2a6.38,6.38,0,0,1-4.82,2,6.83,6.83,0,0,1-6.91-6.92,6.47,6.47,0,0,1,2-4.73,6.68,6.68,0,0,1,4.91-2,6.39,6.39,0,0,1,4.82,2,6.63,6.63,0,0,1,1.91,4.73A6.85,6.85,0,0,1,616.19,157.23Zm0-18.2a6.38,6.38,0,0,1-4.82,2,6.83,6.83,0,0,1-6.91-6.92,6.47,6.47,0,0,1,2-4.73,6.68,6.68,0,0,1,4.91-2,6.39,6.39,0,0,1,4.82,2,6.63,6.63,0,0,1,1.91,4.73A6.85,6.85,0,0,1,616.19,139Zm0-18.2a6.38,6.38,0,0,1-4.82,2,6.83,6.83,0,0,1-6.91-6.92,6.47,6.47,0,0,1,2-4.73,6.68,6.68,0,0,1,4.91-2,6.39,6.39,0,0,1,4.82,2,6.63,6.63,0,0,1,1.91,4.73A6.85,6.85,0,0,1,616.19,120.83Zm18.19,417.45a6.38,6.38,0,0,1-4.82,2,6.84,6.84,0,0,1-6.91-6.92,6.47,6.47,0,0,1,2-4.73,6.68,6.68,0,0,1,4.91-2,6.39,6.39,0,0,1,4.82,2,6.62,6.62,0,0,1,1.91,4.73A6.85,6.85,0,0,1,634.39,538.28Zm0-72.8a6.38,6.38,0,0,1-4.82,2,6.84,6.84,0,0,1-6.91-6.92,6.47,6.47,0,0,1,2-4.73,6.68,6.68,0,0,1,4.91-2,6.39,6.39,0,0,1,4.82,2,6.62,6.62,0,0,1,1.91,4.73A6.84,6.84,0,0,1,634.39,465.49Zm0-54.6a6.38,6.38,0,0,1-4.82,2,6.84,6.84,0,0,1-6.91-6.92,6.47,6.47,0,0,1,2-4.73,6.68,6.68,0,0,1,4.91-2,6.39,6.39,0,0,1,4.82,2A6.63,6.63,0,0,1,636.3,406,6.84,6.84,0,0,1,634.39,410.89Zm0-162.67a6.38,6.38,0,0,1-4.82,2,6.84,6.84,0,0,1-6.91-6.92,6.46,6.46,0,0,1,2-4.73,6.68,6.68,0,0,1,4.91-2,6.38,6.38,0,0,1,4.82,2,6.62,6.62,0,0,1,1.91,4.73A6.85,6.85,0,0,1,634.39,248.22Zm0-72.8a6.38,6.38,0,0,1-4.82,2,6.84,6.84,0,0,1-6.91-6.92,6.47,6.47,0,0,1,2-4.73,6.68,6.68,0,0,1,4.91-2,6.39,6.39,0,0,1,4.82,2,6.62,6.62,0,0,1,1.91,4.73A6.84,6.84,0,0,1,634.39,175.43Zm0-54.6a6.38,6.38,0,0,1-4.82,2,6.84,6.84,0,0,1-6.91-6.92,6.47,6.47,0,0,1,2-4.73,6.68,6.68,0,0,1,4.91-2,6.39,6.39,0,0,1,4.82,2,6.63,6.63,0,0,1,1.91,4.73A6.84,6.84,0,0,1,634.39,120.83Zm18.2,417.45a6.39,6.39,0,0,1-4.82,2,6.84,6.84,0,0,1-6.91-6.92,6.47,6.47,0,0,1,2-4.73,6.68,6.68,0,0,1,4.91-2,6.39,6.39,0,0,1,4.82,2,6.63,6.63,0,0,1,1.91,4.73A6.85,6.85,0,0,1,652.58,538.28Zm0-72.8a6.38,6.38,0,0,1-4.82,2,6.84,6.84,0,0,1-6.91-6.92,6.47,6.47,0,0,1,2-4.73,6.68,6.68,0,0,1,4.91-2,6.39,6.39,0,0,1,4.82,2,6.63,6.63,0,0,1,1.91,4.73A6.85,6.85,0,0,1,652.58,465.49Zm0-54.6a6.38,6.38,0,0,1-4.82,2,6.84,6.84,0,0,1-6.91-6.92,6.47,6.47,0,0,1,2-4.73,6.68,6.68,0,0,1,4.91-2,6.39,6.39,0,0,1,4.82,2,6.63,6.63,0,0,1,1.91,4.73A6.85,6.85,0,0,1,652.58,410.89Zm0-162.67a6.39,6.39,0,0,1-4.82,2,6.84,6.84,0,0,1-6.91-6.92,6.46,6.46,0,0,1,2-4.73,6.68,6.68,0,0,1,4.91-2,6.39,6.39,0,0,1,4.82,2,6.63,6.63,0,0,1,1.91,4.73A6.85,6.85,0,0,1,652.58,248.22Zm0-72.8a6.38,6.38,0,0,1-4.82,2,6.84,6.84,0,0,1-6.91-6.92,6.47,6.47,0,0,1,2-4.73,6.68,6.68,0,0,1,4.91-2,6.39,6.39,0,0,1,4.82,2,6.63,6.63,0,0,1,1.91,4.73A6.85,6.85,0,0,1,652.58,175.43Zm0-54.6a6.38,6.38,0,0,1-4.82,2,6.84,6.84,0,0,1-6.91-6.92,6.47,6.47,0,0,1,2-4.73,6.68,6.68,0,0,1,4.91-2,6.39,6.39,0,0,1,4.82,2,6.63,6.63,0,0,1,1.91,4.73A6.84,6.84,0,0,1,652.58,120.83ZM670.5,537.74a6.69,6.69,0,0,1-4.91,2,6.84,6.84,0,0,1-6.73-6.73,6.68,6.68,0,0,1,2-4.91,6.47,6.47,0,0,1,4.73-2,6.84,6.84,0,0,1,6.91,6.92A6.48,6.48,0,0,1,670.5,537.74Zm.27-72.25a6.38,6.38,0,0,1-4.82,2,6.83,6.83,0,0,1-6.91-6.92,6.46,6.46,0,0,1,2-4.73,6.68,6.68,0,0,1,4.91-2,6.39,6.39,0,0,1,4.82,2,6.63,6.63,0,0,1,1.91,4.73A6.85,6.85,0,0,1,670.78,465.49ZM658.86,242.94a6.68,6.68,0,0,1,2-4.91,6.47,6.47,0,0,1,4.73-2,6.84,6.84,0,0,1,6.91,6.92,6.48,6.48,0,0,1-2,4.73,6.69,6.69,0,0,1-4.91,2,6.84,6.84,0,0,1-6.73-6.73Zm11.83,169.58a6.46,6.46,0,0,1-4.73,2,6.67,6.67,0,0,1-4.91-2,6.46,6.46,0,0,1-2-4.73,6.83,6.83,0,0,1,6.91-6.92,6.47,6.47,0,0,1,4.73,2,6.69,6.69,0,0,1,2,4.91A6.47,6.47,0,0,1,670.69,412.53Zm.09-237.1a6.38,6.38,0,0,1-4.82,2,6.83,6.83,0,0,1-6.91-6.92,6.46,6.46,0,0,1,2-4.73,6.68,6.68,0,0,1,4.91-2,6.39,6.39,0,0,1,4.82,2,6.63,6.63,0,0,1,1.91,4.73A6.85,6.85,0,0,1,670.78,175.43Zm-.09-53a6.46,6.46,0,0,1-4.73,2,6.67,6.67,0,0,1-4.91-2,6.46,6.46,0,0,1-2-4.73,6.83,6.83,0,0,1,6.91-6.92,6.47,6.47,0,0,1,4.73,2,6.69,6.69,0,0,1,2,4.91A6.47,6.47,0,0,1,670.69,122.47Zm5.64,289.88a6.47,6.47,0,0,1,4.73-2,6.84,6.84,0,0,1,6.91,6.92,6.47,6.47,0,0,1-2,4.73,6.68,6.68,0,0,1-4.91,2,6.84,6.84,0,0,1-6.73-6.73A6.68,6.68,0,0,1,676.33,412.34Zm.18,33.49a6.68,6.68,0,0,1,4.91-2,6.84,6.84,0,0,1,6.73,6.73,6.68,6.68,0,0,1-2,4.91,6.46,6.46,0,0,1-4.73,2,6.84,6.84,0,0,1-6.91-6.92A6.46,6.46,0,0,1,676.51,445.83Zm11.1,86.26a6.46,6.46,0,0,1-4.73,2,6.67,6.67,0,0,1-4.91-2,6.46,6.46,0,0,1-2-4.73,6.83,6.83,0,0,1,6.91-6.92,6.47,6.47,0,0,1,4.73,2,6.69,6.69,0,0,1,2,4.91A6.47,6.47,0,0,1,687.61,532.09Zm13.1-12.19a6.46,6.46,0,0,1-4.73,2,6.84,6.84,0,0,1-6.91-6.92,6.47,6.47,0,0,1,2-4.73,6.68,6.68,0,0,1,4.91-2,6.84,6.84,0,0,1,6.73,6.73A6.68,6.68,0,0,1,700.71,519.9Zm4.91-17.47a6.47,6.47,0,0,1-4.73,2,6.67,6.67,0,0,1-4.91-2,6.46,6.46,0,0,1-2-4.73,6.84,6.84,0,0,1,6.91-6.92,6.48,6.48,0,0,1,4.73,2,6.7,6.7,0,0,1,2,4.91A6.47,6.47,0,0,1,705.62,502.43Zm0-290.06a6.46,6.46,0,0,1-4.73,2,6.67,6.67,0,0,1-4.91-2,6.46,6.46,0,0,1-2-4.73,6.84,6.84,0,0,1,6.91-6.92,6.48,6.48,0,0,1,4.73,2,6.69,6.69,0,0,1,2,4.91A6.47,6.47,0,0,1,705.62,212.37Z" style="fill:none;stroke:red;stroke-miterlimit:10;stroke-width:0.028346456587315px"/><rect x="798.52" y="35.12" width="170.08" height="728.24" style="fill:none;stroke:red;stroke-miterlimit:10;stroke-width:0.028346456587315px"/><rect x="984.19" y="35.12" width="170.08" height="728.24" style="fill:none;stroke:red;stroke-miterlimit:10;stroke-width:0.028346456587315px"/><path d="M62.77,636.69V806.77H647.85V636.69ZM191.1,768.3c-3.17,11.89-9.59,18.64-9.86,18.92a5,5,0,1,1-7.2-6.94c.81-.85,19.94-21.8-.69-56.32-22.79-38.12-.44-64.45.53-65.55a5,5,0,0,1,7.55,6.56c-.78.91-18.43,22.18.51,53.86C194.71,740.22,194,757.54,191.1,768.3Zm24.76,0c-3.17,11.89-9.59,18.64-9.86,18.92a5,5,0,1,1-7.2-6.94c.81-.85,19.94-21.8-.69-56.32-22.79-38.12-.44-64.45.53-65.55a5,5,0,0,1,7.55,6.56c-.78.91-18.43,22.18.51,53.86C219.47,740.22,218.72,757.54,215.85,768.3Zm24.76,0c-3.17,11.89-9.59,18.64-9.86,18.92a5,5,0,1,1-7.2-6.94c.81-.85,19.94-21.8-.69-56.32-22.79-38.12-.44-64.45.53-65.55a5,5,0,0,1,7.55,6.56c-.78.91-18.43,22.18.51,53.86C244.22,740.22,243.48,757.54,240.61,768.3Zm24.76,0c-3.17,11.89-9.59,18.64-9.86,18.92a5,5,0,1,1-7.2-6.94c.81-.85,19.94-21.8-.69-56.32-22.79-38.12-.44-64.45.53-65.55a5,5,0,0,1,7.55,6.56c-.78.91-18.43,22.18.51,53.86C269,740.22,268.24,757.54,265.36,768.3Zm24.76,0c-3.17,11.89-9.59,18.64-9.86,18.92a5,5,0,1,1-7.2-6.94c.81-.85,19.94-21.8-.69-56.32-22.79-38.12-.44-64.45.53-65.55a5,5,0,0,1,7.55,6.56c-.78.91-18.43,22.18.51,53.86C293.73,740.22,293,757.54,290.12,768.3Zm24.76,0c-3.17,11.89-9.59,18.64-9.86,18.92a5,5,0,1,1-7.2-6.94c.81-.85,19.94-21.8-.69-56.32-22.79-38.12-.44-64.45.53-65.55A5,5,0,0,1,305.2,665c-.78.91-18.43,22.18.51,53.86C318.49,740.22,317.75,757.54,314.87,768.3Zm24.76,0c-3.17,11.89-9.59,18.64-9.86,18.92a5,5,0,1,1-7.2-6.94c.81-.85,19.94-21.8-.69-56.32-22.79-38.12-.44-64.45.53-65.55A5,5,0,0,1,330,665c-.78.91-18.43,22.18.51,53.86C343.24,740.22,342.5,757.54,339.63,768.3Zm55.71,19.05a5,5,0,0,1-7.07-.13c-.27-.28-6.69-7-9.86-18.92-2.87-10.76-3.61-28.09,9.17-49.47,18.94-31.68,1.29-52.94.51-53.86a5,5,0,0,1,7.55-6.56c1,1.1,23.31,27.42.53,65.55-20.63,34.52-1.5,55.47-.69,56.32A5,5,0,0,1,395.34,787.36Zm24.76,0a5,5,0,0,1-7.07-.13c-.27-.28-6.69-7-9.86-18.92-2.87-10.76-3.61-28.09,9.17-49.47,18.94-31.68,1.29-52.94.51-53.86a5,5,0,0,1,7.55-6.56c1,1.1,23.31,27.42.53,65.55-20.63,34.52-1.5,55.47-.69,56.32A5,5,0,0,1,420.09,787.36Zm24.76,0a5,5,0,0,1-7.07-.13c-.27-.28-6.69-7-9.86-18.92-2.87-10.76-3.61-28.09,9.17-49.47,18.94-31.68,1.29-52.94.51-53.86a5,5,0,0,1,7.55-6.56c1,1.1,23.31,27.42.53,65.55-20.63,34.52-1.5,55.47-.69,56.32A5,5,0,0,1,444.85,787.36Zm24.76,0a5,5,0,0,1-7.07-.13c-.27-.28-6.69-7-9.86-18.92-2.87-10.76-3.61-28.09,9.17-49.47,18.94-31.68,1.29-52.94.51-53.86a5,5,0,0,1,7.55-6.56c1,1.1,23.31,27.42.53,65.55-20.63,34.52-1.5,55.47-.69,56.32A5,5,0,0,1,469.61,787.36Zm24.76,0a5,5,0,0,1-7.07-.13c-.27-.28-6.69-7-9.86-18.92-2.87-10.76-3.61-28.09,9.17-49.47,18.94-31.68,1.29-52.94.51-53.86a5,5,0,0,1,7.55-6.56c1,1.1,23.31,27.42.53,65.55-20.63,34.52-1.5,55.47-.69,56.32A5,5,0,0,1,494.36,787.36Zm24.76,0a5,5,0,0,1-7.07-.13c-.27-.28-6.69-7-9.86-18.92-2.87-10.76-3.61-28.09,9.17-49.47,18.94-31.68,1.29-52.94.51-53.86a5,5,0,0,1,7.55-6.56c1,1.1,23.31,27.42.53,65.55-20.63,34.52-1.5,55.47-.69,56.32A5,5,0,0,1,519.12,787.36ZM544,780.29a5,5,0,1,1-7.2,6.94c-.27-.28-6.69-7-9.86-18.92-2.87-10.76-3.61-28.09,9.17-49.47,18.94-31.68,1.29-52.94.51-53.86a5,5,0,0,1,7.55-6.56c1,1.1,23.31,27.42.53,65.55C524.06,758.48,543.2,779.43,544,780.29Z" style="fill:none;stroke:red;stroke-miterlimit:10;stroke-width:0.028346456587315px"/></g></g></svg>