<?xml version="1.0" encoding="utf-8"?>
<!-- Generator: Adobe Illustrator 20.1.0, SVG Export Plug-In . SVG Version: 6.00 Build 0)  -->
<svg version="1.1" id="Calque_1" xmlns="http://www.w3.org/2000/svg" xmlns:xlink="http://www.w3.org/1999/xlink" x="0px" y="0px"
	 viewBox="0 0 1190.6 841.9" style="enable-background:new 0 0 1190.6 841.9;" xml:space="preserve">
<style type="text/css">
	.st0{fill:none;stroke:#FF0000;stroke-width:0.1;stroke-miterlimit:10;}
	.st1{fill:none;stroke:#000000;stroke-miterlimit:10;}
</style>
<title>Afficheur-Led</title>
<g id="Calque_31">
	<rect x="632.5" y="390.3" class="st0" width="45.7" height="96.4"/>
	<path class="st0" d="M640.8,608.9l-16.7-14.2l-1.1-0.9c-1.7,0.9-3.3,2.1-4.6,3.6c-1.4,1.7-2.5,3.6-3.3,5.7L604.9,615l-3.8-3.2
		l18.1-21.2L710,483.7l22.5-26.5l21.6,18.4l74.9-88.2l-64.8-55.1l-11.7,13.8l0.7,0.5l3.6,3c13.5,11.5,15.2,31.8,3.7,45.4
		L546.6,646.6c-11.5,13.5-31.8,15.1-45.3,3.7l-3.6-3l-0.6-0.5l-11.7,13.8l64.8,55.1L640.8,608.9z M775.2,421c1.5-1.8,4.2-2,6-0.5
		c1.8,1.5,2,4.2,0.5,6c-1.5,1.8-4.2,2-6,0.5C773.9,425.5,773.7,422.8,775.2,421C775.2,421,775.2,421,775.2,421z M757,443.1
		c1.5-1.8,4.2-2,6-0.5c1.8,1.5,2,4.2,0.5,6c-1.5,1.8-4.2,2-6,0.5C755.7,447.6,755.5,444.9,757,443.1C757,443.1,757,443.1,757,443.1z
		"/>
	<path class="st0" d="M833.3,574.9h-23.4c-0.7,1.8-1.1,3.8-1.1,5.7c0.1,2.2,0.4,4.4,1.1,6.5v15.7h-5V499.5h-19v165.1
		c0,17.7-14.4,32.1-32.2,32.2H749h-0.8v18.1h85L833.3,574.9z"/>
	<path class="st0" d="M638.5,362.9h-34.8v-28.3H488.1v85h18.1c0-0.3,0-0.5,0-0.8v-4.7c0-17.7,14.4-32.1,32.2-32.2h165.1v-19H638.5z
		 M548.5,353.8c-2.3,0-4.2-1.9-4.2-4.2s1.9-4.2,4.2-4.2s4.2,1.9,4.2,4.2C552.8,351.8,550.9,353.7,548.5,353.8L548.5,353.8z
		 M577.2,353.4c-2.3,0-4.2-1.9-4.2-4.2s1.9-4.2,4.2-4.2s4.2,1.9,4.2,4.2C581.4,351.5,579.5,353.4,577.2,353.4L577.2,353.4z"/>
	<path class="st0" d="M514.3,462.7v34.8H486v115.7h85v-18.1h-0.8h-4.7c-17.7,0-32.1-14.4-32.2-32.2V397.8h-19L514.3,462.7z
		 M505.2,552.7c0,2.3-1.9,4.2-4.2,4.2s-4.2-1.9-4.2-4.2s1.9-4.2,4.2-4.2C503.2,548.5,505.1,550.4,505.2,552.7L505.2,552.7z
		 M504.8,524c0,2.3-1.9,4.2-4.2,4.2s-4.2-1.9-4.2-4.2s1.9-4.2,4.2-4.2S504.8,521.7,504.8,524L504.8,524z"/>
	<path class="st0" d="M960,533.5h-23.4c-0.7,1.8-1.1,3.8-1.1,5.7c0.1,2.2,0.4,4.4,1.1,6.5v15.7h-5V358.5H960V242.8h-85v18.1h0.8h4.7
		c17.7,0,32.1,14.4,32.2,32.2v330.2c0,17.7-14.4,32.1-32.2,32.2h-4.7H875v18.1h85V533.5z M940.8,303.3c0-2.3,1.9-4.2,4.2-4.2
		s4.2,1.9,4.2,4.2s-1.9,4.2-4.2,4.2S940.8,305.7,940.8,303.3L940.8,303.3z M941.1,332c0-2.3,1.9-4.2,4.2-4.2s4.2,1.9,4.2,4.2
		s-1.9,4.2-4.2,4.2l0,0C943,336.2,941.1,334.3,941.1,332L941.1,332z"/>
	<path class="st0" d="M626.5,390.1c-25,0.2-33.6,8.3-33.6,34.4c0,26.3,5.3,32.7,5.3,64.7h5V505c-0.9,2-1.4,4.1-1.4,6.2
		c0,2,0.4,4,1.4,5.8h23.4L626.5,390.1z M607.4,414.1c0-2.3,1.9-4.2,4.2-4.2s4.2,1.9,4.2,4.2s-1.9,4.2-4.2,4.2
		S607.4,416.5,607.4,414.1C607.4,414.1,607.4,414.1,607.4,414.1L607.4,414.1z M607.7,442.8c0-2.3,1.9-4.3,4.2-4.3s4.3,1.9,4.3,4.2
		c0,2.3-1.9,4.2-4.2,4.3C609.7,447,607.7,445.1,607.7,442.8C607.7,442.8,607.7,442.8,607.7,442.8L607.7,442.8z"/>
	<path class="st0" d="M580.8,393.6c-25,0.2-33.6,8.3-33.6,34.4c0,26.3,5.3,32.7,5.3,64.7h5v15.8c-0.9,2-1.4,4.1-1.4,6.2
		c0,2,0.4,4,1.4,5.8h23.4L580.8,393.6z M561.6,417.6c0-2.3,1.9-4.2,4.2-4.2s4.2,1.9,4.2,4.2s-1.9,4.2-4.2,4.2S561.6,420,561.6,417.6
		C561.6,417.6,561.6,417.6,561.6,417.6L561.6,417.6z M562,446.3c0-2.3,1.9-4.2,4.2-4.2s4.2,1.9,4.2,4.2s-1.9,4.2-4.2,4.2
		C563.9,450.5,562,448.6,562,446.3L562,446.3z"/>
	<path class="st0" d="M774,649.5h-23.3c-0.7-1.8-1.1-3.8-1.1-5.7c0.1-2.2,0.4-4.4,1.1-6.5v-15.7h-5v103.2h-19V559.8
		c0-17.7-14.4-32.1-32.2-32.2h-4.7H689v-18.1h85L774,649.5z"/>
	<path class="st1" d="M45,269.1h34.6c6.6,0,12,5.4,12,12v73.6c0,6.6-5.4,12-12,12H45c-6.6,0-12-5.4-12-12v-73.6
		C33,274.5,38.4,269.1,45,269.1z"/>
	<path d="M33,317.9v36.6c0,6.7,5.5,12.1,12.2,12.2h34.2c6.7,0,12.1-5.5,12.2-12.2v-36.6H33z"/>
	<path d="M58.3,283c-0.6,0-1.2,0-1.7,0.1c-3.1,0.4-5.5,2.9-5.9,6h0.1c1-1.3,2.5-2,4.1-2c3,0,5.1,2.2,5.1,5.5c0.2,3.1-2.2,5.8-5.4,6
		c-0.1,0-0.2,0-0.3,0c-3.6,0-6-2.8-6-7.2c-0.1-2.8,0.9-5.6,2.9-7.7c1.5-1.4,3.4-2.3,5.4-2.5c0.6-0.1,1.1-0.1,1.7-0.1L58.3,283z
		 M57.6,292.8c0-2.4-1.4-3.9-3.5-3.9c-1.4,0-2.7,0.8-3.3,2.1c-0.2,0.3-0.3,0.6-0.3,1c0,2.8,1.3,4.9,3.7,4.9
		C56.3,296.9,57.6,295.3,57.6,292.8L57.6,292.8z"/>
	<path d="M65.7,292.9l-1.8,5.5h-2.3l6-17.6h2.7l6,17.6h-2.4l-1.9-5.5H65.7z M71.4,291.1l-1.7-5.1c-0.4-1.1-0.7-2.2-0.9-3.2h-0.1
		c-0.3,1-0.6,2.1-0.9,3.2l-1.7,5.1L71.4,291.1z"/>
	<circle class="st0" cx="62.3" cy="317.9" r="8.5"/>
	<circle class="st0" cx="62.3" cy="366.7" r="6.8"/>
	<path class="st1" d="M123,269.1h34.6c6.6,0,12,5.4,12,12v73.6c0,6.6-5.4,12-12,12H123c-6.6,0-12-5.4-12-12v-73.6
		C111,274.5,116.4,269.1,123,269.1z"/>
	<path d="M111,317.9v36.6c0,6.7,5.5,12.1,12.2,12.2h34.2c6.7,0,12.1-5.5,12.2-12.2v-36.6H111z"/>
	<path d="M136.3,283c-0.6,0-1.2,0-1.7,0.1c-3.1,0.4-5.5,2.9-5.9,6h0.1c1-1.3,2.5-2,4.1-2c3,0,5.1,2.2,5.1,5.5c0.2,3.1-2.2,5.8-5.4,6
		c-0.1,0-0.2,0-0.3,0c-3.6,0-6-2.8-6-7.2c-0.1-2.8,0.9-5.6,2.9-7.7c1.5-1.4,3.4-2.3,5.4-2.5c0.6-0.1,1.1-0.1,1.7-0.1L136.3,283z
		 M135.6,292.8c0-2.4-1.4-3.9-3.5-3.9c-1.4,0-2.7,0.8-3.3,2.1c-0.2,0.3-0.3,0.6-0.3,1c0.1,2.8,1.3,4.9,3.7,4.9
		C134.3,296.9,135.6,295.3,135.6,292.8L135.6,292.8z"/>
	<path d="M140.8,281c1.4-0.3,2.8-0.4,4.2-0.4c2.3,0,3.7,0.4,4.8,1.3c1,0.7,1.5,1.9,1.5,3.1c-0.1,1.8-1.3,3.4-3,3.9v0.1
		c2.1,0.4,3.6,2.3,3.6,4.4c0,1.3-0.5,2.6-1.5,3.5c-1.2,1.1-3.2,1.6-6.1,1.6c-1.2,0-2.4-0.1-3.5-0.2L140.8,281z M143.1,288.2h2.1
		c2.4,0,3.8-1.3,3.8-3c0-2.1-1.6-2.9-3.9-2.9c-0.7,0-1.3,0-2,0.2L143.1,288.2z M143.1,296.7c0.6,0.1,1.3,0.1,1.9,0.1
		c2.4,0,4.5-0.9,4.5-3.4c0-2.4-2.1-3.4-4.6-3.4h-1.9V296.7z"/>
	<circle class="st0" cx="140.3" cy="317.9" r="8.5"/>
	<circle class="st0" cx="140.3" cy="366.7" r="6.8"/>
	<path class="st1" d="M201,269.1h34.6c6.6,0,12,5.4,12,12v73.6c0,6.6-5.4,12-12,12H201c-6.6,0-12-5.4-12-12v-73.6
		C189,274.5,194.4,269.1,201,269.1z"/>
	<path d="M189,317.9v36.6c0,6.7,5.5,12.1,12.2,12.2h34.2c6.7,0,12.1-5.5,12.2-12.2v-36.6H189z"/>
	<path d="M214.3,283c-0.6,0-1.2,0-1.7,0.1c-3.1,0.4-5.5,2.9-5.9,6h0.1c1-1.3,2.5-2,4.1-2c3,0,5.1,2.2,5.1,5.5c0.2,3.1-2.2,5.8-5.4,6
		c-0.1,0-0.2,0-0.3,0c-3.6,0-6-2.8-6-7.2c-0.1-2.8,0.9-5.6,2.9-7.7c1.5-1.4,3.4-2.3,5.4-2.5c0.6-0.1,1.1-0.1,1.7-0.1L214.3,283z
		 M213.6,292.8c0-2.4-1.4-3.9-3.5-3.9c-1.4,0-2.7,0.8-3.3,2.1c-0.2,0.3-0.3,0.6-0.3,1c0.1,2.8,1.3,4.9,3.7,4.9
		C212.3,296.9,213.6,295.3,213.6,292.8L213.6,292.8z"/>
	<path d="M231.1,297.8c-1.5,0.6-3.1,0.9-4.7,0.8c-5,0-8.7-3.1-8.7-8.9c0-5.5,3.7-9.3,9.2-9.3c1.4-0.1,2.9,0.2,4.2,0.8l-0.6,1.9
		c-1.1-0.5-2.3-0.8-3.6-0.7c-4.1,0-6.9,2.6-6.9,7.3c0,4.3,2.5,7.1,6.8,7.1c1.3,0,2.5-0.2,3.7-0.7L231.1,297.8z"/>
	<circle class="st0" cx="218.3" cy="317.9" r="8.5"/>
	<circle class="st0" cx="218.3" cy="366.7" r="6.8"/>
	<path class="st1" d="M279,269.1h34.6c6.6,0,12,5.4,12,12v73.6c0,6.6-5.4,12-12,12H279c-6.6,0-12-5.4-12-12v-73.6
		C267,274.5,272.4,269.1,279,269.1z"/>
	<path d="M267,317.9v36.6c0,6.7,5.5,12.1,12.2,12.2h34.2c6.7,0,12.1-5.5,12.2-12.2v-36.6H267z"/>
	<path d="M292.3,283c-0.6,0-1.2,0-1.7,0.1c-3.1,0.4-5.5,2.9-5.9,6h0.1c1-1.3,2.5-2,4.1-2c3,0,5.1,2.2,5.1,5.5c0.2,3.1-2.2,5.8-5.4,6
		c-0.1,0-0.2,0-0.3,0c-3.6,0-6-2.8-6-7.2c-0.1-2.8,0.9-5.6,2.9-7.7c1.5-1.4,3.4-2.3,5.4-2.5c0.6-0.1,1.1-0.1,1.7-0.1L292.3,283z
		 M291.6,292.8c0-2.4-1.4-3.9-3.5-3.9c-1.4,0-2.7,0.8-3.3,2.1c-0.2,0.3-0.3,0.6-0.3,1c0,2.8,1.3,4.9,3.7,4.9
		C290.3,296.9,291.6,295.3,291.6,292.8L291.6,292.8z"/>
	<path d="M296.8,281c1.6-0.2,3.2-0.4,4.8-0.4c3.3,0,5.6,0.8,7.1,2.2c1.7,1.6,2.6,4,2.5,6.3c0.1,2.5-0.8,5-2.5,6.9
		c-1.6,1.6-4.4,2.5-7.8,2.5c-1.4,0-2.8-0.1-4.1-0.2V281z M299.1,296.6c0.8,0.1,1.5,0.1,2.3,0.1c4.9,0,7.5-2.7,7.5-7.5
		c0-4.2-2.3-6.8-7.1-6.8c-0.9,0-1.8,0.1-2.7,0.2L299.1,296.6z"/>
	<circle class="st0" cx="296.3" cy="317.9" r="8.5"/>
	<circle class="st0" cx="296.3" cy="366.7" r="6.8"/>
	<path class="st1" d="M357,269.1h34.6c6.6,0,12,5.4,12,12v73.6c0,6.6-5.4,12-12,12H357c-6.6,0-12-5.4-12-12v-73.6
		C345,274.5,350.4,269.1,357,269.1z"/>
	<path d="M345,317.9v36.6c0,6.7,5.5,12.1,12.2,12.2h34.2c6.7,0,12.1-5.5,12.2-12.2v-36.6H345z"/>
	<path d="M370.3,283c-0.6,0-1.2,0-1.7,0.1c-3.1,0.4-5.5,2.9-5.9,6h0.1c1-1.3,2.5-2,4.1-2c3,0,5.1,2.2,5.1,5.5c0.2,3.1-2.2,5.8-5.4,6
		c-0.1,0-0.2,0-0.3,0c-3.6,0-6-2.8-6-7.2c-0.1-2.8,0.9-5.6,2.9-7.7c1.5-1.4,3.4-2.3,5.4-2.5c0.6-0.1,1.1-0.1,1.7-0.1L370.3,283z
		 M369.6,292.8c0-2.4-1.4-3.9-3.5-3.9c-1.4,0-2.7,0.8-3.3,2.1c-0.2,0.3-0.3,0.6-0.3,1c0,2.8,1.3,4.9,3.7,4.9
		C368.3,296.9,369.6,295.3,369.6,292.8L369.6,292.8z"/>
	<path d="M383.9,290.1h-6.9v6.4h7.6v1.9h-9.9v-17.6h9.5v1.9h-7.2v5.6h6.9V290.1z"/>
	<circle class="st0" cx="374.3" cy="317.9" r="8.5"/>
	<circle class="st0" cx="374.3" cy="366.7" r="6.8"/>
	<path class="st1" d="M45,412.1h34.6c6.6,0,12,5.4,12,12v73.6c0,6.6-5.4,12-12,12H45c-6.6,0-12-5.4-12-12v-73.6
		C33,417.5,38.4,412.1,45,412.1z"/>
	<path d="M33,460.9v36.6c0,6.7,5.5,12.1,12.2,12.2h34.2c6.7,0,12.1-5.5,12.2-12.2v-36.6H33z"/>
	<path d="M58.7,426.4h-6.5l-0.7,4.4c0.5-0.1,0.9-0.1,1.4-0.1c1.3,0,2.5,0.3,3.7,0.9c1.6,0.9,2.5,2.6,2.4,4.4c0,3.3-2.6,5.8-6.3,5.8
		c-1.5,0-2.9-0.3-4.2-1l0.6-1.8c1.1,0.6,2.4,0.9,3.6,0.9c2.1,0.1,3.9-1.4,4-3.5c0-0.1,0-0.1,0-0.2c0-2.2-1.5-3.8-4.9-3.8
		c-0.8,0-1.6,0.1-2.3,0.2l1.1-8.2h8.1L58.7,426.4z"/>
	<path d="M65.7,435.9l-1.8,5.5h-2.3l6-17.6h2.7l6,17.6h-2.4l-1.9-5.5H65.7z M71.4,434.1l-1.7-5.1c-0.4-1.1-0.7-2.2-0.9-3.2h-0.1
		c-0.3,1-0.6,2.1-0.9,3.2l-1.7,5.1L71.4,434.1z"/>
	<circle class="st0" cx="62.3" cy="460.9" r="8.5"/>
	<circle class="st0" cx="62.3" cy="509.7" r="6.8"/>
	<path class="st1" d="M123,412.1h34.6c6.6,0,12,5.4,12,12v73.6c0,6.6-5.4,12-12,12H123c-6.6,0-12-5.4-12-12v-73.6
		C111,417.5,116.4,412.1,123,412.1z"/>
	<path d="M111,460.9v36.6c0,6.7,5.5,12.1,12.2,12.2h34.2c6.7,0,12.1-5.5,12.2-12.2v-36.6H111z"/>
	<path d="M136.7,426.4h-6.5l-0.6,4.4c0.5-0.1,0.9-0.1,1.4-0.1c1.3,0,2.5,0.3,3.7,0.9c1.6,0.9,2.5,2.6,2.4,4.4c0,3.3-2.6,5.8-6.3,5.8
		c-1.5,0-2.9-0.3-4.2-1l0.6-1.8c1.1,0.6,2.4,0.9,3.6,0.9c2.1,0.1,3.9-1.4,4-3.5c0-0.1,0-0.1,0-0.2c0-2.2-1.5-3.8-4.9-3.8
		c-0.8,0-1.6,0.1-2.3,0.2l1.1-8.2h8.1L136.7,426.4z"/>
	<path d="M140.8,424c1.4-0.3,2.8-0.4,4.2-0.4c2.3,0,3.7,0.4,4.8,1.3c1,0.7,1.5,1.9,1.5,3.1c-0.1,1.8-1.3,3.4-3,3.9v0.1
		c2.1,0.4,3.6,2.3,3.6,4.4c0,1.3-0.5,2.6-1.5,3.5c-1.2,1.1-3.2,1.6-6.1,1.6c-1.2,0-2.4-0.1-3.5-0.2L140.8,424z M143.1,431.2h2.1
		c2.4,0,3.8-1.2,3.8-3c0-2.1-1.6-2.9-3.9-2.9c-0.7,0-1.3,0-2,0.2L143.1,431.2z M143.1,439.7c0.6,0.1,1.3,0.1,1.9,0.1
		c2.4,0,4.5-0.9,4.5-3.4c0-2.4-2.1-3.4-4.6-3.4h-1.9V439.7z"/>
	<circle class="st0" cx="140.3" cy="460.9" r="8.5"/>
	<circle class="st0" cx="140.3" cy="509.7" r="6.8"/>
	<path class="st1" d="M201,412.1h34.6c6.6,0,12,5.4,12,12v73.6c0,6.6-5.4,12-12,12H201c-6.6,0-12-5.4-12-12v-73.6
		C189,417.5,194.4,412.1,201,412.1z"/>
	<path d="M189,460.9v36.6c0,6.7,5.5,12.1,12.2,12.2h34.2c6.7,0,12.1-5.5,12.2-12.2v-36.6H189z"/>
	<path d="M214.7,426.4h-6.5l-0.6,4.4c0.5-0.1,0.9-0.1,1.4-0.1c1.3,0,2.5,0.3,3.7,0.9c1.6,0.9,2.5,2.6,2.4,4.4c0,3.3-2.6,5.8-6.3,5.8
		c-1.5,0-2.9-0.3-4.2-1l0.6-1.8c1.1,0.6,2.4,0.9,3.6,0.9c2.1,0.1,3.9-1.4,4-3.5c0-0.1,0-0.1,0-0.2c0-2.2-1.5-3.8-4.9-3.8
		c-0.8,0-1.6,0.1-2.4,0.2l1.1-8.2h8.1L214.7,426.4z"/>
	<path d="M231.1,440.8c-1.5,0.6-3.1,0.9-4.7,0.8c-5,0-8.7-3.1-8.7-8.9c0-5.5,3.7-9.3,9.2-9.3c1.4-0.1,2.9,0.2,4.2,0.8l-0.6,1.9
		c-1.1-0.5-2.3-0.8-3.6-0.7c-4.1,0-6.9,2.6-6.9,7.3c0,4.3,2.5,7.1,6.8,7.1c1.3,0,2.5-0.2,3.7-0.7L231.1,440.8z"/>
	<circle class="st0" cx="218.3" cy="460.9" r="8.5"/>
	<circle class="st0" cx="218.3" cy="509.7" r="6.8"/>
	<path class="st1" d="M279,412.1h34.6c6.6,0,12,5.4,12,12v73.6c0,6.6-5.4,12-12,12H279c-6.6,0-12-5.4-12-12v-73.6
		C267,417.5,272.4,412.1,279,412.1z"/>
	<path d="M267,460.9v36.6c0,6.7,5.5,12.1,12.2,12.2h34.2c6.7,0,12.1-5.5,12.2-12.2v-36.6H267z"/>
	<path d="M292.7,426.4h-6.5l-0.6,4.4c0.5-0.1,0.9-0.1,1.4-0.1c1.3,0,2.5,0.3,3.7,0.9c1.6,0.9,2.5,2.6,2.4,4.4c0,3.3-2.6,5.8-6.3,5.8
		c-1.5,0-2.9-0.3-4.2-1l0.6-1.8c1.1,0.6,2.4,0.9,3.6,0.9c2.1,0.1,3.9-1.4,4-3.5c0-0.1,0-0.1,0-0.2c0-2.2-1.5-3.8-4.9-3.8
		c-0.8,0-1.6,0.1-2.4,0.2l1.1-8.2h8.1L292.7,426.4z"/>
	<path d="M296.8,424c1.6-0.2,3.2-0.4,4.8-0.4c3.3,0,5.6,0.8,7.1,2.2c1.7,1.6,2.6,4,2.5,6.3c0.1,2.5-0.8,5-2.5,6.9
		c-1.6,1.6-4.4,2.5-7.8,2.5c-1.4,0-2.8-0.1-4.1-0.2V424z M299.1,439.6c0.8,0.1,1.5,0.1,2.3,0.1c4.9,0,7.5-2.7,7.5-7.5
		c0-4.2-2.3-6.8-7.1-6.8c-0.9,0-1.8,0.1-2.7,0.2L299.1,439.6z"/>
	<circle class="st0" cx="296.3" cy="460.9" r="8.5"/>
	<circle class="st0" cx="296.3" cy="509.7" r="6.8"/>
	<path class="st1" d="M357,412.1h34.6c6.6,0,12,5.4,12,12v73.6c0,6.6-5.4,12-12,12H357c-6.6,0-12-5.4-12-12v-73.6
		C345,417.5,350.4,412.1,357,412.1z"/>
	<path d="M345,460.9v36.6c0,6.7,5.5,12.1,12.2,12.2h34.2c6.7,0,12.1-5.5,12.2-12.2v-36.6H345z"/>
	<path d="M370.7,426.4h-6.5l-0.6,4.4c0.5-0.1,0.9-0.1,1.4-0.1c1.3,0,2.5,0.3,3.7,0.9c1.6,0.9,2.5,2.6,2.4,4.4c0,3.3-2.6,5.8-6.3,5.8
		c-1.5,0-2.9-0.3-4.2-1l0.6-1.8c1.1,0.6,2.4,0.9,3.6,0.9c2.1,0.1,3.9-1.4,4-3.5c0-0.1,0-0.1,0-0.2c0-2.2-1.5-3.8-4.9-3.8
		c-0.8,0-1.6,0.1-2.4,0.2l1.1-8.2h8.1L370.7,426.4z"/>
	<path d="M383.9,433.1h-6.9v6.4h7.6v1.9h-9.9v-17.6h9.5v1.9h-7.2v5.6h6.9V433.1z"/>
	<circle class="st0" cx="374.3" cy="460.9" r="8.5"/>
	<circle class="st0" cx="374.3" cy="509.7" r="6.8"/>
	<path class="st1" d="M45,555.1h34.6c6.6,0,12,5.4,12,12v73.6c0,6.6-5.4,12-12,12H45c-6.6,0-12-5.4-12-12v-73.6
		C33,560.5,38.4,555.1,45,555.1z"/>
	<path d="M33,603.9v36.6c0,6.7,5.5,12.1,12.2,12.2h34.2c6.7,0,12.1-5.5,12.2-12.2v-36.6H33z"/>
	<path d="M55.7,584.4v-4.6h-7.9v-1.5l7.6-10.8h2.5V578h2.4v1.8h-2.4v4.6L55.7,584.4z M55.7,578v-5.7c0-0.9,0-1.8,0.1-2.7h-0.1
		c-0.5,1-0.9,1.7-1.4,2.5l-4.2,5.8v0.1L55.7,578z"/>
	<path d="M65.7,578.9l-1.8,5.5h-2.3l6-17.6h2.7l6,17.6h-2.4l-1.9-5.5H65.7z M71.4,577.1l-1.7-5.1c-0.4-1.2-0.7-2.2-0.9-3.2h-0.1
		c-0.3,1-0.6,2.1-0.9,3.2l-1.7,5.1L71.4,577.1z"/>
	<circle class="st0" cx="62.3" cy="603.9" r="8.5"/>
	<circle class="st0" cx="62.3" cy="652.7" r="6.8"/>
	<path class="st1" d="M123,555.1h34.6c6.6,0,12,5.4,12,12v73.6c0,6.6-5.4,12-12,12H123c-6.6,0-12-5.4-12-12v-73.6
		C111,560.5,116.4,555.1,123,555.1z"/>
	<path d="M111,603.9v36.6c0,6.7,5.5,12.1,12.2,12.2h34.2c6.7,0,12.1-5.5,12.2-12.2v-36.6H111z"/>
	<path d="M133.7,584.4v-4.6h-7.9v-1.5l7.6-10.8h2.5V578h2.4v1.8h-2.4v4.6L133.7,584.4z M133.7,578v-5.7c0-0.9,0-1.8,0.1-2.7h-0.1
		c-0.5,1-0.9,1.7-1.4,2.5l-4.2,5.8v0.1L133.7,578z"/>
	<path d="M140.8,567c1.4-0.3,2.8-0.4,4.2-0.4c2.3,0,3.7,0.4,4.8,1.3c1,0.7,1.5,1.9,1.5,3.1c-0.1,1.8-1.3,3.4-3,3.9v0.1
		c2.1,0.4,3.6,2.3,3.6,4.4c0,1.3-0.5,2.6-1.5,3.5c-1.2,1.1-3.2,1.7-6.1,1.7c-1.2,0-2.4-0.1-3.5-0.2L140.8,567z M143.1,574.2h2.1
		c2.4,0,3.8-1.2,3.8-3c0-2.1-1.6-2.9-3.9-2.9c-0.7,0-1.3,0-2,0.2L143.1,574.2z M143.1,582.7c0.6,0.1,1.3,0.1,1.9,0.1
		c2.4,0,4.5-0.9,4.5-3.4c0-2.4-2.1-3.4-4.6-3.4h-1.9V582.7z"/>
	<circle class="st0" cx="140.3" cy="603.9" r="8.5"/>
	<circle class="st0" cx="140.3" cy="652.7" r="6.8"/>
	<path class="st1" d="M201,555.1h34.6c6.6,0,12,5.4,12,12v73.6c0,6.6-5.4,12-12,12H201c-6.6,0-12-5.4-12-12v-73.6
		C189,560.5,194.4,555.1,201,555.1z"/>
	<path d="M189,603.9v36.6c0,6.7,5.5,12.1,12.2,12.2h34.2c6.7,0,12.1-5.5,12.2-12.2v-36.6H189z"/>
	<path d="M211.7,584.4v-4.6h-7.9v-1.5l7.6-10.8h2.5V578h2.4v1.8h-2.4v4.6L211.7,584.4z M211.7,578v-5.7c0-0.9,0-1.8,0.1-2.7h-0.1
		c-0.5,1-0.9,1.7-1.4,2.5l-4.2,5.8v0.1L211.7,578z"/>
	<path d="M231.1,583.8c-1.5,0.6-3.1,0.9-4.7,0.8c-5,0-8.7-3.1-8.7-8.9c0-5.5,3.7-9.3,9.2-9.3c1.4-0.1,2.9,0.2,4.2,0.8l-0.6,1.9
		c-1.1-0.5-2.3-0.8-3.6-0.7c-4.1,0-6.9,2.6-6.9,7.3c0,4.3,2.5,7.1,6.8,7.1c1.3,0,2.5-0.2,3.7-0.7L231.1,583.8z"/>
	<circle class="st0" cx="218.3" cy="603.9" r="8.5"/>
	<circle class="st0" cx="218.3" cy="652.7" r="6.8"/>
	<path class="st1" d="M279,555.1h34.6c6.6,0,12,5.4,12,12v73.6c0,6.6-5.4,12-12,12H279c-6.6,0-12-5.4-12-12v-73.6
		C267,560.5,272.4,555.1,279,555.1z"/>
	<path d="M267,603.9v36.6c0,6.7,5.5,12.1,12.2,12.2h34.2c6.7,0,12.1-5.5,12.2-12.2v-36.6H267z"/>
	<path d="M289.7,584.4v-4.6h-7.9v-1.5l7.6-10.8h2.5V578h2.4v1.8h-2.4v4.6L289.7,584.4z M289.7,578v-5.7c0-0.9,0-1.8,0.1-2.7h-0.1
		c-0.5,1-0.9,1.7-1.4,2.5l-4.2,5.8v0.1L289.7,578z"/>
	<path d="M296.8,567c1.6-0.2,3.2-0.4,4.8-0.4c3.3,0,5.6,0.8,7.1,2.2c1.7,1.6,2.6,4,2.5,6.3c0.1,2.5-0.8,5-2.5,6.8
		c-1.6,1.7-4.4,2.5-7.8,2.5c-1.4,0-2.8-0.1-4.1-0.2V567z M299.1,582.6c0.8,0.1,1.5,0.1,2.3,0.1c4.9,0,7.5-2.7,7.5-7.5
		c0-4.2-2.3-6.8-7.1-6.8c-0.9,0-1.8,0.1-2.7,0.2L299.1,582.6z"/>
	<circle class="st0" cx="296.3" cy="603.9" r="8.5"/>
	<circle class="st0" cx="296.3" cy="652.7" r="6.8"/>
	<path class="st1" d="M357,555.1h34.6c6.6,0,12,5.4,12,12v73.6c0,6.6-5.4,12-12,12H357c-6.6,0-12-5.4-12-12v-73.6
		C345,560.5,350.4,555.1,357,555.1z"/>
	<path d="M345,603.9v36.6c0,6.7,5.5,12.1,12.2,12.2h34.2c6.7,0,12.1-5.5,12.2-12.2v-36.6H345z"/>
	<path d="M367.7,584.4v-4.6h-7.9v-1.5l7.6-10.8h2.5V578h2.4v1.8h-2.4v4.6L367.7,584.4z M367.7,578v-5.7c0-0.9,0-1.8,0.1-2.7h-0.1
		c-0.5,1-0.9,1.7-1.4,2.5l-4.2,5.8v0.1L367.7,578z"/>
	<path d="M383.9,576.2h-6.9v6.4h7.6v1.9h-9.9v-17.6h9.5v1.9h-7.2v5.6h6.9V576.2z"/>
	<circle class="st0" cx="374.3" cy="603.9" r="8.5"/>
	<circle class="st0" cx="374.3" cy="652.7" r="6.8"/>
	<path class="st1" d="M45,698.1h34.6c6.6,0,12,5.4,12,12v73.6c0,6.6-5.4,12-12,12H45c-6.6,0-12-5.4-12-12v-73.6
		C33,703.5,38.4,698.1,45,698.1z"/>
	<path d="M33,746.9v36.6c0,6.7,5.5,12.1,12.2,12.2h34.2c6.7,0,12.1-5.5,12.2-12.2v-36.6H33z"/>
	<path d="M49.1,724.8c1.1,0.7,2.4,1,3.8,1.1c3,0,3.9-1.9,3.8-3.3c0-2.4-2.2-3.4-4.4-3.4h-1.3v-1.7h1.3c1.7,0,3.8-0.9,3.8-2.9
		c0-1.4-0.9-2.6-3-2.6c-1.2,0-2.4,0.4-3.4,1.1l-0.6-1.7c1.3-0.9,2.9-1.3,4.5-1.3c3.3,0,4.9,2,4.9,4c0,1.9-1.3,3.5-3.1,4v0
		c2.2,0.3,3.8,2.2,3.8,4.4c0,2.7-2.1,5.1-6.2,5.1c-1.5,0-3.1-0.4-4.4-1.2L49.1,724.8z"/>
	<path d="M65.7,721.9l-1.8,5.5h-2.3l6-17.6h2.7l6,17.6h-2.4l-1.9-5.5H65.7z M71.4,720.1l-1.7-5.1c-0.4-1.2-0.7-2.2-0.9-3.2h-0.1
		c-0.3,1-0.6,2.1-0.9,3.2l-1.7,5.1L71.4,720.1z"/>
	<circle class="st0" cx="62.3" cy="746.9" r="8.5"/>
	<circle class="st0" cx="62.3" cy="795.7" r="6.8"/>
	<path class="st1" d="M123,698.1h34.6c6.6,0,12,5.4,12,12v73.6c0,6.6-5.4,12-12,12H123c-6.6,0-12-5.4-12-12v-73.6
		C111,703.5,116.4,698.1,123,698.1z"/>
	<path d="M111,746.9v36.6c0,6.7,5.5,12.1,12.2,12.2h34.2c6.7,0,12.1-5.5,12.2-12.2v-36.6H111z"/>
	<path d="M127.1,724.8c1.1,0.7,2.4,1,3.8,1.1c3,0,3.9-1.9,3.8-3.3c0-2.4-2.2-3.4-4.4-3.4h-1.3v-1.7h1.3c1.7,0,3.8-0.9,3.8-2.9
		c0-1.4-0.9-2.6-3-2.6c-1.2,0-2.4,0.4-3.4,1.1l-0.6-1.7c1.3-0.9,2.9-1.3,4.4-1.3c3.4,0,4.9,2,4.9,4c0,1.9-1.3,3.5-3.1,4v0
		c2.2,0.3,3.8,2.2,3.8,4.4c0,2.7-2.1,5.1-6.2,5.1c-1.5,0-3.1-0.4-4.4-1.2L127.1,724.8z"/>
	<path d="M140.8,710c1.4-0.3,2.8-0.4,4.2-0.4c2.3,0,3.7,0.4,4.8,1.3c1,0.7,1.5,1.9,1.5,3.1c-0.1,1.8-1.3,3.4-3,3.9v0.1
		c2.1,0.4,3.6,2.3,3.6,4.4c0,1.3-0.5,2.6-1.5,3.5c-1.2,1.1-3.2,1.7-6.1,1.7c-1.2,0-2.4-0.1-3.5-0.2L140.8,710z M143.1,717.2h2.1
		c2.4,0,3.8-1.3,3.8-3c0-2.1-1.6-2.9-3.9-2.9c-0.7,0-1.3,0-2,0.2L143.1,717.2z M143.1,725.7c0.6,0.1,1.3,0.1,1.9,0.1
		c2.4,0,4.5-0.9,4.5-3.4c0-2.4-2.1-3.4-4.6-3.4h-1.9V725.7z"/>
	<circle class="st0" cx="140.3" cy="746.9" r="8.5"/>
	<circle class="st0" cx="140.3" cy="795.7" r="6.8"/>
	<path class="st1" d="M201,698.1h34.6c6.6,0,12,5.4,12,12v73.6c0,6.6-5.4,12-12,12H201c-6.6,0-12-5.4-12-12v-73.6
		C189,703.5,194.4,698.1,201,698.1z"/>
	<path d="M189,746.9v36.6c0,6.7,5.5,12.1,12.2,12.2h34.2c6.7,0,12.1-5.5,12.2-12.2v-36.6H189z"/>
	<path d="M205.1,724.8c1.1,0.7,2.4,1,3.8,1.1c3,0,3.9-1.9,3.8-3.3c0-2.4-2.2-3.4-4.4-3.4h-1.3v-1.7h1.3c1.7,0,3.8-0.9,3.8-2.9
		c0-1.4-0.9-2.6-3-2.6c-1.2,0-2.4,0.4-3.4,1.1l-0.6-1.7c1.3-0.9,2.9-1.3,4.4-1.3c3.4,0,4.9,2,4.9,4c0,1.9-1.3,3.5-3.1,4v0
		c2.2,0.3,3.8,2.2,3.8,4.4c0,2.7-2.1,5.1-6.2,5.1c-1.5,0-3.1-0.4-4.4-1.2L205.1,724.8z"/>
	<path d="M231.1,726.8c-1.5,0.6-3.1,0.9-4.7,0.8c-5,0-8.7-3.1-8.7-8.9c0-5.5,3.7-9.3,9.2-9.3c1.4-0.1,2.9,0.2,4.2,0.8l-0.6,1.9
		c-1.1-0.5-2.3-0.8-3.6-0.7c-4.1,0-6.9,2.6-6.9,7.3c0,4.3,2.5,7.1,6.8,7.1c1.3,0,2.5-0.2,3.7-0.7L231.1,726.8z"/>
	<circle class="st0" cx="218.3" cy="746.9" r="8.5"/>
	<circle class="st0" cx="218.3" cy="795.7" r="6.8"/>
	<path class="st1" d="M279,698.1h34.6c6.6,0,12,5.4,12,12v73.6c0,6.6-5.4,12-12,12H279c-6.6,0-12-5.4-12-12v-73.6
		C267,703.5,272.4,698.1,279,698.1z"/>
	<path d="M267,746.9v36.6c0,6.7,5.5,12.1,12.2,12.2h34.2c6.7,0,12.1-5.5,12.2-12.2v-36.6H267z"/>
	<path d="M283.1,724.8c1.1,0.7,2.4,1,3.8,1.1c3,0,3.9-1.9,3.8-3.3c0-2.4-2.2-3.4-4.4-3.4h-1.3v-1.7h1.3c1.7,0,3.8-0.9,3.8-2.9
		c0-1.4-0.9-2.6-3-2.6c-1.2,0-2.4,0.4-3.4,1.1l-0.6-1.7c1.3-0.9,2.9-1.3,4.5-1.3c3.4,0,4.9,2,4.9,4c0,1.9-1.3,3.5-3.1,4v0
		c2.2,0.3,3.8,2.2,3.8,4.4c0,2.7-2.1,5.1-6.2,5.1c-1.5,0-3.1-0.4-4.4-1.2L283.1,724.8z"/>
	<path d="M296.8,710c1.6-0.2,3.2-0.4,4.8-0.4c3.3,0,5.6,0.8,7.1,2.2c1.7,1.6,2.6,4,2.5,6.3c0.1,2.5-0.8,5-2.5,6.8
		c-1.6,1.7-4.4,2.5-7.8,2.5c-1.4,0-2.8-0.1-4.1-0.2V710z M299.1,725.6c0.8,0.1,1.5,0.1,2.3,0.1c4.9,0,7.5-2.7,7.5-7.5
		c0-4.2-2.3-6.8-7.1-6.8c-0.9,0-1.8,0.1-2.7,0.2L299.1,725.6z"/>
	<circle class="st0" cx="296.3" cy="746.9" r="8.5"/>
	<circle class="st0" cx="296.3" cy="795.7" r="6.8"/>
	<path class="st1" d="M357,698.1h34.6c6.6,0,12,5.4,12,12v73.6c0,6.6-5.4,12-12,12H357c-6.6,0-12-5.4-12-12v-73.6
		C345,703.5,350.4,698.1,357,698.1z"/>
	<path d="M345,746.9v36.6c0,6.7,5.5,12.1,12.2,12.2h34.2c6.7,0,12.1-5.5,12.2-12.2v-36.6H345z"/>
	<path d="M360.9,725.3c1.1,0.7,2.4,1,3.8,1.1c3,0,3.9-1.9,3.8-3.3c0-2.4-2.2-3.4-4.4-3.4h-1.3v-1.7h1.3c1.7,0,3.8-0.9,3.8-2.9
		c0-1.4-0.9-2.6-3-2.6c-1.2,0-2.4,0.4-3.4,1.1l-0.6-1.7c1.3-0.9,2.9-1.3,4.5-1.3c3.4,0,4.9,2,4.9,4c0,1.9-1.3,3.5-3.1,4v0
		c2.2,0.3,3.8,2.2,3.8,4.4c0,2.7-2.1,5.1-6.2,5.1c-1.5,0-3.1-0.4-4.4-1.2L360.9,725.3z"/>
	<path d="M383.7,719.7h-6.9v6.3h7.6v1.9h-9.9v-17.6h9.5v1.9h-7.2v5.6h6.9L383.7,719.7z"/>
	<circle class="st0" cx="374.3" cy="746.9" r="8.5"/>
	<circle class="st0" cx="374.3" cy="795.7" r="6.8"/>
	<path class="st0" d="M494.4,323.5h326.2c9.4,0,17,7.6,17,17v370.9c0,9.4-7.6,17-17,17H494.4c-9.4,0-17-7.6-17-17V340.5
		C477.4,331.1,485,323.5,494.4,323.5z"/>
	<path class="st0" d="M545.1,278.7v-24.2c0-3-2.5-5.5-5.5-5.5l0,0c-3,0-5.5,2.5-5.5,5.5v24.2c-5.3,3.1-7.1,9.8-4,15.1
		s9.8,7.1,15.1,4s7.1-9.8,4-15.1C548.2,281.1,546.8,279.7,545.1,278.7L545.1,278.7z"/>
	<path class="st0" d="M769.4,278.7v-24.2c0-3-2.5-5.5-5.5-5.5l0,0c-3,0-5.5,2.5-5.5,5.5v24.2c-5.3,3.1-7.1,9.8-4,15.1
		s9.8,7.1,15.1,4s7.1-9.8,4-15.1C772.5,281.1,771.1,279.7,769.4,278.7L769.4,278.7z"/>
	<path class="st0" d="M659.9,794v-24.2c0-3-2.5-5.5-5.5-5.5l0,0c-3,0-5.5,2.5-5.5,5.5V794c-5.3,3.1-7.1,9.8-4,15.1s9.8,7.1,15.1,4
		s7.1-9.8,4-15.1C662.9,796.4,661.6,795,659.9,794L659.9,794z"/>
	<circle class="st0" cx="454.3" cy="170.7" r="4.2"/>
	<circle class="st0" cx="489.8" cy="170.7" r="11.3"/>
	<circle class="st0" cx="525.2" cy="170.7" r="4.2"/>
	<line class="st0" x1="282.2" y1="114.3" x2="282.2" y2="121.4"/>
	<line class="st0" x1="282.2" y1="126.7" x2="282.2" y2="147.6"/>
	<line class="st0" x1="282.2" y1="152.9" x2="282.2" y2="173.7"/>
	<line class="st0" x1="282.2" y1="179.1" x2="282.2" y2="199.3"/>
	<line class="st0" x1="285.7" y1="114.3" x2="285.7" y2="134.5"/>
	<line class="st0" x1="285.7" y1="139.8" x2="285.7" y2="160.7"/>
	<line class="st0" x1="285.7" y1="166" x2="285.7" y2="186.8"/>
	<line class="st0" x1="278.7" y1="134.5" x2="278.7" y2="114.3"/>
	<line class="st0" x1="278.7" y1="160.7" x2="278.7" y2="139.8"/>
	<line class="st0" x1="278.7" y1="186.8" x2="278.7" y2="166"/>
	<line class="st0" x1="327.5" y1="114.3" x2="327.5" y2="134.5"/>
	<line class="st0" x1="327.5" y1="139.8" x2="327.5" y2="160.7"/>
	<line class="st0" x1="327.5" y1="166" x2="327.5" y2="186.8"/>
	<line class="st0" x1="292.7" y1="114.3" x2="292.7" y2="134.5"/>
	<line class="st0" x1="292.7" y1="139.8" x2="292.7" y2="160.7"/>
	<line class="st0" x1="292.7" y1="166" x2="292.7" y2="186.8"/>
	<line class="st0" x1="289.2" y1="114.3" x2="289.2" y2="121.4"/>
	<line class="st0" x1="289.2" y1="126.7" x2="289.2" y2="147.6"/>
	<line class="st0" x1="289.2" y1="152.9" x2="289.2" y2="173.7"/>
	<line class="st0" x1="289.2" y1="179.1" x2="289.2" y2="199.3"/>
	<line class="st0" x1="296.2" y1="114.3" x2="296.2" y2="121.4"/>
	<line class="st0" x1="296.2" y1="126.7" x2="296.2" y2="147.6"/>
	<line class="st0" x1="296.2" y1="152.9" x2="296.2" y2="173.7"/>
	<line class="st0" x1="296.2" y1="179.1" x2="296.2" y2="199.3"/>
	<line class="st0" x1="299.7" y1="114.3" x2="299.7" y2="134.5"/>
	<line class="st0" x1="299.7" y1="139.8" x2="299.7" y2="160.7"/>
	<line class="st0" x1="299.7" y1="166" x2="299.7" y2="186.8"/>
	<line class="st0" x1="306.7" y1="114.3" x2="306.7" y2="134.5"/>
	<line class="st0" x1="306.7" y1="139.8" x2="306.7" y2="160.7"/>
	<line class="st0" x1="306.7" y1="166" x2="306.7" y2="186.8"/>
	<line class="st0" x1="303.2" y1="114.3" x2="303.2" y2="121.4"/>
	<line class="st0" x1="303.2" y1="126.7" x2="303.2" y2="147.6"/>
	<line class="st0" x1="303.2" y1="152.9" x2="303.2" y2="173.7"/>
	<line class="st0" x1="303.2" y1="179.1" x2="303.2" y2="199.3"/>
	<line class="st0" x1="310.2" y1="114.3" x2="310.2" y2="121.4"/>
	<line class="st0" x1="310.2" y1="126.7" x2="310.2" y2="147.6"/>
	<line class="st0" x1="310.2" y1="152.9" x2="310.2" y2="173.7"/>
	<line class="st0" x1="310.2" y1="179.1" x2="310.2" y2="199.3"/>
	<line class="st0" x1="313.7" y1="114.3" x2="313.7" y2="134.5"/>
	<line class="st0" x1="313.7" y1="139.8" x2="313.7" y2="160.7"/>
	<line class="st0" x1="313.7" y1="166" x2="313.7" y2="186.8"/>
	<line class="st0" x1="320.7" y1="114.3" x2="320.7" y2="134.5"/>
	<line class="st0" x1="320.7" y1="139.8" x2="320.7" y2="160.7"/>
	<line class="st0" x1="320.7" y1="166" x2="320.7" y2="186.8"/>
	<line class="st0" x1="317.2" y1="114.3" x2="317.2" y2="121.4"/>
	<line class="st0" x1="317.2" y1="126.7" x2="317.2" y2="147.6"/>
	<line class="st0" x1="317.2" y1="152.9" x2="317.2" y2="173.7"/>
	<line class="st0" x1="317.2" y1="179.1" x2="317.2" y2="199.3"/>
	<line class="st0" x1="324.2" y1="114.3" x2="324.2" y2="121.4"/>
	<line class="st0" x1="324.2" y1="126.7" x2="324.2" y2="147.6"/>
	<line class="st0" x1="324.2" y1="152.9" x2="324.2" y2="173.7"/>
	<line class="st0" x1="324.2" y1="179.1" x2="324.2" y2="199.3"/>
	<line class="st0" x1="282.2" y1="225.9" x2="282.2" y2="205.2"/>
	<line class="st0" x1="282.2" y1="226.1" x2="282.2" y2="225.9"/>
	<line class="st0" x1="285.7" y1="192.2" x2="285.7" y2="213"/>
	<line class="st0" x1="285.7" y1="225.9" x2="285.7" y2="218.3"/>
	<line class="st0" x1="285.7" y1="225.9" x2="285.7" y2="226.1"/>
	<line class="st0" x1="278.7" y1="213" x2="278.7" y2="192.2"/>
	<line class="st0" x1="278.7" y1="225.9" x2="278.7" y2="226.1"/>
	<line class="st0" x1="278.7" y1="225.9" x2="278.7" y2="218.3"/>
	<line class="st0" x1="327.5" y1="192.2" x2="327.5" y2="213"/>
	<line class="st0" x1="327.5" y1="225.9" x2="327.5" y2="218.3"/>
	<line class="st0" x1="327.5" y1="225.9" x2="327.5" y2="226.1"/>
	<line class="st0" x1="292.7" y1="192.2" x2="292.7" y2="213"/>
	<line class="st0" x1="292.7" y1="225.9" x2="292.7" y2="226.1"/>
	<line class="st0" x1="292.7" y1="225.9" x2="292.7" y2="218.3"/>
	<line class="st0" x1="289.2" y1="225.9" x2="289.2" y2="205.2"/>
	<line class="st0" x1="289.2" y1="225.9" x2="289.2" y2="226.1"/>
	<line class="st0" x1="296.2" y1="225.9" x2="296.2" y2="205.2"/>
	<line class="st0" x1="296.2" y1="225.9" x2="296.2" y2="226.1"/>
	<line class="st0" x1="299.7" y1="192.2" x2="299.7" y2="213"/>
	<line class="st0" x1="299.7" y1="225.9" x2="299.7" y2="226.1"/>
	<line class="st0" x1="299.7" y1="225.9" x2="299.7" y2="218.3"/>
	<line class="st0" x1="306.7" y1="192.2" x2="306.7" y2="213"/>
	<line class="st0" x1="306.7" y1="225.9" x2="306.7" y2="218.3"/>
	<line class="st0" x1="306.7" y1="225.9" x2="306.7" y2="226.1"/>
	<line class="st0" x1="303.2" y1="225.9" x2="303.2" y2="226.1"/>
	<line class="st0" x1="303.2" y1="225.9" x2="303.2" y2="205.2"/>
	<line class="st0" x1="310.2" y1="225.9" x2="310.2" y2="205.2"/>
	<line class="st0" x1="310.2" y1="225.9" x2="310.2" y2="226.1"/>
	<line class="st0" x1="313.7" y1="192.2" x2="313.7" y2="213"/>
	<line class="st0" x1="313.7" y1="225.9" x2="313.7" y2="226.1"/>
	<line class="st0" x1="313.7" y1="225.9" x2="313.7" y2="218.3"/>
	<line class="st0" x1="320.7" y1="192.2" x2="320.7" y2="213"/>
	<line class="st0" x1="320.7" y1="225.9" x2="320.7" y2="226.1"/>
	<line class="st0" x1="320.7" y1="225.9" x2="320.7" y2="218.3"/>
	<line class="st0" x1="317.2" y1="225.9" x2="317.2" y2="226.1"/>
	<line class="st0" x1="317.2" y1="225.9" x2="317.2" y2="205.2"/>
	<line class="st0" x1="324.2" y1="225.9" x2="324.2" y2="226.1"/>
	<line class="st0" x1="324.2" y1="225.9" x2="324.2" y2="205.2"/>
	<line class="st0" x1="655.4" y1="114.3" x2="655.4" y2="121.4"/>
	<line class="st0" x1="655.4" y1="126.7" x2="655.4" y2="147.6"/>
	<line class="st0" x1="655.4" y1="152.9" x2="655.4" y2="173.7"/>
	<line class="st0" x1="655.4" y1="179.1" x2="655.4" y2="199.3"/>
	<line class="st0" x1="658.9" y1="114.3" x2="658.9" y2="134.5"/>
	<line class="st0" x1="658.9" y1="139.8" x2="658.9" y2="160.7"/>
	<line class="st0" x1="658.9" y1="166" x2="658.9" y2="186.8"/>
	<line class="st0" x1="651.9" y1="134.5" x2="651.9" y2="114.3"/>
	<line class="st0" x1="651.9" y1="160.7" x2="651.9" y2="139.8"/>
	<line class="st0" x1="651.9" y1="186.8" x2="651.9" y2="166"/>
	<line class="st0" x1="700.7" y1="114.3" x2="700.7" y2="134.5"/>
	<line class="st0" x1="700.7" y1="139.8" x2="700.7" y2="160.7"/>
	<line class="st0" x1="700.7" y1="166" x2="700.7" y2="186.8"/>
	<line class="st0" x1="665.9" y1="114.3" x2="665.9" y2="134.5"/>
	<line class="st0" x1="665.9" y1="139.8" x2="665.9" y2="160.7"/>
	<line class="st0" x1="665.9" y1="166" x2="665.9" y2="186.8"/>
	<line class="st0" x1="662.4" y1="114.3" x2="662.4" y2="121.4"/>
	<line class="st0" x1="662.4" y1="126.7" x2="662.4" y2="147.6"/>
	<line class="st0" x1="662.4" y1="152.9" x2="662.4" y2="173.7"/>
	<line class="st0" x1="662.4" y1="179.1" x2="662.4" y2="199.3"/>
	<line class="st0" x1="669.4" y1="114.3" x2="669.4" y2="121.4"/>
	<line class="st0" x1="669.4" y1="126.7" x2="669.4" y2="147.6"/>
	<line class="st0" x1="669.4" y1="152.9" x2="669.4" y2="173.7"/>
	<line class="st0" x1="669.4" y1="179.1" x2="669.4" y2="199.3"/>
	<line class="st0" x1="672.9" y1="114.3" x2="672.9" y2="134.5"/>
	<line class="st0" x1="672.9" y1="139.8" x2="672.9" y2="160.7"/>
	<line class="st0" x1="672.9" y1="166" x2="672.9" y2="186.8"/>
	<line class="st0" x1="679.9" y1="114.3" x2="679.9" y2="134.5"/>
	<line class="st0" x1="679.9" y1="139.8" x2="679.9" y2="160.7"/>
	<line class="st0" x1="679.9" y1="166" x2="679.9" y2="186.8"/>
	<line class="st0" x1="676.4" y1="114.3" x2="676.4" y2="121.4"/>
	<line class="st0" x1="676.4" y1="126.7" x2="676.4" y2="147.6"/>
	<line class="st0" x1="676.4" y1="152.9" x2="676.4" y2="173.7"/>
	<line class="st0" x1="676.4" y1="179.1" x2="676.4" y2="199.3"/>
	<line class="st0" x1="683.4" y1="114.3" x2="683.4" y2="121.4"/>
	<line class="st0" x1="683.4" y1="126.7" x2="683.4" y2="147.6"/>
	<line class="st0" x1="683.4" y1="152.9" x2="683.4" y2="173.7"/>
	<line class="st0" x1="683.4" y1="179.1" x2="683.4" y2="199.3"/>
	<line class="st0" x1="686.9" y1="114.3" x2="686.9" y2="134.5"/>
	<line class="st0" x1="686.9" y1="139.8" x2="686.9" y2="160.7"/>
	<line class="st0" x1="686.9" y1="166" x2="686.9" y2="186.8"/>
	<line class="st0" x1="693.9" y1="114.3" x2="693.9" y2="134.5"/>
	<line class="st0" x1="693.9" y1="139.8" x2="693.9" y2="160.7"/>
	<line class="st0" x1="693.9" y1="166" x2="693.9" y2="186.8"/>
	<line class="st0" x1="690.4" y1="114.3" x2="690.4" y2="121.4"/>
	<line class="st0" x1="690.4" y1="126.7" x2="690.4" y2="147.6"/>
	<line class="st0" x1="690.4" y1="152.9" x2="690.4" y2="173.7"/>
	<line class="st0" x1="690.4" y1="179.1" x2="690.4" y2="199.3"/>
	<line class="st0" x1="697.4" y1="114.3" x2="697.4" y2="121.4"/>
	<line class="st0" x1="697.4" y1="126.7" x2="697.4" y2="147.6"/>
	<line class="st0" x1="697.4" y1="152.9" x2="697.4" y2="173.7"/>
	<line class="st0" x1="697.4" y1="179.1" x2="697.4" y2="199.3"/>
	<line class="st0" x1="655.4" y1="225.9" x2="655.4" y2="205.2"/>
	<line class="st0" x1="655.4" y1="225.9" x2="655.4" y2="226.1"/>
	<line class="st0" x1="658.9" y1="192.2" x2="658.9" y2="213"/>
	<line class="st0" x1="658.9" y1="225.9" x2="658.9" y2="226.1"/>
	<line class="st0" x1="658.9" y1="225.9" x2="658.9" y2="218.3"/>
	<line class="st0" x1="651.9" y1="213" x2="651.9" y2="192.2"/>
	<line class="st0" x1="651.9" y1="225.9" x2="651.9" y2="218.3"/>
	<line class="st0" x1="651.9" y1="226.1" x2="651.9" y2="225.9"/>
	<line class="st0" x1="700.7" y1="192.2" x2="700.7" y2="213"/>
	<line class="st0" x1="700.7" y1="225.9" x2="700.7" y2="226.1"/>
	<line class="st0" x1="700.7" y1="225.9" x2="700.7" y2="218.3"/>
	<line class="st0" x1="665.9" y1="192.2" x2="665.9" y2="213"/>
	<line class="st0" x1="665.9" y1="225.9" x2="665.9" y2="226.1"/>
	<line class="st0" x1="665.9" y1="225.9" x2="665.9" y2="218.3"/>
	<line class="st0" x1="662.4" y1="225.9" x2="662.4" y2="226.1"/>
	<line class="st0" x1="662.4" y1="225.9" x2="662.4" y2="205.2"/>
	<line class="st0" x1="669.4" y1="225.9" x2="669.4" y2="205.2"/>
	<line class="st0" x1="669.4" y1="225.9" x2="669.4" y2="226.1"/>
	<line class="st0" x1="672.9" y1="192.2" x2="672.9" y2="213"/>
	<line class="st0" x1="672.9" y1="225.9" x2="672.9" y2="218.3"/>
	<line class="st0" x1="672.9" y1="225.9" x2="672.9" y2="226.1"/>
	<line class="st0" x1="679.9" y1="192.2" x2="679.9" y2="213"/>
	<line class="st0" x1="679.9" y1="225.9" x2="679.9" y2="218.3"/>
	<line class="st0" x1="679.9" y1="225.9" x2="679.9" y2="226.1"/>
	<line class="st0" x1="676.4" y1="225.9" x2="676.4" y2="205.2"/>
	<line class="st0" x1="676.4" y1="225.9" x2="676.4" y2="226.1"/>
	<line class="st0" x1="683.4" y1="225.9" x2="683.4" y2="205.2"/>
	<line class="st0" x1="683.4" y1="225.9" x2="683.4" y2="226.1"/>
	<line class="st0" x1="686.9" y1="192.2" x2="686.9" y2="213"/>
	<line class="st0" x1="686.9" y1="225.9" x2="686.9" y2="218.3"/>
	<line class="st0" x1="686.9" y1="225.9" x2="686.9" y2="226.1"/>
	<line class="st0" x1="693.9" y1="192.2" x2="693.9" y2="213"/>
	<line class="st0" x1="693.9" y1="225.9" x2="693.9" y2="226.1"/>
	<line class="st0" x1="693.9" y1="225.9" x2="693.9" y2="218.3"/>
	<line class="st0" x1="690.4" y1="225.9" x2="690.4" y2="205.2"/>
	<line class="st0" x1="690.4" y1="225.9" x2="690.4" y2="226.1"/>
	<line class="st0" x1="697.4" y1="225.9" x2="697.4" y2="226.1"/>
	<line class="st0" x1="697.4" y1="225.9" x2="697.4" y2="205.2"/>
	<polyline class="st0" points="2.2,114 2.2,225.9 31.9,225.9 	"/>
	<line class="st0" x1="471.1" y1="225.9" x2="404.6" y2="225.9"/>
	<polyline class="st0" points="979,114 979,225.9 843.9,225.9 	"/>
	<line class="st0" x1="282.2" y1="9.4" x2="282.2" y2="2.3"/>
	<line class="st0" x1="282.2" y1="35.6" x2="282.2" y2="14.8"/>
	<line class="st0" x1="282.2" y1="61.8" x2="282.2" y2="40.9"/>
	<line class="st0" x1="282.2" y1="87.3" x2="282.2" y2="67.1"/>
	<line class="st0" x1="285.7" y1="22.5" x2="285.7" y2="2.3"/>
	<line class="st0" x1="285.7" y1="48.7" x2="285.7" y2="27.9"/>
	<line class="st0" x1="285.7" y1="74.9" x2="285.7" y2="54"/>
	<line class="st0" x1="278.7" y1="22.5" x2="278.7" y2="2.3"/>
	<line class="st0" x1="278.7" y1="48.7" x2="278.7" y2="27.9"/>
	<line class="st0" x1="278.7" y1="74.9" x2="278.7" y2="54"/>
	<line class="st0" x1="327.5" y1="22.5" x2="327.5" y2="2.3"/>
	<line class="st0" x1="327.5" y1="48.7" x2="327.5" y2="27.9"/>
	<line class="st0" x1="327.5" y1="74.9" x2="327.5" y2="54"/>
	<line class="st0" x1="292.7" y1="22.5" x2="292.7" y2="2.3"/>
	<line class="st0" x1="292.7" y1="48.7" x2="292.7" y2="27.9"/>
	<line class="st0" x1="292.7" y1="74.9" x2="292.7" y2="54"/>
	<line class="st0" x1="289.2" y1="9.4" x2="289.2" y2="2.3"/>
	<line class="st0" x1="289.2" y1="35.6" x2="289.2" y2="14.8"/>
	<line class="st0" x1="289.2" y1="61.8" x2="289.2" y2="40.9"/>
	<line class="st0" x1="289.2" y1="87.3" x2="289.2" y2="67.1"/>
	<line class="st0" x1="296.2" y1="9.4" x2="296.2" y2="2.3"/>
	<line class="st0" x1="296.2" y1="35.6" x2="296.2" y2="14.8"/>
	<line class="st0" x1="296.2" y1="61.8" x2="296.2" y2="40.9"/>
	<line class="st0" x1="296.2" y1="87.3" x2="296.2" y2="67.1"/>
	<line class="st0" x1="299.7" y1="22.5" x2="299.7" y2="2.3"/>
	<line class="st0" x1="299.7" y1="48.7" x2="299.7" y2="27.9"/>
	<line class="st0" x1="299.7" y1="74.9" x2="299.7" y2="54"/>
	<line class="st0" x1="306.7" y1="22.5" x2="306.7" y2="2.3"/>
	<line class="st0" x1="306.7" y1="48.7" x2="306.7" y2="27.9"/>
	<line class="st0" x1="306.7" y1="74.9" x2="306.7" y2="54"/>
	<line class="st0" x1="303.2" y1="9.4" x2="303.2" y2="2.3"/>
	<line class="st0" x1="303.2" y1="35.6" x2="303.2" y2="14.8"/>
	<line class="st0" x1="303.2" y1="61.8" x2="303.2" y2="40.9"/>
	<line class="st0" x1="303.2" y1="87.3" x2="303.2" y2="67.1"/>
	<line class="st0" x1="310.2" y1="9.4" x2="310.2" y2="2.3"/>
	<line class="st0" x1="310.2" y1="35.6" x2="310.2" y2="14.8"/>
	<line class="st0" x1="310.2" y1="61.8" x2="310.2" y2="40.9"/>
	<line class="st0" x1="310.2" y1="87.3" x2="310.2" y2="67.1"/>
	<line class="st0" x1="313.7" y1="22.5" x2="313.7" y2="2.3"/>
	<line class="st0" x1="313.7" y1="48.7" x2="313.7" y2="27.9"/>
	<line class="st0" x1="313.7" y1="74.9" x2="313.7" y2="54"/>
	<line class="st0" x1="320.7" y1="22.5" x2="320.7" y2="2.3"/>
	<line class="st0" x1="320.7" y1="48.7" x2="320.7" y2="27.9"/>
	<line class="st0" x1="320.7" y1="74.9" x2="320.7" y2="54"/>
	<line class="st0" x1="317.2" y1="9.4" x2="317.2" y2="2.3"/>
	<line class="st0" x1="317.2" y1="35.6" x2="317.2" y2="14.8"/>
	<line class="st0" x1="317.2" y1="61.8" x2="317.2" y2="40.9"/>
	<line class="st0" x1="317.2" y1="87.3" x2="317.2" y2="67.1"/>
	<line class="st0" x1="324.2" y1="9.4" x2="324.2" y2="2.3"/>
	<line class="st0" x1="324.2" y1="35.6" x2="324.2" y2="14.8"/>
	<line class="st0" x1="324.2" y1="61.8" x2="324.2" y2="40.9"/>
	<line class="st0" x1="324.2" y1="87.3" x2="324.2" y2="67.1"/>
	<line class="st0" x1="282.2" y1="114" x2="282.2" y2="93.3"/>
	<line class="st0" x1="282.2" y1="114" x2="282.2" y2="114.1"/>
	<line class="st0" x1="285.7" y1="101" x2="285.7" y2="80.2"/>
	<line class="st0" x1="285.7" y1="114" x2="285.7" y2="114.1"/>
	<line class="st0" x1="285.7" y1="114" x2="285.7" y2="106.4"/>
	<line class="st0" x1="278.7" y1="101" x2="278.7" y2="80.2"/>
	<line class="st0" x1="278.7" y1="114" x2="278.7" y2="114.1"/>
	<line class="st0" x1="278.7" y1="114" x2="278.7" y2="106.4"/>
	<line class="st0" x1="327.5" y1="101" x2="327.5" y2="80.2"/>
	<line class="st0" x1="327.5" y1="114.1" x2="327.5" y2="114"/>
	<line class="st0" x1="327.5" y1="106.4" x2="327.5" y2="114"/>
	<line class="st0" x1="292.7" y1="101" x2="292.7" y2="80.2"/>
	<line class="st0" x1="292.7" y1="114" x2="292.7" y2="114.1"/>
	<line class="st0" x1="292.7" y1="114" x2="292.7" y2="106.4"/>
	<line class="st0" x1="289.2" y1="114" x2="289.2" y2="93.3"/>
	<line class="st0" x1="289.2" y1="114" x2="289.2" y2="114.1"/>
	<line class="st0" x1="296.2" y1="114" x2="296.2" y2="114.1"/>
	<line class="st0" x1="296.2" y1="114" x2="296.2" y2="93.3"/>
	<line class="st0" x1="299.7" y1="101" x2="299.7" y2="80.2"/>
	<line class="st0" x1="299.7" y1="114" x2="299.7" y2="106.4"/>
	<line class="st0" x1="299.7" y1="114" x2="299.7" y2="114.1"/>
	<line class="st0" x1="306.7" y1="101" x2="306.7" y2="80.2"/>
	<line class="st0" x1="306.7" y1="114" x2="306.7" y2="106.4"/>
	<line class="st0" x1="306.7" y1="114" x2="306.7" y2="114.1"/>
	<line class="st0" x1="303.2" y1="114" x2="303.2" y2="114.1"/>
	<line class="st0" x1="303.2" y1="114" x2="303.2" y2="93.3"/>
	<line class="st0" x1="310.2" y1="114" x2="310.2" y2="114.1"/>
	<line class="st0" x1="310.2" y1="114" x2="310.2" y2="93.3"/>
	<line class="st0" x1="313.7" y1="101" x2="313.7" y2="80.2"/>
	<line class="st0" x1="313.7" y1="114" x2="313.7" y2="106.4"/>
	<line class="st0" x1="313.7" y1="114" x2="313.7" y2="114.1"/>
	<line class="st0" x1="320.7" y1="101" x2="320.7" y2="80.2"/>
	<line class="st0" x1="320.7" y1="114" x2="320.7" y2="106.4"/>
	<line class="st0" x1="320.7" y1="114" x2="320.7" y2="114.1"/>
	<line class="st0" x1="317.2" y1="114" x2="317.2" y2="93.3"/>
	<line class="st0" x1="317.2" y1="114" x2="317.2" y2="114.1"/>
	<line class="st0" x1="324.2" y1="114" x2="324.2" y2="93.3"/>
	<line class="st0" x1="324.2" y1="114" x2="324.2" y2="114.1"/>
	<line class="st0" x1="655.4" y1="9.4" x2="655.4" y2="2.3"/>
	<line class="st0" x1="655.4" y1="35.6" x2="655.4" y2="14.8"/>
	<line class="st0" x1="655.4" y1="61.8" x2="655.4" y2="40.9"/>
	<line class="st0" x1="655.4" y1="87.3" x2="655.4" y2="67.1"/>
	<line class="st0" x1="658.9" y1="22.5" x2="658.9" y2="2.3"/>
	<line class="st0" x1="658.9" y1="48.7" x2="658.9" y2="27.9"/>
	<line class="st0" x1="658.9" y1="74.9" x2="658.9" y2="54"/>
	<line class="st0" x1="651.9" y1="22.5" x2="651.9" y2="2.3"/>
	<line class="st0" x1="651.9" y1="48.7" x2="651.9" y2="27.9"/>
	<line class="st0" x1="651.9" y1="74.9" x2="651.9" y2="54"/>
	<line class="st0" x1="700.7" y1="22.5" x2="700.7" y2="2.3"/>
	<line class="st0" x1="700.7" y1="48.7" x2="700.7" y2="27.9"/>
	<line class="st0" x1="700.7" y1="74.9" x2="700.7" y2="54"/>
	<line class="st0" x1="665.9" y1="22.5" x2="665.9" y2="2.3"/>
	<line class="st0" x1="665.9" y1="48.7" x2="665.9" y2="27.9"/>
	<line class="st0" x1="665.9" y1="74.9" x2="665.9" y2="54"/>
	<line class="st0" x1="662.4" y1="9.4" x2="662.4" y2="2.3"/>
	<line class="st0" x1="662.4" y1="35.6" x2="662.4" y2="14.8"/>
	<line class="st0" x1="662.4" y1="61.8" x2="662.4" y2="40.9"/>
	<line class="st0" x1="662.4" y1="87.3" x2="662.4" y2="67.1"/>
	<line class="st0" x1="669.4" y1="9.4" x2="669.4" y2="2.3"/>
	<line class="st0" x1="669.4" y1="35.6" x2="669.4" y2="14.8"/>
	<line class="st0" x1="669.4" y1="61.8" x2="669.4" y2="40.9"/>
	<line class="st0" x1="669.4" y1="87.3" x2="669.4" y2="67.1"/>
	<line class="st0" x1="672.9" y1="22.5" x2="672.9" y2="2.3"/>
	<line class="st0" x1="672.9" y1="48.7" x2="672.9" y2="27.9"/>
	<line class="st0" x1="672.9" y1="74.9" x2="672.9" y2="54"/>
	<line class="st0" x1="679.9" y1="22.5" x2="679.9" y2="2.3"/>
	<line class="st0" x1="679.9" y1="48.7" x2="679.9" y2="27.9"/>
	<line class="st0" x1="679.9" y1="74.9" x2="679.9" y2="54"/>
	<line class="st0" x1="676.4" y1="9.4" x2="676.4" y2="2.3"/>
	<line class="st0" x1="676.4" y1="35.6" x2="676.4" y2="14.8"/>
	<line class="st0" x1="676.4" y1="61.8" x2="676.4" y2="40.9"/>
	<line class="st0" x1="676.4" y1="87.3" x2="676.4" y2="67.1"/>
	<line class="st0" x1="683.4" y1="9.4" x2="683.4" y2="2.3"/>
	<line class="st0" x1="683.4" y1="35.6" x2="683.4" y2="14.8"/>
	<line class="st0" x1="683.4" y1="61.8" x2="683.4" y2="40.9"/>
	<line class="st0" x1="683.4" y1="87.3" x2="683.4" y2="67.1"/>
	<line class="st0" x1="686.9" y1="22.5" x2="686.9" y2="2.3"/>
	<line class="st0" x1="686.9" y1="48.7" x2="686.9" y2="27.9"/>
	<line class="st0" x1="686.9" y1="74.9" x2="686.9" y2="54"/>
	<line class="st0" x1="693.9" y1="22.5" x2="693.9" y2="2.3"/>
	<line class="st0" x1="693.9" y1="48.7" x2="693.9" y2="27.9"/>
	<line class="st0" x1="693.9" y1="74.9" x2="693.9" y2="54"/>
	<line class="st0" x1="690.4" y1="9.4" x2="690.4" y2="2.3"/>
	<line class="st0" x1="690.4" y1="35.6" x2="690.4" y2="14.8"/>
	<line class="st0" x1="690.4" y1="61.8" x2="690.4" y2="40.9"/>
	<line class="st0" x1="690.4" y1="87.3" x2="690.4" y2="67.1"/>
	<line class="st0" x1="697.4" y1="9.4" x2="697.4" y2="2.3"/>
	<line class="st0" x1="697.4" y1="35.6" x2="697.4" y2="14.8"/>
	<line class="st0" x1="697.4" y1="61.8" x2="697.4" y2="40.9"/>
	<line class="st0" x1="697.4" y1="87.3" x2="697.4" y2="67.1"/>
	<line class="st0" x1="655.4" y1="114" x2="655.4" y2="93.3"/>
	<line class="st0" x1="655.4" y1="114" x2="655.4" y2="114.1"/>
	<line class="st0" x1="658.9" y1="101" x2="658.9" y2="80.2"/>
	<line class="st0" x1="658.9" y1="114" x2="658.9" y2="114.1"/>
	<line class="st0" x1="658.9" y1="114" x2="658.9" y2="106.4"/>
	<line class="st0" x1="651.9" y1="101" x2="651.9" y2="80.2"/>
	<line class="st0" x1="651.9" y1="114" x2="651.9" y2="106.4"/>
	<line class="st0" x1="651.9" y1="114" x2="651.9" y2="114.1"/>
	<line class="st0" x1="700.7" y1="101" x2="700.7" y2="80.2"/>
	<line class="st0" x1="700.7" y1="106.4" x2="700.7" y2="114"/>
	<line class="st0" x1="700.7" y1="114.1" x2="700.7" y2="114"/>
	<line class="st0" x1="665.9" y1="101" x2="665.9" y2="80.2"/>
	<line class="st0" x1="665.9" y1="114" x2="665.9" y2="114.1"/>
	<line class="st0" x1="665.9" y1="114" x2="665.9" y2="106.4"/>
	<line class="st0" x1="662.4" y1="114" x2="662.4" y2="114.1"/>
	<line class="st0" x1="662.4" y1="114" x2="662.4" y2="93.3"/>
	<line class="st0" x1="669.4" y1="114" x2="669.4" y2="114.1"/>
	<line class="st0" x1="669.4" y1="114" x2="669.4" y2="93.3"/>
	<line class="st0" x1="672.9" y1="101" x2="672.9" y2="80.2"/>
	<line class="st0" x1="672.9" y1="114" x2="672.9" y2="114.1"/>
	<line class="st0" x1="672.9" y1="114" x2="672.9" y2="106.4"/>
	<line class="st0" x1="679.9" y1="101" x2="679.9" y2="80.2"/>
	<line class="st0" x1="679.9" y1="114" x2="679.9" y2="106.4"/>
	<line class="st0" x1="679.9" y1="114" x2="679.9" y2="114.1"/>
	<line class="st0" x1="676.4" y1="114" x2="676.4" y2="93.3"/>
	<line class="st0" x1="676.4" y1="114" x2="676.4" y2="114.1"/>
	<line class="st0" x1="683.4" y1="114" x2="683.4" y2="114.1"/>
	<line class="st0" x1="683.4" y1="114" x2="683.4" y2="93.3"/>
	<line class="st0" x1="686.9" y1="101" x2="686.9" y2="80.2"/>
	<line class="st0" x1="686.9" y1="114" x2="686.9" y2="114.1"/>
	<line class="st0" x1="686.9" y1="114" x2="686.9" y2="106.4"/>
	<line class="st0" x1="693.9" y1="101" x2="693.9" y2="80.2"/>
	<line class="st0" x1="693.9" y1="114" x2="693.9" y2="114.1"/>
	<line class="st0" x1="693.9" y1="114" x2="693.9" y2="106.4"/>
	<line class="st0" x1="690.4" y1="114" x2="690.4" y2="93.3"/>
	<line class="st0" x1="690.4" y1="114" x2="690.4" y2="114.1"/>
	<line class="st0" x1="697.4" y1="114" x2="697.4" y2="93.3"/>
	<line class="st0" x1="697.4" y1="114" x2="697.4" y2="114.1"/>
	<polyline class="st0" points="979,114 979,2 699.7,2 655.2,2 322.2,2 282.5,2 2.2,2 2.2,114 	"/>
	<line class="st0" x1="278.7" y1="114" x2="2.2" y2="114"/>
	<line class="st0" x1="306.7" y1="114" x2="310.2" y2="114"/>
	<line class="st0" x1="310.2" y1="114" x2="313.7" y2="114"/>
	<line class="st0" x1="317.2" y1="114" x2="320.7" y2="114"/>
	<polyline class="st0" points="320.7,114 322.2,114 324.2,114 	"/>
	<line class="st0" x1="313.7" y1="114" x2="317.2" y2="114"/>
	<line class="st0" x1="303.2" y1="114" x2="306.7" y2="114"/>
	<line class="st0" x1="324.2" y1="114" x2="327.5" y2="114"/>
	<polyline class="st0" points="282.2,114 282.5,114 285.7,114 	"/>
	<line class="st0" x1="278.7" y1="114" x2="282.2" y2="114"/>
	<line class="st0" x1="285.7" y1="114" x2="289.2" y2="114"/>
	<line class="st0" x1="296.2" y1="114" x2="299.7" y2="114"/>
	<line class="st0" x1="289.2" y1="114" x2="292.7" y2="114"/>
	<line class="st0" x1="299.7" y1="114" x2="303.2" y2="114"/>
	<line class="st0" x1="292.7" y1="114" x2="296.2" y2="114"/>
	<line class="st0" x1="662.4" y1="114" x2="665.9" y2="114"/>
	<line class="st0" x1="686.9" y1="114" x2="690.4" y2="114"/>
	<line class="st0" x1="690.4" y1="114" x2="693.9" y2="114"/>
	<line class="st0" x1="683.4" y1="114" x2="686.9" y2="114"/>
	<line class="st0" x1="679.9" y1="114" x2="683.4" y2="114"/>
	<line class="st0" x1="979" y1="114" x2="700.7" y2="114"/>
	<polyline class="st0" points="697.4,114 699.7,114 700.7,114 	"/>
	<line class="st0" x1="693.9" y1="114" x2="697.4" y2="114"/>
	<line class="st0" x1="665.9" y1="114" x2="669.4" y2="114"/>
	<line class="st0" x1="655.4" y1="114" x2="658.9" y2="114"/>
	<line class="st0" x1="658.9" y1="114" x2="662.4" y2="114"/>
	<polyline class="st0" points="651.9,114 655.2,114 655.4,114 	"/>
	<line class="st0" x1="672.9" y1="114" x2="676.4" y2="114"/>
	<line class="st0" x1="676.4" y1="114" x2="679.9" y2="114"/>
	<line class="st0" x1="669.4" y1="114" x2="672.9" y2="114"/>
	<line class="st0" x1="651.9" y1="114" x2="327.5" y2="114"/>
	<path class="st0" d="M404.6,225.9c15.6,0,28.3,12.7,28.4,28.4v558.4c-0.1,15.6-12.7,28.3-28.4,28.3H31.9
		c-15.6,0-28.3-12.7-28.4-28.3V254.3c0-15.6,12.7-28.3,28.4-28.4"/>
	<line class="st0" x1="296.2" y1="225.9" x2="292.7" y2="225.9"/>
	<line class="st0" x1="299.7" y1="225.9" x2="296.2" y2="225.9"/>
	<line class="st0" x1="303.2" y1="225.9" x2="299.7" y2="225.9"/>
	<line class="st0" x1="306.7" y1="225.9" x2="303.2" y2="225.9"/>
	<line class="st0" x1="292.7" y1="225.9" x2="289.2" y2="225.9"/>
	<line class="st0" x1="278.7" y1="225.9" x2="31.9" y2="225.9"/>
	<line class="st0" x1="278.7" y1="225.9" x2="282.2" y2="225.9"/>
	<polyline class="st0" points="285.7,225.9 282.5,225.9 282.2,225.9 	"/>
	<line class="st0" x1="289.2" y1="225.9" x2="285.7" y2="225.9"/>
	<line class="st0" x1="327.5" y1="225.9" x2="324.2" y2="225.9"/>
	<polyline class="st0" points="324.2,225.9 322.2,225.9 320.7,225.9 	"/>
	<line class="st0" x1="327.5" y1="225.9" x2="404.6" y2="225.9"/>
	<line class="st0" x1="313.7" y1="225.9" x2="310.2" y2="225.9"/>
	<line class="st0" x1="310.2" y1="225.9" x2="306.7" y2="225.9"/>
	<line class="st0" x1="320.7" y1="225.9" x2="317.2" y2="225.9"/>
	<line class="st0" x1="317.2" y1="225.9" x2="313.7" y2="225.9"/>
	<path class="st0" d="M471.1,225.9c-15.6,0-28.3,12.7-28.4,28.4v558.4c0.1,15.6,12.7,28.3,28.4,28.3h372.8
		c15.6,0,28.3-12.7,28.3-28.3V254.3c0-15.6-12.7-28.3-28.3-28.4"/>
	<line class="st0" x1="672.9" y1="225.9" x2="669.4" y2="225.9"/>
	<line class="st0" x1="679.9" y1="225.9" x2="676.4" y2="225.9"/>
	<line class="st0" x1="669.4" y1="225.9" x2="665.9" y2="225.9"/>
	<line class="st0" x1="676.4" y1="225.9" x2="672.9" y2="225.9"/>
	<line class="st0" x1="683.4" y1="225.9" x2="679.9" y2="225.9"/>
	<line class="st0" x1="686.9" y1="225.9" x2="683.4" y2="225.9"/>
	<line class="st0" x1="693.9" y1="225.9" x2="690.4" y2="225.9"/>
	<line class="st0" x1="690.4" y1="225.9" x2="686.9" y2="225.9"/>
	<line class="st0" x1="665.9" y1="225.9" x2="662.4" y2="225.9"/>
	<line class="st0" x1="658.9" y1="225.9" x2="655.4" y2="225.9"/>
	<line class="st0" x1="471.1" y1="225.9" x2="651.9" y2="225.9"/>
	<polyline class="st0" points="655.4,225.9 655.2,225.9 651.9,225.9 	"/>
	<line class="st0" x1="662.4" y1="225.9" x2="658.9" y2="225.9"/>
	<polyline class="st0" points="700.7,225.9 699.7,225.9 697.4,225.9 	"/>
	<line class="st0" x1="700.7" y1="225.9" x2="843.9" y2="225.9"/>
	<line class="st0" x1="697.4" y1="225.9" x2="693.9" y2="225.9"/>
</g>
</svg>
