<?xml version="1.0" standalone="no"?>
 <!DOCTYPE svg PUBLIC "-//W3C//DTD SVG 1.1//EN" 
 "http://www.w3.org/Graphics/SVG/1.1/DTD/svg11.dtd"> 
<svg xmlns="http://www.w3.org/2000/svg" version="1.1" 
    width="29.7002cm" height="21.0007cm" viewBox="0 0 116930 82680 ">
<title>SVG Picture created as Afficheur-College-F.SilkS.svg date 2017/10/26 21:55:37 </title>
  <desc>Picture generated by PCBNEW </desc>
<g style="fill:#000000; fill-opacity:1;stroke:#000000; stroke-opacity:1;
stroke-linecap:round; stroke-linejoin:round; "
 transform="translate(0 0) scale(1 1)">
</g>
<g style="fill:#000000; fill-opacity:0.0; 
stroke:#000000; stroke-width:-0.000393701; stroke-opacity:1; 
stroke-linecap:round; stroke-linejoin:round;">
</g>
<g style="fill:#000000; fill-opacity:0.0; 
stroke:#000000; stroke-width:47.2441; stroke-opacity:1; 
stroke-linecap:round; stroke-linejoin:round;">
<circle cx="75000" cy="21000" r="900" /> 
<path d="M75476 59984
L77492 59984
" />
<path d="M75476 61015
L77492 61015
" />
<path d="M75476 59984
L75476 60107
" />
<path d="M75476 60892
L75476 61015
" />
<path d="M77492 59984
L77492 60107
" />
<path d="M77492 60892
L77492 61015
" />
<path d="M83476 59984
L85492 59984
" />
<path d="M83476 61015
L85492 61015
" />
<path d="M83476 59984
L83476 60107
" />
<path d="M83476 60892
L83476 61015
" />
<path d="M85492 59984
L85492 60107
" />
<path d="M85492 60892
L85492 61015
" />
<path d="M79476 59984
L81492 59984
" />
<path d="M79476 61015
L81492 61015
" />
<path d="M79476 59984
L79476 60107
" />
<path d="M79476 60892
L79476 61015
" />
<path d="M81492 59984
L81492 60107
" />
<path d="M81492 60892
L81492 61015
" />
<path d="M95228 22708
L95228 21291
" />
<path d="M94942 22915 A1016.21 1016.21 0.0 0 0 95228.3 22708.7 " />
<path d="M93476.4 22000 A1023.62 1023.62 0.0 0 0 94067.4 22927.7 " />
<path d="M94067.4 21072.3 A1023.62 1023.62 0.0 0 0 93476.4 22000 " />
<path d="M95228.3 21291.3 A1016.21 1016.21 0.0 0 0 94942 21085 " />
<path d="M95228 27208
L95228 25791
" />
<path d="M94942 27415 A1016.21 1016.21 0.0 0 0 95228.3 27208.7 " />
<path d="M93476.4 26500 A1023.62 1023.62 0.0 0 0 94067.4 27427.7 " />
<path d="M94067.4 25572.3 A1023.62 1023.62 0.0 0 0 93476.4 26500 " />
<path d="M95228.3 25791.3 A1016.21 1016.21 0.0 0 0 94942 25585 " />
<path d="M95228 31708
L95228 30291
" />
<path d="M94942 31915 A1016.21 1016.21 0.0 0 0 95228.3 31708.7 " />
<path d="M93476.4 31000 A1023.62 1023.62 0.0 0 0 94067.4 31927.7 " />
<path d="M94067.4 30072.3 A1023.62 1023.62 0.0 0 0 93476.4 31000 " />
<path d="M95228.3 30291.3 A1016.21 1016.21 0.0 0 0 94942 30085 " />
<path d="M95228 36708
L95228 35291
" />
<path d="M94942 36915 A1016.21 1016.21 0.0 0 0 95228.3 36708.7 " />
<path d="M93476.4 36000 A1023.62 1023.62 0.0 0 0 94067.4 36927.7 " />
<path d="M94067.4 35072.3 A1023.62 1023.62 0.0 0 0 93476.4 36000 " />
<path d="M95228.3 35291.3 A1016.21 1016.21 0.0 0 0 94942 35085 " />
<path d="M95228 41208
L95228 39791
" />
<path d="M94942 41415 A1016.21 1016.21 0.0 0 0 95228.3 41208.7 " />
<path d="M93476.4 40500 A1023.62 1023.62 0.0 0 0 94067.4 41427.7 " />
<path d="M94067.4 39572.3 A1023.62 1023.62 0.0 0 0 93476.4 40500 " />
<path d="M95228.3 39791.3 A1016.21 1016.21 0.0 0 0 94942 39585 " />
<path d="M95228 45708
L95228 44291
" />
<path d="M94942 45915 A1016.21 1016.21 0.0 0 0 95228.3 45708.7 " />
<path d="M93476.4 45000 A1023.62 1023.62 0.0 0 0 94067.4 45927.7 " />
<path d="M94067.4 44072.3 A1023.62 1023.62 0.0 0 0 93476.4 45000 " />
<path d="M95228.3 44291.3 A1016.21 1016.21 0.0 0 0 94942 44085 " />
<path d="M95228 50208
L95228 48791
" />
<path d="M94942 50415 A1016.21 1016.21 0.0 0 0 95228.3 50208.7 " />
<path d="M93476.4 49500 A1023.62 1023.62 0.0 0 0 94067.4 50427.7 " />
<path d="M94067.4 48572.3 A1023.62 1023.62 0.0 0 0 93476.4 49500 " />
<path d="M95228.3 48791.3 A1016.21 1016.21 0.0 0 0 94942 48585 " />
<path d="M95228 54708
L95228 53291
" />
<path d="M94942 54915 A1016.21 1016.21 0.0 0 0 95228.3 54708.7 " />
<path d="M93476.4 54000 A1023.62 1023.62 0.0 0 0 94067.4 54927.7 " />
<path d="M94067.4 53072.3 A1023.62 1023.62 0.0 0 0 93476.4 54000 " />
<path d="M95228.3 53291.3 A1016.21 1016.21 0.0 0 0 94942 53085 " />
<path d="M95228 59208
L95228 57791
" />
<path d="M94942 59415 A1016.21 1016.21 0.0 0 0 95228.3 59208.7 " />
<path d="M93476.4 58500 A1023.62 1023.62 0.0 0 0 94067.4 59427.7 " />
<path d="M94067.4 57572.3 A1023.62 1023.62 0.0 0 0 93476.4 58500 " />
<path d="M95228.3 57791.3 A1016.21 1016.21 0.0 0 0 94942 57585 " />
<path d="M95228 63708
L95228 62291
" />
<path d="M94942 63915 A1016.21 1016.21 0.0 0 0 95228.3 63708.7 " />
<path d="M93476.4 63000 A1023.62 1023.62 0.0 0 0 94067.4 63927.7 " />
<path d="M94067.4 62072.3 A1023.62 1023.62 0.0 0 0 93476.4 63000 " />
<path d="M95228.3 62291.3 A1016.21 1016.21 0.0 0 0 94942 62085 " />
<path d="M105228 22708
L105228 21291
" />
<path d="M104942 22915 A1016.21 1016.21 0.0 0 0 105228 22708.7 " />
<path d="M103476 22000 A1023.62 1023.62 0.0 0 0 104067 22927.7 " />
<path d="M104067 21072.3 A1023.62 1023.62 0.0 0 0 103476 22000 " />
<path d="M105228 21291.3 A1016.21 1016.21 0.0 0 0 104942 21085 " />
<path d="M105228 27208
L105228 25791
" />
<path d="M104942 27415 A1016.21 1016.21 0.0 0 0 105228 27208.7 " />
<path d="M103476 26500 A1023.62 1023.62 0.0 0 0 104067 27427.7 " />
<path d="M104067 25572.3 A1023.62 1023.62 0.0 0 0 103476 26500 " />
<path d="M105228 25791.3 A1016.21 1016.21 0.0 0 0 104942 25585 " />
<path d="M105228 31708
L105228 30291
" />
<path d="M104942 31915 A1016.21 1016.21 0.0 0 0 105228 31708.7 " />
<path d="M103476 31000 A1023.62 1023.62 0.0 0 0 104067 31927.7 " />
<path d="M104067 30072.3 A1023.62 1023.62 0.0 0 0 103476 31000 " />
<path d="M105228 30291.3 A1016.21 1016.21 0.0 0 0 104942 30085 " />
<path d="M105228 36708
L105228 35291
" />
<path d="M104942 36915 A1016.21 1016.21 0.0 0 0 105228 36708.7 " />
<path d="M103476 36000 A1023.62 1023.62 0.0 0 0 104067 36927.7 " />
<path d="M104067 35072.3 A1023.62 1023.62 0.0 0 0 103476 36000 " />
<path d="M105228 35291.3 A1016.21 1016.21 0.0 0 0 104942 35085 " />
<path d="M105228 41208
L105228 39791
" />
<path d="M104942 41415 A1016.21 1016.21 0.0 0 0 105228 41208.7 " />
<path d="M103476 40500 A1023.62 1023.62 0.0 0 0 104067 41427.7 " />
<path d="M104067 39572.3 A1023.62 1023.62 0.0 0 0 103476 40500 " />
<path d="M105228 39791.3 A1016.21 1016.21 0.0 0 0 104942 39585 " />
<path d="M105228 45708
L105228 44291
" />
<path d="M104942 45915 A1016.21 1016.21 0.0 0 0 105228 45708.7 " />
<path d="M103476 45000 A1023.62 1023.62 0.0 0 0 104067 45927.7 " />
<path d="M104067 44072.3 A1023.62 1023.62 0.0 0 0 103476 45000 " />
<path d="M105228 44291.3 A1016.21 1016.21 0.0 0 0 104942 44085 " />
<path d="M105228 50208
L105228 48791
" />
<path d="M104942 50415 A1016.21 1016.21 0.0 0 0 105228 50208.7 " />
<path d="M103476 49500 A1023.62 1023.62 0.0 0 0 104067 50427.7 " />
<path d="M104067 48572.3 A1023.62 1023.62 0.0 0 0 103476 49500 " />
<path d="M105228 48791.3 A1016.21 1016.21 0.0 0 0 104942 48585 " />
<path d="M105228 54708
L105228 53291
" />
<path d="M104942 54915 A1016.21 1016.21 0.0 0 0 105228 54708.7 " />
<path d="M103476 54000 A1023.62 1023.62 0.0 0 0 104067 54927.7 " />
<path d="M104067 53072.3 A1023.62 1023.62 0.0 0 0 103476 54000 " />
<path d="M105228 53291.3 A1016.21 1016.21 0.0 0 0 104942 53085 " />
<path d="M105228 59708
L105228 58291
" />
<path d="M104942 59915 A1016.21 1016.21 0.0 0 0 105228 59708.7 " />
<path d="M103476 59000 A1023.62 1023.62 0.0 0 0 104067 59927.7 " />
<path d="M104067 58072.3 A1023.62 1023.62 0.0 0 0 103476 59000 " />
<path d="M105228 58291.3 A1016.21 1016.21 0.0 0 0 104942 58085 " />
<path d="M105228 63708
L105228 62291
" />
<path d="M104942 63915 A1016.21 1016.21 0.0 0 0 105228 63708.7 " />
<path d="M103476 63000 A1023.62 1023.62 0.0 0 0 104067 63927.7 " />
<path d="M104067 62072.3 A1023.62 1023.62 0.0 0 0 103476 63000 " />
<path d="M105228 62291.3 A1016.21 1016.21 0.0 0 0 104942 62085 " />
<path d="M91263 22515
L91263 21484
" />
<path d="M91263 21484
L88736 21484
" />
<path d="M88736 21484
L88736 22515
" />
<path d="M88736 22515
L91263 22515
" />
<path d="M91614 22000
L91263 22000
" />
<path d="M88385 22000
L88736 22000
" />
<path d="M90763 27015
L90763 25984
" />
<path d="M90763 25984
L88236 25984
" />
<path d="M88236 25984
L88236 27015
" />
<path d="M88236 27015
L90763 27015
" />
<path d="M91114 26500
L90763 26500
" />
<path d="M87885 26500
L88236 26500
" />
<path d="M90763 31515
L90763 30484
" />
<path d="M90763 30484
L88236 30484
" />
<path d="M88236 30484
L88236 31515
" />
<path d="M88236 31515
L90763 31515
" />
<path d="M91114 31000
L90763 31000
" />
<path d="M87885 31000
L88236 31000
" />
<path d="M90763 36515
L90763 35484
" />
<path d="M90763 35484
L88236 35484
" />
<path d="M88236 35484
L88236 36515
" />
<path d="M88236 36515
L90763 36515
" />
<path d="M91114 36000
L90763 36000
" />
<path d="M87885 36000
L88236 36000
" />
<path d="M90763 41015
L90763 39984
" />
<path d="M90763 39984
L88236 39984
" />
<path d="M88236 39984
L88236 41015
" />
<path d="M88236 41015
L90763 41015
" />
<path d="M91114 40500
L90763 40500
" />
<path d="M87885 40500
L88236 40500
" />
<path d="M90763 45515
L90763 44484
" />
<path d="M90763 44484
L88236 44484
" />
<path d="M88236 44484
L88236 45515
" />
<path d="M88236 45515
L90763 45515
" />
<path d="M91114 45000
L90763 45000
" />
<path d="M87885 45000
L88236 45000
" />
<path d="M90763 50015
L90763 48984
" />
<path d="M90763 48984
L88236 48984
" />
<path d="M88236 48984
L88236 50015
" />
<path d="M88236 50015
L90763 50015
" />
<path d="M91114 49500
L90763 49500
" />
<path d="M87885 49500
L88236 49500
" />
<path d="M90763 54515
L90763 53484
" />
<path d="M90763 53484
L88236 53484
" />
<path d="M88236 53484
L88236 54515
" />
<path d="M88236 54515
L90763 54515
" />
<path d="M91114 54000
L90763 54000
" />
<path d="M87885 54000
L88236 54000
" />
<path d="M90763 59015
L90763 57984
" />
<path d="M90763 57984
L88236 57984
" />
<path d="M88236 57984
L88236 59015
" />
<path d="M88236 59015
L90763 59015
" />
<path d="M91114 58500
L90763 58500
" />
<path d="M87885 58500
L88236 58500
" />
<path d="M90763 63515
L90763 62484
" />
<path d="M90763 62484
L88236 62484
" />
<path d="M88236 62484
L88236 63515
" />
<path d="M88236 63515
L90763 63515
" />
<path d="M91114 63000
L90763 63000
" />
<path d="M87885 63000
L88236 63000
" />
<path d="M100763 22515
L100763 21484
" />
<path d="M100763 21484
L98236 21484
" />
<path d="M98236 21484
L98236 22515
" />
<path d="M98236 22515
L100763 22515
" />
<path d="M101114 22000
L100763 22000
" />
<path d="M97885 22000
L98236 22000
" />
<path d="M100763 27015
L100763 25984
" />
<path d="M100763 25984
L98236 25984
" />
<path d="M98236 25984
L98236 27015
" />
<path d="M98236 27015
L100763 27015
" />
<path d="M101114 26500
L100763 26500
" />
<path d="M97885 26500
L98236 26500
" />
<path d="M100763 31515
L100763 30484
" />
<path d="M100763 30484
L98236 30484
" />
<path d="M98236 30484
L98236 31515
" />
<path d="M98236 31515
L100763 31515
" />
<path d="M101114 31000
L100763 31000
" />
<path d="M97885 31000
L98236 31000
" />
<path d="M100763 37015
L100763 35984
" />
<path d="M100763 35984
L98236 35984
" />
<path d="M98236 35984
L98236 37015
" />
<path d="M98236 37015
L100763 37015
" />
<path d="M101114 36500
L100763 36500
" />
<path d="M97885 36500
L98236 36500
" />
<path d="M100763 41015
L100763 39984
" />
<path d="M100763 39984
L98236 39984
" />
<path d="M98236 39984
L98236 41015
" />
<path d="M98236 41015
L100763 41015
" />
<path d="M101114 40500
L100763 40500
" />
<path d="M97885 40500
L98236 40500
" />
<path d="M100763 45515
L100763 44484
" />
<path d="M100763 44484
L98236 44484
" />
<path d="M98236 44484
L98236 45515
" />
<path d="M98236 45515
L100763 45515
" />
<path d="M101114 45000
L100763 45000
" />
<path d="M97885 45000
L98236 45000
" />
<path d="M100763 50015
L100763 48984
" />
<path d="M100763 48984
L98236 48984
" />
<path d="M98236 48984
L98236 50015
" />
<path d="M98236 50015
L100763 50015
" />
<path d="M101114 49500
L100763 49500
" />
<path d="M97885 49500
L98236 49500
" />
<path d="M100763 54515
L100763 53484
" />
<path d="M100763 53484
L98236 53484
" />
<path d="M98236 53484
L98236 54515
" />
<path d="M98236 54515
L100763 54515
" />
<path d="M101114 54000
L100763 54000
" />
<path d="M97885 54000
L98236 54000
" />
<path d="M100763 59515
L100763 58484
" />
<path d="M100763 58484
L98236 58484
" />
<path d="M98236 58484
L98236 59515
" />
<path d="M98236 59515
L100763 59515
" />
<path d="M101114 59000
L100763 59000
" />
<path d="M97885 59000
L98236 59000
" />
<path d="M100763 63515
L100763 62484
" />
<path d="M100763 62484
L98236 62484
" />
<path d="M98236 62484
L98236 63515
" />
<path d="M98236 63515
L100763 63515
" />
<path d="M101114 63000
L100763 63000
" />
<path d="M97885 63000
L98236 63000
" />
</g>
<g style="fill:#000000; fill-opacity:0.0; 
stroke:#000000; stroke-width:59.0551; stroke-opacity:1; 
stroke-linecap:round; stroke-linejoin:round;">
<path d="M75500 46000
L82500 46000
" />
<path d="M82500 46000
L82500 59000
" />
<path d="M82500 59000
L75500 59000
" />
<path d="M75500 59000
L75500 46000
" />
</g>
<g style="fill:#000000; fill-opacity:0.0; 
stroke:#000000; stroke-width:47.2441; stroke-opacity:1; 
stroke-linecap:round; stroke-linejoin:round;">
<path d="M79484 61968
L83515 61968
" />
<path d="M79484 63795
L83515 63795
" />
<path d="M79484 61968
L79484 63795
" />
<path d="M83515 61968
L83515 63795
" />
<path d="M79484 62562
L83515 62562
" />
<path d="M80771 61968
L80771 62562
" />
<path d="M82228 61968
L82228 62562
" />
</g>
<g style="fill:#000000; fill-opacity:0.0; 
stroke:#000000; stroke-width:59.0551; stroke-opacity:1; 
stroke-linecap:round; stroke-linejoin:round;">
<path d="M84000 22500
L74500 22500
" />
<path d="M74500 22500
L74500 27000
" />
<path d="M74500 27000
L84000 27000
" />
<path d="M84000 27000
L84000 22500
" />
<path d="M84000 22500
L84000 23000
" />
</g>
<g style="fill:#000000; fill-opacity:0.0; 
stroke:#000000; stroke-width:47.2441; stroke-opacity:1; 
stroke-linecap:round; stroke-linejoin:round;">
<path d="M74976.4 40393.7 A393.701 393.701 0.0 0 0 74976.4 39606.3 " />
<path d="M74976 40393
L74976 41043
" />
<path d="M74976 41043
L83023 41043
" />
<path d="M83023 41043
L83023 38956
" />
<path d="M83023 38956
L74976 38956
" />
<path d="M74976 38956
L74976 39606
" />
<path d="M74976.4 31893.7 A393.701 393.701 0.0 0 0 74976.4 31106.3 " />
<path d="M74976 31893
L74976 32543
" />
<path d="M74976 32543
L83023 32543
" />
<path d="M83023 32543
L83023 30456
" />
<path d="M83023 30456
L74976 30456
" />
<path d="M74976 30456
L74976 31106
" />
</g>
<g style="fill:#000000; fill-opacity:0.0; 
stroke:#000000; stroke-width:59.0551; stroke-opacity:1; 
stroke-linecap:round; stroke-linejoin:round;">
<path d="M74540 19865
L74728 19865
" />
<path d="M74503 19978
L74634 19584
L74765 19978
" />
<path d="M74896 19771
L75028 19771
" />
<path d="M75084 19978
L74896 19978
L74896 19584
L75084 19584
" />
<path d="M75459 19978
L75234 19978
" />
<path d="M75346 19978
L75346 19584
L75309 19640
L75271 19678
L75234 19696
" />
<path d="M76418 59632
L76399 59651
L76343 59670
L76306 59670
L76249 59651
L76212 59613
L76193 59576
L76174 59501
L76174 59445
L76193 59370
L76212 59332
L76249 59295
L76306 59276
L76343 59276
L76399 59295
L76418 59314
" />
<path d="M76793 59670
L76568 59670
" />
<path d="M76681 59670
L76681 59276
L76643 59332
L76606 59370
L76568 59389
" />
<path d="M84418 59632
L84399 59651
L84343 59670
L84306 59670
L84249 59651
L84212 59613
L84193 59576
L84174 59501
L84174 59445
L84193 59370
L84212 59332
L84249 59295
L84306 59276
L84343 59276
L84399 59295
L84418 59314
" />
<path d="M84568 59314
L84587 59295
L84624 59276
L84718 59276
L84756 59295
L84774 59314
L84793 59351
L84793 59389
L84774 59445
L84549 59670
L84793 59670
" />
<path d="M80418 59632
L80399 59651
L80343 59670
L80306 59670
L80249 59651
L80212 59613
L80193 59576
L80174 59501
L80174 59445
L80193 59370
L80212 59332
L80249 59295
L80306 59276
L80343 59276
L80399 59295
L80418 59314
" />
<path d="M80549 59276
L80793 59276
L80662 59426
L80718 59426
L80756 59445
L80774 59464
L80793 59501
L80793 59595
L80774 59632
L80756 59651
L80718 59670
L80606 59670
L80568 59651
L80549 59632
" />
<path d="M93314 22037
L93295 22074
L93257 22112
L93201 22168
L93182 22206
L93182 22243
" />
<path d="M93276 22224
L93257 22262
L93220 22299
L93145 22318
L93014 22318
L92939 22299
L92901 22262
L92882 22224
L92882 22149
L92901 22112
L92939 22074
L93014 22056
L93145 22056
L93220 22074
L93257 22112
L93276 22149
L93276 22224
" />
<path d="M93276 21681
L93276 21906
" />
<path d="M93276 21793
L92882 21793
L92939 21831
L92976 21868
L92995 21906
" />
<path d="M93314 26537
L93295 26574
L93257 26612
L93201 26668
L93182 26706
L93182 26743
" />
<path d="M93276 26724
L93257 26762
L93220 26799
L93145 26818
L93014 26818
L92939 26799
L92901 26762
L92882 26724
L92882 26649
L92901 26612
L92939 26574
L93014 26556
L93145 26556
L93220 26574
L93257 26612
L93276 26649
L93276 26724
" />
<path d="M92920 26406
L92901 26387
L92882 26350
L92882 26256
L92901 26218
L92920 26200
L92957 26181
L92995 26181
L93051 26200
L93276 26425
L93276 26181
" />
<path d="M93314 31037
L93295 31074
L93257 31112
L93201 31168
L93182 31206
L93182 31243
" />
<path d="M93276 31224
L93257 31262
L93220 31299
L93145 31318
L93014 31318
L92939 31299
L92901 31262
L92882 31224
L92882 31149
L92901 31112
L92939 31074
L93014 31056
L93145 31056
L93220 31074
L93257 31112
L93276 31149
L93276 31224
" />
<path d="M92882 30925
L92882 30681
L93032 30812
L93032 30756
L93051 30718
L93070 30700
L93107 30681
L93201 30681
L93239 30700
L93257 30718
L93276 30756
L93276 30868
L93257 30906
L93239 30925
" />
<path d="M93314 36037
L93295 36074
L93257 36112
L93201 36168
L93182 36206
L93182 36243
" />
<path d="M93276 36224
L93257 36262
L93220 36299
L93145 36318
L93014 36318
L92939 36299
L92901 36262
L92882 36224
L92882 36149
L92901 36112
L92939 36074
L93014 36056
L93145 36056
L93220 36074
L93257 36112
L93276 36149
L93276 36224
" />
<path d="M93014 35718
L93276 35718
" />
<path d="M92864 35812
L93145 35906
L93145 35662
" />
<path d="M93314 40537
L93295 40574
L93257 40612
L93201 40668
L93182 40706
L93182 40743
" />
<path d="M93276 40724
L93257 40762
L93220 40799
L93145 40818
L93014 40818
L92939 40799
L92901 40762
L92882 40724
L92882 40649
L92901 40612
L92939 40574
L93014 40556
L93145 40556
L93220 40574
L93257 40612
L93276 40649
L93276 40724
" />
<path d="M92882 40200
L92882 40387
L93070 40406
L93051 40387
L93032 40350
L93032 40256
L93051 40218
L93070 40200
L93107 40181
L93201 40181
L93239 40200
L93257 40218
L93276 40256
L93276 40350
L93257 40387
L93239 40406
" />
<path d="M93314 45037
L93295 45074
L93257 45112
L93201 45168
L93182 45206
L93182 45243
" />
<path d="M93276 45224
L93257 45262
L93220 45299
L93145 45318
L93014 45318
L92939 45299
L92901 45262
L92882 45224
L92882 45149
L92901 45112
L92939 45074
L93014 45056
L93145 45056
L93220 45074
L93257 45112
L93276 45149
L93276 45224
" />
<path d="M92882 44718
L92882 44793
L92901 44831
L92920 44850
L92976 44887
L93051 44906
L93201 44906
L93239 44887
L93257 44868
L93276 44831
L93276 44756
L93257 44718
L93239 44700
L93201 44681
L93107 44681
L93070 44700
L93051 44718
L93032 44756
L93032 44831
L93051 44868
L93070 44887
L93107 44906
" />
<path d="M93314 49537
L93295 49574
L93257 49612
L93201 49668
L93182 49706
L93182 49743
" />
<path d="M93276 49724
L93257 49762
L93220 49799
L93145 49818
L93014 49818
L92939 49799
L92901 49762
L92882 49724
L92882 49649
L92901 49612
L92939 49574
L93014 49556
L93145 49556
L93220 49574
L93257 49612
L93276 49649
L93276 49724
" />
<path d="M92882 49425
L92882 49162
L93276 49331
" />
<path d="M93314 54037
L93295 54074
L93257 54112
L93201 54168
L93182 54206
L93182 54243
" />
<path d="M93276 54224
L93257 54262
L93220 54299
L93145 54318
L93014 54318
L92939 54299
L92901 54262
L92882 54224
L92882 54149
L92901 54112
L92939 54074
L93014 54056
L93145 54056
L93220 54074
L93257 54112
L93276 54149
L93276 54224
" />
<path d="M93051 53831
L93032 53868
L93014 53887
L92976 53906
L92957 53906
L92920 53887
L92901 53868
L92882 53831
L92882 53756
L92901 53718
L92920 53700
L92957 53681
L92976 53681
L93014 53700
L93032 53718
L93051 53756
L93051 53831
L93070 53868
L93089 53887
L93126 53906
L93201 53906
L93239 53887
L93257 53868
L93276 53831
L93276 53756
L93257 53718
L93239 53700
L93201 53681
L93126 53681
L93089 53700
L93070 53718
L93051 53756
" />
<path d="M93314 58537
L93295 58574
L93257 58612
L93201 58668
L93182 58706
L93182 58743
" />
<path d="M93276 58724
L93257 58762
L93220 58799
L93145 58818
L93014 58818
L92939 58799
L92901 58762
L92882 58724
L92882 58649
L92901 58612
L92939 58574
L93014 58556
L93145 58556
L93220 58574
L93257 58612
L93276 58649
L93276 58724
" />
<path d="M93276 58368
L93276 58293
L93257 58256
L93239 58237
L93182 58200
L93107 58181
L92957 58181
L92920 58200
L92901 58218
L92882 58256
L92882 58331
L92901 58368
L92920 58387
L92957 58406
L93051 58406
L93089 58387
L93107 58368
L93126 58331
L93126 58256
L93107 58218
L93089 58200
L93051 58181
" />
<path d="M93314 63224
L93295 63262
L93257 63299
L93201 63356
L93182 63393
L93182 63431
" />
<path d="M93276 63412
L93257 63449
L93220 63487
L93145 63506
L93014 63506
L92939 63487
L92901 63449
L92882 63412
L92882 63337
L92901 63299
L92939 63262
L93014 63243
L93145 63243
L93220 63262
L93257 63299
L93276 63337
L93276 63412
" />
<path d="M93276 62868
L93276 63093
" />
<path d="M93276 62981
L92882 62981
L92939 63018
L92976 63056
L92995 63093
" />
<path d="M92882 62625
L92882 62587
L92901 62550
L92920 62531
L92957 62512
L93032 62493
L93126 62493
L93201 62512
L93239 62531
L93257 62550
L93276 62587
L93276 62625
L93257 62662
L93239 62681
L93201 62700
L93126 62718
L93032 62718
L92957 62700
L92920 62681
L92901 62662
L92882 62625
" />
<path d="M103314 22224
L103295 22262
L103257 22299
L103201 22356
L103182 22393
L103182 22431
" />
<path d="M103276 22412
L103257 22449
L103220 22487
L103145 22506
L103014 22506
L102939 22487
L102901 22449
L102882 22412
L102882 22337
L102901 22299
L102939 22262
L103014 22243
L103145 22243
L103220 22262
L103257 22299
L103276 22337
L103276 22412
" />
<path d="M103276 21868
L103276 22093
" />
<path d="M103276 21981
L102882 21981
L102939 22018
L102976 22056
L102995 22093
" />
<path d="M103276 21493
L103276 21718
" />
<path d="M103276 21606
L102882 21606
L102939 21643
L102976 21681
L102995 21718
" />
<path d="M103314 26724
L103295 26762
L103257 26799
L103201 26856
L103182 26893
L103182 26931
" />
<path d="M103276 26912
L103257 26949
L103220 26987
L103145 27006
L103014 27006
L102939 26987
L102901 26949
L102882 26912
L102882 26837
L102901 26799
L102939 26762
L103014 26743
L103145 26743
L103220 26762
L103257 26799
L103276 26837
L103276 26912
" />
<path d="M103276 26368
L103276 26593
" />
<path d="M103276 26481
L102882 26481
L102939 26518
L102976 26556
L102995 26593
" />
<path d="M102920 26218
L102901 26200
L102882 26162
L102882 26068
L102901 26031
L102920 26012
L102957 25993
L102995 25993
L103051 26012
L103276 26237
L103276 25993
" />
<path d="M103314 31224
L103295 31262
L103257 31299
L103201 31356
L103182 31393
L103182 31431
" />
<path d="M103276 31412
L103257 31449
L103220 31487
L103145 31506
L103014 31506
L102939 31487
L102901 31449
L102882 31412
L102882 31337
L102901 31299
L102939 31262
L103014 31243
L103145 31243
L103220 31262
L103257 31299
L103276 31337
L103276 31412
" />
<path d="M103276 30868
L103276 31093
" />
<path d="M103276 30981
L102882 30981
L102939 31018
L102976 31056
L102995 31093
" />
<path d="M102882 30737
L102882 30493
L103032 30625
L103032 30568
L103051 30531
L103070 30512
L103107 30493
L103201 30493
L103239 30512
L103257 30531
L103276 30568
L103276 30681
L103257 30718
L103239 30737
" />
<path d="M103314 36224
L103295 36262
L103257 36299
L103201 36356
L103182 36393
L103182 36431
" />
<path d="M103276 36412
L103257 36449
L103220 36487
L103145 36506
L103014 36506
L102939 36487
L102901 36449
L102882 36412
L102882 36337
L102901 36299
L102939 36262
L103014 36243
L103145 36243
L103220 36262
L103257 36299
L103276 36337
L103276 36412
" />
<path d="M103276 35868
L103276 36093
" />
<path d="M103276 35981
L102882 35981
L102939 36018
L102976 36056
L102995 36093
" />
<path d="M103014 35531
L103276 35531
" />
<path d="M102864 35625
L103145 35718
L103145 35475
" />
<path d="M103314 40724
L103295 40762
L103257 40799
L103201 40856
L103182 40893
L103182 40931
" />
<path d="M103276 40912
L103257 40949
L103220 40987
L103145 41006
L103014 41006
L102939 40987
L102901 40949
L102882 40912
L102882 40837
L102901 40799
L102939 40762
L103014 40743
L103145 40743
L103220 40762
L103257 40799
L103276 40837
L103276 40912
" />
<path d="M103276 40368
L103276 40593
" />
<path d="M103276 40481
L102882 40481
L102939 40518
L102976 40556
L102995 40593
" />
<path d="M102882 40012
L102882 40200
L103070 40218
L103051 40200
L103032 40162
L103032 40068
L103051 40031
L103070 40012
L103107 39993
L103201 39993
L103239 40012
L103257 40031
L103276 40068
L103276 40162
L103257 40200
L103239 40218
" />
<path d="M103314 45224
L103295 45262
L103257 45299
L103201 45356
L103182 45393
L103182 45431
" />
<path d="M103276 45412
L103257 45449
L103220 45487
L103145 45506
L103014 45506
L102939 45487
L102901 45449
L102882 45412
L102882 45337
L102901 45299
L102939 45262
L103014 45243
L103145 45243
L103220 45262
L103257 45299
L103276 45337
L103276 45412
" />
<path d="M103276 44868
L103276 45093
" />
<path d="M103276 44981
L102882 44981
L102939 45018
L102976 45056
L102995 45093
" />
<path d="M102882 44531
L102882 44606
L102901 44643
L102920 44662
L102976 44700
L103051 44718
L103201 44718
L103239 44700
L103257 44681
L103276 44643
L103276 44568
L103257 44531
L103239 44512
L103201 44493
L103107 44493
L103070 44512
L103051 44531
L103032 44568
L103032 44643
L103051 44681
L103070 44700
L103107 44718
" />
<path d="M103314 49724
L103295 49762
L103257 49799
L103201 49856
L103182 49893
L103182 49931
" />
<path d="M103276 49912
L103257 49949
L103220 49987
L103145 50006
L103014 50006
L102939 49987
L102901 49949
L102882 49912
L102882 49837
L102901 49799
L102939 49762
L103014 49743
L103145 49743
L103220 49762
L103257 49799
L103276 49837
L103276 49912
" />
<path d="M103276 49368
L103276 49593
" />
<path d="M103276 49481
L102882 49481
L102939 49518
L102976 49556
L102995 49593
" />
<path d="M102882 49237
L102882 48975
L103276 49143
" />
<path d="M103314 54224
L103295 54262
L103257 54299
L103201 54356
L103182 54393
L103182 54431
" />
<path d="M103276 54412
L103257 54449
L103220 54487
L103145 54506
L103014 54506
L102939 54487
L102901 54449
L102882 54412
L102882 54337
L102901 54299
L102939 54262
L103014 54243
L103145 54243
L103220 54262
L103257 54299
L103276 54337
L103276 54412
" />
<path d="M103276 53868
L103276 54093
" />
<path d="M103276 53981
L102882 53981
L102939 54018
L102976 54056
L102995 54093
" />
<path d="M103051 53643
L103032 53681
L103014 53700
L102976 53718
L102957 53718
L102920 53700
L102901 53681
L102882 53643
L102882 53568
L102901 53531
L102920 53512
L102957 53493
L102976 53493
L103014 53512
L103032 53531
L103051 53568
L103051 53643
L103070 53681
L103089 53700
L103126 53718
L103201 53718
L103239 53700
L103257 53681
L103276 53643
L103276 53568
L103257 53531
L103239 53512
L103201 53493
L103126 53493
L103089 53512
L103070 53531
L103051 53568
" />
<path d="M103314 59224
L103295 59262
L103257 59299
L103201 59356
L103182 59393
L103182 59431
" />
<path d="M103276 59412
L103257 59449
L103220 59487
L103145 59506
L103014 59506
L102939 59487
L102901 59449
L102882 59412
L102882 59337
L102901 59299
L102939 59262
L103014 59243
L103145 59243
L103220 59262
L103257 59299
L103276 59337
L103276 59412
" />
<path d="M103276 58868
L103276 59093
" />
<path d="M103276 58981
L102882 58981
L102939 59018
L102976 59056
L102995 59093
" />
<path d="M103276 58681
L103276 58606
L103257 58568
L103239 58550
L103182 58512
L103107 58493
L102957 58493
L102920 58512
L102901 58531
L102882 58568
L102882 58643
L102901 58681
L102920 58700
L102957 58718
L103051 58718
L103089 58700
L103107 58681
L103126 58643
L103126 58568
L103107 58531
L103089 58512
L103051 58493
" />
<path d="M103314 63224
L103295 63262
L103257 63299
L103201 63356
L103182 63393
L103182 63431
" />
<path d="M103276 63412
L103257 63449
L103220 63487
L103145 63506
L103014 63506
L102939 63487
L102901 63449
L102882 63412
L102882 63337
L102901 63299
L102939 63262
L103014 63243
L103145 63243
L103220 63262
L103257 63299
L103276 63337
L103276 63412
" />
<path d="M102920 63093
L102901 63074
L102882 63037
L102882 62943
L102901 62906
L102920 62887
L102957 62868
L102995 62868
L103051 62887
L103276 63112
L103276 62868
" />
<path d="M102882 62625
L102882 62587
L102901 62550
L102920 62531
L102957 62512
L103032 62493
L103126 62493
L103201 62512
L103239 62531
L103257 62550
L103276 62587
L103276 62625
L103257 62662
L103239 62681
L103201 62700
L103126 62718
L103032 62718
L102957 62700
L102920 62681
L102901 62662
L102882 62625
" />
<path d="M89934 23087
L89803 22900
" />
<path d="M89709 23087
L89709 22693
L89859 22693
L89896 22712
L89915 22731
L89934 22768
L89934 22825
L89915 22862
L89896 22881
L89859 22900
L89709 22900
" />
<path d="M90309 23087
L90084 23087
" />
<path d="M90196 23087
L90196 22693
L90159 22750
L90121 22787
L90084 22806
" />
<path d="M89434 27587
L89303 27400
" />
<path d="M89209 27587
L89209 27193
L89359 27193
L89396 27212
L89415 27231
L89434 27268
L89434 27325
L89415 27362
L89396 27381
L89359 27400
L89209 27400
" />
<path d="M89584 27231
L89603 27212
L89640 27193
L89734 27193
L89771 27212
L89790 27231
L89809 27268
L89809 27306
L89790 27362
L89565 27587
L89809 27587
" />
<path d="M89434 32087
L89303 31900
" />
<path d="M89209 32087
L89209 31693
L89359 31693
L89396 31712
L89415 31731
L89434 31768
L89434 31825
L89415 31862
L89396 31881
L89359 31900
L89209 31900
" />
<path d="M89565 31693
L89809 31693
L89678 31843
L89734 31843
L89771 31862
L89790 31881
L89809 31918
L89809 32012
L89790 32050
L89771 32068
L89734 32087
L89621 32087
L89584 32068
L89565 32050
" />
<path d="M89434 37087
L89303 36900
" />
<path d="M89209 37087
L89209 36693
L89359 36693
L89396 36712
L89415 36731
L89434 36768
L89434 36825
L89415 36862
L89396 36881
L89359 36900
L89209 36900
" />
<path d="M89771 36825
L89771 37087
" />
<path d="M89678 36675
L89584 36956
L89828 36956
" />
<path d="M89434 41587
L89303 41400
" />
<path d="M89209 41587
L89209 41193
L89359 41193
L89396 41212
L89415 41231
L89434 41268
L89434 41325
L89415 41362
L89396 41381
L89359 41400
L89209 41400
" />
<path d="M89790 41193
L89603 41193
L89584 41381
L89603 41362
L89640 41343
L89734 41343
L89771 41362
L89790 41381
L89809 41418
L89809 41512
L89790 41550
L89771 41568
L89734 41587
L89640 41587
L89603 41568
L89584 41550
" />
<path d="M89434 46087
L89303 45900
" />
<path d="M89209 46087
L89209 45693
L89359 45693
L89396 45712
L89415 45731
L89434 45768
L89434 45825
L89415 45862
L89396 45881
L89359 45900
L89209 45900
" />
<path d="M89771 45693
L89696 45693
L89659 45712
L89640 45731
L89603 45787
L89584 45862
L89584 46012
L89603 46050
L89621 46068
L89659 46087
L89734 46087
L89771 46068
L89790 46050
L89809 46012
L89809 45918
L89790 45881
L89771 45862
L89734 45843
L89659 45843
L89621 45862
L89603 45881
L89584 45918
" />
<path d="M89434 50587
L89303 50400
" />
<path d="M89209 50587
L89209 50193
L89359 50193
L89396 50212
L89415 50231
L89434 50268
L89434 50325
L89415 50362
L89396 50381
L89359 50400
L89209 50400
" />
<path d="M89565 50193
L89828 50193
L89659 50587
" />
<path d="M89434 55087
L89303 54900
" />
<path d="M89209 55087
L89209 54693
L89359 54693
L89396 54712
L89415 54731
L89434 54768
L89434 54825
L89415 54862
L89396 54881
L89359 54900
L89209 54900
" />
<path d="M89659 54862
L89621 54843
L89603 54825
L89584 54787
L89584 54768
L89603 54731
L89621 54712
L89659 54693
L89734 54693
L89771 54712
L89790 54731
L89809 54768
L89809 54787
L89790 54825
L89771 54843
L89734 54862
L89659 54862
L89621 54881
L89603 54900
L89584 54937
L89584 55012
L89603 55050
L89621 55068
L89659 55087
L89734 55087
L89771 55068
L89790 55050
L89809 55012
L89809 54937
L89790 54900
L89771 54881
L89734 54862
" />
<path d="M89434 59587
L89303 59400
" />
<path d="M89209 59587
L89209 59193
L89359 59193
L89396 59212
L89415 59231
L89434 59268
L89434 59325
L89415 59362
L89396 59381
L89359 59400
L89209 59400
" />
<path d="M89621 59587
L89696 59587
L89734 59568
L89753 59550
L89790 59493
L89809 59418
L89809 59268
L89790 59231
L89771 59212
L89734 59193
L89659 59193
L89621 59212
L89603 59231
L89584 59268
L89584 59362
L89603 59400
L89621 59418
L89659 59437
L89734 59437
L89771 59418
L89790 59400
L89809 59362
" />
<path d="M89246 64087
L89115 63900
" />
<path d="M89021 64087
L89021 63693
L89171 63693
L89209 63712
L89228 63731
L89246 63768
L89246 63825
L89228 63862
L89209 63881
L89171 63900
L89021 63900
" />
<path d="M89621 64087
L89396 64087
" />
<path d="M89509 64087
L89509 63693
L89471 63750
L89434 63787
L89396 63806
" />
<path d="M89865 63693
L89903 63693
L89940 63712
L89959 63731
L89978 63768
L89996 63843
L89996 63937
L89978 64012
L89959 64050
L89940 64068
L89903 64087
L89865 64087
L89828 64068
L89809 64050
L89790 64012
L89771 63937
L89771 63843
L89790 63768
L89809 63731
L89828 63712
L89865 63693
" />
<path d="M99246 23087
L99115 22900
" />
<path d="M99021 23087
L99021 22693
L99171 22693
L99209 22712
L99228 22731
L99246 22768
L99246 22825
L99228 22862
L99209 22881
L99171 22900
L99021 22900
" />
<path d="M99621 23087
L99396 23087
" />
<path d="M99509 23087
L99509 22693
L99471 22750
L99434 22787
L99396 22806
" />
<path d="M99996 23087
L99771 23087
" />
<path d="M99884 23087
L99884 22693
L99846 22750
L99809 22787
L99771 22806
" />
<path d="M99246 27587
L99115 27400
" />
<path d="M99021 27587
L99021 27193
L99171 27193
L99209 27212
L99228 27231
L99246 27268
L99246 27325
L99228 27362
L99209 27381
L99171 27400
L99021 27400
" />
<path d="M99621 27587
L99396 27587
" />
<path d="M99509 27587
L99509 27193
L99471 27250
L99434 27287
L99396 27306
" />
<path d="M99771 27231
L99790 27212
L99828 27193
L99921 27193
L99959 27212
L99978 27231
L99996 27268
L99996 27306
L99978 27362
L99753 27587
L99996 27587
" />
<path d="M99246 32087
L99115 31900
" />
<path d="M99021 32087
L99021 31693
L99171 31693
L99209 31712
L99228 31731
L99246 31768
L99246 31825
L99228 31862
L99209 31881
L99171 31900
L99021 31900
" />
<path d="M99621 32087
L99396 32087
" />
<path d="M99509 32087
L99509 31693
L99471 31750
L99434 31787
L99396 31806
" />
<path d="M99753 31693
L99996 31693
L99865 31843
L99921 31843
L99959 31862
L99978 31881
L99996 31918
L99996 32012
L99978 32050
L99959 32068
L99921 32087
L99809 32087
L99771 32068
L99753 32050
" />
<path d="M99246 37587
L99115 37400
" />
<path d="M99021 37587
L99021 37193
L99171 37193
L99209 37212
L99228 37231
L99246 37268
L99246 37325
L99228 37362
L99209 37381
L99171 37400
L99021 37400
" />
<path d="M99621 37587
L99396 37587
" />
<path d="M99509 37587
L99509 37193
L99471 37250
L99434 37287
L99396 37306
" />
<path d="M99959 37325
L99959 37587
" />
<path d="M99865 37175
L99771 37456
L100015 37456
" />
<path d="M99246 41587
L99115 41400
" />
<path d="M99021 41587
L99021 41193
L99171 41193
L99209 41212
L99228 41231
L99246 41268
L99246 41325
L99228 41362
L99209 41381
L99171 41400
L99021 41400
" />
<path d="M99621 41587
L99396 41587
" />
<path d="M99509 41587
L99509 41193
L99471 41250
L99434 41287
L99396 41306
" />
<path d="M99978 41193
L99790 41193
L99771 41381
L99790 41362
L99828 41343
L99921 41343
L99959 41362
L99978 41381
L99996 41418
L99996 41512
L99978 41550
L99959 41568
L99921 41587
L99828 41587
L99790 41568
L99771 41550
" />
<path d="M99246 46087
L99115 45900
" />
<path d="M99021 46087
L99021 45693
L99171 45693
L99209 45712
L99228 45731
L99246 45768
L99246 45825
L99228 45862
L99209 45881
L99171 45900
L99021 45900
" />
<path d="M99621 46087
L99396 46087
" />
<path d="M99509 46087
L99509 45693
L99471 45750
L99434 45787
L99396 45806
" />
<path d="M99959 45693
L99884 45693
L99846 45712
L99828 45731
L99790 45787
L99771 45862
L99771 46012
L99790 46050
L99809 46068
L99846 46087
L99921 46087
L99959 46068
L99978 46050
L99996 46012
L99996 45918
L99978 45881
L99959 45862
L99921 45843
L99846 45843
L99809 45862
L99790 45881
L99771 45918
" />
<path d="M99246 50587
L99115 50400
" />
<path d="M99021 50587
L99021 50193
L99171 50193
L99209 50212
L99228 50231
L99246 50268
L99246 50325
L99228 50362
L99209 50381
L99171 50400
L99021 50400
" />
<path d="M99621 50587
L99396 50587
" />
<path d="M99509 50587
L99509 50193
L99471 50250
L99434 50287
L99396 50306
" />
<path d="M99753 50193
L100015 50193
L99846 50587
" />
<path d="M99246 55087
L99115 54900
" />
<path d="M99021 55087
L99021 54693
L99171 54693
L99209 54712
L99228 54731
L99246 54768
L99246 54825
L99228 54862
L99209 54881
L99171 54900
L99021 54900
" />
<path d="M99621 55087
L99396 55087
" />
<path d="M99509 55087
L99509 54693
L99471 54750
L99434 54787
L99396 54806
" />
<path d="M99846 54862
L99809 54843
L99790 54825
L99771 54787
L99771 54768
L99790 54731
L99809 54712
L99846 54693
L99921 54693
L99959 54712
L99978 54731
L99996 54768
L99996 54787
L99978 54825
L99959 54843
L99921 54862
L99846 54862
L99809 54881
L99790 54900
L99771 54937
L99771 55012
L99790 55050
L99809 55068
L99846 55087
L99921 55087
L99959 55068
L99978 55050
L99996 55012
L99996 54937
L99978 54900
L99959 54881
L99921 54862
" />
<path d="M99246 60087
L99115 59900
" />
<path d="M99021 60087
L99021 59693
L99171 59693
L99209 59712
L99228 59731
L99246 59768
L99246 59825
L99228 59862
L99209 59881
L99171 59900
L99021 59900
" />
<path d="M99621 60087
L99396 60087
" />
<path d="M99509 60087
L99509 59693
L99471 59750
L99434 59787
L99396 59806
" />
<path d="M99809 60087
L99884 60087
L99921 60068
L99940 60050
L99978 59993
L99996 59918
L99996 59768
L99978 59731
L99959 59712
L99921 59693
L99846 59693
L99809 59712
L99790 59731
L99771 59768
L99771 59862
L99790 59900
L99809 59918
L99846 59937
L99921 59937
L99959 59918
L99978 59900
L99996 59862
" />
<path d="M99246 64087
L99115 63900
" />
<path d="M99021 64087
L99021 63693
L99171 63693
L99209 63712
L99228 63731
L99246 63768
L99246 63825
L99228 63862
L99209 63881
L99171 63900
L99021 63900
" />
<path d="M99396 63731
L99415 63712
L99453 63693
L99546 63693
L99584 63712
L99603 63731
L99621 63768
L99621 63806
L99603 63862
L99378 64087
L99621 64087
" />
<path d="M99865 63693
L99903 63693
L99940 63712
L99959 63731
L99978 63768
L99996 63843
L99996 63937
L99978 64012
L99959 64050
L99940 64068
L99903 64087
L99865 64087
L99828 64068
L99809 64050
L99790 64012
L99771 63937
L99771 63843
L99790 63768
L99809 63731
L99828 63712
L99865 63693
" />
<path d="M78676 55949
L79154 55949
L79210 55921
L79239 55893
L79267 55837
L79267 55724
L79239 55668
L79210 55640
L79154 55612
L78676 55612
" />
<path d="M79267 55021
L79267 55359
" />
<path d="M79267 55190
L78676 55190
L78760 55246
L78817 55303
L78845 55359
" />
<path d="M77598 56957
L77598 56676
" />
<path d="M77767 57013
L77176 56816
L77767 56619
" />
<path d="M77767 56422
L77373 56422
" />
<path d="M77485 56422
L77429 56394
L77401 56366
L77373 56310
L77373 56254
" />
<path d="M77767 55804
L77176 55804
" />
<path d="M77739 55804
L77767 55860
L77767 55973
L77739 56029
L77710 56057
L77654 56085
L77485 56085
L77429 56057
L77401 56029
L77373 55973
L77373 55860
L77401 55804
" />
<path d="M77373 55269
L77767 55269
" />
<path d="M77373 55523
L77682 55523
L77739 55494
L77767 55438
L77767 55354
L77739 55298
L77710 55269
" />
<path d="M77767 54988
L77373 54988
" />
<path d="M77176 54988
L77204 55016
L77232 54988
L77204 54960
L77176 54988
L77232 54988
" />
<path d="M77373 54707
L77767 54707
" />
<path d="M77429 54707
L77401 54679
L77373 54623
L77373 54538
L77401 54482
L77457 54454
L77767 54454
" />
<path d="M77767 54088
L77739 54145
L77710 54173
L77654 54201
L77485 54201
L77429 54173
L77401 54145
L77373 54088
L77373 54004
L77401 53948
L77429 53920
L77485 53892
L77654 53892
L77710 53920
L77739 53948
L77767 54004
L77767 54088
" />
<path d="M77823 53779
L77823 53329
" />
<path d="M77373 53188
L77964 53188
" />
<path d="M77401 53188
L77373 53132
L77373 53020
L77401 52964
L77429 52935
L77485 52907
L77654 52907
L77710 52935
L77739 52964
L77767 53020
L77767 53132
L77739 53188
" />
<path d="M77767 52654
L77373 52654
" />
<path d="M77485 52654
L77429 52626
L77401 52598
L77373 52542
L77373 52485
" />
<path d="M77767 52204
L77739 52260
L77710 52289
L77654 52317
L77485 52317
L77429 52289
L77401 52260
L77373 52204
L77373 52120
L77401 52064
L77429 52035
L77485 52007
L77654 52007
L77710 52035
L77739 52064
L77767 52120
L77767 52204
" />
<path d="M77823 51895
L77823 51445
" />
<path d="M77767 51304
L77176 51304
L77598 51107
L77176 50911
L77767 50911
" />
<path d="M77767 50629
L77373 50629
" />
<path d="M77176 50629
L77204 50658
L77232 50629
L77204 50601
L77176 50629
L77232 50629
" />
<path d="M77373 50348
L77767 50348
" />
<path d="M77429 50348
L77401 50320
L77373 50264
L77373 50179
L77401 50123
L77457 50095
L77767 50095
" />
<path d="M77767 49814
L77373 49814
" />
<path d="M77176 49814
L77204 49842
L77232 49814
L77204 49786
L77176 49814
L77232 49814
" />
<path d="M77823 49673
L77823 49223
" />
<path d="M77964 48914
L77964 49055
L77120 49055
L77120 48914
" />
<path d="M77598 48717
L77598 48436
" />
<path d="M77767 48773
L77176 48577
L77767 48380
" />
<path d="M77964 48239
L77964 48098
L77120 48098
L77120 48239
" />
<path d="M81200 61359
L81200 61677
L81218 61715
L81237 61734
L81275 61752
L81350 61752
L81387 61734
L81406 61715
L81425 61677
L81425 61359
" />
<path d="M81593 61396
L81612 61377
L81649 61359
L81743 61359
L81781 61377
L81799 61396
L81818 61434
L81818 61471
L81799 61527
L81574 61752
L81818 61752
" />
<path d="M79050 25176
L79050 25654
L79078 25710
L79106 25739
L79162 25767
L79275 25767
L79331 25739
L79359 25710
L79387 25654
L79387 25176
" />
<path d="M79612 25176
L79978 25176
L79781 25401
L79865 25401
L79921 25429
L79949 25457
L79978 25514
L79978 25654
L79949 25710
L79921 25739
L79865 25767
L79696 25767
L79640 25739
L79612 25710
" />
<path d="M73140 24767
L72943 24485
" />
<path d="M72802 24767
L72802 24176
L73027 24176
L73083 24204
L73111 24232
L73140 24289
L73140 24373
L73111 24429
L73083 24457
L73027 24485
L72802 24485
" />
<path d="M73589 24457
L73393 24457
" />
<path d="M73393 24767
L73393 24176
L73674 24176
" />
<path d="M73758 24823
L74208 24823
" />
<path d="M74264 24176
L74602 24176
" />
<path d="M74433 24767
L74433 24176
" />
<path d="M74799 24767
L74799 24373
" />
<path d="M74799 24485
L74827 24429
L74855 24401
L74911 24373
L74967 24373
" />
<path d="M75417 24767
L75417 24457
L75389 24401
L75333 24373
L75221 24373
L75164 24401
" />
<path d="M75417 24739
L75361 24767
L75221 24767
L75164 24739
L75136 24682
L75136 24626
L75164 24570
L75221 24542
L75361 24542
L75417 24514
" />
<path d="M75699 24373
L75699 24767
" />
<path d="M75699 24429
L75727 24401
L75783 24373
L75867 24373
L75924 24401
L75952 24457
L75952 24767
" />
<path d="M76205 24739
L76261 24767
L76374 24767
L76430 24739
L76458 24682
L76458 24654
L76430 24598
L76374 24570
L76289 24570
L76233 24542
L76205 24485
L76205 24457
L76233 24401
L76289 24373
L76374 24373
L76430 24401
" />
<path d="M76711 24767
L76711 24373
" />
<path d="M76711 24429
L76739 24401
L76795 24373
L76880 24373
L76936 24401
L76964 24457
L76964 24767
" />
<path d="M76964 24457
L76992 24401
L77048 24373
L77133 24373
L77189 24401
L77217 24457
L77217 24767
" />
<path d="M77498 24767
L77498 24373
" />
<path d="M77498 24176
L77470 24204
L77498 24232
L77526 24204
L77498 24176
L77498 24232
" />
<path d="M77695 24373
L77920 24373
" />
<path d="M77780 24176
L77780 24682
L77808 24739
L77864 24767
L77920 24767
" />
<path d="M78033 24373
L78258 24373
" />
<path d="M78117 24176
L78117 24682
L78145 24739
L78201 24767
L78258 24767
" />
<path d="M78679 24739
L78623 24767
L78511 24767
L78455 24739
L78426 24682
L78426 24457
L78455 24401
L78511 24373
L78623 24373
L78679 24401
L78708 24457
L78708 24514
L78426 24570
" />
<path d="M78961 24767
L78961 24373
" />
<path d="M78961 24485
L78989 24429
L79017 24401
L79073 24373
L79129 24373
" />
<path d="M79186 24823
L79636 24823
" />
<path d="M80029 24373
L80029 24767
" />
<path d="M79889 24148
L79748 24570
L80114 24570
" />
<path d="M80282 24176
L80648 24176
L80451 24401
L80535 24401
L80592 24429
L80620 24457
L80648 24514
L80648 24654
L80620 24710
L80592 24739
L80535 24767
L80367 24767
L80311 24739
L80282 24710
" />
<path d="M80845 24176
L81210 24176
L81014 24401
L81098 24401
L81154 24429
L81182 24457
L81210 24514
L81210 24654
L81182 24710
L81154 24739
L81098 24767
L80929 24767
L80873 24739
L80845 24710
" />
<path d="M81464 24767
L81464 24176
L81660 24598
L81857 24176
L81857 24767
" />
<path d="M82138 24767
L82138 24176
" />
<path d="M82392 24767
L82392 24457
L82363 24401
L82307 24373
L82223 24373
L82167 24401
L82138 24429
" />
<path d="M82616 24373
L82926 24373
L82616 24767
L82926 24767
" />
<path d="M83010 24823
L83460 24823
" />
<path d="M83713 24176
L83826 24176
L83882 24204
L83938 24260
L83966 24373
L83966 24570
L83938 24682
L83882 24739
L83826 24767
L83713 24767
L83657 24739
L83601 24682
L83573 24570
L83573 24373
L83601 24260
L83657 24204
L83713 24176
" />
<path d="M84219 24767
L84219 24176
L84444 24176
L84501 24204
L84529 24232
L84557 24289
L84557 24373
L84529 24429
L84501 24457
L84444 24485
L84219 24485
" />
<path d="M84810 24457
L85007 24457
" />
<path d="M85091 24767
L84810 24767
L84810 24176
L85091 24176
" />
<path d="M85344 24767
L85344 24176
L85682 24767
L85682 24176
" />
<path d="M85963 24542
L86413 24542
" />
<path d="M86666 24739
L86750 24767
L86891 24767
L86947 24739
L86975 24710
L87003 24654
L87003 24598
L86975 24542
L86947 24514
L86891 24485
L86778 24457
L86722 24429
L86694 24401
L86666 24345
L86666 24289
L86694 24232
L86722 24204
L86778 24176
L86919 24176
L87003 24204
" />
<path d="M87257 24767
L87257 24176
L87453 24598
L87650 24176
L87650 24767
" />
<path d="M87903 24598
L88185 24598
" />
<path d="M87847 24767
L88044 24176
L88241 24767
" />
<path d="M88775 24767
L88578 24485
" />
<path d="M88438 24767
L88438 24176
L88663 24176
L88719 24204
L88747 24232
L88775 24289
L88775 24373
L88747 24429
L88719 24457
L88663 24485
L88438 24485
" />
<path d="M88944 24176
L89281 24176
" />
<path d="M89113 24767
L89113 24176
" />
<path d="M74367 40299
L74685 40299
L74723 40281
L74742 40262
L74760 40224
L74760 40149
L74742 40112
L74723 40093
L74685 40074
L74367 40074
" />
<path d="M74498 39718
L74760 39718
" />
<path d="M74348 39812
L74629 39906
L74629 39662
" />
<path d="M74367 31799
L74685 31799
L74723 31781
L74742 31762
L74760 31724
L74760 31649
L74742 31612
L74723 31593
L74685 31574
L74367 31574
" />
<path d="M74367 31200
L74367 31387
L74554 31406
L74535 31387
L74517 31350
L74517 31256
L74535 31218
L74554 31200
L74592 31181
L74685 31181
L74723 31200
L74742 31218
L74760 31256
L74760 31350
L74742 31387
L74723 31406
" />
</g> 
</svg>
