<?xml version="1.0" encoding="utf-8"?>
<!-- Generator: Adobe Illustrator 20.1.0, SVG Export Plug-In . SVG Version: 6.00 Build 0)  -->
<svg version="1.0" id="Calque_1" xmlns="http://www.w3.org/2000/svg" xmlns:xlink="http://www.w3.org/1999/xlink" x="0px" y="0px"
	 viewBox="0 0 1172.2 841.9" style="enable-background:new 0 0 1172.2 841.9;" xml:space="preserve">
<style type="text/css">
	.st0{fill:none;stroke:#FF0B00;stroke-width:0.1;stroke-miterlimit:10;}
	.st1{fill:none;stroke:#010101;stroke-miterlimit:10;}
	.st2{fill:#010101;}
</style>
<g>
	<path class="st0" d="M547.5,732H174.8c-15.6,0-28.3-12.8-28.3-28.3V145.2c0-15.6,12.8-28.3,28.3-28.3h372.8
		c15.6,0,28.3,12.8,28.3,28.3v558.4C575.9,719.3,563.1,732,547.5,732z"/>
	<path class="st1" d="M222.4,257.6h-34.6c-6.6,0-12-5.4-12-12v-73.6c0-6.6,5.4-12,12-12h34.6c6.6,0,12,5.4,12,12v73.6
		C234.4,252.2,229,257.6,222.4,257.6z"/>
	<path class="st2" d="M175.9,208.9v36.6c0,6.7,5.5,12.2,12.2,12.2h34.2c6.7,0,12.2-5.5,12.2-12.2v-36.6H175.9z"/>
	<g>
		<path class="st2" d="M201.2,174c-0.5,0-1.1,0-1.7,0.1c-3.6,0.6-5.5,3.2-5.9,6h0.1c0.8-1.1,2.2-2,4.1-2c3,0,5.1,2.2,5.1,5.5
			c0,3.1-2.1,6-5.6,6c-3.6,0-6-2.8-6-7.2c0-3.3,1.2-6,2.9-7.7c1.4-1.4,3.3-2.2,5.4-2.5c0.7-0.1,1.3-0.1,1.7-0.1V174z M200.5,183.8
			c0-2.4-1.4-3.9-3.5-3.9c-1.4,0-2.7,0.9-3.3,2.1c-0.2,0.3-0.3,0.6-0.3,1c0.1,2.8,1.3,4.9,3.7,4.9
			C199.2,187.9,200.5,186.2,200.5,183.8z"/>
		<path class="st2" d="M208.5,183.8l-1.8,5.5h-2.4l6-17.6h2.7l6,17.6h-2.4l-1.9-5.5H208.5z M214.3,182.1l-1.7-5.1
			c-0.4-1.2-0.7-2.2-0.9-3.2h-0.1c-0.3,1-0.5,2.1-0.9,3.2l-1.7,5.1H214.3z"/>
	</g>
	<circle class="st0" cx="205.2" cy="208.9" r="8.5"/>
	<circle class="st0" cx="205.2" cy="257.6" r="6.8"/>
	<path class="st1" d="M300.4,257.6h-34.6c-6.6,0-12-5.4-12-12v-73.6c0-6.6,5.4-12,12-12h34.6c6.6,0,12,5.4,12,12v73.6
		C312.4,252.2,307,257.6,300.4,257.6z"/>
	<path class="st2" d="M253.9,208.9v36.6c0,6.7,5.5,12.2,12.2,12.2h34.2c6.7,0,12.2-5.5,12.2-12.2v-36.6H253.9z"/>
	<g>
		<path class="st2" d="M279.2,174c-0.5,0-1.1,0-1.7,0.1c-3.6,0.6-5.5,3.2-5.9,6h0.1c0.8-1.1,2.2-2,4.1-2c3,0,5.1,2.2,5.1,5.5
			c0,3.1-2.1,6-5.6,6c-3.6,0-6-2.8-6-7.2c0-3.3,1.2-6,2.9-7.7c1.4-1.4,3.3-2.2,5.4-2.5c0.7-0.1,1.3-0.1,1.7-0.1V174z M278.5,183.8
			c0-2.4-1.4-3.9-3.5-3.9c-1.4,0-2.7,0.9-3.3,2.1c-0.2,0.3-0.3,0.6-0.3,1c0.1,2.8,1.3,4.9,3.7,4.9
			C277.2,187.9,278.5,186.2,278.5,183.8z"/>
		<path class="st2" d="M283.7,172c1-0.2,2.6-0.4,4.2-0.4c2.3,0,3.7,0.4,4.8,1.3c0.9,0.7,1.5,1.7,1.5,3.1c0,1.7-1.1,3.2-3,3.9v0.1
			c1.7,0.4,3.6,1.8,3.6,4.4c0,1.5-0.6,2.7-1.5,3.5c-1.2,1.1-3.2,1.6-6.1,1.6c-1.6,0-2.8-0.1-3.5-0.2V172z M286,179.2h2.1
			c2.4,0,3.8-1.3,3.8-3c0-2.1-1.6-2.9-3.9-2.9c-1,0-1.6,0.1-2,0.2V179.2z M286,187.6c0.4,0.1,1.1,0.1,1.9,0.1c2.4,0,4.5-0.9,4.5-3.4
			c0-2.4-2.1-3.4-4.6-3.4H286V187.6z"/>
	</g>
	<circle class="st0" cx="283.2" cy="208.9" r="8.5"/>
	<circle class="st0" cx="283.2" cy="257.6" r="6.8"/>
	<path class="st1" d="M378.4,257.6h-34.6c-6.6,0-12-5.4-12-12v-73.6c0-6.6,5.4-12,12-12h34.6c6.6,0,12,5.4,12,12v73.6
		C390.4,252.2,385,257.6,378.4,257.6z"/>
	<path class="st2" d="M331.9,208.9v36.6c0,6.7,5.5,12.2,12.2,12.2h34.2c6.7,0,12.2-5.5,12.2-12.2v-36.6H331.9z"/>
	<g>
		<path class="st2" d="M357.2,174c-0.5,0-1.1,0-1.7,0.1c-3.6,0.6-5.5,3.2-5.9,6h0.1c0.8-1.1,2.2-2,4.1-2c3,0,5.1,2.2,5.1,5.5
			c0,3.1-2.1,6-5.6,6c-3.6,0-6-2.8-6-7.2c0-3.3,1.2-6,2.9-7.7c1.4-1.4,3.3-2.2,5.4-2.5c0.7-0.1,1.3-0.1,1.7-0.1V174z M356.5,183.8
			c0-2.4-1.4-3.9-3.5-3.9c-1.4,0-2.7,0.9-3.3,2.1c-0.2,0.3-0.3,0.6-0.3,1c0.1,2.8,1.3,4.9,3.7,4.9
			C355.2,187.9,356.5,186.2,356.5,183.8z"/>
		<path class="st2" d="M374,188.8c-0.8,0.4-2.5,0.8-4.7,0.8c-5,0-8.7-3.1-8.7-8.9c0-5.5,3.7-9.3,9.2-9.3c2.2,0,3.6,0.5,4.2,0.8
			l-0.5,1.9c-0.9-0.4-2.1-0.7-3.6-0.7c-4.1,0-6.9,2.6-6.9,7.3c0,4.3,2.5,7.1,6.8,7.1c1.4,0,2.8-0.3,3.7-0.7L374,188.8z"/>
	</g>
	<circle class="st0" cx="361.2" cy="208.9" r="8.5"/>
	<circle class="st0" cx="361.2" cy="257.6" r="6.8"/>
	<path class="st1" d="M456.4,257.6h-34.6c-6.6,0-12-5.4-12-12v-73.6c0-6.6,5.4-12,12-12h34.6c6.6,0,12,5.4,12,12v73.6
		C468.4,252.2,463,257.6,456.4,257.6z"/>
	<path class="st2" d="M409.9,208.9v36.6c0,6.7,5.5,12.2,12.2,12.2h34.2c6.7,0,12.2-5.5,12.2-12.2v-36.6H409.9z"/>
	<g>
		<path class="st2" d="M435.2,174c-0.5,0-1.1,0-1.7,0.1c-3.6,0.6-5.5,3.2-5.9,6h0.1c0.8-1.1,2.2-2,4.1-2c3,0,5.1,2.2,5.1,5.5
			c0,3.1-2.1,6-5.6,6c-3.6,0-6-2.8-6-7.2c0-3.3,1.2-6,2.9-7.7c1.4-1.4,3.3-2.2,5.4-2.5c0.7-0.1,1.3-0.1,1.7-0.1V174z M434.5,183.8
			c0-2.4-1.4-3.9-3.5-3.9c-1.4,0-2.7,0.9-3.3,2.1c-0.2,0.3-0.3,0.6-0.3,1c0.1,2.8,1.3,4.9,3.7,4.9
			C433.2,187.9,434.5,186.2,434.5,183.8z"/>
		<path class="st2" d="M439.7,172c1.4-0.2,3-0.4,4.8-0.4c3.3,0,5.6,0.8,7.1,2.2c1.6,1.4,2.5,3.5,2.5,6.3c0,2.9-0.9,5.2-2.5,6.9
			c-1.6,1.6-4.4,2.5-7.8,2.5c-1.6,0-3-0.1-4.1-0.2V172z M442,187.6c0.6,0.1,1.4,0.1,2.3,0.1c4.9,0,7.5-2.7,7.5-7.5
			c0-4.2-2.3-6.8-7.1-6.8c-1.2,0-2.1,0.1-2.7,0.2V187.6z"/>
	</g>
	<circle class="st0" cx="439.2" cy="208.9" r="8.5"/>
	<circle class="st0" cx="439.2" cy="257.6" r="6.8"/>
	<path class="st1" d="M534.4,257.6h-34.6c-6.6,0-12-5.4-12-12v-73.6c0-6.6,5.4-12,12-12h34.6c6.6,0,12,5.4,12,12v73.6
		C546.4,252.2,541,257.6,534.4,257.6z"/>
	<path class="st2" d="M487.9,208.9v36.6c0,6.7,5.5,12.2,12.2,12.2h34.2c6.7,0,12.2-5.5,12.2-12.2v-36.6H487.9z"/>
	<g>
		<path class="st2" d="M513.2,174c-0.5,0-1.1,0-1.7,0.1c-3.6,0.6-5.5,3.2-5.9,6h0.1c0.8-1.1,2.2-2,4.1-2c3,0,5.1,2.2,5.1,5.5
			c0,3.1-2.1,6-5.6,6c-3.6,0-6-2.8-6-7.2c0-3.3,1.2-6,2.9-7.7c1.4-1.4,3.3-2.2,5.4-2.5c0.7-0.1,1.3-0.1,1.7-0.1V174z M512.5,183.8
			c0-2.4-1.4-3.9-3.5-3.9c-1.4,0-2.7,0.9-3.3,2.1c-0.2,0.3-0.3,0.6-0.3,1c0.1,2.8,1.3,4.9,3.7,4.9
			C511.2,187.9,512.5,186.2,512.5,183.8z"/>
		<path class="st2" d="M526.8,181.1H520v6.4h7.6v1.9h-9.9v-17.6h9.5v1.9H520v5.6h6.9V181.1z"/>
	</g>
	<circle class="st0" cx="517.2" cy="208.9" r="8.5"/>
	<circle class="st0" cx="517.2" cy="257.6" r="6.8"/>
	<path class="st1" d="M222.4,400.7h-34.6c-6.6,0-12-5.4-12-12v-73.6c0-6.6,5.4-12,12-12h34.6c6.6,0,12,5.4,12,12v73.6
		C234.4,395.3,229,400.7,222.4,400.7z"/>
	<path class="st2" d="M175.9,351.9v36.6c0,6.7,5.5,12.2,12.2,12.2h34.2c6.7,0,12.2-5.5,12.2-12.2v-36.6H175.9z"/>
	<g>
		<path class="st2" d="M201.6,317.3h-6.5l-0.7,4.4c0.4-0.1,0.8-0.1,1.4-0.1c1.3,0,2.6,0.3,3.7,0.9c1.3,0.8,2.4,2.2,2.4,4.4
			c0,3.3-2.6,5.8-6.3,5.8c-1.9,0-3.4-0.5-4.2-1l0.6-1.8c0.7,0.4,2.1,0.9,3.6,0.9c2.2,0,4-1.4,4-3.7c0-2.2-1.5-3.8-4.9-3.8
			c-1,0-1.7,0.1-2.4,0.2l1.1-8.2h8.1V317.3z"/>
		<path class="st2" d="M208.5,326.8l-1.8,5.5h-2.4l6-17.6h2.7l6,17.6h-2.4l-1.9-5.5H208.5z M214.3,325.1l-1.7-5.1
			c-0.4-1.2-0.7-2.2-0.9-3.2h-0.1c-0.3,1-0.5,2.1-0.9,3.2l-1.7,5.1H214.3z"/>
	</g>
	<circle class="st0" cx="205.2" cy="351.9" r="8.5"/>
	<circle class="st0" cx="205.2" cy="400.7" r="6.8"/>
	<path class="st1" d="M300.4,400.7h-34.6c-6.6,0-12-5.4-12-12v-73.6c0-6.6,5.4-12,12-12h34.6c6.6,0,12,5.4,12,12v73.6
		C312.4,395.3,307,400.7,300.4,400.7z"/>
	<path class="st2" d="M253.9,351.9v36.6c0,6.7,5.5,12.2,12.2,12.2h34.2c6.7,0,12.2-5.5,12.2-12.2v-36.6H253.9z"/>
	<g>
		<path class="st2" d="M279.6,317.3h-6.5l-0.7,4.4c0.4-0.1,0.8-0.1,1.4-0.1c1.3,0,2.6,0.3,3.7,0.9c1.3,0.8,2.4,2.2,2.4,4.4
			c0,3.3-2.6,5.8-6.3,5.8c-1.9,0-3.4-0.5-4.2-1l0.6-1.8c0.7,0.4,2.1,0.9,3.6,0.9c2.2,0,4-1.4,4-3.7c0-2.2-1.5-3.8-4.9-3.8
			c-1,0-1.7,0.1-2.4,0.2l1.1-8.2h8.1V317.3z"/>
		<path class="st2" d="M283.7,315c1-0.2,2.6-0.4,4.2-0.4c2.3,0,3.7,0.4,4.8,1.3c0.9,0.7,1.5,1.7,1.5,3.1c0,1.7-1.1,3.2-3,3.9v0.1
			c1.7,0.4,3.6,1.8,3.6,4.4c0,1.5-0.6,2.7-1.5,3.5c-1.2,1.1-3.2,1.6-6.1,1.6c-1.6,0-2.8-0.1-3.5-0.2V315z M286,322.2h2.1
			c2.4,0,3.8-1.3,3.8-3c0-2.1-1.6-2.9-3.9-2.9c-1,0-1.6,0.1-2,0.2V322.2z M286,330.7c0.4,0.1,1.1,0.1,1.9,0.1c2.4,0,4.5-0.9,4.5-3.4
			c0-2.4-2.1-3.4-4.6-3.4H286V330.7z"/>
	</g>
	<circle class="st0" cx="283.2" cy="351.9" r="8.5"/>
	<circle class="st0" cx="283.2" cy="400.7" r="6.8"/>
	<path class="st1" d="M378.4,400.7h-34.6c-6.6,0-12-5.4-12-12v-73.6c0-6.6,5.4-12,12-12h34.6c6.6,0,12,5.4,12,12v73.6
		C390.4,395.3,385,400.7,378.4,400.7z"/>
	<path class="st2" d="M331.9,351.9v36.6c0,6.7,5.5,12.2,12.2,12.2h34.2c6.7,0,12.2-5.5,12.2-12.2v-36.6H331.9z"/>
	<g>
		<path class="st2" d="M357.6,317.3h-6.5l-0.7,4.4c0.4-0.1,0.8-0.1,1.4-0.1c1.3,0,2.6,0.3,3.7,0.9c1.3,0.8,2.4,2.2,2.4,4.4
			c0,3.3-2.6,5.8-6.3,5.8c-1.9,0-3.4-0.5-4.2-1l0.6-1.8c0.7,0.4,2.1,0.9,3.6,0.9c2.2,0,4-1.4,4-3.7c0-2.2-1.5-3.8-4.9-3.8
			c-1,0-1.7,0.1-2.4,0.2l1.1-8.2h8.1V317.3z"/>
		<path class="st2" d="M374,331.8c-0.8,0.4-2.5,0.8-4.7,0.8c-5,0-8.7-3.1-8.7-8.9c0-5.5,3.7-9.3,9.2-9.3c2.2,0,3.6,0.5,4.2,0.8
			l-0.5,1.9c-0.9-0.4-2.1-0.7-3.6-0.7c-4.1,0-6.9,2.6-6.9,7.3c0,4.3,2.5,7.1,6.8,7.1c1.4,0,2.8-0.3,3.7-0.7L374,331.8z"/>
	</g>
	<circle class="st0" cx="361.2" cy="351.9" r="8.5"/>
	<circle class="st0" cx="361.2" cy="400.7" r="6.8"/>
	<path class="st1" d="M456.4,400.7h-34.6c-6.6,0-12-5.4-12-12v-73.6c0-6.6,5.4-12,12-12h34.6c6.6,0,12,5.4,12,12v73.6
		C468.4,395.3,463,400.7,456.4,400.7z"/>
	<path class="st2" d="M409.9,351.9v36.6c0,6.7,5.5,12.2,12.2,12.2h34.2c6.7,0,12.2-5.5,12.2-12.2v-36.6H409.9z"/>
	<g>
		<path class="st2" d="M435.6,317.3h-6.5l-0.7,4.4c0.4-0.1,0.8-0.1,1.4-0.1c1.3,0,2.6,0.3,3.7,0.9c1.3,0.8,2.4,2.2,2.4,4.4
			c0,3.3-2.6,5.8-6.3,5.8c-1.9,0-3.4-0.5-4.2-1l0.6-1.8c0.7,0.4,2.1,0.9,3.6,0.9c2.2,0,4-1.4,4-3.7c0-2.2-1.5-3.8-4.9-3.8
			c-1,0-1.7,0.1-2.4,0.2l1.1-8.2h8.1V317.3z"/>
		<path class="st2" d="M439.7,315c1.4-0.2,3-0.4,4.8-0.4c3.3,0,5.6,0.8,7.1,2.2c1.6,1.4,2.5,3.5,2.5,6.3c0,2.9-0.9,5.2-2.5,6.9
			c-1.6,1.6-4.4,2.5-7.8,2.5c-1.6,0-3-0.1-4.1-0.2V315z M442,330.6c0.6,0.1,1.4,0.1,2.3,0.1c4.9,0,7.5-2.7,7.5-7.5
			c0-4.2-2.3-6.8-7.1-6.8c-1.2,0-2.1,0.1-2.7,0.2V330.6z"/>
	</g>
	<circle class="st0" cx="439.2" cy="351.9" r="8.5"/>
	<circle class="st0" cx="439.2" cy="400.7" r="6.8"/>
	<path class="st1" d="M534.4,400.7h-34.6c-6.6,0-12-5.4-12-12v-73.6c0-6.6,5.4-12,12-12h34.6c6.6,0,12,5.4,12,12v73.6
		C546.4,395.3,541,400.7,534.4,400.7z"/>
	<path class="st2" d="M487.9,351.9v36.6c0,6.7,5.5,12.2,12.2,12.2h34.2c6.7,0,12.2-5.5,12.2-12.2v-36.6H487.9z"/>
	<g>
		<path class="st2" d="M513.6,317.3h-6.5l-0.7,4.4c0.4-0.1,0.8-0.1,1.4-0.1c1.3,0,2.6,0.3,3.7,0.9c1.3,0.8,2.4,2.2,2.4,4.4
			c0,3.3-2.6,5.8-6.3,5.8c-1.9,0-3.4-0.5-4.2-1l0.6-1.8c0.7,0.4,2.1,0.9,3.6,0.9c2.2,0,4-1.4,4-3.7c0-2.2-1.5-3.8-4.9-3.8
			c-1,0-1.7,0.1-2.4,0.2l1.1-8.2h8.1V317.3z"/>
		<path class="st2" d="M526.8,324.1H520v6.4h7.6v1.9h-9.9v-17.6h9.5v1.9H520v5.6h6.9V324.1z"/>
	</g>
	<circle class="st0" cx="517.2" cy="351.9" r="8.5"/>
	<circle class="st0" cx="517.2" cy="400.7" r="6.8"/>
	<path class="st1" d="M222.4,543.7h-34.6c-6.6,0-12-5.4-12-12v-73.6c0-6.6,5.4-12,12-12h34.6c6.6,0,12,5.4,12,12v73.6
		C234.4,538.3,229,543.7,222.4,543.7z"/>
	<path class="st2" d="M175.9,494.9v36.6c0,6.7,5.5,12.2,12.2,12.2h34.2c6.7,0,12.2-5.5,12.2-12.2v-36.6H175.9z"/>
	<g>
		<path class="st2" d="M198.6,475.4v-4.6h-7.9v-1.5l7.6-10.9h2.5v10.6h2.4v1.8h-2.4v4.6H198.6z M198.6,468.9v-5.7
			c0-0.9,0-1.8,0.1-2.7h-0.1c-0.5,1-0.9,1.7-1.4,2.5l-4.2,5.8v0.1H198.6z"/>
		<path class="st2" d="M208.5,469.8l-1.8,5.5h-2.4l6-17.6h2.7l6,17.6h-2.4l-1.9-5.5H208.5z M214.3,468.1l-1.7-5.1
			c-0.4-1.2-0.7-2.2-0.9-3.2h-0.1c-0.3,1-0.5,2.1-0.9,3.2l-1.7,5.1H214.3z"/>
	</g>
	<circle class="st0" cx="205.2" cy="494.9" r="8.5"/>
	<circle class="st0" cx="205.2" cy="543.7" r="6.8"/>
	<path class="st1" d="M300.4,543.7h-34.6c-6.6,0-12-5.4-12-12v-73.6c0-6.6,5.4-12,12-12h34.6c6.6,0,12,5.4,12,12v73.6
		C312.4,538.3,307,543.7,300.4,543.7z"/>
	<path class="st2" d="M253.9,494.9v36.6c0,6.7,5.5,12.2,12.2,12.2h34.2c6.7,0,12.2-5.5,12.2-12.2v-36.6H253.9z"/>
	<g>
		<path class="st2" d="M276.6,475.4v-4.6h-7.9v-1.5l7.6-10.9h2.5v10.6h2.4v1.8h-2.4v4.6H276.6z M276.6,468.9v-5.7
			c0-0.9,0-1.8,0.1-2.7h-0.1c-0.5,1-0.9,1.7-1.4,2.5l-4.2,5.8v0.1H276.6z"/>
		<path class="st2" d="M283.7,458c1-0.2,2.6-0.4,4.2-0.4c2.3,0,3.7,0.4,4.8,1.3c0.9,0.7,1.5,1.7,1.5,3.1c0,1.7-1.1,3.2-3,3.9v0.1
			c1.7,0.4,3.6,1.8,3.6,4.4c0,1.5-0.6,2.7-1.5,3.5c-1.2,1.1-3.2,1.6-6.1,1.6c-1.6,0-2.8-0.1-3.5-0.2V458z M286,465.2h2.1
			c2.4,0,3.8-1.3,3.8-3c0-2.1-1.6-2.9-3.9-2.9c-1,0-1.6,0.1-2,0.2V465.2z M286,473.7c0.4,0.1,1.1,0.1,1.9,0.1c2.4,0,4.5-0.9,4.5-3.4
			c0-2.4-2.1-3.4-4.6-3.4H286V473.7z"/>
	</g>
	<circle class="st0" cx="283.2" cy="494.9" r="8.5"/>
	<circle class="st0" cx="283.2" cy="543.7" r="6.8"/>
	<path class="st1" d="M378.4,543.7h-34.6c-6.6,0-12-5.4-12-12v-73.6c0-6.6,5.4-12,12-12h34.6c6.6,0,12,5.4,12,12v73.6
		C390.4,538.3,385,543.7,378.4,543.7z"/>
	<path class="st2" d="M331.9,494.9v36.6c0,6.7,5.5,12.2,12.2,12.2h34.2c6.7,0,12.2-5.5,12.2-12.2v-36.6H331.9z"/>
	<g>
		<path class="st2" d="M354.6,475.4v-4.6h-7.9v-1.5l7.6-10.9h2.5v10.6h2.4v1.8h-2.4v4.6H354.6z M354.6,468.9v-5.7
			c0-0.9,0-1.8,0.1-2.7h-0.1c-0.5,1-0.9,1.7-1.4,2.5l-4.2,5.8v0.1H354.6z"/>
		<path class="st2" d="M374,474.8c-0.8,0.4-2.5,0.8-4.7,0.8c-5,0-8.7-3.1-8.7-8.9c0-5.5,3.7-9.3,9.2-9.3c2.2,0,3.6,0.5,4.2,0.8
			l-0.5,1.9c-0.9-0.4-2.1-0.7-3.6-0.7c-4.1,0-6.9,2.6-6.9,7.3c0,4.3,2.5,7.1,6.8,7.1c1.4,0,2.8-0.3,3.7-0.7L374,474.8z"/>
	</g>
	<circle class="st0" cx="361.2" cy="494.9" r="8.5"/>
	<circle class="st0" cx="361.2" cy="543.7" r="6.8"/>
	<path class="st1" d="M456.4,543.7h-34.6c-6.6,0-12-5.4-12-12v-73.6c0-6.6,5.4-12,12-12h34.6c6.6,0,12,5.4,12,12v73.6
		C468.4,538.3,463,543.7,456.4,543.7z"/>
	<path class="st2" d="M409.9,494.9v36.6c0,6.7,5.5,12.2,12.2,12.2h34.2c6.7,0,12.2-5.5,12.2-12.2v-36.6H409.9z"/>
	<g>
		<path class="st2" d="M432.6,475.4v-4.6h-7.9v-1.5l7.6-10.9h2.5v10.6h2.4v1.8h-2.4v4.6H432.6z M432.6,468.9v-5.7
			c0-0.9,0-1.8,0.1-2.7h-0.1c-0.5,1-0.9,1.7-1.4,2.5l-4.2,5.8v0.1H432.6z"/>
		<path class="st2" d="M439.7,458c1.4-0.2,3-0.4,4.8-0.4c3.3,0,5.6,0.8,7.1,2.2c1.6,1.4,2.5,3.5,2.5,6.3c0,2.9-0.9,5.2-2.5,6.9
			c-1.6,1.6-4.4,2.5-7.8,2.5c-1.6,0-3-0.1-4.1-0.2V458z M442,473.6c0.6,0.1,1.4,0.1,2.3,0.1c4.9,0,7.5-2.7,7.5-7.5
			c0-4.2-2.3-6.8-7.1-6.8c-1.2,0-2.1,0.1-2.7,0.2V473.6z"/>
	</g>
	<circle class="st0" cx="439.2" cy="494.9" r="8.5"/>
	<circle class="st0" cx="439.2" cy="543.7" r="6.8"/>
	<path class="st1" d="M534.4,543.7h-34.6c-6.6,0-12-5.4-12-12v-73.6c0-6.6,5.4-12,12-12h34.6c6.6,0,12,5.4,12,12v73.6
		C546.4,538.3,541,543.7,534.4,543.7z"/>
	<path class="st2" d="M487.9,494.9v36.6c0,6.7,5.5,12.2,12.2,12.2h34.2c6.7,0,12.2-5.5,12.2-12.2v-36.6H487.9z"/>
	<g>
		<path class="st2" d="M510.6,475.4v-4.6h-7.9v-1.5l7.6-10.9h2.5v10.6h2.4v1.8h-2.4v4.6H510.6z M510.6,468.9v-5.7
			c0-0.9,0-1.8,0.1-2.7h-0.1c-0.5,1-0.9,1.7-1.4,2.5l-4.2,5.8v0.1H510.6z"/>
		<path class="st2" d="M526.8,467.1H520v6.4h7.6v1.9h-9.9v-17.6h9.5v1.9H520v5.6h6.9V467.1z"/>
	</g>
	<circle class="st0" cx="517.2" cy="494.9" r="8.5"/>
	<circle class="st0" cx="517.2" cy="543.7" r="6.8"/>
	<path class="st1" d="M222.4,686.7h-34.6c-6.6,0-12-5.4-12-12v-73.6c0-6.6,5.4-12,12-12h34.6c6.6,0,12,5.4,12,12v73.6
		C234.4,681.3,229,686.7,222.4,686.7z"/>
	<path class="st2" d="M175.9,637.9v36.6c0,6.7,5.5,12.2,12.2,12.2h34.2c6.7,0,12.2-5.5,12.2-12.2v-36.6H175.9z"/>
	<g>
		<path class="st2" d="M192,615.7c0.7,0.4,2.2,1.1,3.8,1.1c3,0,3.9-1.9,3.8-3.3c0-2.4-2.2-3.4-4.4-3.4h-1.3v-1.7h1.3
			c1.7,0,3.8-0.9,3.8-2.9c0-1.4-0.9-2.6-3-2.6c-1.4,0-2.7,0.6-3.4,1.1l-0.6-1.7c0.9-0.7,2.6-1.3,4.4-1.3c3.3,0,4.9,2,4.9,4.1
			c0,1.8-1,3.2-3.1,4v0.1c2.1,0.4,3.8,2,3.8,4.4c0,2.7-2.1,5.1-6.2,5.1c-1.9,0-3.6-0.6-4.4-1.2L192,615.7z"/>
		<path class="st2" d="M208.5,612.8l-1.8,5.5h-2.4l6-17.6h2.7l6,17.6h-2.4l-1.9-5.5H208.5z M214.3,611.1l-1.7-5.1
			c-0.4-1.2-0.7-2.2-0.9-3.2h-0.1c-0.3,1-0.5,2.1-0.9,3.2l-1.7,5.1H214.3z"/>
	</g>
	<circle class="st0" cx="205.2" cy="637.9" r="8.5"/>
	<circle class="st0" cx="205.2" cy="686.7" r="6.8"/>
	<path class="st1" d="M300.4,686.7h-34.6c-6.6,0-12-5.4-12-12v-73.6c0-6.6,5.4-12,12-12h34.6c6.6,0,12,5.4,12,12v73.6
		C312.4,681.3,307,686.7,300.4,686.7z"/>
	<path class="st2" d="M253.9,637.9v36.6c0,6.7,5.5,12.2,12.2,12.2h34.2c6.7,0,12.2-5.5,12.2-12.2v-36.6H253.9z"/>
	<g>
		<path class="st2" d="M270,615.7c0.7,0.4,2.2,1.1,3.8,1.1c3,0,3.9-1.9,3.8-3.3c0-2.4-2.2-3.4-4.4-3.4h-1.3v-1.7h1.3
			c1.7,0,3.8-0.9,3.8-2.9c0-1.4-0.9-2.6-3-2.6c-1.4,0-2.7,0.6-3.4,1.1l-0.6-1.7c0.9-0.7,2.6-1.3,4.4-1.3c3.3,0,4.9,2,4.9,4.1
			c0,1.8-1,3.2-3.1,4v0.1c2.1,0.4,3.8,2,3.8,4.4c0,2.7-2.1,5.1-6.2,5.1c-1.9,0-3.6-0.6-4.4-1.2L270,615.7z"/>
		<path class="st2" d="M283.7,601c1-0.2,2.6-0.4,4.2-0.4c2.3,0,3.7,0.4,4.8,1.3c0.9,0.7,1.5,1.7,1.5,3.1c0,1.7-1.1,3.2-3,3.9v0.1
			c1.7,0.4,3.6,1.8,3.6,4.4c0,1.5-0.6,2.7-1.5,3.5c-1.2,1.1-3.2,1.6-6.1,1.6c-1.6,0-2.8-0.1-3.5-0.2V601z M286,608.2h2.1
			c2.4,0,3.8-1.3,3.8-3c0-2.1-1.6-2.9-3.9-2.9c-1,0-1.6,0.1-2,0.2V608.2z M286,616.7c0.4,0.1,1.1,0.1,1.9,0.1c2.4,0,4.5-0.9,4.5-3.4
			c0-2.4-2.1-3.4-4.6-3.4H286V616.7z"/>
	</g>
	<circle class="st0" cx="283.2" cy="637.9" r="8.5"/>
	<circle class="st0" cx="283.2" cy="686.7" r="6.8"/>
	<path class="st1" d="M378.4,686.7h-34.6c-6.6,0-12-5.4-12-12v-73.6c0-6.6,5.4-12,12-12h34.6c6.6,0,12,5.4,12,12v73.6
		C390.4,681.3,385,686.7,378.4,686.7z"/>
	<path class="st2" d="M331.9,637.9v36.6c0,6.7,5.5,12.2,12.2,12.2h34.2c6.7,0,12.2-5.5,12.2-12.2v-36.6H331.9z"/>
	<g>
		<path class="st2" d="M348,615.7c0.7,0.4,2.2,1.1,3.8,1.1c3,0,3.9-1.9,3.8-3.3c0-2.4-2.2-3.4-4.4-3.4h-1.3v-1.7h1.3
			c1.7,0,3.8-0.9,3.8-2.9c0-1.4-0.9-2.6-3-2.6c-1.4,0-2.7,0.6-3.4,1.1l-0.6-1.7c0.9-0.7,2.6-1.3,4.4-1.3c3.3,0,4.9,2,4.9,4.1
			c0,1.8-1,3.2-3.1,4v0.1c2.1,0.4,3.8,2,3.8,4.4c0,2.7-2.1,5.1-6.2,5.1c-1.9,0-3.6-0.6-4.4-1.2L348,615.7z"/>
		<path class="st2" d="M374,617.8c-0.8,0.4-2.5,0.8-4.7,0.8c-5,0-8.7-3.1-8.7-8.9c0-5.5,3.7-9.3,9.2-9.3c2.2,0,3.6,0.5,4.2,0.8
			l-0.5,1.9c-0.9-0.4-2.1-0.7-3.6-0.7c-4.1,0-6.9,2.6-6.9,7.3c0,4.3,2.5,7.1,6.8,7.1c1.4,0,2.8-0.3,3.7-0.7L374,617.8z"/>
	</g>
	<circle class="st0" cx="361.2" cy="637.9" r="8.5"/>
	<circle class="st0" cx="361.2" cy="686.7" r="6.8"/>
	<path class="st1" d="M456.4,686.7h-34.6c-6.6,0-12-5.4-12-12v-73.6c0-6.6,5.4-12,12-12h34.6c6.6,0,12,5.4,12,12v73.6
		C468.4,681.3,463,686.7,456.4,686.7z"/>
	<path class="st2" d="M409.9,637.9v36.6c0,6.7,5.5,12.2,12.2,12.2h34.2c6.7,0,12.2-5.5,12.2-12.2v-36.6H409.9z"/>
	<g>
		<path class="st2" d="M426,615.7c0.7,0.4,2.2,1.1,3.8,1.1c3,0,3.9-1.9,3.8-3.3c0-2.4-2.2-3.4-4.4-3.4h-1.3v-1.7h1.3
			c1.7,0,3.8-0.9,3.8-2.9c0-1.4-0.9-2.6-3-2.6c-1.4,0-2.7,0.6-3.4,1.1l-0.6-1.7c0.9-0.7,2.6-1.3,4.4-1.3c3.3,0,4.9,2,4.9,4.1
			c0,1.8-1,3.2-3.1,4v0.1c2.1,0.4,3.8,2,3.8,4.4c0,2.7-2.1,5.1-6.2,5.1c-1.9,0-3.6-0.6-4.4-1.2L426,615.7z"/>
		<path class="st2" d="M439.7,601c1.4-0.2,3-0.4,4.8-0.4c3.3,0,5.6,0.8,7.1,2.2c1.6,1.4,2.5,3.5,2.5,6.3c0,2.9-0.9,5.2-2.5,6.9
			c-1.6,1.6-4.4,2.5-7.8,2.5c-1.6,0-3-0.1-4.1-0.2V601z M442,616.6c0.6,0.1,1.4,0.1,2.3,0.1c4.9,0,7.5-2.7,7.5-7.5
			c0-4.2-2.3-6.8-7.1-6.8c-1.2,0-2.1,0.1-2.7,0.2V616.6z"/>
	</g>
	<circle class="st0" cx="439.2" cy="637.9" r="8.5"/>
	<circle class="st0" cx="439.2" cy="686.7" r="6.8"/>
	<path class="st1" d="M534.4,686.7h-34.6c-6.6,0-12-5.4-12-12v-73.6c0-6.6,5.4-12,12-12h34.6c6.6,0,12,5.4,12,12v73.6
		C546.4,681.3,541,686.7,534.4,686.7z"/>
	<path class="st2" d="M487.9,637.9v36.6c0,6.7,5.5,12.2,12.2,12.2h34.2c6.7,0,12.2-5.5,12.2-12.2v-36.6H487.9z"/>
	<g>
		<path class="st2" d="M503.8,616.2c0.7,0.4,2.2,1.1,3.8,1.1c3,0,3.9-1.9,3.8-3.3c0-2.4-2.2-3.4-4.4-3.4h-1.3v-1.7h1.3
			c1.7,0,3.8-0.9,3.8-2.9c0-1.4-0.9-2.6-3-2.6c-1.4,0-2.7,0.6-3.4,1.1l-0.6-1.7c0.9-0.7,2.6-1.3,4.4-1.3c3.3,0,4.9,2,4.9,4.1
			c0,1.8-1,3.2-3.1,4v0.1c2.1,0.4,3.8,2,3.8,4.4c0,2.7-2.1,5.1-6.2,5.1c-1.9,0-3.6-0.6-4.4-1.2L503.8,616.2z"/>
		<path class="st2" d="M526.6,610.6h-6.9v6.4h7.6v1.9h-9.9v-17.6h9.5v1.9h-7.2v5.6h6.9V610.6z"/>
	</g>
	<circle class="st0" cx="517.2" cy="637.9" r="8.5"/>
	<circle class="st0" cx="517.2" cy="686.7" r="6.8"/>
</g>
<g>
	<path class="st0" d="M987.5,731.4H614.7c-15.6,0-28.3-12.8-28.3-28.3V144.7c0-15.6,12.8-28.3,28.3-28.3h372.8
		c15.6,0,28.3,12.8,28.3,28.3v558.4C1015.8,718.7,1003,731.4,987.5,731.4z"/>
	<path class="st0" d="M964.2,618.9H638c-9.4,0-17-7.7-17-17v-371c0-9.4,7.7-17,17-17h326.2c9.4,0,17,7.7,17,17v371
		C981.2,611.2,973.5,618.9,964.2,618.9z"/>
	<path class="st0" d="M688.7,169.1v-24.2c0-3-2.5-5.5-5.5-5.5h0c-3,0-5.5,2.5-5.5,5.5v24.2c-3.3,1.9-5.5,5.5-5.5,9.6
		c0,6.1,5,11.1,11.1,11.1c6.1,0,11.1-5,11.1-11.1C694.2,174.6,692,171,688.7,169.1z"/>
	<path class="st0" d="M913,169.1v-24.2c0-3-2.5-5.5-5.5-5.5h0c-3,0-5.5,2.5-5.5,5.5v24.2c-3.3,1.9-5.5,5.5-5.5,9.6
		c0,6.1,5,11.1,11.1,11.1c6.1,0,11.1-5,11.1-11.1C918.5,174.6,916.3,171,913,169.1z"/>
	<path class="st0" d="M803.4,684.4v-24.2c0-3-2.5-5.5-5.5-5.5h0c-3,0-5.5,2.5-5.5,5.5v24.2c-3.3,1.9-5.5,5.5-5.5,9.6
		c0,6.1,5,11.1,11.1,11.1c6.1,0,11.1-5,11.1-11.1C809,689.8,806.7,686.3,803.4,684.4z"/>
</g>
</svg>
